<svg width="500" height="404" viewBox="0 0 500 404" fill="none" xmlns="http://www.w3.org/2000/svg">
<path d="M109.901 73.9785C119.891 73.9785 127.989 65.8725 127.989 55.8733C127.989 45.874 119.891 37.7681 109.901 37.7681C99.9109 37.7681 91.8125 45.874 91.8125 55.8733C91.8125 65.8725 99.9109 73.9785 109.901 73.9785Z" fill="#D4DEFF"/>
<path d="M114.485 69.1702L113.094 66.0144C111.27 66.7817 109.15 67.0441 107.713 66.7439L107.542 64.3197C109.263 64.6007 111.029 64.3791 112.628 63.6815C114.85 62.7052 115.781 60.7636 114.996 58.9823C114.241 57.2631 112.552 56.7383 109.833 56.8184C106.098 56.9718 103.498 56.4025 102.3 53.6826C101.161 51.0895 102.136 48.3095 104.802 46.5659L103.414 43.4079L105.349 42.5562L106.682 45.5874C108.584 44.8224 110.084 44.7601 111.221 44.8913L111.35 47.2976C109.85 47.1115 108.327 47.3423 106.949 47.9648C104.544 49.0256 104.282 50.8559 104.822 52.1125C105.535 53.736 107.044 54.0384 110.261 53.9672C114.054 53.8627 116.392 54.7701 117.616 57.5523C118.702 60.0208 118.002 63.0899 115.021 65.0381L116.452 68.2895L114.485 69.1702Z" fill="white"/>
<path d="M325.733 185.616C326.756 189.094 326.726 192.798 325.647 196.258C324.567 199.719 322.487 202.782 319.668 205.059C316.85 207.336 313.42 208.725 309.812 209.051C306.205 209.377 302.582 208.625 299.402 206.889C296.221 205.154 293.627 202.514 291.945 199.303C290.264 196.091 289.572 192.453 289.957 188.848C290.342 185.243 291.786 181.833 294.107 179.05C296.428 176.267 299.522 174.235 302.996 173.211C307.655 171.839 312.667 172.375 316.931 174.701C321.195 177.028 324.361 180.954 325.733 185.616Z" fill="white"/>
<path d="M311.044 204.729L310.06 201.38C308.129 201.911 305.965 201.903 304.563 201.413L304.703 198.967C306.395 199.472 308.197 199.479 309.893 198.987C312.246 198.293 313.435 196.465 312.879 194.577C312.344 192.753 310.72 192.006 307.976 191.732C304.199 191.403 301.672 190.494 300.821 187.607C300.013 184.856 301.352 182.192 304.254 180.795L303.27 177.446L305.323 176.841L306.269 180.057C308.269 179.538 309.791 179.667 310.917 179.95L310.733 182.381C309.25 182.001 307.691 182.037 306.227 182.485C303.676 183.237 303.163 185.045 303.561 186.37C304.067 188.094 305.547 188.594 308.78 188.939C312.602 189.326 314.832 190.543 315.701 193.494C316.47 196.114 315.37 199.105 312.124 200.673L313.139 204.122L311.044 204.729Z" fill="#E3EAFF"/>
<path d="M284.677 228.952L262.571 244.638L193.055 293.963L185.856 299.069L191.336 306.873L221.733 350.167L274.89 312.373L301.95 293.133L302.27 292.909L305.012 257.913L284.677 228.952Z" fill="#3F964F"/>
<path d="M300.901 270.349L287.126 250.747C284.847 252.35 282.025 252.981 279.281 252.502C276.538 252.023 274.096 250.472 272.494 248.192L208.06 294.125C208.853 295.255 209.416 296.53 209.718 297.877C210.019 299.225 210.052 300.619 209.814 301.979C209.577 303.339 209.075 304.64 208.336 305.806C207.597 306.972 206.635 307.98 205.507 308.774L219.269 328.374C221.549 326.772 224.37 326.141 227.114 326.62C229.858 327.099 232.3 328.649 233.903 330.929L298.337 284.998C297.544 283.868 296.982 282.592 296.682 281.244C296.381 279.896 296.349 278.502 296.588 277.142C296.826 275.782 297.329 274.481 298.069 273.316C298.81 272.15 299.772 271.142 300.901 270.349Z" fill="#4EAD60"/>
<path d="M270.37 278.18C268.387 275.357 265.612 273.185 262.395 271.94C259.179 270.695 255.667 270.433 252.301 271.186C248.936 271.94 245.87 273.675 243.49 276.173C241.11 278.67 239.524 281.818 238.931 285.218C238.339 288.618 238.767 292.118 240.161 295.275C241.556 298.431 243.854 301.103 246.766 302.952C249.677 304.801 253.071 305.745 256.519 305.664C259.966 305.582 263.312 304.479 266.133 302.495C269.916 299.832 272.487 295.775 273.282 291.216C274.077 286.656 273.029 281.967 270.37 278.18Z" fill="#3F964F"/>
<path d="M305.011 257.913L285.33 276.75L301.95 293.134L302.23 293.409L302.27 292.909L305.011 257.913Z" fill="#3F964F"/>
<g style="mix-blend-mode:color-burn" opacity="0.2">
<path d="M295.009 298.017L285.33 276.75L301.95 293.134L295.009 298.017Z" fill="#193F1E"/>
</g>
<g style="mix-blend-mode:color-burn" opacity="0.2">
<path d="M305.011 257.913L285.33 276.75L303.661 255.993L305.011 257.913Z" fill="#193F1E"/>
</g>
<g style="mix-blend-mode:color-burn" opacity="0.2">
<path d="M262.579 244.638L193.056 293.963L191.336 306.862L221.734 350.156L274.89 312.382L272.175 302.088C271.148 298.198 264.261 296.479 255.537 297.464L262.579 244.638Z" fill="#193F1E"/>
</g>
<path d="M200.937 209.042L181.692 353.6L243.541 361.849L262.785 217.291L200.937 209.042Z" fill="#3F964F"/>
<path d="M242.346 225.185L218.621 222.021C218.253 224.784 216.803 227.288 214.59 228.982C212.378 230.676 209.584 231.42 206.822 231.052L193.12 333.921C194.488 334.104 195.807 334.554 197.001 335.247C198.195 335.94 199.241 336.862 200.079 337.96C200.917 339.057 201.53 340.31 201.885 341.645C202.239 342.98 202.327 344.372 202.143 345.741L225.871 348.906C226.239 346.142 227.688 343.638 229.901 341.945C232.114 340.251 234.908 339.506 237.669 339.874L251.371 236.99C248.611 236.622 246.11 235.171 244.417 232.958C242.725 230.744 241.98 227.948 242.346 225.185Z" fill="#4EAD60"/>
<path d="M240.462 289.538C242.377 280.092 236.279 270.879 226.841 268.963C217.402 267.046 208.199 273.15 206.284 282.597C204.369 292.044 210.467 301.256 219.906 303.173C229.344 305.089 238.547 298.985 240.462 289.538Z" fill="#3F964F"/>
<path d="M244.429 302.463L185.003 318.164L200.925 378.549L260.356 362.848L249.151 320.353C261.022 317.17 269.572 310.647 268.277 305.732C266.982 300.817 256.328 299.367 244.434 302.463H244.429Z" fill="#3F964F"/>
<path d="M201.42 323.424L212.619 365.911L279.421 348.27L268.221 305.783L201.42 323.424Z" fill="#4EAD60"/>
<path d="M245.01 349.932C252.229 345.25 254.29 335.597 249.612 328.371C244.935 321.145 235.291 319.083 228.072 323.765C220.852 328.447 218.792 338.1 223.469 345.326C228.147 352.552 237.791 354.614 245.01 349.932Z" fill="#3F964F"/>
<g style="mix-blend-mode:color-burn" opacity="0.2">
<path d="M244.43 302.463L238.342 304.071L254.264 364.456L281.838 357.172L268.284 305.732C266.989 300.82 256.335 299.367 244.441 302.463H244.43Z" fill="#193F1E"/>
</g>
<path d="M268.273 305.732C269.568 310.647 261.018 317.17 249.146 320.352L265.069 380.739C276.94 377.557 285.488 371.034 284.192 366.119L268.273 305.732Z" fill="#3F964F"/>
<path d="M271.146 316.629C271.719 318.802 270.257 321.233 267.571 323.121C268.366 326.475 266.513 329.824 263.369 330.654H263.354L271.406 361.184H271.419C274.307 360.421 277.294 362.045 278.507 364.876C281.231 362.983 282.728 360.53 282.144 358.342L271.146 316.629Z" fill="#4EAD60"/>
<path d="M197.585 401.44L110.156 401.496C106.877 401.498 103.63 400.854 100.6 399.6C97.5699 398.346 94.8163 396.507 92.4964 394.188C90.1764 391.869 88.3357 389.115 87.0791 386.084C85.8226 383.052 85.175 379.803 85.1733 376.521L85.0488 162.374C85.0424 155.747 87.6662 149.388 92.3434 144.696C97.0206 140.005 103.368 137.365 109.99 137.357L197.416 137.302C200.696 137.3 203.944 137.945 206.975 139.199C210.005 140.454 212.759 142.294 215.079 144.615C217.4 146.935 219.24 149.69 220.497 152.722C221.753 155.754 222.4 159.005 222.401 162.288L222.537 376.434C222.539 379.716 221.895 382.966 220.642 385.999C219.39 389.032 217.552 391.788 215.235 394.11C212.918 396.432 210.167 398.274 207.139 399.532C204.11 400.79 200.864 401.438 197.585 401.44Z" fill="#2E3192" stroke="#F2F2F2" stroke-miterlimit="10"/>
<path d="M198.486 397.159L109.25 397.217C106.944 397.219 104.66 396.766 102.528 395.884C100.397 395.002 98.4599 393.708 96.8283 392.076C95.1968 390.445 93.9024 388.507 93.0193 386.375C92.1362 384.242 91.6817 381.956 91.6817 379.648L91.544 160.811C91.5416 158.502 91.9939 156.215 92.875 154.082C93.7561 151.948 95.0486 150.009 96.6788 148.376C98.309 146.742 100.245 145.447 102.376 144.563C104.506 143.679 106.79 143.224 109.097 143.224L198.332 143.168C200.639 143.166 202.923 143.619 205.054 144.501C207.186 145.383 209.123 146.677 210.754 148.308C212.386 149.94 213.68 151.878 214.563 154.01C215.446 156.143 215.901 158.429 215.901 160.737L216.038 379.574C216.041 381.883 215.588 384.169 214.707 386.302C213.826 388.436 212.533 390.374 210.903 392.008C209.273 393.641 207.337 394.936 205.206 395.82C203.076 396.704 200.792 397.159 198.486 397.159Z" fill="#2E3192" stroke="#F2F2F2" stroke-miterlimit="10"/>
<path d="M84.2292 207.385C83.7175 207.385 83.2108 207.284 82.738 207.088C82.2652 206.893 81.8355 206.606 81.4736 206.244C81.1117 205.881 80.8246 205.452 80.6287 204.978C80.4328 204.505 80.332 203.998 80.332 203.486V183.268C80.332 182.756 80.4328 182.249 80.6287 181.776C80.8246 181.302 81.1117 180.873 81.4736 180.51C81.8355 180.148 82.2652 179.861 82.738 179.666C83.2108 179.47 83.7175 179.369 84.2292 179.369C85.2622 179.369 86.2529 179.78 86.9833 180.511C87.7138 181.242 88.1242 182.234 88.1242 183.268V203.486C88.1242 204.52 87.7138 205.512 86.9833 206.243C86.2529 206.974 85.2622 207.385 84.2292 207.385Z" fill="#2E3192" stroke="#F2F2F2" stroke-miterlimit="10"/>
<path d="M223.15 207.385C222.639 207.385 222.132 207.285 221.658 207.089C221.185 206.893 220.756 206.606 220.393 206.244C220.031 205.882 219.744 205.452 219.548 204.979C219.352 204.506 219.251 203.998 219.251 203.486V183.268C219.251 182.756 219.352 182.249 219.548 181.776C219.744 181.302 220.031 180.873 220.393 180.51C220.754 180.148 221.184 179.861 221.657 179.666C222.13 179.47 222.636 179.369 223.148 179.369C224.181 179.369 225.172 179.78 225.902 180.511C226.633 181.242 227.043 182.234 227.043 183.268V203.486C227.043 204.52 226.633 205.511 225.903 206.242C225.173 206.973 224.183 207.384 223.15 207.385Z" fill="#2E3192" stroke="#F2F2F2" stroke-miterlimit="10"/>
<path d="M434.183 401.44L346.756 401.496C343.477 401.498 340.23 400.854 337.2 399.6C334.17 398.346 331.416 396.507 329.096 394.188C326.776 391.869 324.935 389.115 323.678 386.084C322.421 383.052 321.773 379.803 321.771 376.521L321.636 162.374C321.633 159.092 322.276 155.84 323.528 152.806C324.78 149.772 326.618 147.015 328.935 144.691C331.252 142.368 334.004 140.525 337.033 139.266C340.063 138.008 343.31 137.359 346.59 137.357L434.017 137.302C440.639 137.3 446.99 139.932 451.674 144.618C456.358 149.303 458.99 155.659 458.993 162.288L459.128 376.434C459.133 383.061 456.507 389.418 451.829 394.107C447.151 398.797 440.804 401.434 434.183 401.44Z" fill="#2C2858"/>
<path d="M435.085 397.159L345.85 397.217C343.543 397.219 341.259 396.766 339.128 395.884C336.996 395.002 335.06 393.708 333.428 392.076C331.796 390.445 330.502 388.507 329.619 386.375C328.736 384.242 328.281 381.956 328.281 379.648L328.144 160.811C328.141 158.502 328.594 156.215 329.475 154.082C330.356 151.948 331.648 150.009 333.278 148.376C334.909 146.742 336.844 145.447 338.975 144.563C341.106 143.679 343.39 143.224 345.696 143.224L434.932 143.168C437.238 143.166 439.522 143.619 441.654 144.501C443.785 145.383 445.722 146.677 447.354 148.308C448.985 149.94 450.28 151.878 451.163 154.01C452.046 156.143 452.5 158.429 452.5 160.737L452.638 379.574C452.64 381.883 452.188 384.169 451.306 386.302C450.425 388.436 449.133 390.374 447.502 392.008C445.872 393.641 443.937 394.936 441.806 395.82C439.675 396.704 437.392 397.159 435.085 397.159Z" fill="#95A6DB"/>
<path d="M320.827 207.385C319.794 207.385 318.803 206.974 318.072 206.243C317.342 205.512 316.932 204.52 316.932 203.486V183.268C316.932 182.234 317.342 181.242 318.072 180.511C318.803 179.78 319.794 179.369 320.827 179.369C321.338 179.369 321.845 179.47 322.318 179.666C322.791 179.861 323.22 180.148 323.582 180.51C323.944 180.873 324.231 181.302 324.427 181.776C324.623 182.249 324.724 182.756 324.724 183.268V203.486C324.724 203.998 324.623 204.505 324.427 204.978C324.231 205.452 323.944 205.881 323.582 206.244C323.22 206.606 322.791 206.893 322.318 207.088C321.845 207.284 321.338 207.385 320.827 207.385Z" fill="#2C2858"/>
<path d="M459.751 207.385C459.239 207.385 458.732 207.284 458.259 207.088C457.787 206.893 457.357 206.606 456.995 206.244C456.633 205.881 456.346 205.452 456.15 204.978C455.954 204.505 455.854 203.998 455.854 203.486V183.268C455.854 182.756 455.954 182.249 456.15 181.776C456.346 181.302 456.633 180.873 456.995 180.51C457.357 180.148 457.787 179.861 458.259 179.666C458.732 179.47 459.239 179.369 459.751 179.369C460.784 179.369 461.774 179.78 462.505 180.511C463.235 181.242 463.646 182.234 463.646 183.268V203.486C463.646 204.52 463.235 205.512 462.505 206.243C461.774 206.974 460.784 207.385 459.751 207.385Z" fill="#2C2858"/>
<path d="M320.827 237.29C319.794 237.29 318.803 236.879 318.072 236.148C317.342 235.417 316.932 234.426 316.932 233.392V213.174C316.932 212.14 317.342 211.148 318.072 210.417C318.803 209.686 319.794 209.275 320.827 209.275C321.338 209.275 321.845 209.375 322.318 209.571C322.791 209.767 323.22 210.054 323.582 210.416C323.944 210.778 324.231 211.208 324.427 211.681C324.623 212.154 324.724 212.662 324.724 213.174V233.392C324.724 233.904 324.623 234.411 324.427 234.884C324.231 235.357 323.944 235.787 323.582 236.149C323.22 236.511 322.791 236.798 322.318 236.994C321.845 237.19 321.338 237.291 320.827 237.29Z" fill="#2C2858"/>
<path d="M44.0512 387.832C41.1138 400.179 30.6132 393.392 32.8107 401.191C32.8977 401.471 33.0704 401.716 33.3045 401.893C33.5385 402.069 33.822 402.168 34.1149 402.174L40.2806 402.41C40.8759 402.432 41.4625 402.262 41.9537 401.925C45.2066 399.701 47.4129 396.556 54.4385 396.176C54.3852 393.174 54.5207 388.886 53.5297 387.354L44.0512 387.832Z" fill="#0E6A41"/>
<path d="M60.2998 301.189C60.2998 301.189 42.3691 328.564 39.894 337.077C37.4188 345.59 42.5958 360.019 41.6581 389.097C47.264 390.554 54.7362 389.302 54.7362 389.302C54.7362 389.302 59.2333 352.829 53.943 344.218C61.8706 332.111 81.7787 305.684 81.7787 305.684L60.2998 301.189Z" fill="#201D40"/>
<path d="M70.2429 391.811C65.6814 398.038 54.292 394.35 54.7497 402.694C72.0116 402.421 79.1905 402.456 79.1905 402.456C79.1505 400.539 78.7639 395.994 78.3484 394.215L70.2429 391.811Z" fill="#0E6A41"/>
<path d="M64.8947 295.655C64.8947 295.655 59.1778 340.314 60.4976 349.077C61.8174 357.839 65.9057 364.709 66.0523 393.801C71.707 395.048 80.348 396.169 80.348 396.169C80.348 396.169 83.9918 361.08 76.4974 351.419C78.6215 337.103 88.7445 301.091 88.7445 301.091L64.8947 295.655Z" fill="#2C2858"/>
<path d="M35.6039 275.996L28.6316 268.172C28.5566 268.089 28.4653 268.021 28.3632 267.975C28.2611 267.928 28.1506 267.903 28.0384 267.901L22.2992 267.865C22.1348 267.865 21.6327 268.773 21.7393 268.893L26.6564 273.267C26.6794 273.292 26.7085 273.31 26.7408 273.321L35.1728 276.452C35.3528 276.508 35.7239 276.132 35.6039 275.996Z" fill="#C4204A"/>
<path d="M35.0707 276.518L28.4295 269.144C28.3545 269.06 28.2631 268.993 28.1611 268.946C28.059 268.9 27.9484 268.875 27.8362 268.872L21.9194 268.766C21.8826 268.765 21.8464 268.775 21.8153 268.794C21.7841 268.813 21.7594 268.842 21.7442 268.875C21.729 268.909 21.7241 268.946 21.7299 268.982C21.7358 269.019 21.7522 269.052 21.7772 269.079L26.4431 274.239C26.4662 274.264 26.4953 274.282 26.5275 274.292L34.8663 276.823C34.9062 276.84 34.9509 276.843 34.9925 276.83C35.0342 276.818 35.0702 276.791 35.0944 276.755C35.1186 276.719 35.1295 276.676 35.1252 276.633C35.1208 276.589 35.1016 276.549 35.0707 276.518Z" fill="#E62552"/>
<path d="M48.1931 283.248L43.3894 280.891C43.3894 280.891 38.6524 276.091 37.9458 275.02C36.8926 274.486 34.8996 273.142 34.4508 273.091C33.9936 273.078 33.5362 273.107 33.0843 273.178L35.3062 275.709C35.3062 275.709 34.2486 275.931 32.9021 275.064C31.5557 274.197 29.1738 271.908 28.014 272.355L27.5985 272.72C27.5985 272.72 26.863 271.933 26.1698 272.226C25.4766 272.52 26.8564 275.982 30.7713 279.654C31.0313 280.635 32.3267 282.352 32.3267 282.352L40.2455 285.136L48.1931 283.248Z" fill="#F37A50"/>
<path d="M27.3472 270.256C27.6294 270.538 28.0338 270.589 28.2515 270.371C28.4692 270.153 28.4181 269.749 28.136 269.468C27.8538 269.188 27.4494 269.135 27.2317 269.353C27.0139 269.571 27.0583 269.973 27.3472 270.256Z" fill="#C4204A"/>
<path d="M70.5559 247.899C69.1317 249.747 80.2922 251.757 81.7897 247.916C83.2873 244.076 80.7166 233.505 80.7166 233.505L70.5381 235.669C70.5381 235.669 72.4112 245.492 70.5559 247.899Z" fill="#F37A50"/>
<path d="M72.8787 240.896C79.2919 240.223 83.7964 233.052 82.9398 224.88C82.0831 216.708 76.1896 210.629 69.7763 211.302C63.363 211.976 58.8585 219.147 59.7152 227.319C60.5719 235.491 66.4654 241.57 72.8787 240.896Z" fill="#F37A50"/>
<path d="M63.4967 229.724C63.4154 229.95 63.2688 230.148 63.0755 230.291C62.8823 230.434 62.651 230.516 62.4109 230.528C62.1709 230.539 61.9328 230.479 61.7268 230.355C61.5208 230.231 61.3562 230.049 61.2537 229.831C61.1512 229.614 61.1155 229.37 61.1511 229.133C61.1866 228.895 61.2918 228.673 61.4534 228.495C61.615 228.316 61.8257 228.19 62.0589 228.132C62.2921 228.074 62.5373 228.086 62.7635 228.167C62.9142 228.221 63.0527 228.304 63.1713 228.411C63.2898 228.518 63.3859 228.648 63.4541 228.793C63.5222 228.938 63.5611 229.094 63.5684 229.254C63.5757 229.414 63.5514 229.574 63.4967 229.724Z" fill="black"/>
<path d="M71.4753 227.983C71.3875 228.228 71.229 228.441 71.0199 228.596C70.8107 228.751 70.5604 228.841 70.3005 228.853C70.0406 228.866 69.7829 228.801 69.5598 228.667C69.3368 228.533 69.1585 228.335 69.0475 228.1C68.9366 227.864 68.8979 227.601 68.9363 227.344C68.9748 227.086 69.0888 226.846 69.2637 226.653C69.4387 226.46 69.6669 226.324 69.9194 226.261C70.1718 226.198 70.4373 226.211 70.6821 226.299C70.8448 226.357 70.9944 226.447 71.1223 226.563C71.2503 226.68 71.3541 226.82 71.4278 226.976C71.5015 227.133 71.5436 227.302 71.5517 227.475C71.5599 227.647 71.5339 227.82 71.4753 227.983Z" fill="black"/>
<path d="M65.8274 229.471C65.5696 231.388 65.2119 233.743 65.2119 233.743C65.2119 233.743 66.4695 235.077 68.5447 234.154C67.5027 234.188 66.3673 233.99 66.194 232.655C66.0207 231.321 65.8274 229.471 65.8274 229.471Z" fill="#DE623C"/>
<path d="M63.1503 226.947C63.081 226.989 63.0018 227.012 62.9207 227.014C62.8396 227.016 62.7595 226.997 62.6882 226.958C62.3789 226.805 62.0233 226.775 61.6928 226.873C61.3595 227 61.0906 227.318 60.8973 227.85C60.8788 227.911 60.848 227.967 60.8068 228.016C60.7657 228.064 60.715 228.104 60.658 228.132C60.601 228.16 60.5388 228.177 60.4752 228.18C60.4117 228.183 60.3481 228.174 60.2885 228.151C60.2288 228.129 60.1743 228.095 60.1284 228.051C60.0824 228.007 60.0459 227.954 60.0211 227.895C59.9964 227.837 59.9839 227.774 59.9844 227.71C59.9849 227.646 59.9984 227.583 60.0241 227.525C60.3174 226.735 60.7707 226.222 61.3728 225.997C61.9548 225.809 62.5875 225.86 63.1325 226.137C63.2409 226.197 63.3213 226.297 63.3562 226.416C63.3912 226.534 63.3779 226.662 63.3192 226.771C63.2797 226.844 63.2214 226.904 63.1503 226.947Z" fill="#020205"/>
<path d="M69.2136 225.619C69.2937 225.635 69.3766 225.631 69.4545 225.606C69.5323 225.581 69.6024 225.536 69.658 225.476C69.8979 225.228 70.2241 225.082 70.569 225.067C70.9267 225.067 71.2889 225.29 71.6422 225.734C71.6795 225.786 71.7271 225.83 71.782 225.863C71.8369 225.896 71.8979 225.917 71.9613 225.925C72.0246 225.933 72.089 225.928 72.1504 225.91C72.2117 225.892 72.2688 225.862 72.3181 225.822C72.3673 225.781 72.4077 225.73 72.4367 225.673C72.4656 225.616 72.4826 225.554 72.4865 225.49C72.4904 225.426 72.4812 225.362 72.4594 225.302C72.4376 225.242 72.4037 225.187 72.3598 225.141C71.8244 224.491 71.2267 224.155 70.5823 224.14C69.9706 224.154 69.3896 224.411 68.967 224.854C68.9247 224.899 68.892 224.953 68.8708 225.012C68.8496 225.07 68.8403 225.132 68.8434 225.194C68.8465 225.257 68.8619 225.317 68.8889 225.374C68.9159 225.43 68.9537 225.48 69.0003 225.521C69.0624 225.571 69.1356 225.604 69.2136 225.619Z" fill="#020205"/>
<path d="M80.5564 230.071C76.3348 226.53 77.499 221.122 77.499 221.122C75.4505 221.255 74.8772 222.134 74.8772 222.134C73.2286 220.239 73.6307 218.455 73.6307 218.455C69.187 217.973 67.8894 221.124 64.501 222.97C59.8595 225.51 53.1961 225.194 50.9875 219.271C50.9158 219.08 50.8999 218.873 50.9418 218.673C50.9837 218.473 51.0817 218.289 51.2241 218.143C51.3666 217.997 51.5477 217.895 51.7462 217.848C51.9447 217.801 52.1525 217.812 52.3451 217.879C53.2865 218.208 54.3078 218.23 55.2624 217.941C54.3993 217.322 53.7532 216.446 53.416 215.437C53.3574 215.239 53.3578 215.027 53.4171 214.828C53.4763 214.63 53.592 214.453 53.7499 214.319C53.9078 214.185 54.1012 214.099 54.3066 214.073C54.512 214.047 54.7206 214.082 54.9069 214.172C56.1712 214.752 58.3042 215.048 61.5459 213.489C63.7034 212.45 67.9227 207.404 71.3555 207.242C74.1596 207.111 76.8703 208.799 78.6433 211.786C78.6433 211.786 85.3356 210.705 87.9175 217.701C90.4571 224.573 80.943 235.193 80.943 235.193C80.943 235.193 81.674 231.158 80.5564 230.071Z" fill="#020205"/>
<path d="M66.3459 237.279C66.2869 237.241 66.2403 237.187 66.2117 237.123C66.1832 237.059 66.174 236.988 66.1854 236.919C66.1968 236.85 66.2281 236.786 66.2756 236.734C66.3231 236.683 66.3846 236.646 66.4525 236.63C67.5465 236.368 68.6244 236.044 69.6809 235.658C70.7308 235.252 71.7568 234.788 72.7538 234.266C72.816 234.234 72.886 234.221 72.9554 234.228C73.0248 234.236 73.0905 234.264 73.1443 234.308C73.1982 234.353 73.2378 234.412 73.2585 234.479C73.2791 234.545 73.2798 234.617 73.2604 234.684C72.9938 235.616 72.2917 237.143 70.4919 237.817C68.6922 238.491 67.1591 237.806 66.3459 237.279Z" fill="white"/>
<path d="M77.5509 225.256C76.1755 226.613 75.96 228.625 77.0709 229.751C78.1819 230.876 80.1927 230.689 81.568 229.333C82.9434 227.976 83.1567 225.963 82.0479 224.838C80.9392 223.713 78.924 223.899 77.5509 225.256Z" fill="#F37A50"/>
<path d="M78.8839 229.173C78.8229 229.15 78.7675 229.115 78.7217 229.068C78.0552 228.361 77.893 227.498 78.3018 226.758C78.5066 226.388 78.821 226.092 79.2015 225.909C79.582 225.726 80.0098 225.666 80.4259 225.737C80.4821 225.746 80.5358 225.766 80.5839 225.797C80.632 225.827 80.6734 225.867 80.7058 225.914C80.7381 225.961 80.7606 226.014 80.772 226.069C80.7834 226.125 80.7833 226.183 80.772 226.238C80.7606 226.294 80.738 226.347 80.7057 226.394C80.6734 226.441 80.6319 226.481 80.5838 226.511C80.5357 226.542 80.482 226.562 80.4258 226.571C80.3697 226.58 80.3123 226.578 80.257 226.564C80.0174 226.53 79.7732 226.57 79.5563 226.677C79.3395 226.785 79.1601 226.956 79.0417 227.167C78.8195 227.58 78.9173 228.056 79.3327 228.483C79.3975 228.552 79.4373 228.641 79.4459 228.735C79.4545 228.829 79.4314 228.923 79.3802 229.002C79.3291 229.082 79.2528 229.142 79.1637 229.172C79.0745 229.203 78.9776 229.203 78.8884 229.173H78.8839Z" fill="#DE623C"/>
<path d="M58.1514 304.467C66.1124 306.092 80.4258 308.901 87.9957 305.946C90.8597 301.829 91.5841 278.551 91.5841 278.551C92.4128 254.59 89.5422 251.036 83.0698 243.008C80.3524 244.258 73.5512 245.321 70.5628 245.345C70.5628 245.345 63.7883 254.759 62.4663 261.596C61.1331 268.525 60.9754 280.851 60.851 287.909C60.7132 295.749 59.1645 299.53 58.1514 304.467Z" fill="#3F964F"/>
<path d="M84.0113 250.28C88.6773 259.354 87.613 269.406 74.0728 289.184C64.592 288.356 62.7412 280.446 62.7412 280.446C62.7412 280.446 65.3475 270.625 68.7403 258.268C72.1331 245.912 81.9739 246.31 84.0113 250.28Z" fill="#0E6A41"/>
<path d="M42.6113 278.551L62.9149 280.173C62.9149 280.173 71.6203 278.585 74.0688 289.184C69.7117 292.58 58.4623 293.854 40.0117 286.998C41.9692 284.338 42.6113 278.551 42.6113 278.551Z" fill="#0E6A41"/>
<path d="M70.6249 244.671L70.4316 250.138L84.1673 244.373L82.5031 239.952L70.6249 244.671Z" fill="white"/>
<path d="M173.143 112.244C171.536 115.919 168.877 119.034 165.501 121.196C162.125 123.358 158.185 124.47 154.178 124.391C150.171 124.311 146.278 123.045 142.991 120.751C139.703 118.457 137.169 115.238 135.709 111.503C134.248 107.767 133.927 103.682 134.787 99.764C135.646 95.8459 137.646 92.2709 140.535 89.4908C143.424 86.7108 147.072 84.8506 151.017 84.1456C154.963 83.4405 159.028 83.9223 162.7 85.5299C165.138 86.5974 167.342 88.1353 169.187 90.0556C171.031 91.976 172.48 94.2412 173.45 96.7219C174.419 99.2025 174.891 101.85 174.839 104.513C174.786 107.177 174.21 109.804 173.143 112.244Z" fill="#FABA23"/>
<path d="M169.828 110.791C165.828 120.19 153.881 123.69 145.42 118.019C142.76 116.261 140.659 113.776 139.367 110.859C138.074 107.942 137.643 104.716 138.126 101.562C139.699 90.7603 151.53 84.4376 161.256 88.8388C169.534 92.3949 173.571 102.389 169.828 110.791Z" fill="#FAD332"/>
<path d="M153.442 118.115V114.668C151.462 114.639 149.413 114.03 148.216 113.18L149.029 110.89C150.49 111.832 152.19 112.337 153.928 112.344C156.35 112.344 157.983 110.932 157.979 108.986C157.979 107.109 156.646 105.95 154.113 104.934C150.629 103.577 148.476 102.014 148.467 99.0426C148.467 96.207 150.467 94.052 153.602 93.5294V90.0823H155.717V93.3937C157.763 93.456 159.165 93.9987 160.161 94.5769L159.316 96.832C158.014 96.0622 156.525 95.6652 155.013 95.6844C152.386 95.6844 151.402 97.2656 151.406 98.6311C151.406 100.41 152.675 101.3 155.648 102.512C159.165 103.935 160.943 105.706 160.952 108.739C160.952 111.437 159.09 113.967 155.579 114.559V118.117L153.442 118.115Z" fill="#FABA23"/>
<path d="M209.49 53.4046C207.884 57.0795 205.224 60.1949 201.849 62.357C198.473 64.5191 194.533 65.6308 190.526 65.5514C186.519 65.4721 182.626 64.2053 179.338 61.9113C176.051 59.6172 173.516 56.399 172.056 52.6634C170.596 48.9278 170.275 44.8427 171.134 40.9247C171.993 37.0066 173.994 33.4315 176.883 30.6515C179.772 27.8714 183.42 26.0113 187.365 25.3062C191.31 24.6012 195.376 25.0829 199.048 26.6905C201.486 27.7581 203.69 29.2959 205.535 31.2163C207.379 33.1366 208.827 35.4018 209.797 37.8825C210.767 40.3632 211.239 43.0108 211.186 45.6741C211.134 48.3374 210.557 50.9643 209.49 53.4046Z" fill="#FABA23"/>
<path d="M206.175 51.9567C202.176 61.3551 190.228 64.8556 181.77 59.1867C179.11 57.4281 177.009 54.9433 175.716 52.0266C174.424 49.11 173.993 45.8836 174.475 42.7295C176.048 31.9277 187.878 25.605 197.605 30.0062C205.882 33.5557 209.919 43.5523 206.175 51.9567Z" fill="#FAD332"/>
<path d="M189.789 59.2758V55.8287C187.809 55.7998 185.761 55.1904 184.565 54.3409L185.379 52.0502C186.844 52.9966 188.55 53.5015 190.293 53.5047C192.718 53.5047 194.351 52.0925 194.344 50.1465C194.344 48.2695 193.011 47.1108 190.478 46.0945C186.994 44.7379 184.841 43.1744 184.832 40.2032C184.832 37.3699 186.832 35.2127 189.969 34.69V31.2429H192.084L192.095 34.5544C194.142 34.6167 195.542 35.1593 196.539 35.7375L195.693 37.9948C194.392 37.2228 192.903 36.825 191.391 36.8451C188.765 36.8451 187.778 38.4263 187.783 39.7918C187.783 41.571 189.054 42.4605 192.024 43.6726C195.542 45.0959 197.321 46.8662 197.33 49.8997C197.33 52.5973 195.468 55.1282 191.955 55.7197L191.967 59.2781L189.789 59.2758Z" fill="#FABA23"/>
<path d="M348.741 65.2828C359.798 63.5517 367.359 53.1767 365.63 42.1096C363.9 31.0425 353.535 23.4741 342.478 25.2052C331.421 26.9363 323.86 37.3113 325.59 48.3784C327.319 59.4455 337.684 67.0139 348.741 65.2828Z" fill="#FABA23"/>
<path d="M360.855 51.9567C356.855 61.3551 344.906 64.8556 336.447 59.1867C333.788 57.4277 331.687 54.9429 330.394 52.0263C329.102 49.1097 328.671 45.8835 329.153 42.7295C330.726 31.9277 342.557 25.605 352.283 30.0062C360.563 33.5557 364.598 43.5523 360.855 51.9567Z" fill="#FAD332"/>
<path d="M344.468 59.2758V55.8287C342.49 55.7998 340.442 55.1904 339.244 54.3409L340.057 52.0502C341.523 52.9962 343.23 53.5011 344.974 53.5047C347.396 53.5047 349.029 52.0925 349.025 50.1465C349.025 48.2695 347.692 47.1108 345.157 46.0945C341.675 44.7379 339.52 43.1744 339.513 40.2032C339.513 37.3699 341.513 35.2127 344.648 34.69V31.2429H346.763V34.5544C348.809 34.6167 350.209 35.1593 351.207 35.7375L350.342 37.9882C349.042 37.2162 347.553 36.8183 346.041 36.8384C343.415 36.8384 342.43 38.4196 342.433 39.7851C342.433 41.5643 343.703 42.4539 346.674 43.6659C350.194 45.0893 351.971 46.8595 351.98 49.893C351.98 52.5906 350.118 55.1215 346.605 55.7131V59.2714L344.468 59.2758Z" fill="#FABA23"/>
<path d="M405.463 112.244C403.856 115.919 401.197 119.034 397.821 121.196C394.446 123.358 390.505 124.47 386.499 124.391C382.492 124.311 378.598 123.045 375.311 120.751C372.023 118.457 369.489 115.238 368.029 111.503C366.569 107.767 366.248 103.682 367.107 99.764C367.966 95.8459 369.967 92.2709 372.856 89.4908C375.745 86.7108 379.393 84.8506 383.338 84.1456C387.283 83.4405 391.349 83.9223 395.02 85.5299C397.459 86.5974 399.663 88.1353 401.507 90.0556C403.352 91.976 404.8 94.2412 405.77 96.7219C406.74 99.2025 407.212 101.85 407.159 104.513C407.106 107.177 406.53 109.804 405.463 112.244Z" fill="#FABA23"/>
<path d="M402.148 110.791C398.149 120.19 386.201 123.69 377.743 118.019C375.081 116.262 372.98 113.777 371.687 110.86C370.394 107.943 369.964 104.716 370.448 101.562C372.021 90.7603 383.851 84.4376 393.578 88.8388C401.857 92.3949 405.89 102.389 402.148 110.791Z" fill="#FAD332"/>
<path d="M385.762 118.115V114.668C383.782 114.639 381.733 114.03 380.538 113.18L381.351 110.89C382.816 111.836 384.522 112.341 386.266 112.344C388.688 112.344 390.323 110.932 390.317 108.986C390.317 107.109 388.983 105.95 386.451 104.934C382.967 103.577 380.814 102.014 380.805 99.0426C380.805 96.207 382.804 94.052 385.942 93.5294V90.0823H388.057V93.3937C390.103 93.456 391.503 93.9987 392.501 94.5769L391.654 96.832C390.353 96.062 388.864 95.665 387.353 95.6844C384.726 95.6844 383.742 97.2656 383.744 98.6311C383.744 100.41 385.015 101.3 387.986 102.512C391.503 103.935 393.283 105.706 393.292 108.739C393.292 111.437 391.43 113.967 387.917 114.559V118.117L385.762 118.115Z" fill="#FABA23"/>
<path d="M292.816 28.4142C291.209 32.089 288.55 35.2044 285.174 37.3665C281.798 39.5286 277.858 40.6403 273.851 40.5609C269.844 40.4816 265.951 39.2148 262.663 36.9208C259.376 34.6267 256.842 31.4085 255.381 27.6729C253.921 23.9373 253.6 19.8522 254.459 15.9342C255.319 12.0161 257.319 8.44102 260.208 5.66098C263.097 2.88094 266.745 1.02079 270.69 0.315753C274.636 -0.389285 278.701 0.0924452 282.373 1.70003C284.811 2.76759 287.015 4.30545 288.86 6.22579C290.704 8.14613 292.153 10.4113 293.122 12.892C294.092 15.3727 294.564 18.0203 294.512 20.6836C294.459 23.3469 293.883 25.9738 292.816 28.4142Z" fill="#FABA23"/>
<path d="M289.5 26.9598C285.501 36.3605 273.554 39.8699 265.095 34.1899C262.435 32.4314 260.334 29.9467 259.041 27.03C257.749 24.1132 257.318 20.8867 257.801 17.7326C259.374 6.93091 271.203 0.608209 280.931 5.00941C289.207 8.56329 293.24 18.56 289.5 26.9598Z" fill="#FAD332"/>
<path d="M273.114 34.2854V30.836C271.135 30.8071 269.086 30.2 267.891 29.3482L268.704 27.0575C270.168 28.0059 271.875 28.511 273.619 28.512C276.04 28.512 277.676 27.102 277.669 25.1561C277.669 23.2768 276.336 22.1204 273.803 21.104C270.319 19.7474 268.166 18.1818 268.157 15.2106C268.157 12.3772 270.157 10.22 273.294 9.69959V6.25024H275.409V9.56171C277.458 9.62398 278.858 10.1666 279.853 10.7449L279.007 12.9999C277.705 12.23 276.217 11.833 274.705 11.8524C272.079 11.8524 271.092 13.4314 271.097 14.7969C271.097 16.5761 272.368 17.4656 275.338 18.6777C278.856 20.1032 280.635 21.8735 280.644 24.9048C280.644 27.6002 278.782 30.1333 275.269 30.7226V34.2809L273.114 34.2854Z" fill="#FABA23"/>
<path d="M354.613 135.822C354.142 135.822 353.69 135.635 353.356 135.301C353.023 134.967 352.836 134.515 352.836 134.043C352.836 132.595 352.8 131.13 352.727 129.689C352.703 129.217 352.867 128.755 353.183 128.404C353.499 128.053 353.942 127.842 354.413 127.818C354.885 127.794 355.347 127.958 355.697 128.275C356.047 128.591 356.258 129.034 356.282 129.506C356.36 131.007 356.398 132.535 356.398 134.043C356.398 134.277 356.351 134.509 356.262 134.725C356.172 134.942 356.04 135.138 355.875 135.303C355.709 135.469 355.512 135.6 355.296 135.689C355.079 135.778 354.847 135.823 354.613 135.822Z" fill="#95A6DB"/>
<path d="M353.574 122.423C353.15 122.422 352.741 122.27 352.419 121.994C352.098 121.718 351.886 121.336 351.821 120.917C351.365 118.014 350.759 115.137 350.003 112.297C349.941 112.071 349.924 111.834 349.954 111.601C349.984 111.368 350.059 111.144 350.176 110.94C350.293 110.737 350.448 110.558 350.634 110.415C350.82 110.272 351.033 110.167 351.259 110.107C351.486 110.047 351.722 110.032 351.955 110.063C352.187 110.094 352.411 110.171 352.614 110.29C352.816 110.408 352.993 110.566 353.135 110.753C353.276 110.94 353.379 111.153 353.438 111.381C354.226 114.341 354.859 117.341 355.333 120.368C355.369 120.599 355.36 120.834 355.305 121.061C355.25 121.289 355.151 121.503 355.013 121.691C354.875 121.88 354.702 122.04 354.503 122.162C354.303 122.283 354.082 122.364 353.851 122.4C353.76 122.416 353.667 122.423 353.574 122.423ZM183.924 122.347C183.831 122.347 183.738 122.34 183.646 122.325C183.415 122.289 183.194 122.207 182.995 122.085C182.796 121.963 182.622 121.803 182.485 121.614C182.347 121.425 182.249 121.211 182.194 120.984C182.139 120.757 182.13 120.521 182.166 120.29C182.642 117.264 183.276 114.264 184.068 111.305C184.213 110.877 184.516 110.521 184.914 110.308C185.312 110.095 185.776 110.042 186.212 110.159C186.648 110.276 187.023 110.555 187.261 110.939C187.499 111.323 187.583 111.783 187.494 112.226C186.736 115.065 186.126 117.943 185.668 120.846C185.602 121.262 185.391 121.642 185.071 121.917C184.752 122.192 184.345 122.344 183.924 122.347ZM348.957 105.054C348.597 105.054 348.246 104.944 347.949 104.74C347.653 104.536 347.425 104.247 347.297 103.91C346.244 101.165 345.049 98.4774 343.715 95.8576C343.511 95.4384 343.479 94.9559 343.627 94.5137C343.775 94.0715 344.09 93.705 344.505 93.4931C344.92 93.2812 345.402 93.2409 345.846 93.3807C346.29 93.5205 346.662 93.8293 346.881 94.2407C348.273 96.9715 349.52 99.7738 350.616 102.636C350.785 103.076 350.772 103.566 350.58 103.997C350.389 104.427 350.034 104.764 349.594 104.934C349.388 105.014 349.169 105.055 348.948 105.054H348.957ZM188.563 104.985C188.275 104.984 187.991 104.914 187.736 104.779C187.481 104.645 187.262 104.45 187.099 104.212C186.936 103.974 186.833 103.7 186.799 103.414C186.766 103.127 186.802 102.837 186.906 102.567C188.005 99.7092 189.252 96.9106 190.643 94.1829C190.857 93.7627 191.23 93.4449 191.678 93.2996C192.127 93.1542 192.615 93.1932 193.035 93.4079C193.454 93.6226 193.772 93.9954 193.917 94.4444C194.062 94.8934 194.023 95.3817 193.809 95.802C192.474 98.4182 191.277 101.102 190.223 103.844C190.093 104.181 189.864 104.471 189.566 104.675C189.268 104.878 188.915 104.987 188.554 104.985H188.563ZM340.789 89.0345C340.492 89.0349 340.2 88.9611 339.94 88.8197C339.679 88.6783 339.457 88.4739 339.296 88.225C337.696 85.7588 335.97 83.3774 334.123 81.0905C333.873 80.7209 333.771 80.2706 333.837 79.8291C333.903 79.3876 334.133 78.9871 334.48 78.7071C334.828 78.4271 335.268 78.2881 335.713 78.3176C336.158 78.3472 336.575 78.5431 336.883 78.8666C338.808 81.2486 340.61 83.7287 342.28 86.2968C342.454 86.5652 342.553 86.8757 342.566 87.1956C342.578 87.5155 342.505 87.8329 342.352 88.1143C342.2 88.3957 341.974 88.6308 341.7 88.7947C341.425 88.9586 341.111 89.0453 340.791 89.0456L340.789 89.0345ZM196.717 88.9855C196.398 88.9852 196.084 88.8986 195.809 88.7347C195.534 88.5708 195.309 88.3357 195.156 88.0543C195.004 87.7728 194.93 87.4554 194.943 87.1355C194.956 86.8157 195.054 86.5052 195.229 86.2367C196.9 83.6697 198.703 81.1911 200.63 78.811C200.775 78.6235 200.956 78.4668 201.162 78.3503C201.369 78.2338 201.596 78.1597 201.832 78.1325C202.067 78.1052 202.305 78.1253 202.533 78.1916C202.76 78.2579 202.972 78.369 203.156 78.5184C203.34 78.6678 203.492 78.8525 203.604 79.0617C203.715 79.2708 203.784 79.5002 203.806 79.7363C203.828 79.9724 203.802 80.2105 203.731 80.4366C203.659 80.6626 203.543 80.8721 203.39 81.0527C201.54 83.3333 199.811 85.7088 198.208 88.1694C198.048 88.4189 197.828 88.6242 197.568 88.7668C197.308 88.9094 197.016 88.9846 196.72 88.9855H196.717ZM329.482 75.0658C329.248 75.0657 329.017 75.0195 328.801 74.9298C328.585 74.8401 328.389 74.7088 328.224 74.5432C326.147 72.462 323.963 70.4904 321.681 68.6364C321.314 68.3391 321.081 67.9084 321.032 67.439C320.983 66.9696 321.123 66.4999 321.42 66.1333C321.717 65.7667 322.147 65.5333 322.616 65.4843C323.085 65.4353 323.554 65.5747 323.92 65.872C326.296 67.8036 328.571 69.8568 330.735 72.0235C330.983 72.2724 331.152 72.5893 331.22 72.9343C331.288 73.2792 331.253 73.6367 331.118 73.9615C330.984 74.2863 330.756 74.5639 330.464 74.7593C330.172 74.9546 329.829 75.059 329.477 75.0592L329.482 75.0658ZM208.029 75.028C207.677 75.0283 207.333 74.9241 207.041 74.7286C206.748 74.5331 206.52 74.2552 206.385 73.9299C206.251 73.6046 206.216 73.2467 206.284 72.9014C206.353 72.5561 206.523 72.2389 206.771 71.9901C208.938 69.8248 211.215 67.7731 213.593 65.8431C213.959 65.5461 214.429 65.407 214.898 65.4565C215.366 65.5059 215.797 65.7398 216.093 66.1066C216.39 66.4735 216.529 66.9433 216.48 67.4127C216.43 67.8822 216.197 68.3127 215.83 68.6097C213.548 70.4602 211.364 72.4289 209.287 74.5076C208.954 74.8406 208.502 75.0278 208.031 75.028H208.029ZM315.539 63.7437C315.195 63.7432 314.859 63.6428 314.571 63.4546C312.11 61.8522 309.567 60.3787 306.954 59.04C306.534 58.8253 306.217 58.4525 306.072 58.0035C305.926 57.5545 305.965 57.0662 306.18 56.6459C306.394 56.2257 306.767 55.9079 307.215 55.7626C307.664 55.6172 308.152 55.6562 308.572 55.8709C311.296 57.2653 313.946 58.8012 316.51 60.4722C316.832 60.6813 317.078 60.989 317.21 61.3493C317.343 61.7095 317.356 62.1031 317.246 62.4712C317.137 62.8393 316.912 63.1621 316.604 63.3914C316.297 63.6208 315.923 63.7443 315.539 63.7437ZM221.998 63.7103C221.615 63.7103 221.242 63.5864 220.935 63.3571C220.628 63.1279 220.404 62.8056 220.295 62.4381C220.185 62.0707 220.198 61.6778 220.33 61.318C220.462 60.9581 220.706 60.6506 221.027 60.4411C223.594 58.7704 226.247 57.2352 228.975 55.842C229.393 55.6377 229.876 55.6061 230.317 55.7539C230.759 55.9018 231.125 56.2174 231.337 56.6327C231.549 57.048 231.589 57.53 231.449 57.9748C231.31 58.4196 231.001 58.7917 230.59 59.0111C227.974 60.3486 225.428 61.8214 222.965 63.4234C222.674 63.6139 222.334 63.7138 221.987 63.7103H221.998ZM299.568 55.5684C299.35 55.5686 299.134 55.5287 298.931 55.4506C296.19 54.3956 293.395 53.4862 290.559 52.7262C290.12 52.5913 289.751 52.2918 289.527 51.8904C289.304 51.489 289.245 51.0168 289.362 50.5726C289.479 50.1284 289.763 49.7466 290.154 49.5072C290.546 49.2678 291.015 49.1892 291.463 49.288C294.42 50.0816 297.333 51.0303 300.191 52.1302C300.577 52.28 300.899 52.5603 301.101 52.9225C301.303 53.2847 301.372 53.7062 301.296 54.114C301.221 54.5218 301.005 54.8904 300.687 55.156C300.368 55.4215 299.967 55.5674 299.553 55.5684H299.568ZM237.998 55.544C237.582 55.5443 237.18 55.399 236.86 55.1333C236.541 54.8675 236.324 54.4982 236.249 54.0893C236.173 53.6805 236.243 53.258 236.446 52.8952C236.649 52.5325 236.972 52.2523 237.36 52.1035C240.22 51.0058 243.135 50.0593 246.094 49.268C246.55 49.1462 247.035 49.2105 247.443 49.4468C247.851 49.683 248.149 50.0719 248.271 50.5278C248.392 50.9838 248.328 51.4694 248.092 51.8779C247.856 52.2865 247.467 52.5844 247.012 52.7062C244.173 53.4654 241.377 54.3733 238.633 55.4261C238.427 55.5053 238.208 55.5452 237.987 55.544H237.998ZM282.227 50.9204C282.133 50.9196 282.039 50.9122 281.947 50.8981C279.046 50.4409 276.123 50.1351 273.19 49.9819C272.719 49.9574 272.276 49.7465 271.96 49.3955C271.644 49.0445 271.481 48.5823 271.505 48.1104C271.529 47.6385 271.74 47.1957 272.091 46.8794C272.441 46.563 272.903 46.3991 273.375 46.4235C276.431 46.582 279.477 46.8997 282.5 47.3754C282.944 47.4426 283.346 47.6755 283.625 48.0272C283.905 48.379 284.041 48.8236 284.006 49.2717C283.972 49.7198 283.769 50.1382 283.439 50.4428C283.109 50.7473 282.676 50.9156 282.227 50.9137V50.9204ZM255.342 50.9204C254.893 50.9217 254.46 50.753 254.131 50.4483C253.801 50.1435 253.599 49.7252 253.564 49.2772C253.53 48.8293 253.666 48.385 253.946 48.0335C254.225 47.682 254.627 47.4492 255.071 47.3821C258.094 46.9086 261.14 46.5931 264.196 46.4369C264.667 46.4127 265.129 46.577 265.48 46.8935C265.83 47.2101 266.04 47.653 266.065 48.1249C266.089 48.5967 265.925 49.0589 265.608 49.4096C265.292 49.7604 264.85 49.971 264.378 49.9952C261.445 50.1445 258.521 50.4473 255.62 50.9026C255.525 50.9117 255.43 50.914 255.335 50.9093L255.342 50.9204Z" fill="#95A6DB"/>
<path d="M182.863 135.822C182.392 135.822 181.94 135.635 181.607 135.301C181.273 134.967 181.086 134.515 181.086 134.043C181.086 132.535 181.124 131.01 181.201 129.506C181.226 129.034 181.436 128.591 181.787 128.275C182.137 127.958 182.599 127.794 183.07 127.818C183.542 127.842 183.984 128.053 184.3 128.404C184.617 128.755 184.781 129.217 184.757 129.689C184.681 131.13 184.645 132.595 184.645 134.043C184.645 134.277 184.599 134.509 184.51 134.725C184.42 134.941 184.289 135.137 184.123 135.303C183.958 135.468 183.761 135.599 183.545 135.688C183.329 135.777 183.097 135.823 182.863 135.822Z" fill="#95A6DB"/>
<path d="M206.924 135.822C206.453 135.822 206 135.635 205.667 135.301C205.334 134.967 205.146 134.515 205.146 134.043C205.146 132.522 205.2 130.985 205.306 129.473C205.323 129.239 205.386 129.011 205.49 128.802C205.595 128.592 205.74 128.405 205.917 128.252C206.093 128.098 206.299 127.981 206.521 127.907C206.743 127.833 206.977 127.804 207.211 127.82C207.444 127.837 207.672 127.9 207.881 128.004C208.09 128.109 208.277 128.254 208.43 128.431C208.584 128.608 208.701 128.814 208.775 129.036C208.849 129.258 208.878 129.493 208.861 129.726C208.761 131.154 208.71 132.606 208.71 134.043C208.71 134.277 208.664 134.51 208.574 134.726C208.484 134.942 208.353 135.139 208.187 135.304C208.021 135.47 207.824 135.6 207.607 135.689C207.39 135.778 207.158 135.823 206.924 135.822Z" fill="#95A6DB"/>
<path d="M208.33 122.643C208.203 122.643 208.077 122.629 207.953 122.601C207.492 122.501 207.09 122.222 206.836 121.825C206.581 121.429 206.493 120.947 206.593 120.486C207.236 117.523 208.089 114.611 209.148 111.77C209.23 111.551 209.354 111.35 209.513 111.179C209.672 111.008 209.864 110.87 210.076 110.773C210.289 110.676 210.518 110.622 210.752 110.614C210.985 110.605 211.218 110.643 211.437 110.725C211.656 110.807 211.856 110.931 212.027 111.09C212.198 111.25 212.336 111.441 212.433 111.654C212.53 111.867 212.584 112.096 212.592 112.33C212.6 112.564 212.563 112.797 212.481 113.016C211.482 115.698 210.675 118.447 210.068 121.244C209.981 121.641 209.762 121.996 209.446 122.25C209.13 122.505 208.736 122.643 208.33 122.643ZM329.134 122.596C328.729 122.596 328.336 122.457 328.02 122.202C327.704 121.947 327.485 121.592 327.399 121.195C326.793 118.398 325.985 115.648 324.982 112.967C324.816 112.524 324.833 112.034 325.029 111.605C325.225 111.175 325.583 110.84 326.025 110.675C326.467 110.51 326.956 110.527 327.386 110.722C327.815 110.918 328.149 111.277 328.314 111.719C329.375 114.557 330.231 117.468 330.876 120.428C330.926 120.657 330.93 120.892 330.889 121.122C330.847 121.353 330.761 121.572 330.635 121.769C330.508 121.965 330.345 122.135 330.153 122.268C329.961 122.402 329.745 122.496 329.517 122.545C329.391 122.576 329.263 122.593 329.134 122.596ZM214.485 106.139C214.187 106.138 213.894 106.062 213.634 105.917C213.429 105.805 213.248 105.653 213.102 105.471C212.956 105.289 212.847 105.08 212.781 104.856C212.715 104.631 212.695 104.396 212.72 104.164C212.745 103.932 212.815 103.707 212.928 103.502C214.383 100.844 216.026 98.2937 217.842 95.869C217.979 95.6739 218.154 95.5084 218.356 95.3822C218.558 95.2559 218.783 95.1717 219.018 95.1343C219.254 95.097 219.494 95.1073 219.725 95.1647C219.956 95.2221 220.174 95.3255 220.364 95.4686C220.555 95.6117 220.714 95.7916 220.834 95.9977C220.954 96.2039 221.031 96.4319 221.06 96.6684C221.09 96.9049 221.072 97.145 221.008 97.3744C220.943 97.6039 220.833 97.818 220.684 98.004C218.97 100.293 217.421 102.701 216.047 105.21C215.895 105.492 215.669 105.729 215.394 105.894C215.119 106.059 214.804 106.146 214.483 106.146L214.485 106.139ZM322.978 106.11C322.659 106.11 322.347 106.023 322.073 105.861C321.8 105.698 321.575 105.465 321.422 105.185C320.045 102.681 318.493 100.277 316.776 97.9929C316.502 97.6151 316.387 97.1446 316.456 96.6827C316.525 96.2209 316.773 95.8048 317.146 95.5243C317.519 95.2438 317.987 95.1213 318.45 95.1833C318.912 95.2453 319.332 95.4868 319.618 95.8557C321.434 98.278 323.077 100.826 324.533 103.482C324.681 103.752 324.757 104.057 324.752 104.366C324.747 104.675 324.662 104.977 324.505 105.243C324.348 105.509 324.125 105.729 323.857 105.882C323.589 106.036 323.286 106.116 322.978 106.117V106.11ZM225.041 92.0549C224.69 92.0543 224.347 91.9496 224.055 91.7541C223.764 91.5586 223.536 91.2809 223.402 90.9562C223.268 90.6315 223.232 90.2742 223.301 89.9295C223.369 89.5848 223.538 89.268 223.786 89.0192C225.926 86.8773 228.215 84.8901 230.636 83.0724C231.013 82.7892 231.488 82.6678 231.955 82.7347C232.422 82.8017 232.843 83.0515 233.126 83.4293C233.408 83.8071 233.53 84.2819 233.463 84.7492C233.396 85.2165 233.146 85.6381 232.769 85.9212C230.481 87.6395 228.318 89.5183 226.297 91.5434C225.963 91.8762 225.51 92.0625 225.039 92.0616L225.041 92.0549ZM312.419 92.0349C311.949 92.0353 311.497 91.8489 311.164 91.5167C309.141 89.4947 306.977 87.6189 304.689 85.9035C304.312 85.6206 304.062 85.1993 303.995 84.7322C303.928 84.2651 304.049 83.7904 304.331 83.4126C304.614 83.0348 305.035 82.7849 305.502 82.7177C305.968 82.6506 306.443 82.7717 306.82 83.0546C309.244 84.8739 311.536 86.8618 313.681 89.0036C313.93 89.2523 314.099 89.5693 314.168 89.9144C314.237 90.2595 314.202 90.6172 314.068 90.9424C313.933 91.2676 313.705 91.5456 313.413 91.7412C313.121 91.9369 312.777 92.0414 312.426 92.0416L312.419 92.0349ZM239.115 81.5023C238.721 81.5011 238.339 81.3692 238.028 81.1273C237.718 80.8854 237.496 80.547 237.398 80.1654C237.3 79.7838 237.332 79.3804 237.488 79.0186C237.643 78.6568 237.915 78.3571 238.259 78.1663C240.915 76.7117 243.67 75.4482 246.505 74.3856C246.947 74.2207 247.436 74.2384 247.865 74.4346C248.294 74.6308 248.627 74.9896 248.792 75.432C248.957 75.8743 248.939 76.3641 248.743 76.7935C248.547 77.2228 248.189 77.5567 247.747 77.7215C245.074 78.7217 242.475 79.9108 239.97 81.2799C239.708 81.4283 239.413 81.5072 239.112 81.5089L239.115 81.5023ZM298.337 81.4845C298.039 81.4837 297.746 81.4072 297.486 81.2621C294.977 79.8914 292.374 78.7023 289.696 77.7037C289.477 77.6221 289.276 77.4981 289.105 77.3389C288.934 77.1797 288.797 76.9883 288.699 76.7757C288.602 76.5631 288.548 76.3334 288.54 76.0998C288.531 75.8662 288.569 75.6332 288.65 75.4142C288.732 75.1951 288.856 74.9943 289.015 74.8232C289.174 74.6521 289.365 74.514 289.578 74.4168C289.79 74.3196 290.02 74.2653 290.253 74.2569C290.486 74.2485 290.719 74.2862 290.938 74.3678C293.775 75.4294 296.533 76.6928 299.19 78.1485C299.534 78.3392 299.806 78.6388 299.962 79.0003C300.117 79.3619 300.149 79.765 300.051 80.1465C299.954 80.5281 299.733 80.8664 299.422 81.1085C299.112 81.3506 298.73 81.4828 298.337 81.4845ZM255.579 75.3552C255.14 75.3548 254.717 75.1921 254.391 74.8983C254.065 74.6046 253.859 74.2006 253.813 73.764C253.767 73.3274 253.883 72.889 254.14 72.5333C254.397 72.1776 254.777 71.9296 255.206 71.837C258.163 71.1965 261.163 70.7676 264.182 70.5537C264.415 70.5372 264.65 70.5669 264.872 70.6411C265.094 70.7152 265.299 70.8324 265.476 70.986C265.652 71.1395 265.797 71.3264 265.902 71.5359C266.006 71.7455 266.069 71.9736 266.085 72.2072C266.102 72.4409 266.072 72.6755 265.998 72.8977C265.924 73.1198 265.807 73.3252 265.653 73.5021C265.5 73.679 265.313 73.8239 265.104 73.9285C264.894 74.0332 264.666 74.0955 264.433 74.1121C261.583 74.3144 258.751 74.7195 255.959 75.3241C255.834 75.3476 255.706 75.3581 255.579 75.3552ZM281.85 75.3552C281.723 75.355 281.597 75.3416 281.473 75.3152C278.68 74.712 275.848 74.3085 272.998 74.1076C272.527 74.0746 272.088 73.8554 271.778 73.4984C271.468 73.1414 271.312 72.6758 271.345 72.2039C271.378 71.732 271.597 71.2926 271.954 70.9823C272.311 70.672 272.776 70.5162 273.247 70.5493C276.266 70.7628 279.266 71.1901 282.224 71.8281C282.652 71.9207 283.032 72.1687 283.289 72.5244C283.546 72.8802 283.663 73.3185 283.616 73.7551C283.57 74.1917 283.364 74.5957 283.038 74.8894C282.712 75.1832 282.289 75.3459 281.85 75.3463V75.3552Z" fill="#95A6DB"/>
<path d="M330.552 135.822C330.081 135.822 329.629 135.635 329.295 135.301C328.962 134.967 328.775 134.515 328.775 134.043C328.775 132.606 328.724 131.152 328.624 129.726C328.607 129.493 328.637 129.258 328.71 129.036C328.784 128.814 328.901 128.608 329.055 128.431C329.208 128.254 329.395 128.109 329.604 128.004C329.813 127.9 330.041 127.837 330.274 127.82C330.508 127.804 330.742 127.833 330.964 127.907C331.186 127.981 331.392 128.098 331.568 128.252C331.745 128.405 331.89 128.592 331.995 128.802C332.1 129.011 332.162 129.239 332.179 129.473C332.285 130.985 332.339 132.522 332.339 134.043C332.339 134.277 332.292 134.51 332.202 134.726C332.113 134.942 331.981 135.139 331.815 135.304C331.649 135.47 331.452 135.6 331.235 135.689C331.018 135.778 330.786 135.823 330.552 135.822Z" fill="#95A6DB"/>
<path d="M354.3 136.865H354.278C354.109 136.862 353.943 136.821 353.792 136.743C353.641 136.666 353.51 136.556 353.409 136.42L342.064 121.149C341.976 121.032 341.913 120.899 341.877 120.757C341.84 120.616 341.832 120.469 341.853 120.324C341.874 120.18 341.922 120.04 341.997 119.915C342.071 119.789 342.169 119.679 342.286 119.592C342.403 119.504 342.536 119.44 342.677 119.404C342.818 119.368 342.965 119.36 343.11 119.381C343.254 119.401 343.393 119.45 343.519 119.525C343.644 119.599 343.754 119.697 343.841 119.814L354.342 133.939L364.785 120.96C364.873 120.837 364.985 120.734 365.115 120.656C365.244 120.578 365.388 120.528 365.538 120.508C365.687 120.487 365.839 120.498 365.984 120.538C366.13 120.579 366.265 120.648 366.383 120.743C366.5 120.838 366.598 120.955 366.668 121.089C366.739 121.222 366.782 121.369 366.794 121.519C366.806 121.67 366.787 121.821 366.739 121.964C366.691 122.107 366.614 122.239 366.514 122.352L355.166 136.449C355.062 136.579 354.93 136.684 354.78 136.756C354.63 136.828 354.466 136.865 354.3 136.865Z" fill="#95A6DB"/>
<path d="M206.889 136.865H206.867C206.698 136.862 206.531 136.82 206.381 136.743C206.23 136.666 206.099 136.556 205.998 136.42L194.653 121.149C194.476 120.913 194.4 120.616 194.442 120.324C194.484 120.032 194.639 119.769 194.875 119.592C195.111 119.415 195.407 119.339 195.699 119.381C195.99 119.422 196.254 119.578 196.43 119.814L206.92 133.934L217.363 120.955C217.451 120.833 217.563 120.729 217.693 120.652C217.822 120.574 217.966 120.523 218.115 120.503C218.265 120.483 218.417 120.493 218.562 120.534C218.708 120.574 218.843 120.644 218.961 120.739C219.078 120.833 219.175 120.951 219.246 121.084C219.317 121.218 219.359 121.364 219.371 121.515C219.384 121.665 219.365 121.817 219.317 121.96C219.269 122.103 219.192 122.235 219.091 122.347L207.746 136.445C207.644 136.574 207.513 136.679 207.365 136.752C207.217 136.825 207.054 136.863 206.889 136.865Z" fill="#95A6DB"/>
<path d="M432.459 376.478V380.984C432.458 381.829 432.122 382.639 431.525 383.237C430.928 383.835 430.119 384.17 429.275 384.171H374.339C373.494 384.171 372.684 383.835 372.086 383.238C371.489 382.64 371.153 381.83 371.152 380.984V376.478C371.153 375.633 371.489 374.822 372.086 374.225C372.684 373.627 373.494 373.292 374.339 373.292H429.279C429.697 373.291 430.111 373.373 430.498 373.534C430.884 373.694 431.235 373.928 431.531 374.224C431.827 374.52 432.061 374.872 432.221 375.259C432.381 375.645 432.463 376.06 432.463 376.478H432.459Z" fill="#FAD332"/>
<path d="M375.79 373.289H374.194V384.171H375.79V373.289Z" fill="#FABA23"/>
<path d="M382.482 373.289H380.887V384.171H382.482V373.289Z" fill="#FABA23"/>
<path d="M389.174 373.289H387.579V384.171H389.174V373.289Z" fill="#FABA23"/>
<path d="M395.867 373.289H394.271V384.171H395.867V373.289Z" fill="#FABA23"/>
<path d="M402.559 373.289H400.964V384.171H402.559V373.289Z" fill="#FABA23"/>
<path d="M409.252 373.289H407.656V384.171H409.252V373.289Z" fill="#FABA23"/>
<path d="M415.944 373.289H414.349V384.171H415.944V373.289Z" fill="#FABA23"/>
<path d="M422.633 373.289H421.038V384.171H422.633V373.289Z" fill="#FABA23"/>
<path d="M429.326 373.289H427.73V384.171H429.326V373.289Z" fill="#FABA23"/>
<path d="M431.708 374.43H371.895C372.194 374.074 372.569 373.788 372.991 373.593C373.413 373.398 373.873 373.298 374.339 373.3H429.279C429.742 373.301 430.198 373.402 430.618 373.597C431.037 373.792 431.409 374.076 431.708 374.43Z" fill="#FABA23"/>
<path d="M431.708 383.041H371.895C372.194 383.397 372.569 383.683 372.991 383.878C373.413 384.073 373.873 384.173 374.339 384.171H429.279C429.742 384.171 430.198 384.069 430.618 383.874C431.037 383.679 431.409 383.395 431.708 383.041Z" fill="#FABA23"/>
<path d="M436.303 365.597V370.103C436.303 370.948 435.967 371.76 435.37 372.358C434.772 372.956 433.962 373.292 433.117 373.292H378.176C377.332 373.291 376.522 372.955 375.925 372.357C375.328 371.759 374.992 370.948 374.992 370.103V365.597C374.992 365.178 375.074 364.764 375.234 364.377C375.394 363.99 375.628 363.639 375.924 363.343C376.22 363.047 376.571 362.812 376.957 362.652C377.344 362.492 377.758 362.41 378.176 362.41H433.117C433.961 362.41 434.771 362.746 435.369 363.343C435.966 363.941 436.302 364.751 436.303 365.597Z" fill="#FAD332"/>
<path d="M379.633 362.41H378.038V373.29H379.633V362.41Z" fill="#FABA23"/>
<path d="M386.324 362.41H384.729V373.29H386.324V362.41Z" fill="#FABA23"/>
<path d="M393.016 362.41H391.421V373.29H393.016V362.41Z" fill="#FABA23"/>
<path d="M399.708 362.41H398.113V373.29H399.708V362.41Z" fill="#FABA23"/>
<path d="M406.401 362.41H404.806V373.29H406.401V362.41Z" fill="#FABA23"/>
<path d="M413.093 362.41H411.498V373.29H413.093V362.41Z" fill="#FABA23"/>
<path d="M419.786 362.41H418.19V373.29H419.786V362.41Z" fill="#FABA23"/>
<path d="M426.478 362.41H424.883V373.29H426.478V362.41Z" fill="#FABA23"/>
<path d="M433.17 362.41H431.574V373.29H433.17V362.41Z" fill="#FABA23"/>
<path d="M435.55 363.533H375.743C376.043 363.177 376.418 362.891 376.84 362.696C377.262 362.501 377.722 362.401 378.187 362.403H433.128C433.589 362.404 434.045 362.505 434.463 362.701C434.881 362.896 435.252 363.18 435.55 363.533Z" fill="#FABA23"/>
<path d="M435.55 372.16H375.743C376.043 372.516 376.417 372.802 376.84 372.997C377.262 373.193 377.722 373.293 378.187 373.292H433.128C433.589 373.29 434.045 373.188 434.463 372.993C434.882 372.797 435.252 372.513 435.55 372.16Z" fill="#FABA23"/>
<path d="M433.323 354.735V359.24C433.323 359.659 433.241 360.074 433.081 360.461C432.921 360.848 432.686 361.199 432.39 361.495C432.094 361.792 431.743 362.027 431.357 362.187C430.97 362.347 430.556 362.43 430.137 362.43H375.197C374.352 362.429 373.542 362.093 372.945 361.495C372.348 360.897 372.013 360.086 372.013 359.24V354.735C372.012 354.316 372.095 353.902 372.254 353.515C372.414 353.128 372.649 352.777 372.945 352.481C373.24 352.185 373.591 351.95 373.978 351.79C374.364 351.63 374.778 351.548 375.197 351.548H430.137C430.982 351.548 431.792 351.884 432.389 352.481C432.987 353.079 433.323 353.889 433.323 354.735Z" fill="#FAD332"/>
<path d="M376.654 351.546H375.059V362.425H376.654V351.546Z" fill="#FABA23"/>
<path d="M383.344 351.546H381.749V362.425H383.344V351.546Z" fill="#FABA23"/>
<path d="M390.037 351.546H388.441V362.425H390.037V351.546Z" fill="#FABA23"/>
<path d="M396.729 351.546H395.134V362.425H396.729V351.546Z" fill="#FABA23"/>
<path d="M403.421 351.546H401.826V362.425H403.421V351.546Z" fill="#FABA23"/>
<path d="M410.114 351.546H408.519V362.425H410.114V351.546Z" fill="#FABA23"/>
<path d="M416.806 351.546H415.211V362.425H416.806V351.546Z" fill="#FABA23"/>
<path d="M423.498 351.546H421.902V362.425H423.498V351.546Z" fill="#FABA23"/>
<path d="M430.19 351.546H428.595V362.425H430.19V351.546Z" fill="#FABA23"/>
<path d="M432.57 352.678H372.764C373.063 352.323 373.435 352.039 373.855 351.844C374.276 351.648 374.733 351.548 375.197 351.548H430.137C430.6 351.547 431.058 351.648 431.479 351.843C431.899 352.038 432.271 352.323 432.57 352.678Z" fill="#FABA23"/>
<path d="M432.57 361.309H372.764C373.063 361.663 373.435 361.948 373.855 362.143C374.276 362.338 374.733 362.439 375.197 362.439H430.137C430.6 362.439 431.058 362.339 431.479 362.143C431.899 361.948 432.271 361.663 432.57 361.309Z" fill="#FABA23"/>
<path d="M434.552 344.071V348.576C434.552 349.422 434.216 350.232 433.618 350.83C433.021 351.428 432.211 351.763 431.366 351.763H376.423C375.579 351.763 374.769 351.427 374.172 350.829C373.575 350.232 373.24 349.421 373.239 348.576V344.071C373.239 343.225 373.575 342.414 374.172 341.816C374.769 341.218 375.579 340.882 376.423 340.882H431.364C432.209 340.882 433.019 341.218 433.616 341.816C434.214 342.414 434.549 343.225 434.55 344.071H434.552Z" fill="#FAD332"/>
<path d="M377.879 340.882H376.283V351.761H377.879V340.882Z" fill="#FABA23"/>
<path d="M384.571 340.882H382.976V351.761H384.571V340.882Z" fill="#FABA23"/>
<path d="M391.263 340.882H389.668V351.761H391.263V340.882Z" fill="#FABA23"/>
<path d="M397.956 340.882H396.36V351.761H397.956V340.882Z" fill="#FABA23"/>
<path d="M404.648 340.882H403.053V351.761H404.648V340.882Z" fill="#FABA23"/>
<path d="M411.339 340.882H409.744V351.761H411.339V340.882Z" fill="#FABA23"/>
<path d="M418.032 340.882H416.437V351.761H418.032V340.882Z" fill="#FABA23"/>
<path d="M424.724 340.882H423.129V351.761H424.724V340.882Z" fill="#FABA23"/>
<path d="M431.417 340.882H429.821V351.761H431.417V340.882Z" fill="#FABA23"/>
<path d="M433.797 342.014H373.99C374.29 341.657 374.664 341.371 375.087 341.176C375.509 340.98 375.969 340.88 376.434 340.882H431.375C431.836 340.883 432.292 340.985 432.71 341.181C433.129 341.376 433.499 341.66 433.797 342.014Z" fill="#FABA23"/>
<path d="M433.797 350.634H373.99C374.29 350.99 374.664 351.275 375.087 351.471C375.509 351.666 375.969 351.766 376.434 351.763H431.375C431.836 351.762 432.292 351.661 432.71 351.466C433.128 351.271 433.499 350.987 433.797 350.634Z" fill="#FABA23"/>
<path d="M427.699 333.027V337.531C427.699 338.376 427.364 339.187 426.767 339.785C426.17 340.383 425.36 340.719 424.515 340.72H369.575C368.73 340.72 367.919 340.384 367.322 339.786C366.724 339.188 366.389 338.376 366.389 337.531V333.027C366.389 332.181 366.724 331.37 367.322 330.772C367.919 330.174 368.73 329.838 369.575 329.838H424.515C424.934 329.838 425.348 329.92 425.735 330.08C426.121 330.24 426.472 330.475 426.768 330.771C427.064 331.068 427.298 331.419 427.458 331.806C427.618 332.193 427.7 332.608 427.699 333.027Z" fill="#FAD332"/>
<path d="M371.031 329.838H369.436V340.72H371.031V329.838Z" fill="#FABA23"/>
<path d="M377.722 329.838H376.127V340.72H377.722V329.838Z" fill="#FABA23"/>
<path d="M384.415 329.838H382.819V340.72H384.415V329.838Z" fill="#FABA23"/>
<path d="M391.107 329.838H389.512V340.72H391.107V329.838Z" fill="#FABA23"/>
<path d="M397.799 329.838H396.204V340.72H397.799V329.838Z" fill="#FABA23"/>
<path d="M404.492 329.838H402.896V340.72H404.492V329.838Z" fill="#FABA23"/>
<path d="M411.184 329.838H409.589V340.72H411.184V329.838Z" fill="#FABA23"/>
<path d="M417.875 329.838H416.279V340.72H417.875V329.838Z" fill="#FABA23"/>
<path d="M424.567 329.838H422.972V340.72H424.567V329.838Z" fill="#FABA23"/>
<path d="M426.949 330.967H367.143C367.442 330.611 367.817 330.326 368.239 330.13C368.661 329.935 369.121 329.835 369.587 329.837H424.527C424.988 329.839 425.444 329.941 425.862 330.136C426.28 330.331 426.651 330.615 426.949 330.967Z" fill="#FABA23"/>
<path d="M426.949 339.59H367.143C367.442 339.946 367.817 340.231 368.239 340.427C368.661 340.622 369.121 340.722 369.587 340.72H424.527C424.988 340.718 425.444 340.616 425.862 340.421C426.28 340.226 426.651 339.943 426.949 339.59Z" fill="#FABA23"/>
<path d="M434.439 322.272V326.777C434.438 327.622 434.102 328.433 433.505 329.03C432.908 329.628 432.099 329.964 431.255 329.964H376.314C375.469 329.964 374.659 329.629 374.062 329.031C373.464 328.433 373.129 327.623 373.128 326.777V322.272C373.129 321.426 373.464 320.616 374.062 320.018C374.659 319.42 375.469 319.085 376.314 319.085H431.255C431.673 319.084 432.087 319.167 432.473 319.327C432.86 319.487 433.211 319.722 433.507 320.017C433.802 320.313 434.037 320.665 434.197 321.052C434.357 321.439 434.439 321.853 434.439 322.272Z" fill="#FAD332"/>
<path d="M377.769 319.083H376.174V329.962H377.769V319.083Z" fill="#FABA23"/>
<path d="M384.462 319.083H382.866V329.962H384.462V319.083Z" fill="#FABA23"/>
<path d="M391.154 319.083H389.559V329.962H391.154V319.083Z" fill="#FABA23"/>
<path d="M397.846 319.083H396.251V329.962H397.846V319.083Z" fill="#FABA23"/>
<path d="M404.539 319.083H402.943V329.962H404.539V319.083Z" fill="#FABA23"/>
<path d="M411.231 319.083H409.636V329.962H411.231V319.083Z" fill="#FABA23"/>
<path d="M417.923 319.083H416.328V329.962H417.923V319.083Z" fill="#FABA23"/>
<path d="M424.616 319.083H423.021V329.962H424.616V319.083Z" fill="#FABA23"/>
<path d="M431.308 319.083H429.713V329.962H431.308V319.083Z" fill="#FABA23"/>
<path d="M433.687 320.215H373.881C374.181 319.859 374.555 319.573 374.977 319.378C375.4 319.183 375.86 319.083 376.325 319.085H431.266C431.727 319.086 432.183 319.187 432.601 319.382C433.019 319.578 433.39 319.861 433.687 320.215Z" fill="#FABA23"/>
<path d="M433.687 328.839H373.881C374.181 329.195 374.555 329.481 374.977 329.676C375.4 329.871 375.86 329.971 376.325 329.969H431.266C431.727 329.968 432.183 329.867 432.601 329.671C433.019 329.476 433.39 329.192 433.687 328.839Z" fill="#FABA23"/>
<path d="M432.05 311.357V315.862C432.05 316.281 431.968 316.696 431.808 317.084C431.648 317.471 431.413 317.823 431.118 318.119C430.822 318.415 430.47 318.65 430.084 318.811C429.697 318.971 429.282 319.054 428.864 319.054H373.923C373.079 319.053 372.269 318.717 371.672 318.119C371.075 317.521 370.739 316.71 370.739 315.865V311.359C370.739 310.94 370.821 310.526 370.981 310.139C371.141 309.752 371.375 309.401 371.671 309.105C371.967 308.809 372.318 308.574 372.704 308.414C373.091 308.254 373.505 308.172 373.923 308.172H428.864C429.708 308.172 430.519 308.508 431.116 309.105C431.713 309.703 432.049 310.513 432.05 311.359V311.357Z" fill="#FAD332"/>
<path d="M375.378 308.169H373.783V319.051H375.378V308.169Z" fill="#FABA23"/>
<path d="M382.071 308.169H380.476V319.051H382.071V308.169Z" fill="#FABA23"/>
<path d="M388.763 308.169H387.168V319.051H388.763V308.169Z" fill="#FABA23"/>
<path d="M395.456 308.169H393.86V319.051H395.456V308.169Z" fill="#FABA23"/>
<path d="M402.148 308.169H400.553V319.051H402.148V308.169Z" fill="#FABA23"/>
<path d="M408.84 308.169H407.245V319.051H408.84V308.169Z" fill="#FABA23"/>
<path d="M415.533 308.169H413.938V319.051H415.533V308.169Z" fill="#FABA23"/>
<path d="M422.225 308.169H420.63V319.051H422.225V308.169Z" fill="#FABA23"/>
<path d="M428.918 308.169H427.322V319.051H428.918V308.169Z" fill="#FABA23"/>
<path d="M431.297 309.299H371.49C371.79 308.943 372.164 308.658 372.587 308.462C373.009 308.267 373.469 308.167 373.934 308.169H428.864C429.327 308.169 429.785 308.27 430.205 308.465C430.625 308.66 430.998 308.945 431.297 309.299Z" fill="#FABA23"/>
<path d="M431.297 317.922H371.49C371.79 318.277 372.165 318.563 372.587 318.758C373.009 318.953 373.469 319.053 373.934 319.052H428.864C429.327 319.052 429.785 318.951 430.205 318.756C430.625 318.561 430.998 318.276 431.297 317.922Z" fill="#FABA23"/>
<path d="M435.332 300.537V305.043C435.332 305.888 434.996 306.698 434.399 307.296C433.802 307.893 432.993 308.229 432.148 308.23H377.208C376.363 308.23 375.553 307.894 374.956 307.297C374.358 306.699 374.022 305.888 374.021 305.043V300.537C374.022 299.692 374.358 298.881 374.956 298.284C375.553 297.686 376.363 297.35 377.208 297.35H432.148C432.566 297.35 432.981 297.432 433.367 297.592C433.754 297.752 434.105 297.987 434.4 298.283C434.696 298.579 434.931 298.931 435.09 299.317C435.25 299.704 435.333 300.119 435.332 300.537Z" fill="#FAD332"/>
<path d="M378.663 297.348H377.067V308.23H378.663V297.348Z" fill="#FABA23"/>
<path d="M385.355 297.348H383.76V308.23H385.355V297.348Z" fill="#FABA23"/>
<path d="M392.047 297.348H390.452V308.23H392.047V297.348Z" fill="#FABA23"/>
<path d="M398.74 297.348H397.145V308.23H398.74V297.348Z" fill="#FABA23"/>
<path d="M405.432 297.348H403.837V308.23H405.432V297.348Z" fill="#FABA23"/>
<path d="M412.125 297.348H410.529V308.23H412.125V297.348Z" fill="#FABA23"/>
<path d="M418.817 297.348H417.222V308.23H418.817V297.348Z" fill="#FABA23"/>
<path d="M425.508 297.348H423.913V308.23H425.508V297.348Z" fill="#FABA23"/>
<path d="M432.201 297.348H430.605V308.23H432.201V297.348Z" fill="#FABA23"/>
<path d="M434.581 298.48H374.783C375.083 298.124 375.457 297.839 375.88 297.643C376.302 297.448 376.762 297.348 377.227 297.35H432.168C432.628 297.353 433.082 297.455 433.498 297.65C433.915 297.845 434.284 298.128 434.581 298.48Z" fill="#FABA23"/>
<path d="M434.581 307.1H374.783C375.083 307.456 375.457 307.742 375.88 307.937C376.302 308.132 376.762 308.232 377.227 308.23H432.168C432.628 308.227 433.082 308.125 433.498 307.93C433.915 307.735 434.284 307.452 434.581 307.1Z" fill="#FABA23"/>
<path d="M382.611 383.029C399.809 377.352 409.153 358.797 403.482 341.583C397.811 324.369 379.272 315.016 362.075 320.693C344.877 326.369 335.533 344.925 341.204 362.138C346.875 379.352 365.413 388.705 382.611 383.029Z" fill="#FABA23"/>
<path d="M397.976 360.141C396.768 363.876 394.761 367.302 392.094 370.18C389.427 373.058 386.164 375.319 382.534 376.804C378.904 378.29 374.994 378.964 371.076 378.781C367.158 378.598 363.328 377.561 359.852 375.742C357.635 374.585 355.59 373.122 353.78 371.394C353.113 370.749 352.465 370.071 351.86 369.366C347.537 364.279 345.254 357.766 345.453 351.09C345.653 344.414 348.32 338.05 352.939 333.23C357.558 328.41 363.8 325.477 370.456 324.999C377.111 324.522 383.707 326.534 388.966 330.645C389.699 331.218 390.401 331.831 391.068 332.48C394.682 335.987 397.243 340.436 398.462 345.325C399.682 350.213 399.51 355.345 397.967 360.141H397.976Z" fill="#FAD332"/>
<path d="M388.974 330.645L351.869 369.366C347.393 364.111 345.097 357.339 345.452 350.443L369.826 325.012C376.696 324.372 383.551 326.387 388.983 330.645H388.974Z" fill="#FAEE6C"/>
<path d="M395.669 338.376L359.855 375.738C357.637 374.581 355.593 373.117 353.782 371.39L391.079 332.471C392.876 334.216 394.421 336.203 395.669 338.376Z" fill="#FAEE6C"/>
<path d="M374.153 326.235C370.971 325.899 370.389 326.213 368.96 329.037C369.315 325.892 369.002 325.31 366.158 323.842C369.34 324.176 369.922 323.862 371.351 321.038C371.006 324.222 371.331 324.805 374.153 326.235Z" fill="white"/>
<path d="M362.892 376.877C360.206 376.594 359.717 376.859 358.511 379.243C358.81 376.587 358.546 376.098 356.146 374.857C358.83 375.14 359.322 374.875 360.528 372.491C360.246 375.171 360.51 375.662 362.892 376.877Z" fill="white"/>
<path d="M393.598 242.905C373.754 242.905 357.604 226.746 357.604 206.877C357.604 187.009 373.748 170.849 393.598 170.849C413.448 170.849 429.593 187.009 429.593 206.877C429.593 226.746 413.444 242.905 393.598 242.905ZM393.598 172.644C374.734 172.644 359.381 188.005 359.381 206.893C359.381 225.781 374.728 241.142 393.598 241.142C412.469 241.142 427.815 225.781 427.815 206.893C427.815 188.005 412.46 172.644 393.598 172.644Z" fill="#E3EAFF"/>
<path d="M393.598 227.329C392.331 227.329 391.116 226.825 390.22 225.928C389.325 225.032 388.821 223.816 388.821 222.547V156.456C388.821 155.188 389.325 153.972 390.22 153.075C391.116 152.178 392.331 151.675 393.598 151.675C394.865 151.675 396.08 152.178 396.976 153.075C397.872 153.972 398.375 155.188 398.375 156.456V222.547C398.375 223.815 397.871 225.031 396.976 225.928C396.08 226.824 394.865 227.328 393.598 227.329Z" fill="#E3EAFF"/>
<path d="M393.598 242.905C373.754 242.905 357.604 226.746 357.604 206.877C357.604 187.009 373.748 170.849 393.598 170.849C413.448 170.849 429.593 187.009 429.593 206.877C429.593 226.746 413.444 242.905 393.598 242.905ZM393.598 172.644C374.734 172.644 359.381 188.005 359.381 206.893C359.381 225.781 374.728 241.142 393.598 241.142C412.469 241.142 427.815 225.781 427.815 206.893C427.815 188.005 412.46 172.644 393.598 172.644Z" fill="#E3EAFF"/>
<path d="M393.598 227.329C392.331 227.329 391.116 226.825 390.22 225.928C389.325 225.032 388.821 223.816 388.821 222.547V156.456C388.821 155.188 389.325 153.972 390.22 153.075C391.116 152.178 392.331 151.675 393.598 151.675C394.865 151.675 396.08 152.178 396.976 153.075C397.872 153.972 398.375 155.188 398.375 156.456V222.547C398.375 223.815 397.871 225.031 396.976 225.928C396.08 226.824 394.865 227.328 393.598 227.329Z" fill="#E3EAFF"/>
<path d="M393.925 231.254H393.741C393.019 231.227 392.314 231.036 391.677 230.695C391.04 230.355 390.488 229.875 390.064 229.291L370.227 203.853C369.851 203.346 369.579 202.769 369.427 202.156C369.275 201.543 369.246 200.906 369.341 200.282C369.436 199.658 369.654 199.059 369.982 198.519C370.31 197.98 370.741 197.51 371.251 197.139C371.761 196.767 372.34 196.5 372.953 196.353C373.567 196.207 374.204 196.183 374.827 196.284C375.449 196.385 376.046 196.608 376.582 196.941C377.118 197.274 377.583 197.71 377.95 198.224L394.225 218.753L409.476 197.919C409.881 197.433 410.378 197.032 410.939 196.74C411.5 196.448 412.113 196.269 412.743 196.216C413.373 196.163 414.007 196.235 414.609 196.429C415.211 196.623 415.768 196.934 416.249 197.345C416.73 197.756 417.124 198.259 417.409 198.824C417.695 199.388 417.865 200.004 417.911 200.635C417.956 201.267 417.876 201.901 417.675 202.501C417.474 203.101 417.156 203.655 416.739 204.131L397.558 229.573C397.11 230.099 396.553 230.522 395.926 230.812C395.299 231.102 394.616 231.253 393.925 231.254Z" fill="#E3EAFF"/>
<path d="M155.119 239.243C135.275 239.243 119.124 223.086 119.124 203.215C119.124 183.344 135.268 167.187 155.119 167.187C174.969 167.187 191.113 183.344 191.113 203.215C191.113 223.086 174.96 239.243 155.119 239.243ZM155.119 168.984C136.255 168.984 120.902 184.342 120.902 203.233C120.902 222.123 136.248 237.482 155.119 237.482C173.989 237.482 189.336 222.121 189.336 203.233C189.336 184.345 173.98 168.984 155.119 168.984Z" fill="#E3EAFF"/>
<path d="M173.534 221.653C183.704 211.474 183.704 194.969 173.534 184.789C163.364 174.609 146.874 174.609 136.704 184.789C126.534 194.969 126.534 211.474 136.704 221.653C146.874 231.833 163.364 231.833 173.534 221.653Z" fill="#E3EAFF"/>
<path d="M174.842 214.163C172.902 217.702 170.048 220.654 166.578 222.71C163.108 224.766 159.15 225.851 155.117 225.851C151.085 225.851 147.127 224.766 143.657 222.71C140.187 220.654 137.332 217.702 135.393 214.163C137.826 209.834 141.609 206.422 146.164 204.449C144.589 202.713 143.551 200.557 143.177 198.242C142.802 195.927 143.108 193.553 144.056 191.408C145.005 189.264 146.555 187.441 148.518 186.161C150.482 184.882 152.774 184.201 155.117 184.201C157.46 184.201 159.753 184.882 161.717 186.161C163.68 187.441 165.23 189.264 166.178 191.408C167.127 193.553 167.432 195.927 167.058 198.242C166.684 200.557 165.646 202.713 164.071 204.449C168.625 206.422 172.409 209.834 174.842 214.163Z" fill="#95A6DB"/>
<path d="M431.137 264.985L416.028 256.859L414.75 259.236C414.135 260.384 417.032 263.146 421.225 265.401C425.418 267.656 429.317 268.557 429.935 267.403C430.001 267.303 431.137 264.985 431.137 264.985Z" fill="#FABA23"/>
<path d="M431.153 265.158C430.535 266.306 426.636 265.41 422.443 263.157C418.25 260.904 415.353 258.137 415.971 256.99C416.588 255.842 420.486 256.739 424.678 258.991C428.871 261.244 431.77 264.009 431.153 265.158Z" fill="#FAD332"/>
<path d="M364.043 295.529L348.763 298.013C348.892 298.814 349.021 299.616 349.152 300.419C349.34 301.58 352.929 301.976 357.177 301.276C361.425 300.575 364.707 299.083 364.509 297.92C364.502 297.813 364.043 295.529 364.043 295.529Z" fill="#FABA23"/>
<path d="M364.15 295.645C364.338 296.806 361.052 298.313 356.817 298.998C352.582 299.683 348.981 299.305 348.792 298.142C348.603 296.979 351.903 295.473 356.124 294.786C360.346 294.099 363.961 294.482 364.15 295.645Z" fill="#FAD332"/>
<path d="M382.3 268.694L368.411 261.849C368.054 262.579 367.695 263.307 367.335 264.035C366.816 265.092 369.522 267.489 373.377 269.391C377.232 271.292 380.782 271.977 381.302 270.921C381.349 270.823 382.3 268.694 382.3 268.694Z" fill="#FABA23"/>
<path d="M382.32 268.853C381.8 269.909 378.252 269.224 374.397 267.322C370.542 265.421 367.833 263.024 368.355 261.967C368.878 260.911 372.422 261.594 376.279 263.495C380.136 265.397 382.84 267.794 382.32 268.853Z" fill="#FAD332"/>
<path d="M361.598 242.87L345.601 245.47C345.735 246.308 345.872 247.147 346.009 247.987C346.207 249.204 349.967 249.607 354.408 248.877C358.85 248.148 362.291 246.584 362.094 245.368C362.078 245.261 361.598 242.87 361.598 242.87Z" fill="#FABA23"/>
<path d="M361.71 242.995C361.907 244.211 358.466 245.783 354.024 246.506C349.582 247.229 345.823 246.826 345.625 245.617C345.428 244.407 348.867 242.828 353.309 242.105C357.75 241.382 361.512 241.774 361.71 242.995Z" fill="#FAD332"/>
<path d="M202.776 260.486H105.777C101.467 260.486 97.9736 263.983 97.9736 268.297V288.833C97.9736 293.146 101.467 296.643 105.777 296.643H202.776C207.085 296.643 210.579 293.146 210.579 288.833V268.297C210.579 263.983 207.085 260.486 202.776 260.486Z" fill="#E3EAFF"/>
<path d="M132.953 273.479V283.651C132.953 284.303 132.825 284.948 132.576 285.55C132.326 286.153 131.961 286.7 131.5 287.161C131.04 287.622 130.493 287.987 129.892 288.237C129.29 288.486 128.645 288.615 127.994 288.615H108.774C107.46 288.614 106.199 288.091 105.269 287.16C104.34 286.229 103.817 284.967 103.817 283.651V273.479C103.817 272.827 103.945 272.181 104.194 271.579C104.443 270.977 104.808 270.43 105.268 269.969C105.729 269.508 106.275 269.142 106.877 268.893C107.479 268.643 108.123 268.515 108.774 268.515H127.994C129.309 268.516 130.569 269.039 131.499 269.97C132.429 270.9 132.952 272.162 132.953 273.479Z" fill="#FABA23"/>
<path d="M172.127 282.703H140.236C139.14 282.703 138.088 282.267 137.313 281.491C136.537 280.715 136.102 279.662 136.102 278.565C136.102 277.467 136.538 276.415 137.313 275.639C138.089 274.864 139.14 274.428 140.236 274.428H172.127C173.223 274.428 174.275 274.864 175.05 275.639C175.826 276.415 176.262 277.467 176.262 278.565C176.262 279.662 175.827 280.715 175.051 281.491C174.276 282.267 173.224 282.703 172.127 282.703Z" fill="#95A6DB"/>
<path d="M200.603 282.703H184.621C183.525 282.703 182.474 282.266 181.699 281.49C180.924 280.714 180.488 279.662 180.488 278.565C180.488 277.467 180.924 276.415 181.699 275.64C182.474 274.864 183.525 274.428 184.621 274.428H200.603C201.699 274.428 202.75 274.864 203.525 275.64C204.3 276.415 204.736 277.467 204.736 278.565C204.736 279.662 204.3 280.714 203.525 281.49C202.75 282.266 201.699 282.703 200.603 282.703Z" fill="#4EAD60"/>
<path d="M130.974 269.513L106.042 287.792C105.358 287.34 104.798 286.724 104.41 286.002C104.022 285.279 103.819 284.471 103.82 283.651V273.478C103.82 272.827 103.948 272.181 104.197 271.579C104.446 270.977 104.811 270.43 105.271 269.969C105.732 269.508 106.278 269.142 106.88 268.893C107.481 268.643 108.126 268.515 108.777 268.515H127.997C129.071 268.514 130.117 268.864 130.974 269.513Z" fill="#FAD332"/>
<path d="M126.506 282.895C126.506 283.554 126.31 284.199 125.944 284.748C125.578 285.296 125.057 285.724 124.448 285.977C123.839 286.229 123.169 286.295 122.522 286.166C121.876 286.038 121.282 285.72 120.816 285.253C120.35 284.787 120.032 284.192 119.904 283.545C119.775 282.898 119.841 282.227 120.094 281.618C120.346 281.008 120.773 280.487 121.321 280.121C121.869 279.754 122.514 279.559 123.173 279.559C124.057 279.559 124.904 279.91 125.529 280.536C126.154 281.161 126.506 282.01 126.506 282.895Z" fill="#E62552"/>
<path d="M130.465 282.895C130.465 283.554 130.269 284.199 129.903 284.748C129.537 285.296 129.016 285.724 128.407 285.977C127.798 286.229 127.128 286.295 126.481 286.166C125.835 286.038 125.241 285.72 124.775 285.253C124.309 284.787 123.991 284.192 123.863 283.545C123.734 282.898 123.8 282.227 124.053 281.618C124.305 281.008 124.732 280.487 125.28 280.121C125.828 279.754 126.472 279.559 127.132 279.559C128.016 279.559 128.863 279.91 129.488 280.536C130.113 281.161 130.465 282.01 130.465 282.895Z" fill="#95A6DB"/>
<path d="M483.656 237.341C485.594 231.267 485.118 225.374 480.861 221.406C476.544 217.385 469.625 218.646 469.625 218.646C469.625 218.646 464.784 215.488 458.716 219.625C452.648 223.762 455.161 229.29 452.272 232.675C450.561 234.677 444.535 233.732 444.273 241.54C444.2 243.793 446.431 245.859 448.581 246.526C452.359 247.702 456.545 246.935 457.489 248.937C460.74 255.813 473.227 256.027 475.893 251.932C476.72 250.663 486.294 255.807 487.545 246.108C488.178 241.193 481.923 242.772 483.656 237.341Z" fill="#020205"/>
<path d="M458.926 234.955C458.14 242.432 462.259 248.995 468.127 249.613C473.995 250.231 479.388 244.669 480.174 237.192C480.961 229.715 476.841 223.15 470.973 222.532C465.105 221.914 459.713 227.476 458.926 234.955Z" fill="#F37A50"/>
<path d="M476.99 238.102C477.015 238.304 477.099 238.494 477.232 238.648C477.365 238.801 477.541 238.912 477.736 238.966C477.932 239.02 478.14 239.015 478.333 238.951C478.526 238.887 478.695 238.767 478.82 238.606C478.944 238.445 479.018 238.251 479.033 238.048C479.047 237.846 479.001 237.643 478.9 237.466C478.8 237.29 478.649 237.147 478.467 237.056C478.285 236.965 478.081 236.931 477.879 236.957C477.61 236.991 477.365 237.131 477.198 237.345C477.032 237.56 476.957 237.832 476.99 238.102Z" fill="black"/>
<path d="M468.738 237.292C468.764 237.511 468.855 237.716 468.999 237.883C469.142 238.049 469.332 238.17 469.543 238.229C469.755 238.287 469.98 238.282 470.188 238.213C470.397 238.144 470.581 238.015 470.716 237.842C470.851 237.668 470.932 237.459 470.948 237.239C470.965 237.02 470.915 236.801 470.807 236.609C470.699 236.418 470.536 236.263 470.34 236.164C470.144 236.065 469.922 236.027 469.704 236.054C469.412 236.09 469.146 236.24 468.965 236.473C468.784 236.705 468.702 237 468.738 237.292Z" fill="black"/>
<path d="M467.88 236.016C467.965 236.003 468.043 235.964 468.103 235.902C469.029 234.955 470.524 235.235 470.547 235.235C470.645 235.251 470.746 235.228 470.828 235.17C470.91 235.113 470.966 235.027 470.986 234.929C471.005 234.831 470.986 234.729 470.933 234.645C470.879 234.56 470.795 234.5 470.698 234.477C470.62 234.461 468.78 234.105 467.558 235.366C467.522 235.402 467.494 235.445 467.475 235.491C467.455 235.538 467.445 235.588 467.445 235.639C467.445 235.69 467.455 235.74 467.475 235.786C467.494 235.833 467.522 235.876 467.558 235.911C467.601 235.952 467.652 235.982 467.707 236.001C467.763 236.019 467.822 236.024 467.88 236.016Z" fill="#020205"/>
<path d="M479.605 237.448C479.648 237.444 479.689 237.432 479.728 237.413C479.819 237.368 479.89 237.288 479.923 237.191C479.956 237.095 479.95 236.989 479.905 236.897C479.692 236.458 479.364 236.085 478.956 235.817C478.548 235.549 478.075 235.397 477.588 235.375C477.485 235.375 477.387 235.416 477.314 235.489C477.242 235.561 477.201 235.66 477.201 235.762C477.201 235.865 477.242 235.964 477.314 236.036C477.387 236.109 477.485 236.149 477.588 236.149C477.931 236.169 478.263 236.28 478.55 236.47C478.836 236.661 479.066 236.925 479.217 237.235C479.252 237.306 479.308 237.364 479.378 237.402C479.447 237.441 479.527 237.457 479.605 237.448Z" fill="#020205"/>
<path d="M475.634 239.992C475.972 240.726 476.239 241.453 476.632 241.951C476.695 242.034 476.725 242.137 476.715 242.24C476.704 242.344 476.655 242.439 476.576 242.507C475.91 243.09 474.506 243.266 473.661 243.317C473.636 243.318 473.611 243.31 473.591 243.294C473.571 243.279 473.557 243.257 473.551 243.232C473.546 243.207 473.549 243.181 473.561 243.158C473.572 243.136 473.591 243.118 473.615 243.108C474.23 242.892 474.8 242.564 475.297 242.14C475.352 242.088 475.394 242.022 475.419 241.95C475.444 241.878 475.452 241.8 475.441 241.725C475.397 241.371 475.31 240.653 475.286 240.074C475.283 240.032 475.296 239.99 475.322 239.956C475.348 239.922 475.384 239.898 475.426 239.888C475.467 239.878 475.511 239.883 475.549 239.902C475.587 239.921 475.617 239.953 475.634 239.992Z" fill="#DE623C"/>
<path d="M467.711 243.372C467.693 243.315 467.693 243.253 467.709 243.195C467.726 243.137 467.759 243.085 467.805 243.046C467.851 243.007 467.907 242.982 467.967 242.974C468.027 242.967 468.088 242.977 468.142 243.003C469.871 243.889 471.71 244.54 473.61 244.938C473.669 244.952 473.722 244.982 473.764 245.026C473.806 245.069 473.834 245.124 473.845 245.184C473.855 245.243 473.849 245.304 473.825 245.36C473.802 245.415 473.763 245.463 473.712 245.496C473.207 245.869 472.618 246.112 471.997 246.205C471.376 246.297 470.742 246.236 470.15 246.026C469.559 245.817 469.027 245.465 468.602 245.003C468.177 244.54 467.872 243.98 467.713 243.372H467.711Z" fill="white"/>
<path d="M459.008 234.297C465.769 235.718 477.13 232.328 479.065 229.213C479.25 224.711 473.317 220.317 468.896 220.866C464.474 221.416 458.077 228.221 459.008 234.297Z" fill="#020205"/>
<path d="M478.914 254.512C485.873 256.249 497.769 272.526 498.884 284.734C495.065 285.525 490.701 282.476 490.701 282.476L481.247 268.864L478.914 254.512Z" fill="#DE623C"/>
<path d="M485.655 394.152L489.383 379.456L480.134 378.182C479.816 385.132 479.296 391.97 479.343 393.827L485.655 394.152Z" fill="#1B1464"/>
<path d="M463.574 378.098H453.918C454.233 380.415 455.502 392.956 455.502 392.956C456.318 394.811 463.514 394.388 463.514 393.345C462.97 391.085 463.53 378.387 463.574 378.098Z" fill="#1B1464"/>
<path d="M479.365 383.842L488.888 385.25L495.492 345.721C494.132 330.719 480.938 298.796 480.938 298.796L466.067 304.009L465.705 318.084L483.614 348.435C481.281 354.312 479.683 373.289 479.365 383.842Z" fill="#1B1464"/>
<path d="M472.004 299.863C471.868 298.936 471.822 298.647 471.051 298.184L456.77 294.13L453.369 297.488C450.149 309.188 452.144 325.463 454.684 338.38C450.967 349.557 452.42 372.602 453.918 383.433H464.074C464.663 376.194 464.478 362.763 464.518 356.276C465.834 351.063 467.102 345.503 468.235 339.654C469.686 332.182 471.499 324.943 471.999 318.166C472.457 311.737 472.593 304.845 472.004 299.863Z" fill="#1B1464"/>
<path d="M453.989 252.729C450.632 254.933 436.48 273.36 444.279 288.534C444.639 288.735 450.885 278.142 450.885 278.142L458.257 263.533L453.989 252.729Z" fill="#F37A50"/>
<path d="M461.095 243.141L469.96 248.181C469.96 248.181 470.747 251.775 471.14 252.94C471.951 255.346 468.845 256.396 466.221 254.899C464.606 253.966 463.147 252.785 461.897 251.399L461.095 243.141Z" fill="#F37A50"/>
<path d="M483.147 301.14C483.147 301.14 479.487 305.476 478.87 305.81L475.592 302.229L475.57 302.289L474.793 304.338L473.884 306.733C473.124 306.733 450.276 301.618 450.276 301.618C450.323 299.554 452.258 292.878 455.387 285.768C454.627 279.747 455.356 273.487 455.118 270.015C456.964 260.706 455.647 257.13 453.982 252.744L459.779 251.03L470.222 254.712L470.998 252.195C470.998 252.195 477.541 253.765 478.916 254.528L481.387 264.851L480.852 286.788C480.852 286.788 481.671 295.604 483.147 301.14Z" fill="#3F964F"/>
<path d="M461.801 249.853L457.713 251.59C458.144 256.505 469.129 259.441 469.129 259.441L470.22 254.699L461.801 249.853Z" fill="#0E6A41"/>
<path d="M470.22 254.699L473.455 258.295C473.455 258.295 476.252 255.404 475.232 253.612C474.212 251.819 470.513 250.614 470.513 250.614L470.22 254.699Z" fill="#0E6A41"/>
<path d="M483.394 393.914C484.362 391.372 486.429 391.09 486.429 391.09C490.448 396.456 500.318 393.162 499.982 400.43C484.973 400.337 478.734 400.43 478.734 400.43C478.754 398.762 479.052 394.806 479.401 393.258L480.183 393.396L483.394 393.914Z" fill="#2C2858"/>
<path d="M478.745 400.221H500V401.482C500 401.715 499.907 401.938 499.743 402.102C499.579 402.266 499.356 402.359 499.124 402.359H479.623C479.39 402.359 479.167 402.266 479.002 402.101C478.838 401.937 478.745 401.713 478.745 401.48V400.221Z" fill="#2C2858"/>
<path d="M475.57 302.281L474.793 304.329C474.088 299.616 471.46 279.888 472.944 274.441C474.333 269.326 472.595 263.931 470.911 258.716C470.5 257.439 470.073 256.123 469.709 254.846L470.22 254.697L470.731 254.552C471.091 255.811 471.513 257.121 471.922 258.389C473.653 263.753 475.439 269.3 473.966 274.722C472.689 279.423 474.648 295.618 475.57 302.281Z" fill="#0E6A41"/>
<path d="M465.234 400.493C465.234 400.493 464.03 395.991 463.923 395.415C463.801 394.748 463.447 393.203 463.376 392.406C463.359 392.211 461.288 390.943 459.708 390.945C457.568 390.945 455.62 392.191 455.58 392.424C455.326 393.925 455.32 395.691 454.913 397.155C454.609 398.242 453.782 400.775 453.782 400.775L465.234 400.493Z" fill="#2C2858"/>
<path d="M465.234 400.141C464.952 401.031 461.488 400.006 458.959 400.006C456.837 400.006 454.091 400.828 453.78 400.508C453.249 401.447 453.685 403.399 453.685 403.399C453.685 403.399 455.907 403.513 458.551 403.399C461.195 403.286 464.27 403.453 465.425 403.11C466.154 401.883 465.234 400.141 465.234 400.141Z" fill="#2C2858"/>
<path d="M469.669 273.38C469.669 273.38 451.382 291.728 444.279 288.539C441.937 285.37 446.91 279.009 451.569 276.879C456.228 274.748 463.996 271.412 463.996 271.412L469.669 273.38Z" fill="#F37A50"/>
<path d="M473.131 267.149L480.73 261.28C480.811 261.217 480.905 261.172 481.005 261.148C481.104 261.123 481.208 261.12 481.309 261.137L486.484 262.076C486.633 262.1 486.929 263.005 486.815 263.094L481.649 266.208C481.624 266.226 481.595 266.237 481.565 266.241L473.442 267.636C473.271 267.651 472.991 267.253 473.131 267.149Z" fill="#F9CD2D"/>
<path d="M473.521 267.709L480.747 262.19C480.829 262.127 480.923 262.082 481.023 262.058C481.123 262.033 481.227 262.03 481.329 262.047L486.675 262.95C486.708 262.956 486.738 262.972 486.762 262.995C486.787 263.017 486.804 263.047 486.812 263.079C486.82 263.112 486.818 263.146 486.807 263.177C486.796 263.209 486.777 263.236 486.75 263.257L481.667 267.113C481.642 267.131 481.613 267.143 481.582 267.147L473.643 268.016C473.606 268.021 473.569 268.012 473.536 267.993C473.504 267.974 473.479 267.944 473.465 267.91C473.451 267.875 473.449 267.836 473.459 267.8C473.47 267.764 473.491 267.732 473.521 267.709Z" fill="#F9F93A"/>
<path d="M463.797 271.51L468.067 269.371C468.067 269.371 470.774 266.422 471.622 265.541C472.704 265.227 474.809 264.318 475.237 264.349C475.63 264.406 476.016 264.501 476.39 264.634L473.92 266.568C473.92 266.568 474.926 267.033 476.339 266.468C477.752 265.903 480.385 264.169 481.401 264.791L481.723 265.207C481.723 265.207 482.612 264.516 483.149 264.985C484.807 266.464 474.122 272.836 474.122 272.836L469.678 273.369L463.797 271.51Z" fill="#F37A50"/>
<path d="M481.534 263.375C481.234 263.582 480.868 263.56 480.701 263.326C480.534 263.093 480.657 262.739 480.959 262.532C481.261 262.325 481.625 262.348 481.792 262.581C481.958 262.815 481.836 263.168 481.534 263.375Z" fill="#F9CD2D"/>
<path d="M498.884 284.734C498.884 284.734 489.406 295.582 482.807 297.114C482.416 294.941 482.054 293.276 482.054 293.276L491.048 281.424L498.884 284.734Z" fill="#DE623C"/>
<path d="M481.609 297.704C481.641 297.613 481.687 297.528 481.745 297.452L481.698 297.439C480.761 297.128 480.183 296.327 480.405 295.66C480.443 295.551 480.499 295.451 480.572 295.362C480.076 294.977 479.825 294.434 479.985 293.954C480.048 293.765 480.166 293.6 480.323 293.478C479.803 293.127 479.536 292.537 479.714 291.999C479.936 291.332 480.767 290.998 481.567 291.263C482.367 291.528 482.834 292.288 482.609 292.96C482.555 293.128 482.46 293.281 482.334 293.405C483.114 293.765 483.569 294.472 483.367 295.082C483.33 295.19 483.274 295.292 483.2 295.38C483.698 295.764 483.947 296.307 483.787 296.787C483.727 296.963 483.618 297.117 483.473 297.232C483.951 297.523 484.202 298.044 484.045 298.518C483.856 299.085 483.156 299.363 482.489 299.138C481.823 298.913 481.421 298.277 481.609 297.704Z" fill="#DE623C"/>
<path d="M461.141 235.411C462.241 237.13 461.994 239.254 460.588 240.155C459.181 241.055 457.15 240.393 456.051 238.673C454.951 236.954 455.2 234.831 456.604 233.93C458.008 233.029 460.041 233.692 461.141 235.411Z" fill="#F37A50"/>
<path d="M458.853 239.134C458.922 239.126 458.989 239.102 459.046 239.063C459.904 238.493 460.266 237.642 460.017 236.783C459.895 236.353 459.641 235.971 459.291 235.692C458.941 235.413 458.513 235.25 458.067 235.226C458.008 235.225 457.95 235.236 457.896 235.257C457.842 235.278 457.792 235.31 457.75 235.35C457.708 235.391 457.674 235.439 457.651 235.493C457.627 235.546 457.615 235.604 457.613 235.662C457.612 235.721 457.623 235.779 457.644 235.833C457.665 235.888 457.697 235.937 457.737 235.979C457.778 236.022 457.826 236.055 457.879 236.079C457.933 236.102 457.99 236.115 458.049 236.116C458.303 236.138 458.545 236.236 458.744 236.397C458.942 236.559 459.087 236.776 459.16 237.021C459.3 237.499 459.084 237.955 458.553 238.309C458.469 238.364 458.405 238.446 458.374 238.542C458.342 238.637 458.344 238.741 458.378 238.836C458.413 238.93 458.479 239.01 458.566 239.062C458.652 239.115 458.753 239.136 458.853 239.123V239.134Z" fill="#DE623C"/>
<path d="M30.8353 306.155C32.3936 309.008 33.0716 312.259 32.7837 315.497C32.4959 318.736 31.255 321.817 29.2181 324.349C27.1811 326.882 24.4396 328.753 21.3401 329.726C18.2406 330.7 14.9224 330.731 11.8052 329.817C8.68787 328.902 5.9115 327.083 3.82711 324.589C1.74273 322.096 0.443962 319.039 0.0950374 315.806C-0.253887 312.574 0.362705 309.31 1.86685 306.428C3.37099 303.547 5.69512 301.176 8.54534 299.616C10.4378 298.58 12.5156 297.928 14.66 297.696C16.8045 297.464 18.9736 297.657 21.0435 298.264C23.1134 298.871 25.0435 299.88 26.7236 301.234C28.4037 302.588 29.8009 304.26 30.8353 306.155Z" fill="white"/>
<path d="M21.5989 325.726L20.097 322.977C18.5061 323.813 16.6086 324.216 15.2866 324.056L14.9422 321.876C16.5249 321.997 18.1088 321.658 19.5037 320.9C21.4323 319.843 22.1278 318.009 21.2812 316.465C20.4636 314.968 18.8994 314.624 16.442 314.908C13.0758 315.338 10.6806 315.024 9.38746 312.656C8.15432 310.398 8.82088 307.807 11.0983 306.03L9.59632 303.284L11.2827 302.361L12.7247 305.001C14.3845 304.162 15.7354 303.987 16.7775 304.018L17.0774 306.186C15.7056 306.134 14.3461 306.463 13.1491 307.136C11.0561 308.279 10.9517 309.962 11.5449 311.05C12.3181 312.466 13.7113 312.622 16.6108 312.306C20.0325 311.917 22.2189 312.558 23.5409 314.975C24.7163 317.123 24.3208 319.955 21.7745 321.949L23.3187 324.778L21.5989 325.726Z" fill="#E3EAFF"/>
<path d="M495.743 89.0547C497.055 92.03 497.456 95.3279 496.895 98.5313C496.334 101.735 494.836 104.699 492.591 107.051C490.346 109.402 487.455 111.034 484.284 111.74C481.112 112.446 477.802 112.195 474.773 111.018C471.745 109.841 469.132 107.792 467.268 105.128C465.403 102.465 464.369 99.3082 464.297 96.0568C464.225 92.8054 465.118 89.6057 466.863 86.8625C468.609 84.1193 471.128 81.9559 474.102 80.646C478.086 78.8911 482.603 78.7909 486.661 80.3676C490.719 81.9443 493.985 85.0688 495.743 89.0547Z" fill="#D4DEFF"/>
<path d="M484.873 107.754L483.613 104.887C481.956 105.583 480.029 105.821 478.725 105.554L478.57 103.352C480.133 103.608 481.736 103.407 483.189 102.774C485.202 101.885 486.051 100.123 485.337 98.5065C484.651 96.9497 483.116 96.4693 480.649 96.5427C477.259 96.6828 474.899 96.1646 473.812 93.696C472.775 91.3409 473.661 88.8167 476.081 87.2466L474.821 84.3821L476.579 83.606L477.79 86.3592C479.087 85.799 480.506 85.5815 481.911 85.7276L482.027 87.9115C480.663 87.7439 479.279 87.9555 478.027 88.5231C475.843 89.4839 475.597 91.1518 476.097 92.2861C476.745 93.7628 478.118 94.0385 481.034 93.9718C484.478 93.8762 486.602 94.7013 487.713 97.2277C488.699 99.4694 488.064 102.256 485.355 104.024L486.655 106.975L484.873 107.754Z" fill="white"/>
<path d="M202.776 304.294H105.777C101.467 304.294 97.9736 307.791 97.9736 312.104V332.64C97.9736 336.954 101.467 340.451 105.777 340.451H202.776C207.085 340.451 210.579 336.954 210.579 332.64V312.104C210.579 307.791 207.085 304.294 202.776 304.294Z" fill="#E3EAFF"/>
<path d="M132.953 317.288V327.46C132.953 328.112 132.825 328.758 132.576 329.36C132.326 329.962 131.961 330.509 131.5 330.97C131.04 331.431 130.493 331.797 129.892 332.046C129.29 332.296 128.645 332.424 127.994 332.424H108.774C107.46 332.423 106.199 331.9 105.269 330.969C104.34 330.039 103.817 328.776 103.817 327.46V317.288C103.817 316.636 103.945 315.991 104.194 315.388C104.443 314.786 104.808 314.239 105.268 313.778C105.729 313.317 106.275 312.951 106.877 312.702C107.479 312.452 108.123 312.324 108.774 312.324H127.994C129.309 312.325 130.569 312.849 131.499 313.779C132.429 314.71 132.952 315.972 132.953 317.288Z" fill="#D6224C"/>
<path d="M172.127 326.511H140.236C139.14 326.511 138.089 326.075 137.313 325.299C136.538 324.524 136.102 323.471 136.102 322.374C136.102 321.276 136.537 320.224 137.313 319.448C138.088 318.671 139.14 318.235 140.236 318.235H172.127C173.224 318.235 174.276 318.671 175.051 319.448C175.827 320.224 176.262 321.276 176.262 322.374C176.262 323.471 175.826 324.524 175.05 325.299C174.275 326.075 173.223 326.511 172.127 326.511Z" fill="#95A6DB"/>
<path d="M200.603 326.511H184.621C183.525 326.511 182.474 326.075 181.699 325.299C180.924 324.523 180.488 323.471 180.488 322.374C180.488 321.277 180.924 320.224 181.699 319.448C182.474 318.672 183.525 318.236 184.621 318.235H200.603C201.699 318.236 202.75 318.672 203.525 319.448C204.3 320.224 204.736 321.277 204.736 322.374C204.736 323.471 204.3 324.523 203.525 325.299C202.75 326.075 201.699 326.511 200.603 326.511Z" fill="#4EAD60"/>
<path d="M130.974 313.323L106.042 331.601C105.358 331.149 104.798 330.534 104.41 329.811C104.022 329.088 103.819 328.281 103.82 327.46V317.288C103.82 316.636 103.948 315.991 104.197 315.388C104.446 314.786 104.811 314.239 105.271 313.778C105.732 313.317 106.278 312.951 106.88 312.702C107.481 312.452 108.126 312.324 108.777 312.324H127.997C129.071 312.323 130.117 312.674 130.974 313.323Z" fill="#E62552"/>
<path d="M123.25 330.049C125.091 329.995 126.54 328.457 126.486 326.614C126.432 324.772 124.895 323.321 123.054 323.376C121.213 323.43 119.764 324.967 119.818 326.81C119.872 328.653 121.409 330.103 123.25 330.049Z" fill="#FAC832"/>
<path d="M130.465 326.705C130.465 327.364 130.269 328.009 129.903 328.558C129.537 329.107 129.016 329.534 128.407 329.787C127.798 330.039 127.128 330.105 126.481 329.976C125.835 329.848 125.241 329.53 124.775 329.063C124.309 328.597 123.991 328.002 123.863 327.355C123.734 326.708 123.8 326.038 124.053 325.428C124.305 324.818 124.732 324.297 125.28 323.931C125.828 323.564 126.472 323.369 127.132 323.369C128.016 323.369 128.863 323.72 129.488 324.346C130.113 324.971 130.465 325.82 130.465 326.705Z" fill="#95A6DB"/>
<path d="M202.776 348.103H105.777C101.467 348.103 97.9736 351.6 97.9736 355.913V376.449C97.9736 380.763 101.467 384.26 105.777 384.26H202.776C207.085 384.26 210.579 380.763 210.579 376.449V355.913C210.579 351.6 207.085 348.103 202.776 348.103Z" fill="#E3EAFF"/>
<path d="M132.953 361.086V371.259C132.953 371.911 132.825 372.556 132.576 373.158C132.326 373.761 131.961 374.308 131.5 374.769C131.04 375.23 130.493 375.595 129.892 375.845C129.29 376.094 128.645 376.223 127.994 376.223H108.774C107.46 376.222 106.199 375.699 105.269 374.768C104.34 373.837 103.817 372.575 103.817 371.259V361.086C103.817 360.435 103.945 359.789 104.194 359.187C104.443 358.585 104.808 358.038 105.268 357.577C105.729 357.116 106.275 356.75 106.877 356.5C107.479 356.251 108.123 356.123 108.774 356.123H127.994C129.309 356.124 130.569 356.647 131.499 357.578C132.429 358.508 132.952 359.77 132.953 361.086Z" fill="#FABA23"/>
<path d="M172.127 370.32H140.236C139.14 370.32 138.088 369.884 137.313 369.108C136.537 368.332 136.102 367.279 136.102 366.182C136.102 365.084 136.537 364.031 137.313 363.255C138.088 362.479 139.14 362.043 140.236 362.043H172.127C173.224 362.043 174.276 362.479 175.051 363.255C175.827 364.031 176.262 365.084 176.262 366.182C176.262 367.279 175.827 368.332 175.051 369.108C174.276 369.884 173.224 370.32 172.127 370.32Z" fill="#95A6DB"/>
<path d="M200.603 370.32H184.621C183.525 370.32 182.474 369.883 181.699 369.107C180.924 368.331 180.488 367.279 180.488 366.182C180.488 365.084 180.924 364.032 181.699 363.256C182.474 362.48 183.525 362.043 184.621 362.043H200.603C201.699 362.043 202.75 362.48 203.525 363.256C204.3 364.032 204.736 365.084 204.736 366.182C204.736 367.279 204.3 368.331 203.525 369.107C202.75 369.883 201.699 370.32 200.603 370.32Z" fill="#4EAD60"/>
<path d="M130.974 357.13L106.042 375.409C105.358 374.956 104.798 374.341 104.41 373.618C104.022 372.896 103.819 372.088 103.82 371.268V361.086C103.82 360.435 103.948 359.789 104.197 359.187C104.446 358.585 104.811 358.038 105.271 357.577C105.732 357.116 106.278 356.75 106.88 356.5C107.481 356.251 108.126 356.123 108.777 356.123H127.997C129.072 356.124 130.118 356.478 130.974 357.13Z" fill="#FAD332"/>
<path d="M126.506 370.511C126.506 371.171 126.31 371.816 125.944 372.365C125.578 372.913 125.057 373.341 124.448 373.593C123.839 373.846 123.169 373.912 122.522 373.783C121.876 373.655 121.282 373.337 120.816 372.87C120.35 372.404 120.032 371.809 119.904 371.162C119.775 370.515 119.841 369.844 120.094 369.235C120.346 368.625 120.773 368.104 121.321 367.738C121.869 367.371 122.514 367.176 123.173 367.176C124.057 367.176 124.904 367.527 125.529 368.153C126.154 368.778 126.506 369.627 126.506 370.511Z" fill="#E62552"/>
<path d="M130.465 370.511C130.465 371.171 130.269 371.816 129.903 372.365C129.537 372.913 129.016 373.341 128.407 373.593C127.798 373.846 127.128 373.912 126.481 373.783C125.835 373.655 125.241 373.337 124.775 372.87C124.309 372.404 123.991 371.809 123.863 371.162C123.734 370.515 123.8 369.844 124.053 369.235C124.305 368.625 124.732 368.104 125.28 367.738C125.828 367.371 126.472 367.176 127.132 367.176C128.016 367.176 128.863 367.527 129.488 368.153C130.113 368.778 130.465 369.627 130.465 370.511Z" fill="#95A6DB"/>
</svg>
