<svg width="539" height="320" viewBox="0 0 539 320" fill="none" xmlns="http://www.w3.org/2000/svg">
<g clip-path="url(#clip0_185_2897)">
<path d="M238.972 135.287L196.589 185.64L129.459 129.137L101.173 105.329L143.557 54.981L196.369 99.4311L238.972 135.287Z" fill="#242E6C"/>
<path d="M228.778 136.327L195.874 175.417L110.113 103.232L143.017 64.145L228.778 136.327ZM198.718 169.619L223.534 140.13C224.341 139.168 224.733 137.925 224.625 136.674C224.517 135.423 223.919 134.266 222.96 133.455L146.893 69.4404C145.915 68.617 144.65 68.2157 143.376 68.3249C142.102 68.4341 140.924 69.0448 140.1 70.0227L115.386 99.3837C114.98 99.8642 114.673 100.42 114.482 101.02C114.291 101.619 114.22 102.25 114.274 102.877C114.328 103.504 114.504 104.114 114.794 104.673C115.084 105.231 115.481 105.727 115.963 106.131L192.08 170.196C192.554 170.594 193.101 170.895 193.691 171.081C194.281 171.268 194.902 171.336 195.519 171.282C196.135 171.229 196.735 171.054 197.284 170.769C197.833 170.483 198.32 170.093 198.718 169.619Z" fill="#B1C9F6"/>
<path d="M160.591 130.299C158.511 128.549 156.997 126.221 156.241 123.61C155.484 120.999 155.519 118.223 156.34 115.631C157.162 113.04 158.733 110.751 160.855 109.053C162.978 107.354 165.556 106.323 168.265 106.09C170.973 105.857 173.69 106.433 176.071 107.743C178.453 109.054 180.392 111.041 181.644 113.454C182.896 115.867 183.404 118.597 183.105 121.298C182.805 124 181.712 126.552 179.962 128.632C178.799 130.014 177.376 131.153 175.774 131.985C174.171 132.816 172.42 133.324 170.622 133.479C168.823 133.633 167.011 133.432 165.29 132.887C163.569 132.341 161.972 131.462 160.591 130.299Z" fill="#B1C9F6"/>
<path d="M278.553 99.5486L226.016 129.357L186.272 59.3193L169.525 29.8084L222.062 0L253.329 55.101L278.553 99.5486Z" fill="#242E6C"/>
<path d="M269.449 97.1796L228.663 120.323L177.887 30.8556L218.676 7.7146L269.449 97.1796ZM232.961 116.242L263.721 98.789C264.723 98.2191 265.458 97.2748 265.764 96.1633C266.071 95.0519 265.924 93.8643 265.355 92.8613L220.32 13.4998C219.741 12.4793 218.78 11.7306 217.648 11.4185C216.517 11.1064 215.308 11.2564 214.287 11.8355L183.66 29.2287C183.159 29.5128 182.718 29.893 182.363 30.3475C182.009 30.802 181.747 31.322 181.594 31.8776C181.441 32.4332 181.398 33.0137 181.469 33.5857C181.54 34.1578 181.724 34.7102 182.008 35.2114L227.073 114.623C227.638 115.619 228.576 116.35 229.68 116.655C230.784 116.961 231.964 116.816 232.961 116.252V116.242Z" fill="#B1C9F6"/>
<path d="M212.693 70.25C211.462 68.0795 210.901 65.5925 211.083 63.1037C211.265 60.6148 212.181 58.2358 213.716 56.2675C215.25 54.2992 217.333 52.8299 219.702 52.0456C222.071 51.2613 224.62 51.1971 227.026 51.8611C229.431 52.5252 231.586 53.8876 233.217 55.7762C234.849 57.6647 235.883 59.9946 236.19 62.4712C236.498 64.9477 236.063 67.4597 234.943 69.6895C233.822 71.9193 232.065 73.7667 229.895 74.9981C228.454 75.8161 226.865 76.3422 225.221 76.5463C223.576 76.7504 221.908 76.6285 220.31 76.1875C218.713 75.7466 217.218 74.9953 215.911 73.9765C214.604 72.9577 213.511 71.6914 212.693 70.25Z" fill="#B1C9F6"/>
<path d="M527.347 176.019C522.046 153.605 484.321 159.338 484.321 159.338C484.321 159.338 457.603 197.39 450.165 198.088C442.728 198.785 466.66 161.085 466.66 161.085C452.352 159.23 415.209 175.641 415.209 175.641C415.209 175.641 416.059 221.084 408.682 219.919C401.304 218.755 409.984 179.642 409.984 179.642C395.961 183.361 382.473 199.135 382.473 199.135C365.416 225 399.512 245.564 399.512 245.564C399.512 245.564 399.465 261.308 389.161 279.051C389.161 279.051 386.859 282.315 384.445 287.908L388.231 288.03C388.573 287.03 388.947 286.062 389.353 285.124C389.352 285.121 389.351 285.119 389.351 285.116C389.351 285.114 389.352 285.111 389.353 285.109L389.373 285.069C389.651 284.491 390.05 283.672 390.548 282.672C391.777 280.445 392.612 278.799 393.147 277.607C396.843 270.609 402.144 261.51 405.53 259.676C405.204 259.129 404.952 258.54 404.78 257.927C405.03 258.489 405.28 259.074 405.53 259.676C411.563 273.773 443.895 277.134 462.069 274.015C480.242 270.897 472.538 265.549 463.083 256.97C453.629 248.39 433.188 249.91 427.273 246.474C421.357 243.038 430.272 240.081 442.268 241.396C454.264 242.71 459.904 254.943 479.288 257.422C498.671 259.901 514.671 223.808 514.671 223.808C501.108 227.541 477.276 219.357 476.499 214.696C475.722 210.035 511.354 211.652 516.955 210.448C522.556 209.243 532.647 198.435 527.347 176.019Z" fill="#242E6C"/>
<path d="M350.831 125.968C359.193 114.298 379.589 126.533 379.589 126.533C379.589 126.533 385.984 154.804 390.11 156.961C394.236 159.118 389.361 131.721 389.361 131.721C398.048 134.04 415.579 152.293 415.579 152.293C415.579 152.293 404.333 178.283 408.861 179.37C413.39 180.457 417.646 155.839 417.646 155.839C424.851 161.302 428.892 173.582 428.892 173.582C432.603 192.532 408.077 196.323 408.077 196.323C408.077 196.323 404.373 205.417 406.117 218.087C406.519 220.137 406.727 222.221 406.74 224.31L404.528 223.485C404.568 222.823 404.583 222.176 404.568 221.543C404.568 221.543 404.568 221.526 404.568 221.516C404.545 221.119 404.508 220.551 404.458 219.857C404.276 218.28 404.183 217.133 404.158 216.318C403.683 211.41 402.786 204.91 401.264 203.048C401.583 202.807 401.87 202.526 402.116 202.211L401.264 203.048C394.449 209.75 375.01 204.048 365.276 197.933C355.542 191.817 361.243 190.573 368.725 187.864C376.208 185.155 387.634 190.863 391.857 190.291C396.081 189.718 391.647 185.897 384.415 183.813C377.182 181.729 371.037 187.449 359.273 184.29C347.51 181.132 346.83 156.536 346.83 156.536C353.765 161.897 369.445 162.819 370.997 160.317C372.549 157.816 351.618 150.321 348.674 148.287C345.73 146.253 342.469 137.639 350.831 125.968Z" fill="#242E6C"/>
<path d="M311.794 128.47C299.129 114.113 273.715 133.09 273.715 133.09C273.715 133.09 269.036 171.463 263.853 174.879C258.67 178.295 261.446 141.292 261.446 141.292C250.233 145.541 229.43 172.115 229.43 172.115C229.43 172.115 247.853 205.102 241.988 207.136C236.122 209.171 227.166 177.098 227.166 177.098C218.341 185.315 214.635 202.171 214.635 202.171C212.261 227.813 245.314 229.538 245.314 229.538C245.314 229.538 251.452 241.106 250.845 258.146C250.845 258.146 250.435 261.44 250.857 266.486L253.682 265.094C253.539 264.222 253.432 263.364 253.367 262.522C253.365 262.517 253.365 262.512 253.367 262.507C253.368 262.495 253.368 262.482 253.367 262.47C253.347 261.94 253.317 261.18 253.289 260.253C253.317 258.139 253.289 256.602 253.209 255.52C253.179 248.943 253.494 240.199 255.264 237.527C254.805 237.25 254.385 236.914 254.014 236.527L255.264 237.527C265.208 245.499 290.229 235.3 302.333 225.894C314.436 216.488 306.691 215.586 296.4 212.999C286.108 210.413 271.715 219.534 266.035 219.332C260.354 219.129 265.723 213.476 275.032 209.738C284.341 205.999 293.276 212.759 308.453 206.989C323.63 201.219 321.224 168.487 321.224 168.487C312.744 176.536 292.064 179.87 289.669 176.758C287.275 173.647 314.034 160.872 317.66 157.793C321.286 154.714 324.463 142.829 311.794 128.47Z" fill="#242E6C"/>
<path d="M522.085 142.437C522.085 142.437 537.73 158.658 538.47 164.763C539.21 170.868 530.972 180.397 530.972 180.397L522.085 142.437Z" fill="#F24B46"/>
<path d="M515.016 310.536C515.016 310.536 514.466 319.14 512.799 319.258C512.579 319.275 504.357 319.258 504.357 319.258L493.86 319.173C493.86 319.173 493.933 316.644 497.004 316.117C500.076 315.589 505.211 313.443 507.081 309.392C509.05 305.131 515.016 310.536 515.016 310.536Z" fill="#6615B2"/>
<path d="M538.395 310.596C538.395 310.596 537.843 319.2 536.178 319.32C535.956 319.335 527.734 319.32 527.734 319.32L517.237 319.238C517.237 319.238 517.312 316.709 520.381 316.179C523.45 315.649 528.591 313.508 530.458 309.457C532.422 305.181 538.395 310.596 538.395 310.596Z" fill="#6615B2"/>
<path d="M503.592 218.032C503.592 218.032 506.301 235.596 516.472 266.783C526.644 297.971 528.013 311.471 528.013 311.471L539.01 311.186C539.01 311.186 539.177 277.127 534.491 261.455C529.805 245.784 533.597 204.955 533.597 204.955L503.592 218.032Z" fill="#1B2251"/>
<path d="M498.274 205.827C498.274 205.827 497.827 232.284 502.335 264.777C506.844 297.269 505.259 311.056 505.259 311.056L516.223 311.446C516.223 311.446 522.846 278.959 521.004 262.7C519.162 246.441 530.096 206.927 530.096 206.927L498.274 205.827Z" fill="#242E6C"/>
<path d="M519.631 143.961L513.783 147.777L505.344 146.188C505.461 145.506 506.026 142.689 506.538 140.125C506.568 139.975 506.601 139.823 506.631 139.675C507.068 137.501 507.448 135.632 507.448 135.632L515.34 132.168L518.284 130.879C518.284 130.924 518.052 133.293 518.019 133.64C517.455 139.783 519.631 143.961 519.631 143.961Z" fill="#FF938F"/>
<path d="M507.516 142.002C507.678 141.934 517.687 139.003 518.762 139.365C519.836 139.728 520.486 141.83 520.486 141.83L504.117 145.493C504.117 145.493 505.424 142.879 507.516 142.002Z" fill="#F24B46"/>
<path d="M534.304 209.171C532.592 216.903 504.372 217.757 497.114 210.723C496.29 209.92 496.257 206.197 496.58 201.176C497.212 191.37 499.204 176.623 499.296 169.084C499.379 165.472 499.789 161.875 500.523 158.338C501.395 153.969 502.601 149.673 504.13 145.488C504.13 145.488 517.922 141.062 520.499 141.825C532.915 145.508 536.016 201.441 534.304 209.171Z" fill="#F9795A"/>
<path d="M496.579 201.177C497.211 191.37 499.203 176.624 499.296 169.084C499.378 165.472 499.789 161.876 500.523 158.338L508.815 156.894C508.815 156.894 516.85 190.023 496.579 201.177Z" fill="#F24B46"/>
<path d="M501.098 187.517C501.098 187.517 501.66 188.869 500.473 189.766C499.286 190.663 498.511 192.137 498.778 193.212C499.046 194.286 501.648 196.043 502.552 195.763C503.457 195.483 505.301 194.072 505.099 193.514C504.896 192.957 506.348 188.549 504.147 186.847C501.945 185.145 501.098 187.517 501.098 187.517Z" fill="#FF938F"/>
<path d="M510.465 143.521C510.465 143.521 502.375 145.021 495.912 154.497C489.449 163.974 485.196 171.026 486.375 174.452C487.555 177.878 498.346 189.766 500.21 189.771C502.075 189.776 505.089 188.424 505.264 185.373C505.264 185.373 497.674 173.942 499.178 172.235C499.821 171.506 509.082 164.021 510.397 167.415C512.569 173.027 510.465 143.521 510.465 143.521Z" fill="#F9795A"/>
<path d="M517.427 133.748C515.691 136.677 509.233 139.198 506.539 140.125C506.569 139.975 506.601 139.823 506.631 139.676C507.068 137.501 507.448 135.632 507.448 135.632L515.341 132.168C517.085 132.148 518.145 132.541 517.427 133.748Z" fill="#FF7D78"/>
<path d="M504.477 135.145C504.477 135.145 517.17 139.143 519.534 131.191C521.898 123.239 525.127 118.416 517.122 115.532C509.118 112.648 506.626 115.21 505.201 117.669C503.777 120.128 501.238 133.915 504.477 135.145Z" fill="#FF938F"/>
<path d="M505.701 116.904C505.701 116.904 506.491 126.151 508.405 125.758C510.32 125.366 512.054 125.066 511.767 127.853C511.479 130.639 508.823 133.85 514.716 134.35C520.609 134.85 529.116 119.673 527.504 116.792C522.848 108.488 498.971 106.758 505.701 116.904Z" fill="#1B2251"/>
<path d="M129.396 183.321C129.396 183.321 134.224 191.503 138.643 191.615C143.061 191.728 149.804 187.824 149.804 187.824C149.804 187.824 153.87 176.923 151.114 172.657C151.114 172.657 148.347 171.198 145.458 173.777C144.891 174.29 144.387 174.869 143.959 175.501C143.405 176.365 142.591 177.029 141.634 177.398C138.475 178.555 134.727 175.834 133.325 178.46C132.655 179.715 131.834 180.883 130.881 181.939C130.427 182.442 129.93 182.904 129.396 183.321Z" fill="#242E6C"/>
<path d="M198.656 302.934C198.656 302.934 210.512 198.922 144.554 191.615C144.554 191.615 93.3736 203.803 106.137 302.934H198.656Z" fill="#242E6C"/>
<path d="M152.976 193.142C152.976 193.142 140.662 196.436 136.861 194.499C136.861 194.499 136.289 188.304 141.474 189.174C145.023 189.768 147.335 187.714 148.694 186.882C150.619 185.697 153.485 190.543 152.976 193.142Z" fill="#C643DB"/>
<path d="M142.259 183.796C143.047 184.508 145.466 173.777 145.466 173.777C144.899 174.29 144.395 174.869 143.966 175.501C143.413 176.365 142.599 177.029 141.642 177.398C141.637 177.711 141.495 183.103 142.259 183.796Z" fill="#1B2251"/>
<path d="M130.891 181.939C131.066 182.061 136.761 186.165 137.533 186.165C138.306 186.165 133.335 178.46 133.335 178.46C132.665 179.715 131.844 180.883 130.891 181.939Z" fill="#1B2251"/>
<path d="M357.577 97.091C366.649 88.0197 366.649 73.3123 357.577 64.2411C348.506 55.1698 333.797 55.1698 324.726 64.241C315.654 73.3123 315.654 88.0197 324.726 97.091C333.797 106.162 348.506 106.162 357.577 97.091Z" fill="#F24B46"/>
<path d="M348.409 102.6C360.195 97.5317 365.64 83.8694 360.572 72.0843C355.504 60.2992 341.841 54.854 330.055 59.9221C318.269 64.9903 312.824 78.6526 317.892 90.4378C322.96 102.223 336.624 107.668 348.409 102.6Z" fill="url(#paint0_linear_185_2897)"/>
<path d="M346.125 101.62C341.488 103.195 336.448 103.113 331.864 101.388C327.281 99.6639 323.437 96.4034 320.988 92.1625C318.539 87.9217 317.636 82.9629 318.433 78.1311C319.231 73.2994 321.679 68.8935 325.361 65.6644C329.043 62.4353 333.73 60.5827 338.625 60.4223C343.52 60.2618 348.319 61.8035 352.204 64.7846C356.09 67.7656 358.821 72.0017 359.933 76.7709C361.046 81.5401 360.47 86.5473 358.304 90.9394C357.081 93.4366 355.375 95.6665 353.284 97.4999C351.194 99.3332 348.761 100.734 346.125 101.62ZM332.922 62.7329C329.194 63.9978 325.925 66.3397 323.528 69.4624C321.131 72.5852 319.715 76.3486 319.457 80.2766C319.199 84.2047 320.112 88.1209 322.08 91.5301C324.048 94.9393 326.983 97.6883 330.514 99.4294C334.045 101.171 338.012 101.826 341.915 101.312C345.818 100.798 349.481 99.1382 352.441 96.5426C355.401 93.947 357.524 90.532 358.543 86.7296C359.561 82.9271 359.429 78.908 358.164 75.1806C356.462 70.1869 352.848 66.0721 348.116 63.7386C343.385 61.4051 337.92 61.0434 332.922 62.7329Z" fill="#F24B46"/>
<path d="M344.054 86.4586C343.976 86.0529 343.826 85.6644 343.611 85.3116C343.402 84.986 343.122 84.7125 342.791 84.5119C342.393 84.2729 341.962 84.0928 341.512 83.9771C340.916 83.8222 340.31 83.7102 339.698 83.6422C338.575 83.5007 337.459 83.3031 336.356 83.0499C335.419 82.8418 334.515 82.5055 333.67 82.0503C332.91 81.6377 332.245 81.0708 331.718 80.386C330.66 78.877 330.241 77.0119 330.551 75.1955C330.713 74.3863 331.043 73.62 331.52 72.9464C332.029 72.2368 332.659 71.6233 333.382 71.1346C334.203 70.5813 335.103 70.155 336.051 69.8701L335.322 66.4339L338.088 65.8467L338.838 69.3453C339.798 69.2593 340.765 69.3311 341.702 69.5577C342.566 69.7652 343.379 70.1437 344.094 70.6708C344.809 71.1979 345.412 71.8629 345.865 72.6265C346.381 73.492 346.745 74.4396 346.94 75.4279L341.942 76.4875C341.669 75.203 341.18 74.3034 340.475 73.7886C340.118 73.532 339.709 73.3569 339.277 73.2757C338.846 73.1945 338.401 73.2092 337.976 73.3188C337.517 73.4042 337.078 73.5736 336.681 73.8186C336.36 74.0196 336.088 74.2893 335.884 74.6083C335.694 74.9111 335.576 75.2528 335.536 75.6079C335.494 75.9902 335.515 76.3769 335.599 76.7524C335.671 77.1195 335.806 77.4713 335.999 77.792C336.199 78.1042 336.468 78.3658 336.786 78.5567C337.187 78.7948 337.621 78.974 338.073 79.089C338.696 79.2524 339.329 79.3784 339.967 79.4664C341.175 79.6463 342.283 79.8587 343.291 80.1036C344.228 80.3198 345.131 80.6619 345.975 81.1207C346.736 81.5377 347.401 82.1078 347.93 82.795C348.992 84.3141 349.41 86.1919 349.092 88.018C348.929 88.8289 348.595 89.5957 348.112 90.2671C347.597 90.9705 346.956 91.5728 346.223 92.0439C345.389 92.5842 344.484 93.0048 343.534 93.2934L344.211 96.4897L341.462 97.072L340.787 93.8932C339.82 94.0008 338.844 93.9882 337.881 93.8557C336.942 93.7307 336.035 93.4307 335.207 92.9711C334.359 92.4894 333.627 91.8284 333.062 91.0343C332.401 90.0822 331.949 89.0004 331.738 87.8606L336.736 86.7985C336.855 87.4523 337.101 88.0764 337.461 88.6353C337.745 89.0644 338.127 89.4198 338.575 89.6724C338.992 89.9005 339.455 90.0321 339.93 90.0572C340.41 90.0823 340.892 90.0445 341.362 89.9448C341.847 89.8537 342.313 89.6849 342.744 89.445C343.095 89.2416 343.403 88.9706 343.649 88.6478C343.869 88.3524 344.019 88.0105 344.086 87.6482C344.156 87.2535 344.145 86.8488 344.054 86.4586Z" fill="#F24B46"/>
<path d="M375.663 47.699C374.499 44.2716 374.378 40.5761 375.314 37.0799C376.251 33.5836 378.203 30.4436 380.925 28.0569C383.646 25.6703 387.014 24.1442 390.603 23.6716C394.191 23.199 397.84 23.8012 401.086 25.4019C404.333 27.0027 407.032 29.5302 408.841 32.6648C410.651 35.7994 411.491 39.4002 411.254 43.012C411.018 46.6238 409.715 50.0843 407.512 52.9559C405.308 55.8274 402.302 57.9811 398.875 59.1445C394.279 60.7045 389.251 60.375 384.898 58.2286C380.545 56.0822 377.223 52.2946 375.663 47.699Z" fill="#F24B46"/>
<path d="M374.151 48.2212C372.987 44.7938 372.866 41.0983 373.803 37.6021C374.739 34.1058 376.692 30.9658 379.413 28.5792C382.134 26.1925 385.502 24.6664 389.091 24.1938C392.68 23.7212 396.328 24.3234 399.575 25.9242C402.821 27.5249 405.52 30.0524 407.33 33.187C409.14 36.3216 409.979 39.9225 409.743 43.5342C409.506 47.146 408.203 50.6065 406 53.4781C403.796 56.3496 400.791 58.5033 397.363 59.6667C392.767 61.2267 387.74 60.8972 383.387 58.7508C379.033 56.6044 375.711 52.8168 374.151 48.2212Z" fill="url(#paint1_linear_185_2897)"/>
<path d="M396.911 58.3297C393.258 59.5699 389.288 59.5052 385.677 58.1466C382.067 56.7879 379.039 54.2195 377.11 50.8789C375.181 47.5383 374.47 43.6322 375.098 39.8262C375.726 36.0201 377.655 32.5497 380.555 30.0061C383.455 27.4625 387.148 26.0032 391.004 25.8769C394.859 25.7505 398.639 26.9649 401.7 29.3131C404.761 31.6613 406.912 34.9981 407.788 38.7548C408.665 42.5115 408.211 46.4558 406.505 49.9155C405.542 51.8828 404.198 53.6394 402.551 55.0838C400.904 56.5281 398.987 57.6314 396.911 58.3297ZM386.509 27.7067C383.573 28.7036 380.998 30.5489 379.11 33.0092C377.222 35.4694 376.106 38.4342 375.904 41.5286C375.701 44.6229 376.421 47.7079 377.971 50.3933C379.522 53.0788 381.834 55.2441 384.616 56.6155C387.397 57.9869 390.523 58.5028 393.597 58.0979C396.672 57.693 399.557 56.3855 401.889 54.3408C404.22 52.2961 405.893 49.606 406.696 46.6106C407.498 43.6153 407.394 40.4492 406.397 37.5129C405.057 33.5781 402.21 30.3358 398.481 28.4974C394.753 26.659 390.447 26.3747 386.509 27.7067Z" fill="#F24B46"/>
<path d="M395.279 46.3868C395.217 46.067 395.1 45.7607 394.931 45.4821C394.766 45.2263 394.544 45.011 394.284 44.8524C393.973 44.6655 393.636 44.5241 393.284 44.4325C392.815 44.3095 392.337 44.221 391.855 44.1677C390.9 44.0427 390.023 43.8869 389.223 43.7003C388.486 43.5355 387.773 43.2715 387.107 42.9156C386.508 42.5901 385.984 42.1423 385.57 41.6011C384.735 40.4132 384.405 38.9435 384.65 37.5127C384.778 36.8749 385.038 36.2707 385.412 35.7384C385.814 35.1792 386.311 34.6953 386.882 34.309C387.528 33.8719 388.236 33.5349 388.983 33.3094L388.409 30.603L390.588 30.1406L391.17 32.8896C391.924 32.8232 392.684 32.8806 393.419 33.0595C394.1 33.2216 394.742 33.519 395.306 33.9342C395.869 34.3494 396.344 34.8737 396.701 35.4761C397.106 36.1581 397.393 36.9043 397.548 37.6827L393.612 38.5174C393.397 37.5078 393.011 36.7989 392.455 36.3907C392.174 36.189 391.853 36.0514 391.514 35.9874C391.174 35.9235 390.825 35.9349 390.49 36.0208C390.13 36.0899 389.786 36.2237 389.473 36.4157C389.22 36.5741 389.005 36.7866 388.843 37.0379C388.694 37.2779 388.6 37.5488 388.571 37.8301C388.537 38.1314 388.553 38.4362 388.618 38.7323C388.677 39.0216 388.784 39.2989 388.936 39.552C389.093 39.7974 389.304 40.0035 389.553 40.1542C389.869 40.3416 390.211 40.4822 390.568 40.5716C391.061 40.7014 391.562 40.8008 392.067 40.8689C393.017 41.0122 393.889 41.1788 394.684 41.3687C395.422 41.539 396.133 41.8088 396.798 42.1709C397.397 42.4988 397.921 42.9473 398.338 43.4879C399.174 44.6854 399.503 46.1649 399.252 47.6038C399.124 48.2398 398.861 48.8412 398.483 49.3681C398.073 49.9229 397.565 50.3973 396.983 50.7676C396.326 51.1916 395.613 51.5214 394.864 51.7472L395.399 54.2637L393.234 54.7235L392.702 52.2245C391.94 52.3071 391.17 52.297 390.41 52.1945C389.671 52.0965 388.957 51.86 388.306 51.4973C387.639 51.1175 387.063 50.5974 386.617 49.9729C386.095 49.2234 385.739 48.3715 385.572 47.4739L389.508 46.6392C389.602 47.1533 389.795 47.644 390.078 48.0836C390.302 48.4219 390.604 48.7019 390.958 48.9008C391.286 49.0817 391.651 49.1852 392.025 49.2032C392.403 49.2254 392.782 49.1959 393.152 49.1157C393.534 49.0419 393.901 48.906 394.239 48.7134C394.517 48.5545 394.76 48.3412 394.954 48.0861C395.128 47.851 395.246 47.5792 395.299 47.2914C395.352 46.9916 395.346 46.684 395.279 46.3868Z" fill="#F24B46"/>
<path d="M182.598 206.164C182.598 206.164 179.637 210.33 176.913 210.385C174.189 210.44 170.07 208.454 170.07 208.454C170.07 208.454 167.571 202.901 169.27 200.727C169.849 200.521 170.471 200.465 171.077 200.564C171.683 200.664 172.254 200.916 172.737 201.296C173.076 201.552 173.384 201.847 173.654 202.176C174.02 202.635 174.517 202.971 175.078 203.141C177.015 203.73 179.327 202.346 180.174 203.683C180.596 204.335 181.1 204.931 181.674 205.455C181.961 205.717 182.271 205.954 182.598 206.164Z" fill="#9E30CA"/>
<path d="M144.006 236.223C144.006 236.223 154.47 210.885 173.301 210.385C173.301 210.385 190.686 212.317 191.65 236.218L144.006 236.223Z" fill="#9E30CA"/>
<path d="M168.143 211.163C168.143 211.163 175.691 212.842 178.02 211.855C178.02 211.855 178.372 208.699 175.193 209.143C173.016 209.446 171.599 208.394 170.767 207.976C169.588 207.387 167.828 209.843 168.143 211.163Z" fill="#7F22BA"/>
<path d="M174.711 206.407C174.229 206.769 172.747 201.301 172.747 201.301C173.086 201.557 173.394 201.852 173.664 202.181C174.03 202.64 174.526 202.976 175.088 203.146C175.093 203.306 175.181 206.054 174.711 206.407Z" fill="#7F22BA"/>
<path d="M181.678 205.46C181.573 205.522 178.082 207.614 177.61 207.614C177.137 207.614 180.184 203.688 180.184 203.688C180.604 204.34 181.106 204.936 181.678 205.46Z" fill="#7F22BA"/>
<path d="M154.228 229.141C154.035 228.976 161.633 217.955 163.724 217.875C165.816 217.795 170.52 220.289 173.921 220.609C177.322 220.929 180.626 219.967 181.269 221.978C181.911 223.99 183.683 231.122 182.598 232.264C181.513 233.406 158.419 232.709 154.228 229.141Z" fill="#ECEBFC"/>
<path d="M440.986 175.162L419.408 239.352C414.488 254.054 406.64 267.607 396.338 279.193C376.278 301.744 348.27 315.659 318.18 318.023C302.723 319.214 287.183 317.282 272.488 312.342C257.793 307.402 244.243 299.556 232.644 289.27C210.092 269.21 196.177 241.204 193.812 211.115C192.601 195.659 194.534 180.117 199.495 165.428L221.073 101.238L275.234 119.446L253.652 183.646C248.671 198.458 249.798 214.404 256.826 228.546C263.853 242.688 275.879 253.219 290.692 258.197C305.504 263.175 321.449 262.048 335.594 255.023C349.739 247.998 360.268 235.968 365.247 221.159L386.824 156.969L440.986 175.162Z" fill="url(#paint2_linear_185_2897)"/>
<path d="M295.892 58.11L241.694 39.8923L221.072 101.236L275.27 119.454L295.892 58.11Z" fill="#DFDCF7"/>
<path d="M461.611 113.814L407.414 95.5967L386.792 156.941L440.99 175.158L461.611 113.814Z" fill="#DFDCF7"/>
<path d="M290.692 258.184L272.485 312.346C257.782 307.424 244.229 299.574 232.644 289.27C210.092 269.21 196.177 241.204 193.812 211.115C192.601 195.659 194.534 180.117 199.495 165.428L221.073 101.238L275.234 119.446L253.652 183.646C248.671 198.458 249.798 214.404 256.826 228.546C263.853 242.688 275.879 253.206 290.692 258.184Z" fill="url(#paint3_linear_185_2897)"/>
<path d="M344.856 303.029C344.621 303.288 344.465 303.609 344.408 303.953C344.35 304.298 344.393 304.652 344.531 304.973C345.001 306.268 346.548 307.722 348.347 309.159C348.577 309.344 348.78 309.511 348.959 309.659L349.097 309.781L349.202 309.876C350.879 311.423 350.249 311.778 353.26 314.914C356.697 318.488 359.064 318.553 359.736 318.228C360.306 317.951 359.149 316.054 357.866 313.922L357.679 313.612L357.179 312.758C355.68 310.194 356.065 308.989 356.429 305.173C356.719 302.072 361.255 287.845 361.255 287.845L354.67 286.713C354.67 286.713 352.688 298.038 350.504 299.783C349.334 300.712 348.027 300.725 346.905 301.415C346.825 301.462 346.748 301.512 346.67 301.562C346.002 301.967 345.391 302.46 344.856 303.029Z" fill="#FF938F"/>
<path d="M344.856 303.029C344.621 303.288 344.465 303.609 344.408 303.954C344.35 304.298 344.393 304.652 344.531 304.973C345.106 306.265 346.615 307.705 348.352 309.144C348.58 309.334 348.78 309.507 348.959 309.669L349.097 309.792L349.202 309.886C350.879 311.433 350.249 311.788 353.26 314.924C356.697 318.498 359.064 318.563 359.736 318.238C360.306 317.961 359.149 316.064 357.866 313.932C355.463 312.995 353.35 311.439 351.741 309.422C349.674 306.78 348.295 303.389 346.885 301.425C346.805 301.472 346.728 301.522 346.65 301.572C345.989 301.975 345.386 302.465 344.856 303.029Z" fill="#222956"/>
<path d="M397.95 298.918C398.358 300.95 401.254 300.61 404.491 299.82C407.727 299.031 406.957 299.97 411.563 299.46C416.169 298.951 417.561 297.231 417.706 296.547C417.834 295.939 415.557 295.724 413.115 295.445L412.191 295.335C409.441 294.987 407.417 293.21 404.913 291.748C402.541 290.364 399.002 284.729 399.002 284.729L392.685 285.229C392.685 285.229 395.998 290.264 397.281 292.453C398.03 293.74 397.995 295.452 397.903 296.757C397.821 297.476 397.837 298.203 397.95 298.918Z" fill="#FF938F"/>
<path d="M404.491 299.82C407.74 299.031 406.957 299.97 411.563 299.461C416.169 298.951 417.561 297.231 417.706 296.547C417.834 295.939 415.557 295.724 413.115 295.445L413.093 295.492C411.119 296.758 408.839 297.466 406.495 297.541C403.371 297.619 400.06 296.722 397.903 296.757C397.821 297.476 397.837 298.203 397.95 298.918C398.358 300.95 401.254 300.6 404.491 299.82Z" fill="#222956"/>
<path d="M373.741 258.527L367.848 274.415L360.138 295.157C358.761 295.26 357.377 295.133 356.042 294.782C354.197 294.25 352.081 292.853 352.081 292.853C352.081 292.853 354.222 270.577 358.216 257.789C359.238 254.506 360.385 251.852 361.652 250.357C367.83 243.048 373.741 258.527 373.741 258.527Z" fill="#B1C9F6"/>
<path d="M367.738 233.291C363.867 232.042 352.833 233.644 341.747 235.815L339.425 231.987L315.483 230.118C315.483 230.118 307.581 247.636 311.907 258.799C312.544 260.441 313.806 261.493 315.961 261.528H316.31H335.187C347.092 261.528 360.385 253.341 362.105 252.999C364.919 252.436 366.046 258.064 368.853 263.974C371.659 269.885 395.309 290.147 395.309 290.147C395.309 290.147 398.942 290.184 400.444 289.622C402.056 289.015 402.649 288.23 402.649 288.23C402.649 288.23 376.463 236.105 367.738 233.291Z" fill="#C0D3F8"/>
<path d="M338.486 162.274C335.419 160.665 330.753 160.445 329.988 160.345C320.917 159.125 315.456 172.308 315.133 176.301C314.544 183.666 310.635 184.798 305.164 189.399C294.168 198.645 297.395 209.391 303.415 213.389C307.021 215.783 313.377 213.389 313.377 213.389C313.469 213.452 330.763 203.72 339.29 199.027C352.068 197.201 346.303 166.378 338.486 162.274Z" fill="#F24B46"/>
<path d="M332.14 195.021C332.178 195.044 327.947 196.491 325.115 195.236C322.454 194.059 320.437 189.681 320.477 189.678C321.689 189.621 323.018 188.564 324.04 181.616L324.558 181.801L333.227 184.92C333.227 184.92 332.6 187.702 332.193 190.351C331.86 192.575 331.668 194.706 332.14 195.021Z" fill="#FF938F"/>
<path d="M333.227 184.92C333.227 184.92 332.6 187.702 332.193 190.351C327.212 189.456 325.257 184.493 324.558 181.802L333.227 184.92Z" fill="#FF7D78"/>
<path d="M334.519 187.682C334.519 187.682 322.656 186.09 323.773 178.718C324.89 171.346 324.093 166.175 331.713 166.88C339.333 167.585 340.382 170.616 340.612 173.167C340.842 175.719 337.633 187.907 334.519 187.682Z" fill="#FF938F"/>
<path d="M340.167 169.126C340.167 169.126 332.573 175.671 327.407 176.199C322.241 176.726 320.284 175.066 320.284 175.066C322.346 173.222 324.007 170.973 325.163 168.459C325.426 167.867 325.843 167.357 326.37 166.98C326.898 166.604 327.516 166.376 328.162 166.32C331.845 166 338.838 165.855 340.167 169.126Z" fill="#F24B46"/>
<path d="M335.419 168.539C335.419 168.539 337.961 170.996 338.76 172.818C339.533 174.567 339.76 178.783 339.148 180.452C339.148 180.452 343.106 172.755 340.865 169.017C338.49 165.051 335.419 168.539 335.419 168.539Z" fill="#F24B46"/>
<path d="M342.131 212.497C341.772 236.51 342.031 231.49 339.405 233.771C338.773 234.319 336.993 234.646 334.656 234.801C327.291 235.301 314.348 234.076 313.856 232.717C312.157 228.008 313.356 226.544 311.939 219.337C311.792 218.57 311.607 217.74 311.392 216.838C310.212 211.887 309.063 210.203 313.254 202.249C317.055 195.044 321.001 189.196 321.359 189.406C331.388 195.359 332.197 190.356 332.197 190.356C332.197 190.356 342.306 200.784 342.131 212.497Z" fill="#9E30CA"/>
<path d="M367.848 274.415L360.138 295.157C358.761 295.26 357.377 295.133 356.042 294.782C354.197 294.25 352.081 292.853 352.081 292.853C352.081 292.853 354.222 270.577 358.216 257.789L367.848 274.415Z" fill="#C0D3F8"/>
<path d="M332.192 190.351C332.192 190.351 342.514 192.1 343.726 196.543C344.938 200.986 352.068 227.106 352.068 227.106C352.068 227.106 346.82 228.051 344.398 225.627C341.977 223.203 335.966 203.136 335.966 203.136L332.192 190.351Z" fill="#9E30CA"/>
<path d="M334.652 234.801C327.287 235.301 314.344 234.076 313.851 232.717C312.152 228.009 313.352 226.544 311.935 219.337L315.486 209.341C315.486 209.341 314.899 220.477 318.182 223.405C321.466 226.334 331.63 229.061 333.227 231.507C333.997 232.677 334.504 233.856 334.652 234.801Z" fill="#7F22BA"/>
<path d="M326.214 230.128C326.214 230.128 333.479 228.511 334.651 229.153C335.824 229.795 338.688 232.152 339.047 232.964C339.407 233.776 336.436 232.344 335.471 232.084C334.846 231.917 333.2 232.489 332.385 232.762C328.956 233.904 326.857 233.316 326.857 233.316L326.214 230.128Z" fill="#FF938F"/>
<path d="M321.349 189.394C321.349 189.394 311.602 189.993 308.216 194.704C303.467 201.334 294.033 229.588 299.439 233.356C305.524 237.605 327.137 234.466 327.137 234.466C327.137 234.466 327.856 231.105 326.857 229.468C325.857 227.831 309.593 225.22 308.843 224.47C308.093 223.72 318.225 209.836 318.225 207.584C318.225 205.332 321.349 189.394 321.349 189.394Z" fill="#9E30CA"/>
<path d="M335.001 231.167C335.001 231.167 336.526 233.129 337.023 233.364C337.275 233.5 337.56 233.561 337.845 233.539L336.818 231.695L335.001 231.167Z" fill="#FF938F"/>
<path d="M334.652 229.143L339.078 231.292C338.991 231.4 338.877 231.482 338.748 231.532C338.619 231.582 338.48 231.598 338.343 231.577C337.798 231.552 336.424 231.05 336.424 231.05L334.652 229.143Z" fill="#FF938F"/>
<path d="M337.023 236.37H372.032L382.563 210.185H347.607L337.023 236.37Z" fill="#242E6C"/>
<path d="M372.441 235.351H326.214V236.37H372.031L372.441 235.351Z" fill="#1B2251"/>
<path d="M363.195 223.278C363.46 222.358 362.927 221.611 362.005 221.611C361.521 221.638 361.056 221.813 360.673 222.11C360.29 222.408 360.007 222.815 359.861 223.278C359.598 224.2 360.131 224.945 361.05 224.945C361.535 224.918 362 224.744 362.383 224.446C362.766 224.148 363.049 223.741 363.195 223.278Z" fill="white"/>
<path d="M225.881 313.98V318.313C225.878 318.654 225.758 318.983 225.541 319.245C225.296 319.539 224.971 319.756 224.606 319.87C224.487 319.909 224.365 319.937 224.241 319.955C224.126 319.973 224.009 319.982 223.892 319.983H141.694C140.635 319.983 139.76 319.278 139.708 318.398C139.708 318.368 139.708 318.341 139.708 318.313V313.98C139.708 313.95 139.708 313.922 139.708 313.892C139.76 313.015 140.635 312.308 141.694 312.308H223.897C224.014 312.308 224.131 312.317 224.246 312.336C224.37 312.353 224.492 312.382 224.611 312.421C224.976 312.535 225.301 312.752 225.546 313.045C225.762 313.309 225.88 313.639 225.881 313.98Z" fill="#FD8857"/>
<path d="M185.517 319.982H141.479C141.039 319.99 140.612 319.831 140.283 319.537C139.955 319.244 139.749 318.837 139.708 318.398C139.708 318.368 139.708 318.341 139.708 318.313V313.98C139.708 313.95 139.708 313.922 139.708 313.892C139.749 313.454 139.955 313.047 140.283 312.753C140.612 312.459 141.039 312.3 141.479 312.308H180.109C180.932 315.432 182.851 318.156 185.517 319.982Z" fill="#F24B46"/>
<path d="M215.88 312.308H214.945V319.98H215.88V312.308Z" fill="#F24B46"/>
<path d="M212.715 312.308H211.781V319.98H212.715V312.308Z" fill="#F24B46"/>
<path d="M208.924 312.308H207.99V319.98H208.924V312.308Z" fill="#F24B46"/>
<path d="M203.111 312.308H202.177V319.98H203.111V312.308Z" fill="#F24B46"/>
<path d="M196.966 312.308H196.031V319.98H196.966V312.308Z" fill="#F24B46"/>
<path d="M187.542 312.308H186.607V319.98H187.542V312.308Z" fill="#F24B46"/>
<path d="M178.719 312.308H177.785V319.98H178.719V312.308Z" fill="#F24B46"/>
<path d="M170.84 312.308H169.905V319.98H170.84V312.308Z" fill="#F24B46"/>
<path d="M218.888 312.308H217.954V319.98H218.888V312.308Z" fill="#F24B46"/>
<path d="M220.878 312.308H219.943V319.98H220.878V312.308Z" fill="#F24B46"/>
<path d="M222.797 312.308H221.862V319.98H222.797V312.308Z" fill="#F24B46"/>
<path d="M224.242 312.345V319.965C224.126 319.983 224.009 319.992 223.892 319.992H223.307V312.318H223.897C224.012 312.318 224.128 312.327 224.242 312.345Z" fill="#F24B46"/>
<path d="M225.541 313.045V319.245C225.296 319.539 224.971 319.755 224.606 319.87V312.42C224.971 312.535 225.296 312.752 225.541 313.045Z" fill="#F24B46"/>
<path d="M217.092 306.305V310.639C217.089 310.979 216.969 311.308 216.752 311.571C216.507 311.865 216.182 312.082 215.817 312.196C215.699 312.235 215.578 312.264 215.455 312.283C215.339 312.3 215.222 312.308 215.105 312.308H132.905C131.845 312.308 130.973 311.603 130.906 310.724C130.906 310.696 130.906 310.666 130.906 310.639V306.305C130.906 306.278 130.906 306.248 130.906 306.22C130.961 305.341 131.833 304.636 132.905 304.636H215.105C215.157 304.636 215.21 304.636 215.26 304.636H215.327H215.402H215.455C215.578 304.652 215.699 304.681 215.817 304.721L215.869 304.738L215.919 304.756L216.019 304.798L216.077 304.823L216.129 304.848L216.222 304.898L216.324 304.963L216.402 305.016L216.454 305.053C216.504 305.093 216.552 305.136 216.597 305.178L216.637 305.218L216.674 305.258C216.702 305.286 216.727 305.316 216.749 305.343C216.974 305.613 217.095 305.954 217.092 306.305Z" fill="#FD8857"/>
<path d="M176.727 312.308H132.692C132.251 312.316 131.823 312.158 131.494 311.864C131.165 311.57 130.959 311.163 130.918 310.724C130.918 310.696 130.918 310.666 130.918 310.639V306.305C130.918 306.278 130.918 306.248 130.918 306.22C130.959 305.781 131.165 305.374 131.494 305.08C131.823 304.786 132.251 304.628 132.692 304.636H171.319C171.337 304.699 171.354 304.761 171.374 304.826C172.222 307.873 174.118 310.522 176.727 312.308Z" fill="#F24B46"/>
<path d="M207.09 304.634H206.155V312.308H207.09V304.634Z" fill="#F24B46"/>
<path d="M203.928 304.634H202.994V312.308H203.928V304.634Z" fill="#F24B46"/>
<path d="M200.135 304.634H199.2V312.308H200.135V304.634Z" fill="#F24B46"/>
<path d="M194.322 304.634H193.387V312.308H194.322V304.634Z" fill="#F24B46"/>
<path d="M188.176 304.634H187.242V312.308H188.176V304.634Z" fill="#F24B46"/>
<path d="M178.752 304.634H177.817V312.308H178.752V304.634Z" fill="#F24B46"/>
<path d="M169.93 304.634H168.995V312.308H169.93V304.634Z" fill="#F24B46"/>
<path d="M162.053 304.634H161.118V312.308H162.053V304.634Z" fill="#F24B46"/>
<path d="M210.101 304.634H209.167V312.308H210.101V304.634Z" fill="#F24B46"/>
<path d="M212.088 304.634H211.153V312.308H212.088V304.634Z" fill="#F24B46"/>
<path d="M214.01 304.634H213.075V312.308H214.01V304.634Z" fill="#F24B46"/>
<path d="M215.455 304.661V312.283C215.338 312.3 215.22 312.309 215.102 312.308H214.52V304.636H215.102C215.22 304.635 215.338 304.644 215.455 304.661Z" fill="#F24B46"/>
<path d="M216.752 305.373V311.571C216.507 311.865 216.182 312.082 215.817 312.196V304.749C216.182 304.862 216.507 305.079 216.752 305.373Z" fill="#F24B46"/>
<path d="M221.34 298.821V303.154C221.337 303.495 221.216 303.824 220.998 304.086C220.755 304.381 220.431 304.598 220.066 304.711C219.947 304.75 219.825 304.78 219.701 304.798C219.585 304.817 219.468 304.826 219.351 304.826H137.151C136.836 304.827 136.525 304.762 136.237 304.636C135.959 304.527 135.716 304.348 135.529 304.116C135.342 303.884 135.219 303.608 135.172 303.314V303.242V298.743C135.227 297.864 136.099 297.159 137.171 297.159H219.371C219.488 297.159 219.605 297.168 219.721 297.186C219.845 297.204 219.967 297.233 220.086 297.271C220.45 297.386 220.773 297.603 221.018 297.896C221.227 298.159 221.341 298.485 221.34 298.821Z" fill="#FD8857"/>
<path d="M180.976 304.826H136.939C136.655 304.826 136.376 304.761 136.122 304.636C135.864 304.514 135.642 304.329 135.476 304.098C135.31 303.867 135.205 303.597 135.172 303.314V303.242V298.743C135.213 298.304 135.419 297.897 135.748 297.603C136.077 297.309 136.505 297.151 136.946 297.159H175.576C176.368 300.177 178.183 302.827 180.711 304.656L180.976 304.826Z" fill="#F24B46"/>
<path d="M211.338 297.151H210.404V304.823H211.338V297.151Z" fill="#F24B46"/>
<path d="M208.174 297.151H207.24V304.823H208.174V297.151Z" fill="#F24B46"/>
<path d="M204.383 297.151H203.449V304.823H204.383V297.151Z" fill="#F24B46"/>
<path d="M198.57 297.151H197.636V304.823H198.57V297.151Z" fill="#F24B46"/>
<path d="M192.422 297.151H191.488V304.823H192.422V297.151Z" fill="#F24B46"/>
<path d="M183.001 297.151H182.066V304.823H183.001V297.151Z" fill="#F24B46"/>
<path d="M174.176 297.151H173.241V304.823H174.176V297.151Z" fill="#F24B46"/>
<path d="M166.299 297.151H165.364V304.823H166.299V297.151Z" fill="#F24B46"/>
<path d="M214.347 297.151H213.413V304.823H214.347V297.151Z" fill="#F24B46"/>
<path d="M216.337 297.151H215.402V304.823H216.337V297.151Z" fill="#F24B46"/>
<path d="M218.256 297.151H217.321V304.823H218.256V297.151Z" fill="#F24B46"/>
<path d="M219.701 297.179V304.798C219.585 304.816 219.468 304.824 219.351 304.823H218.766V297.151H219.351C219.468 297.152 219.585 297.161 219.701 297.179Z" fill="#F24B46"/>
<path d="M220.998 297.889V304.099C220.755 304.394 220.431 304.611 220.065 304.723V297.276C220.429 297.387 220.752 297.599 220.998 297.889Z" fill="#F24B46"/>
<path d="M223.307 291.149V295.482C223.304 295.823 223.184 296.152 222.967 296.414C222.722 296.707 222.399 296.924 222.035 297.039C221.916 297.078 221.794 297.106 221.67 297.124C221.554 297.142 221.437 297.151 221.32 297.152H139.12C138.061 297.152 137.189 296.447 137.121 295.567C137.121 295.54 137.121 295.51 137.121 295.482V291.149C137.121 291.119 137.121 291.091 137.121 291.061C137.171 290.249 137.923 289.584 138.871 289.49C138.948 289.49 139.025 289.49 139.105 289.49H221.305C221.422 289.49 221.539 289.499 221.655 289.517C221.779 289.536 221.901 289.565 222.02 289.604C222.385 289.717 222.709 289.934 222.952 290.229C223.172 290.486 223.298 290.811 223.307 291.149Z" fill="#FD8857"/>
<path d="M182.946 297.151H138.908C138.467 297.16 138.039 297.001 137.71 296.707C137.381 296.413 137.175 296.006 137.134 295.567C137.134 295.54 137.134 295.51 137.134 295.482V291.149C137.134 291.119 137.134 291.091 137.134 291.061C137.168 290.657 137.344 290.278 137.63 289.991C137.916 289.703 138.294 289.526 138.698 289.489C138.768 289.486 138.838 289.486 138.908 289.489H177.538C178.363 292.609 180.283 295.329 182.946 297.151Z" fill="#F24B46"/>
<path d="M213.305 289.477H212.371V297.152H213.305V289.477Z" fill="#F24B46"/>
<path d="M210.144 289.477H209.209V297.152H210.144V289.477Z" fill="#F24B46"/>
<path d="M206.353 289.477H205.418V297.152H206.353V289.477Z" fill="#F24B46"/>
<path d="M200.54 289.477H199.605V297.152H200.54V289.477Z" fill="#F24B46"/>
<path d="M194.392 289.477H193.457V297.152H194.392V289.477Z" fill="#F24B46"/>
<path d="M184.97 289.477H184.035V297.152H184.97V289.477Z" fill="#F24B46"/>
<path d="M176.146 289.477H175.211V297.152H176.146V289.477Z" fill="#F24B46"/>
<path d="M168.268 289.477H167.333V297.152H168.268V289.477Z" fill="#F24B46"/>
<path d="M216.317 289.477H215.382V297.152H216.317V289.477Z" fill="#F24B46"/>
<path d="M218.306 289.477H217.372V297.152H218.306V289.477Z" fill="#F24B46"/>
<path d="M220.226 289.477H219.291V297.152H220.226V289.477Z" fill="#F24B46"/>
<path d="M221.67 289.505V297.124C221.554 297.142 221.437 297.151 221.32 297.152H220.735V289.477H221.32C221.437 289.477 221.554 289.487 221.67 289.505Z" fill="#F24B46"/>
<path d="M222.967 290.214V296.414C222.722 296.707 222.399 296.924 222.035 297.039V289.589C222.399 289.704 222.722 289.921 222.967 290.214Z" fill="#F24B46"/>
<path d="M217.264 283.487V287.82C217.262 288.161 217.141 288.49 216.924 288.752C216.68 289.045 216.356 289.262 215.992 289.377C215.873 289.416 215.751 289.446 215.627 289.464H215.512H215.447H133.078C132.018 289.464 131.146 288.76 131.091 287.88C131.091 287.853 131.091 287.823 131.091 287.795V283.462C131.091 283.434 131.091 283.404 131.091 283.377C131.091 283.349 131.091 283.329 131.091 283.307C131.171 282.6 131.783 282.015 132.59 281.842H132.65C132.792 281.815 132.936 281.802 133.08 281.803H215.28H215.457H215.537H215.63C215.754 281.821 215.876 281.851 215.995 281.89C216.359 282.005 216.682 282.222 216.927 282.515C217.152 282.788 217.272 283.133 217.264 283.487Z" fill="#FD8857"/>
<path d="M176.913 289.489H132.877C132.436 289.498 132.008 289.339 131.679 289.045C131.35 288.751 131.145 288.344 131.103 287.905C131.103 287.878 131.103 287.848 131.103 287.82V283.487C131.103 283.459 131.103 283.429 131.103 283.402C131.103 283.374 131.103 283.354 131.103 283.332C131.148 282.972 131.305 282.635 131.553 282.37C131.801 282.106 132.126 281.926 132.483 281.857L132.558 281.842C132.662 281.825 132.767 281.817 132.872 281.817H171.502C171.502 281.835 171.502 281.852 171.517 281.872C172.345 284.966 174.25 287.663 176.89 289.477L176.913 289.489Z" fill="#F24B46"/>
<path d="M207.262 281.815H206.328V289.49H207.262V281.815Z" fill="#F24B46"/>
<path d="M204.101 281.815H203.166V289.49H204.101V281.815Z" fill="#F24B46"/>
<path d="M200.307 281.815H199.373V289.49H200.307V281.815Z" fill="#F24B46"/>
<path d="M194.497 281.815H193.562V289.49H194.497V281.815Z" fill="#F24B46"/>
<path d="M188.349 281.815H187.414V289.49H188.349V281.815Z" fill="#F24B46"/>
<path d="M178.927 281.815H177.992V289.49H178.927V281.815Z" fill="#F24B46"/>
<path d="M170.103 281.815H169.168V289.49H170.103V281.815Z" fill="#F24B46"/>
<path d="M162.225 281.815H161.291V289.49H162.225V281.815Z" fill="#F24B46"/>
<path d="M210.274 281.815H209.339V289.49H210.274V281.815Z" fill="#F24B46"/>
<path d="M212.261 281.815H211.326V289.49H212.261V281.815Z" fill="#F24B46"/>
<path d="M214.183 281.815H213.248V289.49H214.183V281.815Z" fill="#F24B46"/>
<path d="M215.627 281.842V289.462C215.511 289.48 215.394 289.489 215.277 289.489H214.692V281.817H215.277C215.394 281.817 215.511 281.825 215.627 281.842Z" fill="#F24B46"/>
<path d="M216.924 282.555V288.752C216.679 289.045 216.356 289.262 215.992 289.377V281.93C216.356 282.045 216.679 282.262 216.924 282.555Z" fill="#F24B46"/>
<path d="M217.092 275.86V280.193C217.089 280.534 216.969 280.863 216.752 281.125C216.508 281.42 216.183 281.637 215.817 281.75C215.725 281.782 215.631 281.806 215.535 281.822C215.51 281.822 215.482 281.822 215.457 281.837C215.341 281.855 215.224 281.865 215.107 281.865H132.905C132.822 281.865 132.738 281.86 132.655 281.85L132.558 281.835C131.663 281.7 130.973 281.058 130.926 280.281C130.926 280.251 130.926 280.223 130.926 280.193V275.86C130.926 275.832 130.926 275.802 130.926 275.775C130.981 274.895 131.853 274.19 132.925 274.19H215.125H215.28H215.347H215.422H215.475C215.598 274.208 215.719 274.237 215.837 274.275L215.89 274.293L215.94 274.31L216.04 274.353L216.149 274.403L216.242 274.453L216.344 274.518L216.422 274.57L216.474 274.61C216.524 274.648 216.572 274.689 216.617 274.733L216.657 274.773L216.694 274.813C216.722 274.84 216.747 274.87 216.769 274.898C216.987 275.17 217.101 275.511 217.092 275.86Z" fill="#FD8857"/>
<path d="M176.727 281.872H132.692H132.587C132.55 281.875 132.512 281.875 132.475 281.872C132.072 281.835 131.696 281.658 131.411 281.371C131.127 281.084 130.952 280.706 130.918 280.303C130.918 280.273 130.918 280.246 130.918 280.216V275.86C130.918 275.832 130.918 275.802 130.918 275.775C130.959 275.336 131.165 274.928 131.494 274.635C131.823 274.341 132.251 274.182 132.692 274.19H171.319C171.337 274.253 171.354 274.315 171.374 274.38C172.213 277.396 174.079 280.024 176.65 281.81L176.727 281.872Z" fill="#F24B46"/>
<path d="M207.09 274.198H206.155V281.872H207.09V274.198Z" fill="#F24B46"/>
<path d="M203.928 274.198H202.994V281.872H203.928V274.198Z" fill="#F24B46"/>
<path d="M200.135 274.198H199.2V281.872H200.135V274.198Z" fill="#F24B46"/>
<path d="M194.322 274.198H193.387V281.872H194.322V274.198Z" fill="#F24B46"/>
<path d="M188.176 274.198H187.242V281.872H188.176V274.198Z" fill="#F24B46"/>
<path d="M178.752 274.198H177.817V281.872H178.752V274.198Z" fill="#F24B46"/>
<path d="M169.93 274.198H168.995V281.872H169.93V274.198Z" fill="#F24B46"/>
<path d="M162.053 274.198H161.118V281.872H162.053V274.198Z" fill="#F24B46"/>
<path d="M210.101 274.198H209.167V281.872H210.101V274.198Z" fill="#F24B46"/>
<path d="M212.088 274.198H211.153V281.872H212.088V274.198Z" fill="#F24B46"/>
<path d="M214.01 274.198H213.075V281.872H214.01V274.198Z" fill="#F24B46"/>
<path d="M215.455 274.225V281.857C215.338 281.875 215.22 281.884 215.102 281.885H214.52V274.21H215.102C215.22 274.206 215.338 274.211 215.455 274.225Z" fill="#F24B46"/>
<path d="M216.752 274.935V281.133C216.507 281.428 216.182 281.645 215.817 281.76V274.31C216.182 274.425 216.506 274.642 216.752 274.935Z" fill="#F24B46"/>
<path d="M221.34 268.383V272.716C221.337 273.058 221.216 273.388 220.998 273.651C220.753 273.943 220.43 274.16 220.066 274.275C219.947 274.314 219.825 274.342 219.701 274.36C219.585 274.378 219.468 274.387 219.351 274.388H137.151C136.836 274.388 136.525 274.324 136.237 274.198C135.959 274.09 135.716 273.911 135.529 273.68C135.342 273.448 135.219 273.172 135.172 272.878V272.803V268.305C135.227 267.425 136.099 266.721 137.171 266.721H219.371C219.488 266.721 219.605 266.73 219.721 266.748C219.845 266.766 219.967 266.795 220.086 266.833C220.45 266.948 220.773 267.165 221.018 267.458C221.227 267.721 221.341 268.047 221.34 268.383Z" fill="#FD8857"/>
<path d="M180.976 274.388H136.939C136.655 274.388 136.376 274.323 136.122 274.198C135.864 274.076 135.642 273.892 135.476 273.661C135.31 273.43 135.205 273.161 135.172 272.878V272.803V268.305C135.213 267.866 135.419 267.459 135.748 267.165C136.077 266.871 136.505 266.713 136.946 266.721H175.576C176.37 269.734 178.185 272.379 180.711 274.205L180.976 274.388Z" fill="#F24B46"/>
<path d="M211.338 266.713H210.404V274.385H211.338V266.713Z" fill="#F24B46"/>
<path d="M208.174 266.713H207.24V274.385H208.174V266.713Z" fill="#F24B46"/>
<path d="M204.383 266.713H203.449V274.385H204.383V266.713Z" fill="#F24B46"/>
<path d="M198.57 266.713H197.636V274.385H198.57V266.713Z" fill="#F24B46"/>
<path d="M192.422 266.713H191.488V274.385H192.422V266.713Z" fill="#F24B46"/>
<path d="M183.001 266.713H182.066V274.385H183.001V266.713Z" fill="#F24B46"/>
<path d="M174.176 266.713H173.241V274.385H174.176V266.713Z" fill="#F24B46"/>
<path d="M166.299 266.713H165.364V274.385H166.299V266.713Z" fill="#F24B46"/>
<path d="M214.347 266.713H213.413V274.385H214.347V266.713Z" fill="#F24B46"/>
<path d="M216.337 266.713H215.402V274.385H216.337V266.713Z" fill="#F24B46"/>
<path d="M218.256 266.713H217.321V274.385H218.256V266.713Z" fill="#F24B46"/>
<path d="M219.701 266.741V274.36C219.585 274.378 219.468 274.388 219.351 274.388H218.766V266.713H219.351C219.468 266.714 219.585 266.723 219.701 266.741Z" fill="#F24B46"/>
<path d="M220.998 267.45V273.65C220.753 273.943 220.429 274.16 220.065 274.275V266.826C220.429 266.941 220.753 267.157 220.998 267.45Z" fill="#F24B46"/>
<path d="M228.055 260.711V265.044C228.053 265.384 227.933 265.714 227.716 265.976C227.384 266.363 226.923 266.615 226.419 266.686C226.303 266.705 226.186 266.714 226.069 266.713H143.869C142.809 266.713 141.937 266.009 141.87 265.129C141.87 265.101 141.87 265.071 141.87 265.044V260.711C141.87 260.683 141.87 260.653 141.87 260.626C141.92 259.811 142.672 259.149 143.619 259.054C143.697 259.049 143.776 259.049 143.854 259.054H226.054C226.171 259.053 226.288 259.062 226.404 259.079C226.527 259.098 226.649 259.127 226.768 259.166C227.132 259.281 227.456 259.498 227.701 259.791C227.921 260.048 228.046 260.373 228.055 260.711Z" fill="#FD8857"/>
<path d="M187.694 266.713H143.656C143.215 266.722 142.787 266.563 142.458 266.269C142.129 265.975 141.923 265.568 141.882 265.129C141.882 265.102 141.882 265.072 141.882 265.044V260.711C141.882 260.683 141.882 260.653 141.882 260.626C141.916 260.221 142.091 259.842 142.377 259.554C142.664 259.267 143.042 259.09 143.446 259.054C143.516 259.049 143.586 259.049 143.656 259.054H182.286C183.112 262.173 185.031 264.891 187.694 266.713Z" fill="#F24B46"/>
<path d="M218.054 259.039H217.119V266.713H218.054V259.039Z" fill="#F24B46"/>
<path d="M214.892 259.039H213.958V266.713H214.892V259.039Z" fill="#F24B46"/>
<path d="M211.101 259.039H210.167V266.713H211.101V259.039Z" fill="#F24B46"/>
<path d="M205.288 259.039H204.354V266.713H205.288V259.039Z" fill="#F24B46"/>
<path d="M199.14 259.039H198.206V266.713H199.14V259.039Z" fill="#F24B46"/>
<path d="M189.718 259.039H188.784V266.713H189.718V259.039Z" fill="#F24B46"/>
<path d="M180.894 259.039H179.959V266.713H180.894V259.039Z" fill="#F24B46"/>
<path d="M173.016 259.039H172.082V266.713H173.016V259.039Z" fill="#F24B46"/>
<path d="M221.065 259.039H220.13V266.713H221.065V259.039Z" fill="#F24B46"/>
<path d="M223.054 259.039H222.12V266.713H223.054V259.039Z" fill="#F24B46"/>
<path d="M224.974 259.039H224.039V266.713H224.974V259.039Z" fill="#F24B46"/>
<path d="M226.419 259.066V266.686C226.303 266.705 226.186 266.714 226.069 266.713H225.484V259.041H226.069C226.186 259.041 226.303 259.049 226.419 259.066Z" fill="#F24B46"/>
<path d="M227.715 259.779V265.976C227.472 266.27 227.148 266.487 226.783 266.601V259.154C227.148 259.266 227.472 259.484 227.715 259.779Z" fill="#F24B46"/>
<path d="M217.264 253.049V257.382C217.262 257.723 217.142 258.052 216.924 258.314C216.681 258.608 216.357 258.825 215.992 258.939C215.873 258.978 215.751 259.007 215.627 259.026L215.512 259.041H215.42H133.078C132.018 259.041 131.146 258.334 131.091 257.457C131.091 257.427 131.091 257.399 131.091 257.369V253.036C131.091 253.009 131.091 252.979 131.091 252.951C131.146 252.071 132.018 251.367 133.078 251.367H215.382C215.465 251.367 215.547 251.367 215.632 251.392C215.756 251.41 215.878 251.438 215.997 251.477C216.055 251.497 216.115 251.517 216.17 251.542L216.27 251.587C216.304 251.602 216.338 251.619 216.369 251.639H216.387C216.417 251.657 216.447 251.674 216.474 251.694C216.544 251.738 216.61 251.786 216.672 251.839L216.729 251.889L216.762 251.921C216.783 251.94 216.802 251.96 216.819 251.981L216.899 252.071C217.136 252.342 217.265 252.689 217.264 253.049Z" fill="#FD8857"/>
<path d="M176.913 259.054H132.877C132.436 259.062 132.008 258.903 131.679 258.61C131.35 258.316 131.145 257.908 131.103 257.469C131.103 257.439 131.103 257.412 131.103 257.382V253.049C131.103 253.021 131.103 252.991 131.103 252.964C131.145 252.524 131.35 252.117 131.679 251.823C132.008 251.53 132.436 251.371 132.877 251.379H171.507C171.522 251.437 171.537 251.497 171.557 251.557C172.397 254.607 174.288 257.262 176.895 259.054H176.913Z" fill="#F24B46"/>
<path d="M207.262 251.379H206.328V259.054H207.262V251.379Z" fill="#F24B46"/>
<path d="M204.101 251.379H203.166V259.054H204.101V251.379Z" fill="#F24B46"/>
<path d="M200.307 251.379H199.373V259.054H200.307V251.379Z" fill="#F24B46"/>
<path d="M194.497 251.379H193.562V259.054H194.497V251.379Z" fill="#F24B46"/>
<path d="M188.349 251.379H187.414V259.054H188.349V251.379Z" fill="#F24B46"/>
<path d="M178.927 251.379H177.992V259.054H178.927V251.379Z" fill="#F24B46"/>
<path d="M170.103 251.379H169.168V259.054H170.103V251.379Z" fill="#F24B46"/>
<path d="M162.225 251.379H161.291V259.054H162.225V251.379Z" fill="#F24B46"/>
<path d="M210.274 251.379H209.339V259.054H210.274V251.379Z" fill="#F24B46"/>
<path d="M212.261 251.379H211.326V259.054H212.261V251.379Z" fill="#F24B46"/>
<path d="M214.183 251.379H213.248V259.054H214.183V251.379Z" fill="#F24B46"/>
<path d="M215.627 251.407V259.026C215.511 259.044 215.394 259.054 215.277 259.054H214.692V251.369H215.277C215.395 251.373 215.512 251.385 215.627 251.407Z" fill="#F24B46"/>
<path d="M216.924 252.119V258.316C216.68 258.611 216.357 258.828 215.992 258.941V251.494C216.356 251.609 216.679 251.826 216.924 252.119Z" fill="#F24B46"/>
<path d="M223.307 245.554V249.887C223.304 250.228 223.184 250.557 222.967 250.82C222.722 251.113 222.399 251.329 222.035 251.444C221.916 251.483 221.794 251.511 221.67 251.529C221.554 251.547 221.437 251.556 221.32 251.557H139.12C138.816 251.557 138.514 251.497 138.233 251.379C137.948 251.273 137.697 251.093 137.505 250.858C137.313 250.623 137.187 250.34 137.141 250.04V249.972C137.141 249.945 137.141 249.915 137.141 249.887V245.554C137.141 245.524 137.141 245.497 137.141 245.467C137.191 244.654 137.943 243.99 138.891 243.895C138.968 243.895 139.045 243.895 139.125 243.895H221.325C221.442 243.895 221.559 243.904 221.675 243.922C221.799 243.941 221.921 243.97 222.04 244.007C222.405 244.122 222.729 244.34 222.972 244.635C223.185 244.894 223.303 245.218 223.307 245.554Z" fill="#FD8857"/>
<path d="M182.946 251.557H138.908C138.634 251.557 138.363 251.496 138.116 251.379C137.851 251.259 137.623 251.073 137.452 250.838C137.281 250.603 137.174 250.328 137.141 250.04V249.972C137.141 249.945 137.141 249.915 137.141 249.887V245.554C137.141 245.524 137.141 245.497 137.141 245.467C137.175 245.062 137.351 244.683 137.637 244.396C137.923 244.108 138.302 243.931 138.706 243.895C138.776 243.891 138.846 243.891 138.916 243.895H177.537C178.333 246.915 180.154 249.566 182.688 251.392C182.773 251.439 182.858 251.499 182.946 251.557Z" fill="#F24B46"/>
<path d="M213.305 243.882H212.371V251.557H213.305V243.882Z" fill="#F24B46"/>
<path d="M210.144 243.882H209.209V251.557H210.144V243.882Z" fill="#F24B46"/>
<path d="M206.353 243.882H205.418V251.557H206.353V243.882Z" fill="#F24B46"/>
<path d="M200.54 243.882H199.605V251.557H200.54V243.882Z" fill="#F24B46"/>
<path d="M194.392 243.882H193.457V251.557H194.392V243.882Z" fill="#F24B46"/>
<path d="M184.97 243.882H184.035V251.557H184.97V243.882Z" fill="#F24B46"/>
<path d="M176.146 243.882H175.211V251.557H176.146V243.882Z" fill="#F24B46"/>
<path d="M168.268 243.882H167.333V251.557H168.268V243.882Z" fill="#F24B46"/>
<path d="M216.317 243.882H215.382V251.557H216.317V243.882Z" fill="#F24B46"/>
<path d="M218.306 243.882H217.372V251.557H218.306V243.882Z" fill="#F24B46"/>
<path d="M220.226 243.882H219.291V251.557H220.226V243.882Z" fill="#F24B46"/>
<path d="M221.67 243.91V251.529C221.554 251.547 221.437 251.557 221.32 251.557H220.735V243.872H221.32C221.438 243.876 221.555 243.888 221.67 243.91Z" fill="#F24B46"/>
<path d="M222.967 244.622V250.822C222.722 251.115 222.399 251.332 222.035 251.447V243.997C222.399 244.112 222.722 244.329 222.967 244.622Z" fill="#F24B46"/>
<path d="M225.881 237.892V242.225C225.878 242.566 225.758 242.895 225.541 243.157C225.296 243.452 224.972 243.669 224.606 243.782C224.488 243.822 224.365 243.851 224.241 243.867C224.203 243.875 224.165 243.88 224.126 243.882H224.061H141.694C140.635 243.882 139.76 243.177 139.708 242.298C139.708 242.27 139.708 242.24 139.708 242.213V237.88C139.708 237.85 139.708 237.822 139.708 237.795C139.76 236.915 140.635 236.21 141.694 236.21H223.896C224.014 236.21 224.131 236.218 224.246 236.235C224.37 236.254 224.492 236.283 224.611 236.323C224.977 236.435 225.302 236.652 225.546 236.947C225.764 237.214 225.882 237.548 225.881 237.892Z" fill="#FD8857"/>
<path d="M185.517 243.895H141.479C141.039 243.902 140.612 243.743 140.283 243.45C139.955 243.156 139.749 242.749 139.708 242.31C139.708 242.283 139.708 242.253 139.708 242.225V237.892C139.708 237.862 139.708 237.835 139.708 237.807C139.749 237.368 139.955 236.961 140.283 236.668C140.612 236.374 141.039 236.215 141.479 236.223H180.109C180.93 239.339 182.843 242.058 185.5 243.882L185.517 243.895Z" fill="#F24B46"/>
<path d="M215.88 236.22H214.945V243.895H215.88V236.22Z" fill="#F24B46"/>
<path d="M212.715 236.22H211.781V243.895H212.715V236.22Z" fill="#F24B46"/>
<path d="M208.924 236.22H207.99V243.895H208.924V236.22Z" fill="#F24B46"/>
<path d="M203.111 236.22H202.177V243.895H203.111V236.22Z" fill="#F24B46"/>
<path d="M196.966 236.22H196.031V243.895H196.966V236.22Z" fill="#F24B46"/>
<path d="M187.542 236.22H186.607V243.895H187.542V236.22Z" fill="#F24B46"/>
<path d="M178.719 236.22H177.785V243.895H178.719V236.22Z" fill="#F24B46"/>
<path d="M170.84 236.22H169.905V243.895H170.84V236.22Z" fill="#F24B46"/>
<path d="M218.888 236.22H217.954V243.895H218.888V236.22Z" fill="#F24B46"/>
<path d="M220.878 236.22H219.943V243.895H220.878V236.22Z" fill="#F24B46"/>
<path d="M222.797 236.22H221.862V243.895H222.797V236.22Z" fill="#F24B46"/>
<path d="M224.242 236.248V243.872C224.126 243.89 224.009 243.899 223.892 243.9H223.31V236.228H223.897C224.012 236.226 224.127 236.232 224.242 236.248Z" fill="#F24B46"/>
<path d="M225.541 236.96V243.158C225.296 243.452 224.972 243.669 224.606 243.782V236.335C224.972 236.448 225.297 236.665 225.541 236.96Z" fill="#F24B46"/>
<path d="M173.588 286.67C176.751 265.328 162.013 245.463 140.67 242.3C119.328 239.137 99.4616 253.874 96.2985 275.216C93.1355 296.557 107.873 316.422 129.216 319.585C150.559 322.748 170.425 308.011 173.588 286.67Z" fill="#F9795A"/>
<path d="M159.154 308.56C174.41 293.305 174.41 268.57 159.154 253.315C143.897 238.059 119.162 238.059 103.905 253.315C88.6486 268.57 88.6486 293.305 103.905 308.56C119.162 323.816 143.897 323.816 159.154 308.56Z" fill="url(#paint4_linear_185_2897)"/>
<path d="M131.531 316.991C123.296 316.991 115.316 314.137 108.951 308.913C102.585 303.689 98.2279 296.42 96.6212 288.345C95.0145 280.269 96.2578 271.886 100.139 264.624C104.021 257.362 110.3 251.67 117.908 248.519C125.516 245.367 133.981 244.951 141.861 247.341C149.741 249.731 156.548 254.779 161.123 261.625C165.699 268.472 167.758 276.692 166.952 284.887C166.145 293.081 162.522 300.743 156.7 306.565C153.402 309.881 149.48 312.51 145.159 314.299C140.839 316.089 136.207 317.004 131.531 316.991ZM131.531 247.931C113.074 247.931 98.0619 262.945 98.0619 281.4C98.0619 299.855 113.074 314.867 131.531 314.867C149.987 314.867 164.999 299.853 164.999 281.4C164.999 262.947 149.987 247.931 131.531 247.931Z" fill="#F24B46"/>
<path d="M136.426 291.729C136.52 291.04 136.492 290.34 136.341 289.662C136.185 289.031 135.886 288.445 135.467 287.948C134.962 287.351 134.373 286.831 133.717 286.406C132.853 285.835 131.948 285.328 131.011 284.889C129.299 284.059 127.63 283.141 126.012 282.14C124.631 281.301 123.369 280.278 122.264 279.098C121.277 278.029 120.526 276.765 120.057 275.387C119.59 274.018 119.464 272.435 119.677 270.639C119.831 269.179 120.283 267.766 121.007 266.488C121.698 265.286 122.635 264.242 123.756 263.425C124.95 262.569 126.287 261.932 127.704 261.545C129.31 261.108 130.972 260.915 132.635 260.976L133.33 255.11L138.053 255.67L137.346 261.618C138.922 261.999 140.424 262.637 141.792 263.507C143.056 264.304 144.148 265.346 145.002 266.572C145.856 267.798 146.456 269.183 146.765 270.644C147.118 272.301 147.184 274.006 146.96 275.685L138.431 274.685C138.691 272.494 138.398 270.797 137.554 269.592C136.709 268.388 135.47 267.69 133.837 267.498C133.061 267.388 132.27 267.421 131.506 267.595C130.885 267.743 130.305 268.025 129.806 268.423C129.341 268.806 128.967 269.288 128.711 269.835C128.439 270.421 128.263 271.048 128.192 271.691C128.109 272.315 128.135 272.948 128.269 273.563C128.417 274.168 128.704 274.73 129.106 275.205C129.612 275.802 130.201 276.322 130.856 276.749C131.762 277.346 132.703 277.889 133.672 278.376C135.495 279.316 137.144 280.253 138.621 281.188C139.994 282.038 141.246 283.07 142.342 284.256C143.387 285.373 144.163 286.714 144.612 288.176C145.06 289.638 145.17 291.183 144.931 292.693C144.779 294.182 144.318 295.623 143.576 296.924C142.879 298.121 141.935 299.156 140.807 299.96C139.606 300.801 138.26 301.415 136.836 301.77C135.217 302.176 133.549 302.352 131.88 302.292L131.233 307.747L126.542 307.19L127.185 301.762C125.587 301.411 124.039 300.864 122.576 300.133C121.148 299.428 119.867 298.46 118.8 297.279C117.71 296.052 116.901 294.602 116.428 293.031C115.908 291.373 115.778 289.449 116.036 287.258L124.565 288.27C124.402 289.373 124.456 290.498 124.725 291.581C124.948 292.416 125.364 293.186 125.94 293.83C126.48 294.42 127.146 294.879 127.889 295.175C128.639 295.476 129.426 295.677 130.228 295.772C131.052 295.885 131.889 295.862 132.705 295.705C133.376 295.573 134.013 295.308 134.58 294.925C135.096 294.572 135.524 294.104 135.829 293.558C136.147 292.993 136.35 292.372 136.426 291.729Z" fill="#F24B46"/>
<path d="M99.8239 145.993C99.9413 145.523 89.6173 150.659 89.095 151.241C84.2541 156.611 85.6337 163.619 88.4052 163.686C90.1796 163.728 89.8372 166.685 89.8372 166.685L109.628 158.313C109.628 158.313 107.246 144.411 99.8239 145.993Z" fill="#1B2251"/>
<path d="M102.26 147.077C102.26 147.077 102.968 139.365 94.353 139.365C94.353 139.365 96.9646 140.075 98.3142 141.492C98.3142 141.492 92.816 138.266 86.8405 143.221C80.8651 148.177 84.5763 160.61 82.7569 162.964C80.9375 165.318 73.8574 165.795 74.7246 173.427C75.5919 181.059 97.1971 190.618 95.81 196.918C95.81 196.918 104.277 184.47 98.2217 178.79C98.2217 178.79 101.173 181.571 101.471 184.875C101.471 184.875 102.27 178.425 98.1642 176.361C94.533 174.534 91.5565 167.864 91.8713 166.662C92.1862 165.46 102.26 147.077 102.26 147.077Z" fill="#1B2251"/>
<path d="M94.4408 183.348C93.1137 176.953 84.819 174.969 80.8929 180.192C80.1479 181.171 79.6777 182.332 79.5308 183.553C78.6336 190.815 90.2447 220.389 91.9066 223.068C94.9331 227.943 112.757 244.654 112.757 244.654L116.043 242.655C116.043 242.655 103.4 221.253 101.443 219.249C99.1892 216.943 96.9599 195.494 94.4408 183.348Z" fill="#FF7E79"/>
<path d="M111.505 242.673C111.505 242.673 116.301 239.524 118.115 239.726C119.93 239.929 125.183 241.441 125.248 242.213C125.313 242.985 119.395 243.462 119 243.89C118.605 244.317 114.584 246.994 113.127 246.154C111.67 245.314 111.505 242.673 111.505 242.673Z" fill="#FF7E79"/>
<path d="M78.0635 313.787L73.78 313.158C73.78 313.158 59.3774 301.715 57.2331 280.36C57.0087 278.167 56.9744 275.958 57.1306 273.758C57.164 273.505 57.1112 273.248 56.9807 273.028C56.5184 272.321 55.3712 270.552 53.8193 268.03C52.2873 265.551 49.6682 260.863 46.7842 255.6C41.5909 246.126 35.538 234.793 33.4712 231.185C26.8659 219.689 30.0498 211.942 30.0498 211.942C30.0498 211.942 48.4836 210.12 53.5419 205.695L55.3612 208.498C55.3612 208.498 59.3599 226.177 59.165 226.259L59.7648 228.096C62.9162 237.822 66.5425 249.982 68.5118 259.883C69.6214 265.456 70.2112 270.309 69.8938 273.628C69.7864 274.763 69.9163 276.507 70.2187 278.659C72.0006 291.354 78.0635 313.787 78.0635 313.787Z" fill="#242E6C"/>
<path d="M87.0482 319.205H69.1793C69.1793 319.205 68.7494 316.484 69.6791 314.417C70.5713 312.435 71.8484 312.37 69.8416 309.264C70.9762 310.434 74.6274 310.916 77.2091 310.569C77.5265 311.068 79.2508 314.525 80.308 315.284C81.4801 316.124 86.6933 315.824 87.0482 319.205Z" fill="#6615B2"/>
<path d="M59.7548 228.103C58.1929 236.712 54.5066 251.039 46.7817 255.593C41.5885 246.119 35.5355 234.786 33.4687 231.177C26.8635 219.682 30.0474 211.935 30.0474 211.935C30.0474 211.935 48.4811 210.113 53.5394 205.687L55.3588 208.491C55.3588 208.491 59.3575 226.169 59.1625 226.251L59.7548 228.103Z" fill="#1B2251"/>
<path d="M92.526 179.38C92.526 179.38 95.0527 182.009 96.2073 185.155C96.2073 185.155 92.1762 196.728 82.7568 198.18C82.7568 198.18 90.2093 179.377 92.526 179.38Z" fill="#7F22BA"/>
<path d="M47.2215 213.272L47.2814 209.931C40.6237 210.77 24.3217 201.974 24.3217 201.974C24.3217 201.974 17.3566 206.607 16.4019 219.837C15.937 226.297 12.993 253.608 12.6532 261.763C12.5357 264.719 12.4957 266.828 12.4832 267.67C12.4732 267.924 12.3801 268.167 12.2183 268.363C10.8581 270.099 9.65072 271.949 8.60955 273.893C-1.55201 292.796 3.76368 318.483 3.76368 318.483L6.12287 317.883C6.12287 317.883 14.715 291.256 20.3281 279.738C21.2827 277.784 22.1474 276.265 22.8722 275.385C24.984 272.821 27.2082 268.465 29.405 263.225C33.5511 253.316 37.5797 240.234 40.4512 230.12C40.6487 230.163 47.2215 213.272 47.2215 213.272Z" fill="#242E6C"/>
<path d="M86.1933 190.968C75.3095 188.469 82.2622 173.172 82.8945 173.442C84.394 173.135 87.7153 170.486 90.6768 165.315L91.0792 165.663L97.7645 171.523C97.7645 171.523 96.2175 173.802 94.9179 176.036C93.9033 177.786 93.0385 179.507 93.1685 180.097C93.7083 180.522 89.0924 191.643 86.1933 190.968Z" fill="#FF938F"/>
<path d="M97.7593 171.526C97.7593 171.526 96.2123 173.802 94.9127 176.039C90.7566 173.475 90.7516 168.329 91.0715 165.663L97.7593 171.526Z" fill="#FF7E79"/>
<path d="M97.9393 174.462C97.9393 174.462 87.8453 168.844 91.4415 162.614C95.0378 156.384 96.1549 151.461 102.75 154.782C109.345 158.103 109.215 161.2 108.523 163.571C107.831 165.943 100.661 175.761 97.9393 174.462Z" fill="#FF938F"/>
<path d="M110.23 159.935C109.768 157.169 108.364 156.906 107.384 157.089C103.655 150.926 97.5647 153.34 97.5647 153.34C95.5471 155.807 92.7352 157.496 89.6099 158.118C89.6099 158.118 90.782 160.297 95.6078 161.644C97.0823 162.057 98.7543 161.807 100.356 161.265C98.2009 162.433 95.8962 163.301 93.506 163.846C99.8664 164.428 105.917 158.616 106.544 157.993C106.837 158.893 107.351 160.78 107.044 162.159C106.624 164.033 104.962 167.427 105.977 167.867C105.989 167.859 110.935 164.086 110.23 159.935Z" fill="#1B2251"/>
<path d="M17.9663 319.205H0.0973481C0.0973481 319.205 -0.330007 316.484 0.597179 314.417C1.49188 312.435 2.8939 311.533 2.55901 309.134C3.69362 310.304 5.54301 311.613 8.12713 311.266C8.44452 311.766 10.1714 314.515 11.2286 315.284C12.4007 316.124 17.6089 315.824 17.9663 319.205Z" fill="#6615B2"/>
<path d="M87.4706 203.093C85.1714 203.895 81.9425 204.343 78.6411 204.693C73.9427 205.192 69.0919 205.557 66.5502 206.569C65.623 206.939 65.0032 207.397 64.8008 207.981C63.6987 211.292 58.8453 216.403 58.8453 216.403C27.7283 214.986 24.312 201.974 24.312 201.974C45.2474 177.631 80.6929 170.586 80.6929 170.586C80.6929 170.586 83.2246 169.511 89.6024 174.584C93.851 177.965 93.2962 179.265 93.2962 179.265C93.2962 179.265 94.2358 200.732 87.4706 203.093Z" fill="#9E30CA"/>
<path d="M78.6407 204.692C73.9423 205.192 69.0915 205.557 66.5498 206.569C65.5127 191.053 72.8352 179.38 72.8352 179.38C72.8352 179.38 77.6136 198.82 78.6407 204.692Z" fill="#7F22BA"/>
<path d="M83.4794 176.379C83.4794 176.379 71.7009 177.541 70.7587 185.193C69.8165 192.845 82.0474 224.01 83.7993 226.831C86.9907 231.969 105.772 249.573 105.772 249.573L109.236 247.473C109.236 247.473 95.9127 224.922 93.8484 222.811C90.6095 219.504 87.4656 179.028 83.4794 176.379Z" fill="#FF938F"/>
<path d="M71.0984 189.796C71.1284 189.971 81.9647 193.337 88.9398 189.796C88.9398 189.796 90.4393 173.705 82.1071 174.579C73.775 175.454 68.8491 178.078 68.6392 182.061C68.4293 186.045 71.0984 189.796 71.0984 189.796Z" fill="#9E30CA"/>
<path d="M104.702 247.343C104.702 247.343 108.926 243.465 110.75 243.372C112.574 243.28 117.998 243.925 118.19 244.677C118.383 245.429 112.617 246.856 112.292 247.338C111.967 247.821 108.436 251.112 106.861 250.517C105.287 249.922 104.702 247.343 104.702 247.343Z" fill="#FF938F"/>
</g>
<defs>
<linearGradient id="paint0_linear_185_2897" x1="315.974" y1="81.3134" x2="362.448" y2="81.3134" gradientUnits="userSpaceOnUse">
<stop stop-color="#F9795A"/>
<stop offset="1" stop-color="#FFEFE9"/>
</linearGradient>
<linearGradient id="paint1_linear_185_2897" x1="373.176" y1="42.3385" x2="409.786" y2="42.3385" gradientUnits="userSpaceOnUse">
<stop stop-color="#F9795A"/>
<stop offset="1" stop-color="#FFEFE9"/>
</linearGradient>
<linearGradient id="paint2_linear_185_2897" x1="193.457" y1="209.806" x2="440.986" y2="209.806" gradientUnits="userSpaceOnUse">
<stop stop-color="#F9795A"/>
<stop offset="1" stop-color="#EB3668"/>
</linearGradient>
<linearGradient id="paint3_linear_185_2897" x1="193.457" y1="206.792" x2="290.692" y2="206.792" gradientUnits="userSpaceOnUse">
<stop stop-color="#C643DB"/>
<stop offset="1" stop-color="#6615B2"/>
</linearGradient>
<linearGradient id="paint4_linear_185_2897" x1="92.4624" y1="280.937" x2="170.596" y2="280.937" gradientUnits="userSpaceOnUse">
<stop stop-color="#F9795A"/>
<stop offset="1" stop-color="#FFEFE9"/>
</linearGradient>
<clipPath id="clip0_185_2897">
<rect width="539" height="320" fill="white"/>
</clipPath>
</defs>
</svg>
