<svg width="549" height="289" viewBox="0 0 549 289" fill="none" xmlns="http://www.w3.org/2000/svg">
<path d="M507.796 63.3464L397.861 82.9705L423.011 224.748L532.946 205.124L507.796 63.3464Z" fill="#D2E0FF"/>
<path d="M500.172 81.3816L468.216 87.083C468.056 87.109 467.892 87.0709 467.76 86.9767C467.628 86.8825 467.538 86.7399 467.51 86.5797C467.483 86.4194 467.521 86.2554 467.615 86.1228C467.708 85.9902 467.85 85.8997 468.009 85.8708L499.955 80.1647C500.115 80.1392 500.278 80.1773 500.41 80.2709C500.542 80.3645 500.632 80.5062 500.662 80.6656C500.689 80.8254 500.653 80.9895 500.561 81.1232C500.47 81.2568 500.33 81.3495 500.172 81.3816Z" fill="#AEC3FF"/>
<path d="M500.911 85.559L468.956 91.2698C468.796 91.2966 468.632 91.2589 468.5 91.1651C468.367 91.0713 468.277 90.9289 468.249 90.7689C468.223 90.6087 468.261 90.445 468.355 90.3125C468.448 90.1801 468.589 90.0895 468.748 90.06L500.704 84.3587C500.863 84.3325 501.027 84.3704 501.159 84.4641C501.291 84.5578 501.381 84.6998 501.41 84.8596C501.434 85.0184 501.396 85.1804 501.302 85.311C501.209 85.4416 501.069 85.5306 500.911 85.559Z" fill="#AEC3FF"/>
<path d="M501.663 89.7386L469.707 95.44C469.547 95.4662 469.384 95.4283 469.252 95.3346C469.12 95.2409 469.029 95.0989 469.001 94.9391C468.974 94.7788 469.011 94.6144 469.105 94.4816C469.198 94.3489 469.34 94.2586 469.5 94.2303L501.427 88.5194C501.587 88.4926 501.751 88.5302 501.883 88.6241C502.015 88.7179 502.106 88.8603 502.134 89.0203C502.163 89.1779 502.13 89.3406 502.042 89.4744C501.954 89.6082 501.818 89.7029 501.663 89.7386Z" fill="#AEC3FF"/>
<path d="M483.724 105.808L461.661 109.747C461.429 109.787 461.19 109.734 460.997 109.599C460.803 109.463 460.671 109.256 460.629 109.024C460.609 108.908 460.611 108.79 460.637 108.676C460.662 108.562 460.709 108.453 460.776 108.358C460.843 108.262 460.928 108.18 461.027 108.117C461.125 108.054 461.235 108.011 461.35 107.991L483.413 104.052C483.645 104.012 483.884 104.065 484.077 104.2C484.271 104.336 484.403 104.543 484.445 104.775C484.465 104.891 484.463 105.009 484.437 105.123C484.412 105.237 484.365 105.346 484.298 105.442C484.231 105.537 484.146 105.619 484.047 105.682C483.949 105.745 483.839 105.788 483.724 105.808Z" fill="#AEC3FF"/>
<path d="M503.599 102.264L490.027 104.683C489.797 104.725 489.559 104.675 489.367 104.542C489.174 104.409 489.041 104.205 488.998 103.974C488.956 103.742 489.009 103.502 489.144 103.308C489.278 103.114 489.484 102.982 489.716 102.94L503.285 100.52C503.516 100.478 503.753 100.529 503.947 100.661C504.14 100.794 504.273 100.998 504.317 101.229C504.358 101.462 504.306 101.701 504.171 101.895C504.036 102.089 503.831 102.222 503.599 102.264Z" fill="#AEC3FF"/>
<path d="M497.807 109.279L463.911 115.328C463.796 115.348 463.678 115.346 463.564 115.321C463.45 115.296 463.342 115.249 463.247 115.182C463.151 115.115 463.069 115.03 463.007 114.931C462.944 114.832 462.901 114.722 462.881 114.607C462.861 114.492 462.863 114.374 462.888 114.259C462.913 114.145 462.96 114.036 463.026 113.94C463.093 113.844 463.178 113.762 463.276 113.699C463.375 113.636 463.485 113.593 463.6 113.572L497.496 107.523C497.611 107.503 497.729 107.506 497.843 107.531C497.957 107.556 498.065 107.604 498.16 107.671C498.256 107.738 498.337 107.823 498.4 107.922C498.463 108.021 498.505 108.131 498.525 108.246C498.546 108.362 498.544 108.48 498.519 108.594C498.494 108.708 498.447 108.816 498.38 108.912C498.313 109.008 498.228 109.09 498.13 109.153C498.032 109.216 497.922 109.259 497.807 109.279Z" fill="#AEC3FF"/>
<path d="M476.05 126.045L453.987 129.982C453.755 130.023 453.516 129.97 453.323 129.835C453.13 129.7 452.997 129.494 452.956 129.261C452.914 129.028 452.967 128.788 453.102 128.594C453.238 128.4 453.444 128.268 453.676 128.226L475.739 124.29C475.972 124.249 476.211 124.302 476.404 124.437C476.598 124.573 476.73 124.78 476.771 125.013C476.791 125.128 476.789 125.246 476.764 125.361C476.738 125.475 476.691 125.583 476.624 125.679C476.557 125.775 476.472 125.857 476.373 125.919C476.275 125.982 476.165 126.025 476.05 126.045Z" fill="#AEC3FF"/>
<path d="M495.924 122.499L482.348 124.92C482.118 124.963 481.881 124.912 481.688 124.779C481.495 124.646 481.362 124.442 481.319 124.212C481.277 123.981 481.328 123.742 481.461 123.549C481.593 123.355 481.796 123.221 482.025 123.177L495.595 120.755C495.827 120.714 496.066 120.767 496.26 120.902C496.453 121.038 496.585 121.245 496.626 121.478C496.664 121.706 496.612 121.94 496.481 122.131C496.35 122.321 496.151 122.453 495.924 122.499Z" fill="#AEC3FF"/>
<path d="M507.443 126.475L454.447 135.927C454.216 135.969 453.979 135.918 453.785 135.785C453.592 135.652 453.459 135.448 453.415 135.218C453.374 134.985 453.427 134.745 453.562 134.551C453.697 134.357 453.903 134.224 454.136 134.183L507.132 124.732C507.247 124.711 507.365 124.713 507.479 124.738C507.593 124.763 507.701 124.81 507.797 124.877C507.893 124.944 507.974 125.029 508.037 125.128C508.1 125.227 508.143 125.337 508.164 125.452C508.201 125.684 508.147 125.92 508.012 126.112C507.877 126.303 507.673 126.434 507.443 126.475Z" fill="#AEC3FF"/>
<path d="M478.021 138.774L455.968 142.712C455.736 142.754 455.496 142.701 455.303 142.565C455.11 142.429 454.978 142.222 454.936 141.989C454.916 141.874 454.918 141.756 454.943 141.642C454.968 141.527 455.015 141.419 455.082 141.323C455.148 141.227 455.233 141.146 455.332 141.083C455.43 141.02 455.54 140.977 455.655 140.957L477.72 137.018C477.835 136.998 477.953 137 478.067 137.025C478.181 137.051 478.288 137.098 478.384 137.165C478.48 137.233 478.561 137.318 478.624 137.417C478.686 137.516 478.729 137.626 478.749 137.741C478.77 137.857 478.767 137.976 478.742 138.09C478.716 138.205 478.668 138.314 478.601 138.41C478.533 138.506 478.447 138.588 478.347 138.65C478.248 138.712 478.137 138.754 478.021 138.774Z" fill="#AEC3FF"/>
<path d="M498.772 135.286L485.201 137.708C484.971 137.75 484.733 137.699 484.54 137.567C484.348 137.434 484.215 137.23 484.171 136.999C484.13 136.766 484.183 136.527 484.317 136.333C484.452 136.139 484.658 136.006 484.89 135.964L498.461 133.542C498.576 133.522 498.694 133.525 498.808 133.55C498.922 133.575 499.03 133.623 499.126 133.69C499.221 133.757 499.303 133.842 499.365 133.941C499.428 134.04 499.471 134.15 499.491 134.265C499.529 134.496 499.475 134.733 499.341 134.924C499.206 135.115 499.002 135.245 498.772 135.286Z" fill="#AEC3FF"/>
<path d="M490.634 142.778L456.738 148.827C456.623 148.848 456.505 148.845 456.391 148.82C456.277 148.794 456.17 148.747 456.074 148.68C455.978 148.613 455.897 148.527 455.834 148.428C455.772 148.33 455.729 148.219 455.709 148.104C455.667 147.873 455.717 147.635 455.85 147.442C455.982 147.248 456.186 147.115 456.415 147.072L490.312 141.023C490.542 140.981 490.779 141.032 490.973 141.165C491.166 141.298 491.299 141.501 491.343 141.732C491.366 141.847 491.365 141.966 491.341 142.081C491.318 142.196 491.272 142.306 491.206 142.403C491.14 142.5 491.055 142.583 490.957 142.648C490.859 142.712 490.75 142.757 490.634 142.778Z" fill="#AEC3FF"/>
<path d="M447.326 202.276L425.263 206.212C425.033 206.255 424.795 206.204 424.602 206.071C424.409 205.938 424.276 205.734 424.232 205.503C424.19 205.272 424.24 205.034 424.373 204.84C424.505 204.646 424.708 204.513 424.938 204.469L447.003 200.532C447.234 200.491 447.471 200.542 447.664 200.674C447.857 200.807 447.99 201.011 448.035 201.241C448.076 201.472 448.024 201.71 447.892 201.904C447.759 202.098 447.556 202.231 447.326 202.276Z" fill="#AEC3FF"/>
<path d="M468.077 198.788L454.505 201.21C454.39 201.231 454.272 201.228 454.158 201.203C454.045 201.178 453.937 201.13 453.841 201.063C453.746 200.996 453.664 200.91 453.601 200.811C453.539 200.713 453.496 200.603 453.476 200.487C453.434 200.256 453.485 200.018 453.617 199.825C453.749 199.631 453.953 199.498 454.182 199.455L467.754 197.033C467.869 197.012 467.987 197.014 468.101 197.039C468.215 197.064 468.323 197.112 468.418 197.179C468.514 197.246 468.595 197.331 468.658 197.43C468.721 197.528 468.763 197.638 468.784 197.754C468.825 197.985 468.774 198.223 468.642 198.416C468.51 198.61 468.307 198.744 468.077 198.788Z" fill="#AEC3FF"/>
<path d="M459.939 206.288L426.045 212.337C425.93 212.357 425.812 212.355 425.698 212.33C425.584 212.305 425.476 212.258 425.38 212.191C425.285 212.124 425.203 212.039 425.14 211.94C425.077 211.841 425.034 211.731 425.014 211.616C424.993 211.501 424.995 211.382 425.02 211.268C425.045 211.154 425.092 211.045 425.159 210.949C425.226 210.853 425.31 210.771 425.409 210.708C425.507 210.645 425.617 210.602 425.732 210.581L459.628 204.532C459.861 204.492 460.1 204.545 460.293 204.68C460.486 204.816 460.618 205.023 460.66 205.255C460.68 205.371 460.678 205.489 460.653 205.603C460.627 205.717 460.58 205.826 460.513 205.921C460.446 206.017 460.361 206.099 460.263 206.162C460.164 206.225 460.054 206.268 459.939 206.288Z" fill="#AEC3FF"/>
<path d="M429.378 51.4829C429.378 51.4829 434.602 57.274 434.899 59.9345C435.196 62.595 432.544 68.4689 433.82 71.0396C434.216 71.8359 440.217 79.7678 442.064 80.2167C443.308 80.5215 445.105 77.3979 443.324 74.357C441.52 71.2854 441.164 65.1634 441.454 62.4698C441.951 57.8789 445.194 47.2015 445.786 49.2051L455.888 47.5961L446.311 43.6597L429.378 51.4829Z" fill="#E59365"/>
<path d="M426.149 65.5271C426.149 65.5271 425.254 77.1591 426.149 81.5941C426.504 83.3756 428.219 89.103 429.917 89.7221C432.716 90.7428 434.244 85.8117 433.029 80.4576C432.697 78.9903 434.993 69.9526 436.527 65.8083C440.34 55.5349 442.651 49.3491 442.651 49.3491L426.149 65.5271Z" fill="#F2A36D"/>
<path d="M509.584 28.0629C507.106 29.5208 504.791 30.8983 502.774 32.1293C501.653 32.8145 500.624 33.4477 499.712 34.0195C498.247 34.9457 497.098 35.7066 496.372 36.2476C494.514 37.6275 491.461 39.3193 489.212 41.6206H489.198C484.81 44.7324 484.614 48.4018 484.449 50.6417C484.037 56.199 478.888 64.3742 471.895 72.5518C468.082 77.0151 464.711 83.5411 463.55 86.1237C463.171 86.9719 462.457 88.9401 461.635 91.0217C460.495 93.9209 459.141 97.0421 458.177 97.6564C457.9 97.8336 457.433 97.7793 456.889 97.5737C455.511 97.0563 453.629 95.5748 453.078 94.4289C451.429 91.0052 452.713 85.7716 455.869 77.4948C458.879 69.6102 458.441 65.6289 457.282 62.1107C456.524 59.8235 455.426 57.6214 452.056 56.2959C450.991 55.8186 449.895 55.416 448.775 55.0908C447.145 54.6396 445.093 54.304 442.981 54.6183C442.227 54.7255 441.487 54.9165 440.776 55.1877C439.108 55.828 437.478 56.9834 436.065 58.9044L435.929 59.084C435.361 59.8202 434.734 60.5092 434.056 61.1443C432.702 62.432 431.171 63.5945 429.767 64.7688C428.363 65.9431 427.124 67.0985 426.271 68.424C425.756 69.1966 425.406 70.0679 425.242 70.9829C424.729 74.0026 423.195 76.9844 421.664 80.2923C420.557 82.6834 419.453 85.2542 418.744 88.1202C417.036 95.0337 413.133 95.7615 411.086 93.6775L411.009 93.5972C410.382 92.919 410.377 89.1764 410.538 85.8C410.66 83.2789 410.881 80.9704 411.009 80.3112C411.409 78.2603 414.81 70.2032 416.445 61.8815C417.665 55.665 427.348 46.384 434.171 34.1306C437.568 28.0346 450.636 26.3546 464.287 18.4062C465.022 17.9809 465.828 17.6974 466.591 17.3146C468.771 16.2467 470.904 15.0952 472.993 13.8602C476.074 13.8418 479.154 13.983 482.221 14.2832C484.3 14.4848 486.386 14.7549 488.48 15.0936C491.801 15.6292 495.13 16.3286 498.466 17.1918C502.428 20.5429 506.143 24.176 509.584 28.0629Z" fill="#FFB27D"/>
<path d="M503.601 33.1123L501.245 34.641L500.626 35.0403L489.671 42.1287L489.2 41.6325L466.541 17.3856L466.607 17.3312C466.607 17.3312 476.518 10.2429 477.277 10.1554L477.903 10.0798C479.025 11.0013 480.777 12.523 482.85 14.3588C489.504 20.2422 499.483 29.3507 502.616 32.2144L503.601 33.1123Z" fill="#9FC1F4"/>
<path d="M520.115 26.6593L506.074 36.7532C506.074 36.7532 503.865 35.9333 501.239 34.6408C500.789 34.4187 500.325 34.1824 499.858 33.932C498.224 33.0922 496.675 32.0935 495.235 30.9501C489.111 25.8891 483.493 18.822 480.059 14.1153C478.825 12.4259 477.873 11.0437 477.284 10.16C477.385 10.1458 484.063 5.16033 491.23 0C502.188 6.30392 513.173 15.4526 520.115 26.6593Z" fill="#F99746"/>
<path d="M491.921 35.3805C492.053 35.1644 492.247 34.9928 492.477 34.8871C492.707 34.7815 492.963 34.7467 493.213 34.7871C493.463 34.8275 493.695 34.9413 493.88 35.1141C494.066 35.2869 494.196 35.511 494.254 35.7579C494.312 36.0049 494.296 36.2636 494.208 36.5015C494.12 36.7393 493.963 36.9455 493.758 37.094C493.553 37.2426 493.308 37.3267 493.056 37.3359C492.803 37.345 492.553 37.2788 492.338 37.1455C492.049 36.9668 491.843 36.6805 491.765 36.3495C491.687 36.0186 491.743 35.67 491.921 35.3805Z" fill="#2A4E96"/>
<path d="M393.77 83.7372L454.937 72.8235L447.402 106.77L403.978 116.457L393.77 83.7372Z" fill="#D2E0FF"/>
<path d="M450.106 100.777C450.744 103.975 450.621 107.279 449.745 110.42C448.869 113.561 447.265 116.449 445.065 118.85C442.1 122.106 438.175 124.325 433.863 125.183C432.621 125.432 431.36 125.568 430.094 125.587C428.484 125.616 426.876 125.449 425.306 125.091C423.683 124.733 422.109 124.177 420.621 123.437C419.697 122.981 418.811 122.454 417.969 121.861C415.194 119.918 412.937 117.322 411.396 114.3C409.854 111.279 409.075 107.924 409.127 104.53C409.179 101.136 410.059 97.8068 411.692 94.8339C413.325 91.861 415.66 89.3353 418.492 87.4781C421.324 85.621 424.567 84.4892 427.937 84.1819C431.307 83.8746 434.7 84.4012 437.82 85.7156C440.939 87.03 443.69 89.092 445.83 91.7209C447.97 94.3497 449.435 97.4652 450.096 100.794L450.106 100.777Z" fill="#8C9DF4"/>
<path d="M445.946 107.311C443.141 100.601 437.054 92.7655 432.728 89.4458C431.731 88.6803 430.827 88.1581 430.078 87.9407C429.797 87.8572 429.512 87.7918 429.223 87.7446C426.613 87.2886 424.922 88.4062 424.922 88.4062C416.139 89.115 415.63 99.6578 416.442 103.089C417.168 106.193 418.164 109.468 416.167 113.957C415.957 114.43 415.715 114.902 415.434 115.41C414.905 116.337 414.46 117.31 414.104 118.317C415.243 119.654 416.549 120.839 417.988 121.844C418.83 122.437 419.717 122.964 420.64 123.42C422.128 124.161 423.702 124.716 425.325 125.074C426.894 125.432 428.501 125.598 430.111 125.57C429.557 119.952 433.755 118.149 437.142 117.849C439.405 117.648 441.306 118.121 441.176 118.572C442.315 118.646 443.457 118.506 444.545 118.161C446.497 117.452 447.371 115.949 447.482 113.95C447.569 112.081 446.98 109.771 445.946 107.311Z" fill="#163560"/>
<path d="M425.315 125.086C423.692 124.728 422.119 124.173 420.63 123.432C419.707 122.976 418.82 122.449 417.978 121.856C418.197 120.97 418.364 120.282 418.449 119.921C419.577 115.609 422.385 113.875 422.385 113.875L425.315 125.086Z" fill="#FFA561"/>
<path d="M445.065 118.85C442.1 122.106 438.175 124.325 433.863 125.183C432.621 125.432 431.36 125.568 430.094 125.587C428.484 125.616 426.876 125.449 425.306 125.091C423.683 124.733 422.109 124.177 420.621 123.437C420.874 120.198 421.466 116.994 422.385 113.879C422.385 113.879 423.697 113.031 426.314 112.135C428.814 111.298 431.396 110.725 434.016 110.427C435.309 110.269 436.717 110.158 438.234 110.108L444.526 118.187L445.065 118.85Z" fill="#FFA561"/>
<path d="M433.995 110.359C433.135 109.066 432.37 106.987 431.849 104.327L431.479 104.48L425.266 107.058C425.266 107.058 425.819 109.073 426.208 110.997V111.044C426.549 112.715 425.748 114.617 428.563 114.747C429.425 114.784 435.799 113.078 433.995 110.359Z" fill="#FFB27D"/>
<path d="M425.266 107.058C425.266 107.058 425.819 109.073 426.208 110.997C429.809 110.17 431.062 106.472 431.482 104.48L425.266 107.058Z" fill="#E8945B"/>
<path d="M424.418 109.123C424.418 109.123 433.013 107.552 431.955 102.198C430.897 96.8435 431.293 93.0323 425.76 93.8097C420.228 94.587 419.568 96.8435 419.488 98.7172C419.408 100.591 422.154 109.395 424.418 109.123Z" fill="#FFB27D"/>
<path d="M421.832 94.4595C421.832 94.4595 425.426 100.272 429.211 100.48C432.996 100.688 434.365 99.4072 434.365 99.4072C432.275 98.1989 430.67 96.2995 429.823 94.0343C429.823 94.0343 423.007 91.1162 421.832 94.4595Z" fill="#163560"/>
<path d="M422.522 94.854C422.522 94.854 420.913 95.8535 420.449 97.2688C419.88 98.9281 419.818 100.72 420.27 102.415C420.27 102.415 417.653 98.4998 419.158 95.6881C420.748 92.7062 422.522 94.854 422.522 94.854Z" fill="#163560"/>
<path d="M440.234 122.763C439.595 122.324 438.905 121.857 438.163 121.362C437.393 120.849 437.134 119.472 437.132 117.86C437.132 114.505 438.244 110.092 438.244 110.092C438.244 110.092 443.96 109.357 447.47 113.96C447.611 114.137 447.743 114.326 447.872 114.519C447.919 114.586 447.96 114.654 448.007 114.72C447.198 116.213 446.21 117.6 445.065 118.85C443.663 120.394 442.034 121.714 440.234 122.763Z" fill="#FFA561"/>
<path d="M511.273 167.883C509.63 164.026 506.884 160.743 503.382 158.452C499.879 156.16 495.778 154.961 491.597 155.008C487.415 155.054 483.342 156.343 479.891 158.712C476.44 161.081 473.767 164.423 472.209 168.317C470.652 172.21 470.281 176.478 471.142 180.583C472.003 184.688 474.059 188.444 477.048 191.377C480.038 194.31 483.827 196.288 487.937 197.06C492.048 197.833 496.294 197.365 500.139 195.717C502.699 194.631 505.019 193.048 506.966 191.058C508.913 189.069 510.448 186.713 511.483 184.125C512.518 181.538 513.032 178.771 512.996 175.983C512.96 173.196 512.374 170.443 511.273 167.883ZM499.173 193.456C495.774 194.912 492.021 195.325 488.389 194.642C484.756 193.958 481.407 192.21 478.765 189.618C476.122 187.025 474.306 183.705 473.545 180.077C472.784 176.449 473.112 172.676 474.489 169.235C475.865 165.794 478.228 162.84 481.278 160.746C484.328 158.652 487.928 157.512 491.624 157.471C495.32 157.43 498.945 158.489 502.041 160.514C505.136 162.54 507.564 165.44 509.016 168.85C510.959 173.422 511.014 178.582 509.168 183.195C507.323 187.808 503.728 191.498 499.173 193.456Z" fill="#8C9DF4"/>
<path d="M493.023 186.511C492.215 186.517 491.43 186.247 490.795 185.746L477.089 174.969C476.717 174.678 476.407 174.316 476.175 173.905C475.943 173.493 475.795 173.04 475.737 172.571C475.68 172.102 475.716 171.626 475.842 171.17C475.968 170.715 476.182 170.289 476.473 169.916C476.763 169.544 477.124 169.233 477.534 169C477.944 168.768 478.396 168.618 478.864 168.561C479.331 168.504 479.806 168.539 480.26 168.666C480.714 168.792 481.138 169.007 481.51 169.299L491.603 177.235L502.345 153.066C502.537 152.635 502.811 152.246 503.153 151.921C503.494 151.596 503.896 151.342 504.336 151.173C504.775 151.004 505.243 150.924 505.714 150.937C506.184 150.949 506.648 151.055 507.077 151.247C507.507 151.439 507.895 151.714 508.219 152.057C508.543 152.399 508.796 152.803 508.964 153.243C509.133 153.684 509.213 154.154 509.2 154.626C509.188 155.098 509.083 155.563 508.891 155.994L496.278 184.368C495.998 185 495.542 185.537 494.964 185.915C494.386 186.292 493.712 186.494 493.023 186.495V186.511Z" fill="#F77D48"/>
<g opacity="0.8">
<path opacity="0.8" d="M112.644 184.997C112.644 184.997 135.185 172.195 124.558 155.015C124.558 155.015 116.078 144.475 107.019 141.798C107.019 141.798 111.966 167.467 107.142 168.096C102.318 168.724 103.694 139.092 103.694 139.092C103.694 139.092 79.8359 127.718 70.4991 128.668C70.4991 128.668 85.3804 153.687 80.5566 153.104C75.7328 152.52 59.0425 127.21 59.0425 127.21C59.0425 127.21 34.6148 122.789 30.7637 137.316C26.9127 151.842 33.2746 159.067 36.8877 159.958C40.5009 160.849 63.7085 160.431 63.1197 163.462C62.5308 166.494 46.884 171.396 38.1337 168.717C38.1337 168.717 47.885 192.553 60.5358 191.284C73.1866 190.015 77.0659 182.14 84.8976 181.497C92.7293 180.855 98.4646 182.946 94.5547 185.082C90.6447 187.218 77.3839 185.854 71.0809 191.279C64.7779 196.704 59.669 200.055 71.4318 202.417C83.1946 204.78 104.28 203.171 108.459 194.084L112.644 184.997Z" fill="#AEC3FF"/>
<path opacity="0.8" d="M41.9331 141.798C41.9331 141.798 105.305 162.059 112.644 184.997C112.644 184.997 112.39 195.275 118.768 207.034L118.789 211.569C118.789 211.569 112.088 196.182 108.463 194.084C108.468 194.084 122.537 174.069 41.9331 141.798Z" fill="#AEC3FF"/>
<path opacity="0.8" d="M118.773 207.046C118.773 207.046 128.599 221.866 123.118 239.986L120.605 239.322C120.605 239.322 122.961 219.38 117.8 209.381C112.639 199.381 118.773 207.046 118.773 207.046Z" fill="#AEC3FF"/>
</g>
<path d="M155.691 209.882C155.691 209.882 214.484 201.3 237.306 241.898C237.306 241.898 241.618 249.848 233.537 256.263C225.456 262.678 218.853 246.103 211.123 237.288C203.393 228.472 178.334 210.739 155.691 209.882Z" fill="#D2E0FF"/>
<path d="M165.372 204.92C165.372 204.92 208.162 182.804 236.312 207.876C236.312 207.876 241.705 212.837 237.202 219.876C232.698 226.915 223.282 215.966 215.045 211.264C206.808 206.562 182.943 199.592 165.372 204.92Z" fill="#D2E0FF"/>
<path d="M542.646 260.001C539.367 261.272 517.608 263.694 518.522 266.454C519.436 269.214 534.666 271.914 542.531 268.344C542.531 268.344 539.6 279.331 533.912 286.382L504.557 286.521C503.186 286.091 501.752 285.9 500.317 285.956C498.678 286.026 497.048 286.229 495.442 286.563L481.189 286.632L465.455 286.705C460.342 282.233 455.817 275.262 460.038 265.969C460.038 265.969 466.711 255.082 474.86 251.481C474.86 251.481 473.322 276.099 477.906 276.103C482.489 276.108 477.647 248.549 477.647 248.549C477.647 248.549 498.61 235.019 507.457 234.781C507.457 234.781 496.539 259.989 500.982 258.862C505.424 257.735 518.002 232.03 518.002 232.03C518.002 232.03 540.328 224.942 545.675 238.067C551.022 251.193 545.943 258.732 542.646 260.001Z" fill="#D2E0FF"/>
<path d="M535.733 243.629C500.544 263.278 486.437 277.382 481.187 286.632L476.995 286.651C488.237 266.059 534.546 244.187 535.733 243.629Z" fill="#D2E0FF"/>
<path d="M177.304 102.094C177.304 102.094 184.352 88.8407 201.357 90.23C201.357 90.23 225.936 68.0813 252.34 87.0568C252.34 87.0568 280.294 82.1942 301.052 90.9271C314.892 96.749 319.485 102.902 319.485 102.902L177.304 102.094Z" fill="#F8FCFF"/>
<path d="M251.351 62.1036C251.351 62.1036 256.768 51.92 269.854 52.9879C269.854 52.9879 288.764 35.9759 309.076 50.5472C309.076 50.5472 330.581 46.8116 346.551 53.5219C357.197 57.9947 360.73 62.7226 360.73 62.7226L251.351 62.1036Z" fill="#F8FCFF"/>
<path d="M228.657 286.767L175.253 194.961L173.253 191.518L148.333 207.821L156.294 221.625L194.009 286.93L194.409 287.596L229.057 287.431L228.657 286.767ZM187.477 129.623L133.407 213.242L121.159 232.191L125.634 264.876L133.598 253.648L156.318 221.629L175.276 194.961L221.75 129.455L187.477 129.623ZM133.574 253.648L133.407 213.244L133.007 129.892L103.329 130.027L104.061 287.336V288.005L133.739 287.873V287.204L133.574 253.648Z" fill="#6980E2"/>
<path d="M430.059 235.733C428.426 242.987 425.395 248.601 420.932 252.509C416.468 256.417 411.004 258.416 404.505 258.456C396.111 258.489 389.636 255.983 385.083 250.937C380.485 245.897 378.175 238.745 378.153 229.481L377.953 186.1C377.887 176.843 380.153 169.624 384.682 164.511C389.212 159.398 395.644 156.792 404.039 156.757C408.278 156.724 412.137 157.702 415.566 159.632C418.995 161.563 421.926 164.377 424.33 168.02C426.735 171.664 428.57 176.141 429.793 181.422L460.578 181.254C458.579 169.755 455.013 159.941 449.882 151.811C444.75 143.682 438.287 137.499 430.492 133.264C422.731 129.051 413.835 126.945 403.876 126.981C391.814 127.047 381.552 129.419 373.091 134.098C364.629 138.746 358.191 145.486 353.777 154.318C349.302 163.141 347.149 173.802 347.182 186.268L347.38 229.616C347.447 242.148 349.735 252.787 354.243 261.532C358.775 270.253 365.271 276.904 373.793 281.483C377.425 283.421 380.727 285.5 385.026 286.58C387.89 287.348 391.583 287.364 394.782 287.7L413.439 287.598C419.62 286.788 425.609 284.888 431.13 281.984C438.858 277.84 445.223 271.857 450.287 264.006C455.351 256.154 458.849 246.691 460.815 235.598L430.059 235.733Z" fill="#6980E2"/>
<path d="M351.659 128.852L320.568 129.02L290.752 197.165L260.341 129.289L229.25 129.422L276.059 226.242L276.325 286.533V287.201L306.003 287.067V286.398L305.736 226.107L351.659 128.852Z" fill="#6980E2"/>
<path d="M116.045 56.0856C116.045 56.0856 110.592 55.1854 107.151 57.8199C103.71 60.4544 103.147 59.6109 101.209 61.2365C99.2702 62.8621 101.27 64.7807 100.201 65.8628C99.1312 66.945 99.0982 69.0242 100.695 69.5559C102.292 70.0875 101.232 73.0197 104.699 73.3883C108.166 73.7569 106.614 75.3683 109.881 75.5975C113.148 75.8267 115.871 75.9259 117.602 76.6442C119.333 77.3625 120.9 76.6064 121.371 75.2856C121.842 73.9648 123.255 75.6589 123.641 73.8514C124.028 72.0439 122.593 71.3421 123.406 69.8748C124.218 68.4076 126.15 58.0018 116.045 56.0856Z" fill="#233862"/>
<path d="M125.957 160.958C125.785 161.152 125.672 161.391 125.633 161.648C125.593 161.904 125.628 162.167 125.733 162.404C126.094 163.363 127.252 164.424 128.597 165.475C128.769 165.61 128.922 165.735 129.068 165.849L129.17 165.939L129.25 166.009C130.505 167.144 130.041 167.413 132.312 169.719C134.889 172.346 136.641 172.372 137.138 172.124C137.557 171.914 136.683 170.515 135.725 168.942L135.583 168.705C135.454 168.497 135.327 168.285 135.197 168.075C134.062 166.184 134.337 165.282 134.568 162.442C134.757 160.136 137.995 149.52 137.995 149.52L133.105 148.735C133.105 148.735 131.735 157.173 130.131 158.489C129.273 159.198 128.305 159.209 127.478 159.732L127.307 159.843C126.808 160.151 126.354 160.526 125.957 160.958Z" fill="#FFB27D"/>
<path d="M125.957 160.958C125.785 161.152 125.672 161.391 125.633 161.648C125.593 161.904 125.628 162.167 125.733 162.404C126.171 163.361 127.302 164.417 128.602 165.476C128.772 165.613 128.922 165.74 129.057 165.858L129.158 165.948L129.238 166.019C130.493 167.153 130.029 167.422 132.3 169.729C134.877 172.356 136.629 172.382 137.126 172.134C137.545 171.924 136.672 170.525 135.713 168.951C133.922 168.273 132.343 167.132 131.134 165.643C129.636 163.77 128.604 161.371 127.582 159.904L127.295 159.852C126.801 160.158 126.351 160.53 125.957 160.958Z" fill="#233862"/>
<path d="M165.259 157.44C165.579 158.945 167.722 158.668 170.113 158.052C172.504 157.435 171.943 158.141 175.352 157.723C178.76 157.305 179.78 156.015 179.879 155.504C179.966 155.053 178.277 154.911 176.466 154.725L175.78 154.651C173.736 154.415 172.224 153.113 170.363 152.052C168.594 151.046 165.923 146.885 165.923 146.885L161.245 147.313C161.245 147.313 163.747 151.027 164.715 152.643C165.285 153.588 165.27 154.859 165.212 155.838C165.156 156.371 165.172 156.91 165.259 157.44Z" fill="#FFB27D"/>
<path d="M170.114 158.051C172.507 157.437 171.944 158.141 175.352 157.723C178.76 157.305 179.78 156.015 179.879 155.504C179.966 155.053 178.277 154.911 176.466 154.725L176.45 154.76C174.999 155.718 173.316 156.264 171.581 156.341C169.266 156.423 166.804 155.788 165.205 155.833C165.151 156.368 165.169 156.909 165.259 157.439C165.579 158.945 167.723 158.668 170.114 158.051Z" fill="#233862"/>
<path d="M146.972 127.624L142.732 139.487L137.199 154.978C136.18 155.068 135.154 154.988 134.161 154.741C132.79 154.361 131.209 153.343 131.209 153.343C131.209 153.343 132.604 136.763 135.449 127.222C136.179 124.774 137.006 122.789 137.929 121.669C142.466 116.169 146.972 127.624 146.972 127.624Z" fill="#ED7D2B"/>
<path d="M142.304 108.917C139.804 108.14 133.391 108.346 126.358 109.709C124.412 110.085 122.353 109.879 121.315 108.194L103.557 107.013C103.557 107.013 98.0575 119.373 101.157 128.365C101.758 130.112 104.601 130.159 104.601 130.161C104.601 130.164 115.002 130.225 118.432 130.185C127.253 130.083 137.039 123.883 138.304 123.612C140.384 123.17 141.267 127.345 143.403 131.714C145.54 136.082 163.234 150.94 163.234 150.94C163.234 150.94 165.926 150.94 167.035 150.502C168.213 150.03 168.656 149.449 168.656 149.449C168.656 149.449 148.793 110.933 142.304 108.917Z" fill="#F99746"/>
<path d="M115.596 80.7766C115.624 80.7955 112.501 81.906 110.393 80.9987C108.409 80.1481 106.876 76.9087 106.907 76.9063C107.804 76.8543 108.791 76.0557 109.479 70.8835L109.86 71.0159L116.314 73.2605C116.314 73.2605 115.871 75.3327 115.593 77.3056C115.36 78.9619 115.242 80.5474 115.596 80.7766Z" fill="#FFB27D"/>
<path d="M116.321 73.2605C116.321 73.2605 116.052 74.7136 115.68 76.7905C111.982 76.1667 110.411 73.0101 109.867 71.0159L116.321 73.2605Z" fill="#ED975D"/>
<path d="M117.294 75.302C117.294 75.302 108.489 74.2222 109.245 68.7311C110.001 63.24 109.372 59.4052 115.025 59.8612C120.678 60.3172 121.481 62.5666 121.672 64.4592C121.863 66.3518 119.604 75.4391 117.294 75.302Z" fill="#FFB27D"/>
<path d="M121.317 61.4586C121.317 61.4586 115.746 66.3897 111.924 66.8269C108.101 67.264 106.638 66.0495 106.638 66.0495C108.15 64.6573 109.36 62.9685 110.195 61.0877C110.385 60.6458 110.689 60.2627 111.075 59.9782C111.462 59.6936 111.918 59.5179 112.395 59.4692C115.125 59.2093 120.304 59.0391 121.317 61.4586Z" fill="#233862"/>
<path d="M117.795 61.0639C117.795 61.0639 119.699 62.8691 120.309 64.2159C120.895 65.5154 121.102 68.6414 120.662 69.8866C120.662 69.8866 123.528 64.1308 121.84 61.3806C120.04 58.4436 117.795 61.0639 117.795 61.0639Z" fill="#233862"/>
<path d="M123.152 93.6823C123.095 111.536 123.244 107.802 121.317 109.513C120.846 109.926 119.536 110.184 117.803 110.321C112.35 110.746 102.747 109.957 102.37 108.951C101.072 105.466 101.949 104.367 100.834 99.0269C100.719 98.4575 100.575 97.8455 100.411 97.1721C99.4919 93.5027 98.6251 92.2599 101.661 86.3033C104.417 80.9138 107.293 76.5332 107.55 76.6868C115.033 81.0249 115.589 77.2987 115.589 77.2987C115.589 77.2987 123.178 84.9731 123.152 93.6823Z" fill="#8C9DF4"/>
<path d="M142.732 139.487L137.199 154.978C136.18 155.068 135.154 154.988 134.161 154.741C132.79 154.361 131.209 153.343 131.209 153.343C131.209 153.343 132.604 136.763 135.449 127.222L142.732 139.487Z" fill="#F99746"/>
<path d="M115.593 77.3057C115.593 77.3057 123.255 78.5107 124.193 81.8186L130.64 104.466C130.64 104.466 126.76 105.213 124.944 103.431C123.128 101.649 118.5 86.7804 118.5 86.7804L115.593 77.3057Z" fill="#8C9DF4"/>
<path d="M117.8 110.328C112.348 110.753 102.745 109.964 102.368 108.958C101.07 105.472 101.946 104.374 100.832 99.0338L103.378 91.5674C103.378 91.5674 103.039 99.8513 105.498 101.999C107.957 104.147 115.513 106.087 116.717 107.892C117.237 108.623 117.606 109.451 117.8 110.328Z" fill="#6980E2"/>
<path d="M111.507 106.918C111.507 106.918 116.877 105.652 117.751 106.122C118.625 106.592 120.768 108.31 121.049 108.915C121.329 109.52 119.11 108.478 118.392 108.294C117.921 108.173 116.712 108.613 116.112 108.823C113.58 109.702 112.018 109.295 112.018 109.295L111.507 106.918Z" fill="#FFB27D"/>
<path d="M107.55 76.6914C107.55 76.6914 100.326 77.223 97.8643 80.753C94.3995 85.7149 87.6584 106.807 91.6955 109.562C96.2414 112.665 112.23 110.146 112.23 110.146C112.23 110.146 112.734 107.642 111.978 106.441C111.222 105.241 99.1503 103.431 98.5874 102.878C98.0244 102.325 105.418 91.9172 105.392 90.2443C105.366 88.5715 107.55 76.6914 107.55 76.6914Z" fill="#8C9DF4"/>
<path d="M118.029 107.623C118.029 107.623 119.174 109.069 119.546 109.239C119.733 109.338 119.945 109.381 120.156 109.362L119.383 107.998L118.029 107.623Z" fill="#FFB27D"/>
<path d="M117.751 106.122L121.049 107.682C120.985 107.762 120.902 107.824 120.808 107.862C120.713 107.9 120.61 107.913 120.509 107.899C120.023 107.819 119.545 107.693 119.082 107.523L117.751 106.122Z" fill="#FFB27D"/>
<path d="M118.855 110.437L144.795 110.132L152.373 90.5752L126.47 90.8776L118.855 110.437Z" fill="#233862"/>
<path d="M145.09 109.371L110.835 109.773L110.845 110.531L144.795 110.132L145.09 109.371Z" fill="#233862"/>
<path d="M138.134 100.485C138.322 99.7971 137.922 99.2465 137.239 99.256C136.88 99.2799 136.537 99.4131 136.255 99.6377C135.974 99.8623 135.767 100.168 135.663 100.513C135.477 101.198 135.878 101.749 136.558 101.742C136.917 101.717 137.26 101.584 137.541 101.359C137.823 101.135 138.029 100.83 138.134 100.485Z" fill="#EBF3FA"/>
<path d="M374.985 286.228C374.985 286.228 374.985 283.608 375.383 282.733C375.781 281.859 377.288 278.306 377.288 278.306L383.205 278.28C383.205 278.28 384.319 281.509 384.395 282.568C384.47 283.627 384.411 286.183 384.411 286.183L374.985 286.228Z" fill="#1B3051"/>
<path d="M408.86 286.093C408.86 286.093 408.849 283.473 408.472 282.604C408.095 281.734 406.715 278.195 406.715 278.195L401.38 278.218C401.38 278.218 400.402 281.46 400.346 282.518C400.289 283.577 400.362 286.134 400.362 286.134L408.86 286.093Z" fill="#1B3051"/>
<path d="M386.807 139.13C386.807 139.13 386.644 144.967 385.914 147.585L380.04 151.734L402.234 154.961L396.911 147.653C396.911 147.653 395.277 139.839 396.101 136.94C396.925 134.041 386.807 139.13 386.807 139.13Z" fill="#FFB27D"/>
<path d="M386.778 139.943C386.778 139.943 388.552 144.17 391.854 144.061C395.156 143.953 395.891 140.203 395.891 140.203L386.778 139.943Z" fill="#ED985F"/>
<path d="M384.79 136.517C384.79 136.517 383.697 131.18 382.946 129.566C382.195 127.952 381.537 120.734 389.781 120.332C389.781 120.332 392.947 120.691 394.678 119.623C394.678 119.623 394.678 120.679 394.252 121.055C395.182 120.887 396.14 120.962 397.033 121.274C397.925 121.586 398.722 122.125 399.346 122.837C401.591 125.315 397.91 134.046 398.105 136.099L384.79 136.517Z" fill="#2C3A64"/>
<path d="M391.468 142.419C389.075 142.389 384.654 139.213 384.637 135.253L384.6 129.074C384.6 127.628 385.594 126.442 386.821 126.435L395.953 126.393C397.182 126.393 398.193 127.574 398.2 129.011L398.226 134.84C398.261 138.998 394.214 142.457 391.468 142.419Z" fill="#FFB27D"/>
<path d="M384.623 132.382C384.623 132.382 384.623 128.67 387.546 128.087C390.469 127.503 397.045 129.852 397.964 127.142C398.883 124.432 385.271 124.543 384.593 126.272C383.914 128.002 384.623 132.382 384.623 132.382Z" fill="#2C3A64"/>
<path d="M375.235 195.509C375.235 195.509 376.3 224.098 374.98 240.421C373.661 256.743 375.171 279.44 375.171 279.44C375.171 279.44 379.647 281.887 384.473 279.397C384.473 279.397 389.636 247.854 389.565 240.352C389.494 232.363 395.14 196.664 395.14 196.664L375.235 195.509Z" fill="#2B478B"/>
<path d="M408.636 279.284C408.636 279.284 404.185 281.774 399.335 279.326C399.335 279.326 393.882 247.833 393.88 240.34C393.88 236.969 392.815 228.659 391.583 220.188C389.897 208.61 387.902 196.707 387.902 196.707L408.568 195.315C408.568 195.315 406.995 223.966 408.467 240.274C409.939 256.582 408.636 279.284 408.636 279.284Z" fill="#2B478B"/>
<path d="M393.88 240.331C393.88 236.959 392.815 228.649 391.583 220.179C392.797 215.111 395.79 210.222 395.79 210.222C399.655 220.94 393.88 240.331 393.88 240.331Z" fill="#233862"/>
<path d="M426.525 174.567C419.243 156.955 406.3 147.92 396.918 147.653C394.871 150.406 393.397 151.051 391.52 151.804C388.488 151.398 385.921 147.67 385.921 147.584C382.623 147.939 367.747 149.685 357.741 174.312C356.961 176.233 356.829 180.791 360.443 185.264C363.012 188.447 367.038 192.588 373.268 197.456C373.725 196.385 374.094 195.279 374.372 194.148C374.372 194.148 370.649 186.96 368.404 182.098C367.313 179.735 366.048 177.015 374.123 171.437C374.358 177.625 375.378 184.954 374.617 191.582C373.602 200.423 375.39 200.258 375.39 200.258C375.39 200.258 377.795 200.731 381.151 201.151C384.587 201.62 388.048 201.868 391.515 201.895C399.554 201.858 408.358 200.104 408.358 200.104C409.322 200.104 409.691 197.919 409.753 194.67C410.006 195.557 410.321 196.426 410.695 197.269C416.88 192.347 420.865 188.165 423.414 184.961C426.961 180.465 427.31 176.481 426.525 174.567ZM415.406 181.892C413.618 186.145 410.544 192.026 409.753 193.602C409.753 188.309 409.091 180.843 408.792 175.305C408.693 173.483 408.589 171.789 408.483 170.208C413.415 174.154 417.94 175.858 415.399 181.885L415.406 181.892Z" fill="#F9DDBF"/>
<path d="M386.216 146.16C386.216 146.16 384.706 146.658 384.433 147.778C384.433 147.778 388.927 151.755 391.513 151.795L386.216 146.16Z" fill="#F99746"/>
<path d="M391.513 151.804L396.584 145.897C396.584 145.897 398.169 146.587 398.16 147.731C398.16 147.74 393.706 151.951 391.513 151.804Z" fill="#F99746"/>
<path d="M390.592 151.377C390.592 151.377 386.854 185.094 388.237 189.195C388.856 191.006 389.66 192.748 390.634 194.393C390.757 194.603 390.932 194.776 391.142 194.896C391.352 195.015 391.59 195.078 391.832 195.076C392.074 195.074 392.311 195.009 392.519 194.886C392.728 194.763 392.901 194.588 393.02 194.377C394.047 192.572 395.376 189.961 395.376 188.64C395.376 186.499 392.25 151.329 392.25 151.329L390.592 151.377Z" fill="#F99746"/>
<path d="M389.565 149.73C389.565 149.73 391.921 149.493 393.348 149.621C393.414 149.627 393.477 149.65 393.531 149.687C393.586 149.724 393.63 149.774 393.661 149.833C393.691 149.892 393.707 149.957 393.705 150.023C393.704 150.089 393.687 150.154 393.654 150.212C393.256 150.937 392.443 152.196 391.588 152.201C390.385 152.206 388.498 149.817 389.565 149.73Z" fill="#F99746"/>
<path d="M389.546 138.45C389.794 138.755 390.107 139.001 390.462 139.168C390.817 139.335 391.205 139.42 391.597 139.416C391.97 139.409 392.336 139.317 392.667 139.146C392.998 138.975 393.286 138.731 393.508 138.431C393.508 138.431 391.305 138.081 389.546 138.45Z" fill="white"/>
<path d="M373.631 194.524C373.631 194.524 376.499 191.903 378.341 193.132C380.287 194.431 381.168 196.357 380.073 196.496C378.977 196.636 375.689 196.26 375.381 196.756C375.072 197.253 373.687 198.212 373.261 197.465C372.834 196.719 373.631 194.524 373.631 194.524Z" fill="#FFB27D"/>
<path d="M374.365 194.16C374.087 195.29 373.718 196.397 373.261 197.467C367.028 192.603 363.005 188.458 360.436 185.276C362.362 185.124 365.17 184.42 368.397 182.116C370.641 186.963 374.365 194.16 374.365 194.16Z" fill="#FFB27D"/>
<path d="M410.273 194.349C410.273 194.349 407.805 192.078 405.657 193.614C404.458 194.471 403.622 196.728 404.677 196.537C405.732 196.345 408.233 196.099 408.547 196.596C408.86 197.092 409.998 197.822 410.667 197.281C411.5 196.619 410.273 194.349 410.273 194.349Z" fill="#FFB27D"/>
<path d="M409.541 193.997C409.83 195.121 410.211 196.219 410.679 197.281C416.864 192.359 420.847 188.177 423.398 184.973C421.471 184.836 418.656 184.16 415.408 181.885C413.199 186.774 409.541 193.997 409.541 193.997Z" fill="#FFB27D"/>
<path d="M244.725 137.493C241.696 136.498 239.609 137.781 239.609 137.781C230.894 138.181 230.049 148.579 230.727 151.996C231.405 155.412 232.399 159.042 229.314 164.136C220.41 178.847 243.571 175.619 243.571 175.619C242.08 165.282 255.011 167.014 254.641 168.148C271.051 169.35 251.612 139.752 244.725 137.493Z" fill="#163560"/>
<path d="M235.902 182.192C235.243 183.443 234.47 184.63 233.591 185.736C231.794 188.016 222.285 182.665 223.093 182.254C223.901 181.842 228.614 168.034 229.742 166.298C230.871 164.561 234.736 163.644 234.736 163.644L235.902 182.192Z" fill="#F9DDBF"/>
<path d="M268.359 275C268.359 275 270.99 277.386 270.479 279.092C269.968 280.798 267.617 281.946 267.306 284.03C266.995 286.114 265.724 287.256 264.574 287.26L259.091 287.286C259.091 287.286 258.238 285.826 260.268 285.375C262.299 284.924 263.071 282.471 262.932 280.2C262.793 277.93 263.1 274.898 263.1 274.898L267.438 273.868L268.359 275Z" fill="#2B478B"/>
<path d="M246.193 276.122C246.193 276.122 247.182 286.282 246.035 286.849L231.318 286.887C231.318 286.887 231.318 285.184 233.674 284.794C236.029 284.404 240.184 282.998 240.872 279.9C241.56 276.803 246.193 276.122 246.193 276.122Z" fill="#2B478B"/>
<path d="M256.344 203.19C253.282 196.39 251.422 194.448 251.766 192.321C252.022 190.745 250.823 162.978 250.823 162.978C250.463 162.867 249.742 162.77 249.347 162.685C248.734 162.556 248.165 162.274 247.691 161.865C247.217 161.455 246.855 160.932 246.638 160.343C246.115 158.897 245.696 156.761 245.696 154.082L245.307 154.16L238.79 155.486C238.79 155.486 238.95 157.546 238.962 159.486V159.533C238.971 160.353 238.713 161.153 238.228 161.812C237.742 162.472 237.055 162.954 236.272 163.186L234.734 163.635C234.734 163.635 232.378 170.506 231.945 177.556C231.511 184.607 236.347 187.645 232.02 201.749C227.606 216.16 258.036 206.947 256.344 203.19Z" fill="#FFB27D"/>
<path d="M238.801 155.493C238.801 155.493 238.961 157.553 238.973 159.493C242.624 159.372 244.537 156.022 245.319 154.167L238.801 155.493Z" fill="#E8945B"/>
<path d="M238.415 158.231C238.415 158.231 246.96 156.969 246.096 151.644C245.231 146.318 245.75 142.566 240.257 143.138C234.764 143.709 234.036 145.923 233.897 147.771C233.758 149.619 236.168 158.422 238.415 158.231Z" fill="#FFB27D"/>
<path d="M236.354 143.655C236.354 143.655 239.71 149.52 243.441 149.853C247.172 150.186 248.569 148.969 248.569 148.969C246.548 147.703 245.028 145.772 244.27 143.506C244.27 143.506 237.624 140.392 236.354 143.655Z" fill="#163560"/>
<path d="M237.016 144.066C237.016 144.066 235.39 145.011 234.896 146.384C234.277 148.004 234.154 149.772 234.543 151.462C234.543 151.462 232.09 147.504 233.673 144.778C235.341 141.885 237.016 144.066 237.016 144.066Z" fill="#163560"/>
<path d="M257.048 175.241C257.19 177.513 257.201 179.791 257.081 182.065C256.947 184.534 254.474 187.849 254.125 188.68C253.249 190.736 252.241 191.074 252.241 191.074L244.522 193.009L241.809 193.689L233.228 191.161C233.228 191.161 229.276 180.252 230.814 174.095C231.702 170.472 233.016 166.967 234.726 163.654C234.726 163.654 241.75 170.487 250.821 162.997L257.048 175.241Z" fill="#F9DDBF"/>
<path d="M257.816 182.147C257.682 184.616 254.474 187.849 254.125 188.669C253.249 190.724 252.241 191.062 252.241 191.062L244.522 192.997L242.447 190.091C242.447 190.091 254.931 186.547 252.521 175.489L257.816 182.147Z" fill="#F2CCAA"/>
<path d="M233.791 192.806C233.791 192.806 229.615 206.075 229.356 210.59C229.097 215.106 237.765 274.622 238.111 276.711C238.439 278.669 240.869 279.905 240.869 279.905C241.714 280.317 242.683 280.388 243.578 280.104C245.783 279.468 246.478 278.714 246.478 278.714C246.478 278.714 249.584 236.215 247.472 221.048C246.183 211.669 245.449 202.222 245.272 192.756L233.791 192.806Z" fill="#ED7D2B"/>
<path d="M251.756 192.329C251.756 192.329 258.271 201.009 258.9 206.895C259.529 212.781 259.969 233.467 261.281 239.202C262.593 244.936 267.367 255.963 267.45 273.868C267.45 273.868 266.964 274.899 265.452 275.451C264.874 275.65 264.285 275.816 263.688 275.95C263.081 276.092 262.444 276.025 261.88 275.759C261.316 275.493 260.858 275.044 260.579 274.485C257.354 268.051 247.087 247.296 246.546 242.982C246.164 239.927 242.857 219.718 235.798 207.885C234.102 205.05 236.764 193.709 236.764 193.709L251.756 192.329Z" fill="#F99746"/>
<path d="M239.562 154.796C239.562 154.796 239.517 155.448 237.946 155.606C237.946 155.606 236.625 155.741 236.552 155.044C236.552 155.044 237.739 154.356 239.562 154.796Z" fill="white"/>
<path d="M233.104 190.764C233.104 190.764 234.814 192.109 238.198 192.161C242.24 192.222 252.25 191.062 252.25 191.062C252.529 191.888 252.677 192.752 252.689 193.623C252.689 193.623 240.471 196.775 233.374 194.164C233.384 194.164 232.442 192.444 233.104 190.764Z" fill="#ED7D2B"/>
<path d="M237.244 195.66C236.227 195.66 235.395 194.729 235.391 193.574C235.386 192.418 236.208 191.475 237.226 191.471C238.243 191.466 239.072 192.402 239.079 193.557C239.086 194.712 238.262 195.655 237.244 195.66ZM237.228 192.085C236.547 192.085 235.998 192.754 236.001 193.571C236.003 194.389 236.561 195.048 237.242 195.046C237.923 195.043 238.471 194.377 238.467 193.559C238.462 192.742 237.906 192.08 237.228 192.085Z" fill="white"/>
<path d="M246.098 199.426L227.712 199.684L218.568 178.397L236.952 178.14L246.098 199.426Z" fill="#163560"/>
<path d="M243.648 189.798L242.294 188.144C242.294 188.144 241.378 187.334 240.716 187.199C240.054 187.064 238.653 186.254 238.518 186.49C238.384 186.726 239.599 188.338 239.599 188.338H239.661C238.278 189.392 234.769 188.484 234.34 188.912C233.817 189.432 235.068 190.547 235.739 191.171C236.41 191.795 238.33 192.837 239.816 192.364C240.904 192.019 242.617 191.655 242.617 191.655L243.648 189.798Z" fill="#FFB27D"/>
<path d="M219.958 182.145C219.958 182.145 221.108 180.822 221.842 181.45C222.577 182.079 221.666 185.193 220.964 184.879C220.262 184.564 219.567 182.532 219.958 182.145Z" fill="#FFB27D"/>
<path d="M250.83 162.985C250.83 162.985 256.954 163.387 259.338 169.107C261.722 174.827 266.131 187.026 266.138 188.645C266.145 190.263 261.361 196.241 242.513 191.717C242.513 191.717 241.863 189.907 243.119 188.985C243.119 188.985 256.222 184.697 256.196 183.856C256.146 182.265 254.411 180.9 247.045 173.577C245.043 171.605 250.83 162.985 250.83 162.985Z" fill="#F9DDBF"/>
<path d="M145.391 287.816L171.503 287.695C172.897 286.497 170.516 283.804 168.043 283.634C166.966 283.558 165.61 283.79 164.06 284.125C163.678 279.338 161.525 257.825 153.795 258.728C145.104 259.734 153.84 268.205 156.322 273.233C158.159 276.956 160.105 282.299 160.995 284.81C160.289 284.966 159.559 285.12 158.814 285.262C157.637 281.718 153.3 269.797 147.85 270.518C141.45 271.361 144.046 276.137 148.599 278.958C151.937 281.032 156.04 283.983 157.99 285.411C156.305 285.712 154.595 285.857 152.883 285.845C148.411 285.767 146.234 287.1 145.391 287.816Z" fill="#D2E0FF"/>
<path d="M341.607 286.908L319.727 287.01C318.55 286.018 320.523 283.742 322.594 283.579C323.496 283.508 324.634 283.693 325.936 283.962C326.219 279.945 327.856 261.905 334.34 262.6C341.642 263.377 334.376 270.541 332.336 274.773C330.824 277.906 329.236 282.4 328.508 284.52C329.102 284.645 329.714 284.768 330.341 284.881C331.283 281.902 334.84 271.886 339.414 272.441C344.782 273.098 342.643 277.119 338.851 279.529C336.069 281.292 332.654 283.797 331.033 285.009C332.447 285.248 333.88 285.356 335.313 285.332C339.06 285.212 340.895 286.311 341.607 286.908Z" fill="#D2E0FF"/>
<path d="M113.631 282.792C113.276 283.021 112.915 283.242 112.547 283.456C112.423 283.53 112.298 283.603 112.173 283.671C111.89 283.829 111.605 283.986 111.318 284.144C104.812 287.533 97.2757 288.35 90.199 286.431C83.1223 284.513 77.0213 280 73.1032 273.785C69.1852 267.57 67.7355 260.106 69.0411 252.87C70.3468 245.634 74.3126 239.153 80.1537 234.71C81.0942 233.998 82.0757 233.342 83.0933 232.746C83.4631 232.531 83.8376 232.323 84.2121 232.125C84.5866 231.926 84.9446 231.747 85.3144 231.572C88.0683 230.265 91.0086 229.396 94.0293 228.997C100.62 228.137 107.306 229.554 112.986 233.014C118.667 236.474 123.005 241.771 125.285 248.033C127.566 254.295 127.653 261.149 125.533 267.468C123.413 273.786 119.212 279.193 113.621 282.797L113.631 282.792Z" fill="#F78248"/>
<path d="M75.608 154.885C75.6952 154.524 67.8353 158.493 67.4348 158.94C63.7557 163.07 64.8439 168.434 66.9496 168.476C68.3063 168.502 68.0543 170.766 68.0543 170.766L83.1288 164.282C83.1288 164.282 81.268 153.647 75.608 154.885Z" fill="#2C3A64"/>
<path d="M77.4713 155.708C77.4713 155.708 73.7027 148.938 65.6944 152.808C61.4547 154.855 61.165 163.869 59.4926 165.416C55.7476 168.883 54.2001 170.142 54.8879 175.992C55.5756 181.842 73.7687 189.077 72.7323 193.919C72.7323 193.919 80.1518 184.685 74.1455 178.998C71.889 176.871 69.3806 171.673 69.6161 170.759C69.8516 169.844 77.4713 155.708 77.4713 155.708Z" fill="#2C3A64"/>
<path d="M71.6273 183.518C70.591 178.622 64.2503 177.138 61.2636 181.155C60.698 181.907 60.3427 182.797 60.2343 183.733C59.5748 189.297 68.5441 211.909 69.8231 213.953C72.1526 217.677 85.8185 230.414 85.8185 230.414L88.32 228.876C88.32 228.876 78.5922 212.528 77.0895 211.002C75.363 209.23 73.5964 192.811 71.6273 183.518Z" fill="#ED985F"/>
<path d="M84.8672 228.893C84.8672 228.893 88.518 226.464 89.903 226.613C91.2879 226.761 95.3062 227.9 95.358 228.503C95.4098 229.105 90.8828 229.483 90.5907 229.807C90.2987 230.131 87.232 232.201 86.1155 231.563C84.9991 230.925 84.8672 228.893 84.8672 228.893Z" fill="#ED985F"/>
<path d="M59.5869 283.48L56.3152 283.007C56.3152 283.007 45.2779 274.293 43.5655 257.945C43.3866 256.266 43.3527 254.574 43.4642 252.889C43.4878 252.695 43.4464 252.499 43.3464 252.331C42.9908 251.793 42.1099 250.441 40.9157 248.518C39.7215 246.595 37.7194 243.043 35.4983 239.022C31.4941 231.785 26.8446 223.125 25.2476 220.368C20.1624 211.58 22.5672 205.645 22.5672 205.645C22.5672 205.645 36.6336 204.183 40.4682 200.782L41.8673 202.923C41.8673 202.923 44.9787 216.45 44.8351 216.514C44.9921 216.972 45.1491 217.44 45.3061 217.917C47.7463 225.358 50.5563 234.655 52.1014 242.233C52.9682 246.486 53.4346 250.212 53.2061 252.747C53.126 253.617 53.2344 254.952 53.4723 256.599C54.8784 266.312 59.5869 283.48 59.5869 283.48Z" fill="#2B478B"/>
<path d="M66.4644 287.598L52.8219 287.662C52.8219 287.662 52.4851 285.578 53.1917 283.993C53.8677 282.469 54.8405 282.417 53.2977 280.044C54.1669 280.935 56.9557 281.292 58.9271 281.018C59.1627 281.41 60.5005 284.04 61.3084 284.619C62.2035 285.254 66.1794 285.018 66.4644 287.598Z" fill="#6980E2"/>
<path d="M45.3061 217.915C44.1449 224.514 41.3797 235.501 35.4983 239.02C31.4941 231.782 26.8446 223.123 25.2476 220.365C20.1624 211.578 22.5672 205.643 22.5672 205.643C22.5672 205.643 36.6336 204.18 40.4682 200.78L41.8673 202.921C41.8673 202.921 44.9787 216.448 44.835 216.512C44.9905 216.975 45.1475 217.443 45.3061 217.915Z" fill="#233862"/>
<path d="M70.1554 180.484C70.1554 180.484 72.0232 182.421 72.2375 186.627C72.2375 186.627 69.9505 193.763 62.7642 194.909C62.7618 194.918 68.3841 180.489 70.1554 180.484Z" fill="#ED7D2B"/>
<path d="M35.6844 206.602L35.7198 204.043C30.6368 204.709 18.1603 198.03 18.1603 198.03C18.1603 198.03 12.8584 201.602 12.1777 211.734C11.8455 216.682 9.69271 237.611 9.47366 243.868C9.39358 246.131 9.37003 247.748 9.36296 248.393C9.35052 248.588 9.2753 248.773 9.14862 248.922C8.11492 250.257 7.19989 251.68 6.41402 253.175C-1.27633 267.689 2.86915 287.343 2.86915 287.343L4.66867 286.871C4.66867 286.871 11.1342 266.447 15.381 257.605C16.1017 256.105 16.7565 254.937 17.3077 254.262C18.9094 252.289 20.6052 248.945 22.254 244.924C25.3843 237.321 28.4133 227.293 30.5709 219.529C30.7263 219.569 35.6844 206.602 35.6844 206.602Z" fill="#2B478B"/>
<path d="M65.355 189.38C57.0357 187.506 62.2929 175.765 62.764 175.968C63.9158 175.732 66.4361 173.688 68.6784 169.717L68.987 169.981L74.1123 174.447C74.1123 174.447 72.9346 176.198 71.9548 177.913C71.1845 179.255 70.5415 180.578 70.6381 181.03C71.0597 181.353 67.5761 189.881 65.355 189.38Z" fill="#FFB27D"/>
<path d="M74.1193 174.44C74.1193 174.44 72.9416 176.188 71.9641 177.906C68.782 175.957 68.7585 172.016 68.994 169.972L74.1193 174.44Z" fill="#ED985F"/>
<path d="M74.2727 176.696C74.2727 176.696 66.547 172.443 69.2698 167.645C71.9926 162.846 72.8265 159.087 77.8741 161.608C82.9217 164.129 82.8345 166.499 82.3116 168.318C81.7887 170.137 76.3525 177.682 74.2727 176.696Z" fill="#FFB27D"/>
<path d="M83.602 165.527C83.2393 163.401 82.1652 163.212 81.4162 163.358C78.5497 158.649 73.9096 160.523 73.9096 160.523C72.3773 162.419 70.236 163.723 67.8516 164.211C67.8516 164.211 68.7537 165.865 72.4422 166.893C73.5704 167.203 74.8471 167.007 76.0766 166.584C74.4355 167.485 72.6794 168.159 70.857 168.585C75.7138 169.005 80.3116 164.516 80.7897 164.044C81.0252 164.733 81.4162 166.17 81.1854 167.233C80.8721 168.67 79.6144 171.276 80.3916 171.609C80.3916 171.605 84.1461 168.703 83.602 165.527Z" fill="#2C3A64"/>
<path d="M13.725 287.854L0.0802289 287.917C0.0802289 287.917 -0.25659 285.831 0.450027 284.246C1.12602 282.724 2.19301 282.029 1.92685 280.193C2.79835 281.084 4.2163 282.084 6.18776 281.805C6.4233 282.197 7.7588 284.295 8.56905 284.876C9.4641 285.503 13.4376 285.254 13.725 287.854Z" fill="#6980E2"/>
<path d="M66.3866 198.663C64.6342 199.287 62.1704 199.634 59.6525 199.92C56.0653 200.329 52.3508 200.615 50.4265 201.402C49.7199 201.688 49.2488 202.04 49.1027 202.486C48.2737 205.029 44.5851 208.96 44.5851 208.96C20.824 207.984 18.1694 198.03 18.1694 198.03C34.0683 179.312 60.8444 174.532 60.8444 174.532C60.8444 174.532 65.7294 173.074 66.6857 176.595C67.7998 180.685 70.7582 180.387 70.7582 180.387C70.7582 180.387 71.5331 196.832 66.3866 198.663Z" fill="#F99746"/>
<path d="M59.6432 199.92C56.0559 200.329 52.3415 200.615 50.4171 201.402C49.5692 189.519 55.1279 180.552 55.1279 180.552C55.1279 180.552 58.8353 195.426 59.6432 199.92Z" fill="#ED7D2B"/>
<path d="M63.2354 178.22C63.2354 178.22 54.2473 179.165 53.5548 185.018C52.8623 190.871 62.3121 214.709 63.6594 216.864C66.1137 220.786 80.5146 234.209 80.5146 234.209L83.1502 232.588C83.1502 232.588 72.8996 215.363 71.3168 213.754C68.8318 211.221 66.288 180.231 63.2354 178.22Z" fill="#FFB27D"/>
<path d="M53.8299 188.536C53.8535 188.671 62.1398 191.211 67.4512 188.475C67.4512 188.475 68.5346 176.143 62.1798 176.843C55.825 177.542 52.0705 179.567 51.9244 182.62C51.7784 185.673 53.8299 188.536 53.8299 188.536Z" fill="#F99746"/>
<path d="M79.6899 232.494C79.6899 232.494 82.9027 229.507 84.2947 229.422C85.6868 229.337 89.8322 229.819 89.9783 230.393C90.1243 230.967 85.7386 232.085 85.4842 232.453C85.2298 232.822 82.5541 235.36 81.3505 234.908C80.1469 234.457 79.6899 232.494 79.6899 232.494Z" fill="#FFB27D"/>
<path d="M86.4547 271.786C85.8305 271.25 85.4048 270.518 85.2463 269.71L81.8452 252.258C81.6789 251.314 81.8889 250.341 82.43 249.55C82.971 248.76 83.8 248.214 84.7384 248.03C85.6768 247.846 86.6497 248.039 87.4477 248.567C88.2458 249.095 88.8052 249.917 89.0055 250.855L91.5093 263.703L115.819 252.268C116.256 252.032 116.736 251.889 117.23 251.846C117.724 251.803 118.221 251.862 118.692 252.019C119.162 252.175 119.596 252.426 119.967 252.756C120.338 253.086 120.637 253.489 120.848 253.939C121.058 254.39 121.175 254.878 121.191 255.375C121.207 255.872 121.121 256.367 120.94 256.83C120.759 257.293 120.486 257.714 120.137 258.067C119.788 258.421 119.371 258.699 118.912 258.886L90.3693 272.311C89.8672 272.547 89.3182 272.664 88.764 272.655C88.2098 272.646 87.6649 272.511 87.1707 272.259C86.9141 272.131 86.6737 271.972 86.4547 271.786Z" fill="white"/>
</svg>
