<svg width="530" height="339" viewBox="0 0 530 339" fill="none" xmlns="http://www.w3.org/2000/svg">
<g clip-path="url(#clip0_324_2118)">
<path d="M472.959 116.547C387.434 134.393 437.58 -62.9596 321.071 20.8057C274.737 54.1277 208.02 13.8137 144.13 35.8475C85.4529 56.0863 99.9076 122.488 105.584 144.213C117.052 188.099 59.9365 170.596 26.8275 189.452C-25.104 219.034 20.4518 338.273 69.5125 338.768C118.573 339.263 479.008 337.78 479.008 337.78C479.008 337.78 500.418 321.03 511.787 286.507C535.092 215.735 548.269 100.838 472.959 116.547Z" fill="#EBF2F9"/>
<path d="M473.199 292.269H451.042V337.93H473.199V292.269Z" fill="#DCEAF9"/>
<path d="M146.739 164.228V144.271H152.799V109.959H185.278V144.271H215.646V97.2385L249.156 84.5542V124.655H256.798V71.2515L290.308 82.358V162.569H332.689V209.947H348.524V221.883H384.896V201.33H405.78V145.481H431.576V248.576H457.373V338.284H431.576H409.464H405.78H384.896H373.092H354.185H348.524H332.689H317.813H290.308H281.884H265.126H256.798H249.156H231.616H219.675H215.646H185.278H153.341H152.799H146.739H120.859V164.228H146.739Z" fill="#D5E7F7"/>
<path d="M262.694 94.697H285.299V86.4187H262.694V94.697Z" fill="#C4D9ED"/>
<path d="M262.694 110.248H285.299V101.969H262.694V110.248Z" fill="#C4D9ED"/>
<path d="M262.694 124.241H285.299V115.962H262.694V124.241Z" fill="#C4D9ED"/>
<path d="M431.574 183.106H405.3V195.884H431.574V183.106Z" fill="#C4D9ED"/>
<path d="M431.576 222.329H405.553V235.107H431.576V222.329Z" fill="#C4D9ED"/>
<path d="M431.576 241.633H405.553V254.411H431.576V241.633Z" fill="#C4D9ED"/>
<path d="M405.977 274.605H432V261.827H405.977V274.605Z" fill="#C4D9ED"/>
<path d="M432 281.604H405.977V294.382H432V281.604Z" fill="#C4D9ED"/>
<path d="M405.977 314.576H432V301.798H405.977V314.576Z" fill="#C4D9ED"/>
<path d="M244.743 115.962H220.968V124.241H244.743V115.962Z" fill="#C4D9ED"/>
<path d="M244.743 102.097H220.968V110.375H244.743V102.097Z" fill="#C4D9ED"/>
<path d="M285.877 129.527H220.968V137.806H285.877V129.527Z" fill="#C4D9ED"/>
<path d="M285.877 141.976H220.968V150.255H285.877V141.976Z" fill="#C4D9ED"/>
<path d="M285.877 154.338H220.968V162.298H285.877V154.338Z" fill="#C4D9ED"/>
<path d="M431.576 203.026H405.553V215.805H431.576V203.026Z" fill="#C4D9ED"/>
<path d="M326.198 170.334H320.517V178.341H326.198V170.334Z" fill="#C4D9ED"/>
<path d="M315.576 170.334H309.895V178.341H315.576V170.334Z" fill="#C4D9ED"/>
<path d="M305.191 170.334H299.51V178.341H305.191V170.334Z" fill="#C4D9ED"/>
<path d="M295.343 170.334H289.662V178.341H295.343V170.334Z" fill="#C4D9ED"/>
<path d="M285.308 170.334H279.627V178.341H285.308V170.334Z" fill="#C4D9ED"/>
<path d="M275.157 170.334H269.476V178.341H275.157V170.334Z" fill="#C4D9ED"/>
<path d="M264.534 170.334H258.853V178.341H264.534V170.334Z" fill="#C4D9ED"/>
<path d="M254.149 170.334H248.468V178.341H254.149V170.334Z" fill="#C4D9ED"/>
<path d="M244.302 170.334H238.621V178.341H244.302V170.334Z" fill="#C4D9ED"/>
<path d="M234.266 170.334H228.585V178.341H234.266V170.334Z" fill="#C4D9ED"/>
<path d="M223.808 170.334H218.127V178.341H223.808V170.334Z" fill="#C4D9ED"/>
<path d="M213.185 170.334H207.504V178.341H213.185V170.334Z" fill="#C4D9ED"/>
<path d="M202.8 170.334H197.119V178.341H202.8V170.334Z" fill="#C4D9ED"/>
<path d="M192.953 170.334H187.272V178.341H192.953V170.334Z" fill="#C4D9ED"/>
<path d="M182.917 170.334H177.236V178.341H182.917V170.334Z" fill="#C4D9ED"/>
<path d="M172.766 170.334H167.085V178.341H172.766V170.334Z" fill="#C4D9ED"/>
<path d="M162.143 170.334H156.462V178.341H162.143V170.334Z" fill="#C4D9ED"/>
<path d="M151.758 170.334H146.077V178.341H151.758V170.334Z" fill="#C4D9ED"/>
<path d="M141.911 170.334H136.23V178.341H141.911V170.334Z" fill="#C4D9ED"/>
<path d="M131.876 170.334H126.195V178.341H131.876V170.334Z" fill="#C4D9ED"/>
<path d="M326.198 184.464H320.517V192.471H326.198V184.464Z" fill="#C4D9ED"/>
<path d="M315.576 184.464H309.895V192.471H315.576V184.464Z" fill="#C4D9ED"/>
<path d="M305.191 184.464H299.51V192.471H305.191V184.464Z" fill="#C4D9ED"/>
<path d="M295.343 184.464H289.662V192.471H295.343V184.464Z" fill="#C4D9ED"/>
<path d="M285.308 184.464H279.627V192.471H285.308V184.464Z" fill="#C4D9ED"/>
<path d="M275.157 184.464H269.476V192.471H275.157V184.464Z" fill="#C4D9ED"/>
<path d="M264.534 184.464H258.853V192.471H264.534V184.464Z" fill="#C4D9ED"/>
<path d="M254.149 184.464H248.468V192.471H254.149V184.464Z" fill="#C4D9ED"/>
<path d="M244.302 184.464H238.621V192.471H244.302V184.464Z" fill="#C4D9ED"/>
<path d="M234.266 184.464H228.585V192.471H234.266V184.464Z" fill="#C4D9ED"/>
<path d="M223.808 184.464H218.127V192.471H223.808V184.464Z" fill="#C4D9ED"/>
<path d="M213.185 184.464H207.504V192.471H213.185V184.464Z" fill="#C4D9ED"/>
<path d="M202.8 184.464H197.119V192.471H202.8V184.464Z" fill="#C4D9ED"/>
<path d="M192.953 184.464H187.272V192.471H192.953V184.464Z" fill="#C4D9ED"/>
<path d="M182.917 184.464H177.236V192.471H182.917V184.464Z" fill="#C4D9ED"/>
<path d="M172.766 184.464H167.085V192.471H172.766V184.464Z" fill="#C4D9ED"/>
<path d="M162.143 184.464H156.462V192.471H162.143V184.464Z" fill="#C4D9ED"/>
<path d="M151.758 184.464H146.077V192.471H151.758V184.464Z" fill="#C4D9ED"/>
<path d="M141.911 184.464H136.23V192.471H141.911V184.464Z" fill="#C4D9ED"/>
<path d="M131.876 184.464H126.195V192.471H131.876V184.464Z" fill="#C4D9ED"/>
<path d="M326.198 198.376H320.517V206.384H326.198V198.376Z" fill="#C4D9ED"/>
<path d="M315.576 198.376H309.895V206.384H315.576V198.376Z" fill="#C4D9ED"/>
<path d="M305.191 198.376H299.51V206.384H305.191V198.376Z" fill="#C4D9ED"/>
<path d="M295.343 198.376H289.662V206.384H295.343V198.376Z" fill="#C4D9ED"/>
<path d="M285.308 198.376H279.627V206.384H285.308V198.376Z" fill="#C4D9ED"/>
<path d="M275.157 198.376H269.476V206.384H275.157V198.376Z" fill="#C4D9ED"/>
<path d="M264.534 198.376H258.853V206.384H264.534V198.376Z" fill="#C4D9ED"/>
<path d="M254.149 198.376H248.468V206.384H254.149V198.376Z" fill="#C4D9ED"/>
<path d="M244.302 198.376H238.621V206.384H244.302V198.376Z" fill="#C4D9ED"/>
<path d="M234.266 198.376H228.585V206.384H234.266V198.376Z" fill="#C4D9ED"/>
<path d="M223.808 198.376H218.127V206.384H223.808V198.376Z" fill="#C4D9ED"/>
<path d="M213.185 198.376H207.504V206.384H213.185V198.376Z" fill="#C4D9ED"/>
<path d="M202.8 198.376H197.119V206.384H202.8V198.376Z" fill="#C4D9ED"/>
<path d="M192.953 198.376H187.272V206.384H192.953V198.376Z" fill="#C4D9ED"/>
<path d="M182.917 198.376H177.236V206.384H182.917V198.376Z" fill="#C4D9ED"/>
<path d="M172.766 198.376H167.085V206.384H172.766V198.376Z" fill="#C4D9ED"/>
<path d="M162.143 198.376H156.462V206.384H162.143V198.376Z" fill="#C4D9ED"/>
<path d="M151.758 198.376H146.077V206.384H151.758V198.376Z" fill="#C4D9ED"/>
<path d="M141.911 198.376H136.23V206.384H141.911V198.376Z" fill="#C4D9ED"/>
<path d="M131.876 198.376H126.195V206.384H131.876V198.376Z" fill="#C4D9ED"/>
<path d="M326.198 213.158H320.517V221.165H326.198V213.158Z" fill="#C4D9ED"/>
<path d="M315.576 213.158H309.895V221.165H315.576V213.158Z" fill="#C4D9ED"/>
<path d="M305.191 213.158H299.51V221.165H305.191V213.158Z" fill="#C4D9ED"/>
<path d="M295.343 213.158H289.662V221.165H295.343V213.158Z" fill="#C4D9ED"/>
<path d="M285.308 213.158H279.627V221.165H285.308V213.158Z" fill="#C4D9ED"/>
<path d="M275.157 213.158H269.476V221.165H275.157V213.158Z" fill="#C4D9ED"/>
<path d="M264.534 213.158H258.853V221.165H264.534V213.158Z" fill="#C4D9ED"/>
<path d="M254.149 213.158H248.468V221.165H254.149V213.158Z" fill="#C4D9ED"/>
<path d="M244.302 213.158H238.621V221.165H244.302V213.158Z" fill="#C4D9ED"/>
<path d="M234.266 213.158H228.585V221.165H234.266V213.158Z" fill="#C4D9ED"/>
<path d="M223.808 213.158H218.127V221.165H223.808V213.158Z" fill="#C4D9ED"/>
<path d="M213.185 213.158H207.504V221.165H213.185V213.158Z" fill="#C4D9ED"/>
<path d="M202.8 213.158H197.119V221.165H202.8V213.158Z" fill="#C4D9ED"/>
<path d="M192.953 213.158H187.272V221.165H192.953V213.158Z" fill="#C4D9ED"/>
<path d="M182.917 213.158H177.236V221.165H182.917V213.158Z" fill="#C4D9ED"/>
<path d="M172.766 213.158H167.085V221.165H172.766V213.158Z" fill="#C4D9ED"/>
<path d="M162.143 213.158H156.462V221.165H162.143V213.158Z" fill="#C4D9ED"/>
<path d="M151.758 213.158H146.077V221.165H151.758V213.158Z" fill="#C4D9ED"/>
<path d="M141.911 213.158H136.23V221.165H141.911V213.158Z" fill="#C4D9ED"/>
<path d="M131.876 213.158H126.195V221.165H131.876V213.158Z" fill="#C4D9ED"/>
<path d="M326.198 227.288H320.517V235.295H326.198V227.288Z" fill="#C4D9ED"/>
<path d="M315.576 227.288H309.895V235.295H315.576V227.288Z" fill="#C4D9ED"/>
<path d="M305.191 227.288H299.51V235.295H305.191V227.288Z" fill="#C4D9ED"/>
<path d="M295.343 227.288H289.662V235.295H295.343V227.288Z" fill="#C4D9ED"/>
<path d="M285.308 227.288H279.627V235.295H285.308V227.288Z" fill="#C4D9ED"/>
<path d="M275.157 227.288H269.476V235.295H275.157V227.288Z" fill="#C4D9ED"/>
<path d="M264.534 227.288H258.853V235.295H264.534V227.288Z" fill="#C4D9ED"/>
<path d="M254.149 227.288H248.468V235.295H254.149V227.288Z" fill="#C4D9ED"/>
<path d="M244.302 227.288H238.621V235.295H244.302V227.288Z" fill="#C4D9ED"/>
<path d="M234.266 227.288H228.585V235.295H234.266V227.288Z" fill="#C4D9ED"/>
<path d="M223.808 227.288H218.127V235.295H223.808V227.288Z" fill="#C4D9ED"/>
<path d="M213.185 227.288H207.504V235.295H213.185V227.288Z" fill="#C4D9ED"/>
<path d="M202.8 227.288H197.119V235.295H202.8V227.288Z" fill="#C4D9ED"/>
<path d="M192.953 227.288H187.272V235.295H192.953V227.288Z" fill="#C4D9ED"/>
<path d="M182.917 227.288H177.236V235.295H182.917V227.288Z" fill="#C4D9ED"/>
<path d="M172.766 227.288H167.085V235.295H172.766V227.288Z" fill="#C4D9ED"/>
<path d="M162.143 227.288H156.462V235.295H162.143V227.288Z" fill="#C4D9ED"/>
<path d="M141.911 227.288H136.23V235.295H141.911V227.288Z" fill="#C4D9ED"/>
<path d="M151.758 227.288H146.077V235.295H151.758V227.288Z" fill="#C4D9ED"/>
<path d="M131.876 227.288H126.195V235.295H131.876V227.288Z" fill="#C4D9ED"/>
<path d="M326.198 241.2H320.517V249.207H326.198V241.2Z" fill="#C4D9ED"/>
<path d="M315.576 241.2H309.895V249.207H315.576V241.2Z" fill="#C4D9ED"/>
<path d="M305.191 241.2H299.51V249.207H305.191V241.2Z" fill="#C4D9ED"/>
<path d="M295.343 241.2H289.662V249.207H295.343V241.2Z" fill="#C4D9ED"/>
<path d="M285.308 241.2H279.627V249.207H285.308V241.2Z" fill="#C4D9ED"/>
<path d="M275.157 241.2H269.476V249.207H275.157V241.2Z" fill="#C4D9ED"/>
<path d="M264.534 241.2H258.853V249.207H264.534V241.2Z" fill="#C4D9ED"/>
<path d="M254.149 241.2H248.468V249.207H254.149V241.2Z" fill="#C4D9ED"/>
<path d="M244.302 241.2H238.621V249.207H244.302V241.2Z" fill="#C4D9ED"/>
<path d="M234.266 241.2H228.585V249.207H234.266V241.2Z" fill="#C4D9ED"/>
<path d="M223.808 241.2H218.127V249.207H223.808V241.2Z" fill="#C4D9ED"/>
<path d="M213.185 241.2H207.504V249.207H213.185V241.2Z" fill="#C4D9ED"/>
<path d="M202.8 241.2H197.119V249.207H202.8V241.2Z" fill="#C4D9ED"/>
<path d="M192.953 241.2H187.272V249.207H192.953V241.2Z" fill="#C4D9ED"/>
<path d="M182.917 241.2H177.236V249.207H182.917V241.2Z" fill="#C4D9ED"/>
<path d="M172.766 241.2H167.085V249.207H172.766V241.2Z" fill="#C4D9ED"/>
<path d="M162.143 241.2H156.462V249.207H162.143V241.2Z" fill="#C4D9ED"/>
<path d="M141.911 241.2H136.23V249.207H141.911V241.2Z" fill="#C4D9ED"/>
<path d="M131.876 241.2H126.195V249.207H131.876V241.2Z" fill="#C4D9ED"/>
<path d="M78.5727 225.372H65.9355V310.872H78.5727V225.372Z" fill="#C4D9ED"/>
<path d="M78.5724 336.742H92.1396L92.1396 277.355H78.5724V336.742Z" fill="#ADC9E0"/>
<path d="M375.655 201.292V184.639H374.97V201.292H365.598V221.844H384.9V201.292H375.655Z" fill="#C4D9ED"/>
<path d="M431.576 158.282V145.504H426.146V139.944H425.46V145.504H405.663H405.302H401.555V139.944H400.871V145.504H396.066V201.346H405.663V177.286H431.576V164.508H405.663V158.282H431.576Z" fill="#C4D9ED"/>
<path d="M151.042 237.816V309.892H78.5732V225.372L151.042 237.816Z" fill="#D5E7F7"/>
<path d="M60.6355 337.93H151.041V277.131H60.6355L60.6355 337.93Z" fill="#D5E7F7"/>
<path d="M60.6355 260.91H151.041V241.149H60.6355V260.91Z" fill="#C4D9ED"/>
<path d="M144.885 293.618H140.241V300.162H144.885V293.618Z" fill="#C4D9ED"/>
<path d="M136.203 293.618H131.56V300.162H136.203V293.618Z" fill="#C4D9ED"/>
<path d="M127.715 293.618H123.071V300.162H127.715V293.618Z" fill="#C4D9ED"/>
<path d="M119.667 293.618H115.023V300.162H119.667V293.618Z" fill="#C4D9ED"/>
<path d="M111.465 293.618H106.821V300.162H111.465V293.618Z" fill="#C4D9ED"/>
<path d="M103.168 293.618H98.5244V300.162H103.168V293.618Z" fill="#C4D9ED"/>
<path d="M94.4842 293.618H89.8408V300.162H94.4842V293.618Z" fill="#C4D9ED"/>
<path d="M85.9979 293.618H81.3545V300.162H85.9979V293.618Z" fill="#C4D9ED"/>
<path d="M77.9481 293.618H73.3047V300.162H77.9481V293.618Z" fill="#C4D9ED"/>
<path d="M69.745 293.618H65.1016V300.162H69.745V293.618Z" fill="#C4D9ED"/>
<path d="M144.885 305.166H140.241V311.71H144.885V305.166Z" fill="#C4D9ED"/>
<path d="M136.203 305.166H131.56V311.71H136.203V305.166Z" fill="#C4D9ED"/>
<path d="M127.715 305.166H123.071V311.71H127.715V305.166Z" fill="#C4D9ED"/>
<path d="M119.667 305.166H115.023V311.71H119.667V305.166Z" fill="#C4D9ED"/>
<path d="M111.465 305.166H106.821V311.71H111.465V305.166Z" fill="#C4D9ED"/>
<path d="M103.168 305.166H98.5244V311.71H103.168V305.166Z" fill="#C4D9ED"/>
<path d="M94.4842 305.166H89.8408V311.71H94.4842V305.166Z" fill="#C4D9ED"/>
<path d="M85.9979 305.166H81.3545V311.71H85.9979V305.166Z" fill="#C4D9ED"/>
<path d="M77.9481 305.166H73.3047V311.71H77.9481V305.166Z" fill="#C4D9ED"/>
<path d="M69.745 305.166H65.1016V311.71H69.745V305.166Z" fill="#C4D9ED"/>
<path d="M144.885 270.347H140.241V276.891H144.885V270.347Z" fill="#C4D9ED"/>
<path d="M136.203 270.347H131.56V276.891H136.203V270.347Z" fill="#C4D9ED"/>
<path d="M127.715 270.347H123.071V276.891H127.715V270.347Z" fill="#C4D9ED"/>
<path d="M119.667 270.347H115.023V276.891H119.667V270.347Z" fill="#C4D9ED"/>
<path d="M111.465 270.347H106.821V276.891H111.465V270.347Z" fill="#C4D9ED"/>
<path d="M103.168 270.347H98.5244V276.891H103.168V270.347Z" fill="#C4D9ED"/>
<path d="M94.4842 270.347H89.8408V276.891H94.4842V270.347Z" fill="#C4D9ED"/>
<path d="M85.9979 270.347H81.3545V276.891H85.9979V270.347Z" fill="#C4D9ED"/>
<path d="M144.885 281.895H140.241V288.439H144.885V281.895Z" fill="#C4D9ED"/>
<path d="M136.203 281.895H131.56V288.439H136.203V281.895Z" fill="#C4D9ED"/>
<path d="M127.715 281.895H123.071V288.439H127.715V281.895Z" fill="#C4D9ED"/>
<path d="M119.667 281.895H115.023V288.439H119.667V281.895Z" fill="#C4D9ED"/>
<path d="M111.465 281.895H106.821V288.439H111.465V281.895Z" fill="#C4D9ED"/>
<path d="M103.168 281.895H98.5244V288.439H103.168V281.895Z" fill="#C4D9ED"/>
<path d="M94.4842 281.895H89.8408V288.439H94.4842V281.895Z" fill="#C4D9ED"/>
<path d="M85.9979 281.895H81.3545V288.439H85.9979V281.895Z" fill="#C4D9ED"/>
<path d="M77.9481 281.895H73.3047V288.439H77.9481V281.895Z" fill="#C4D9ED"/>
<path d="M69.745 281.895H65.1016V288.439H69.745V281.895Z" fill="#C4D9ED"/>
<path d="M144.885 316.537H140.241V323.081H144.885V316.537Z" fill="#C4D9ED"/>
<path d="M136.203 316.537H131.56V323.081H136.203V316.537Z" fill="#C4D9ED"/>
<path d="M127.715 316.537H123.071V323.081H127.715V316.537Z" fill="#C4D9ED"/>
<path d="M119.667 316.537H115.023V323.081H119.667V316.537Z" fill="#C4D9ED"/>
<path d="M111.465 316.537H106.821V323.081H111.465V316.537Z" fill="#C4D9ED"/>
<path d="M103.168 316.537H98.5244V323.081H103.168V316.537Z" fill="#C4D9ED"/>
<path d="M94.4842 316.537H89.8408V323.081H94.4842V316.537Z" fill="#C4D9ED"/>
<path d="M85.9979 316.537H81.3545V323.081H85.9979V316.537Z" fill="#C4D9ED"/>
<path d="M77.9481 316.537H73.3047V323.081H77.9481V316.537Z" fill="#C4D9ED"/>
<path d="M69.745 316.537H65.1016V323.081H69.745V316.537Z" fill="#C4D9ED"/>
<path d="M84.7737 211.8H83.4336V228.937H84.7737V211.8Z" fill="#D5E7F7"/>
<path d="M144.143 246.702H140.241V253.452H144.143V246.702Z" fill="#D5E7F7"/>
<path d="M105.409 246.702H101.508V253.452H105.409V246.702Z" fill="#D5E7F7"/>
<path d="M74.595 246.702H70.6934V253.452H74.595V246.702Z" fill="#D5E7F7"/>
<path d="M391.796 261.827H261.692V337.93H391.796V261.827Z" fill="#C4D9ED"/>
<path d="M273.733 269.628H266.797V280.219H273.733V269.628Z" fill="#D5E7F7"/>
<path d="M285.965 269.628H279.029V280.219H285.965V269.628Z" fill="#D5E7F7"/>
<path d="M298.28 269.628H291.344V280.219H298.28V269.628Z" fill="#D5E7F7"/>
<path d="M310.511 269.628H303.575V280.219H310.511V269.628Z" fill="#D5E7F7"/>
<path d="M323.108 269.628H316.172V280.219H323.108V269.628Z" fill="#D5E7F7"/>
<path d="M335.339 269.628H328.403V280.219H335.339V269.628Z" fill="#D5E7F7"/>
<path d="M347.654 269.628H340.718V280.219H347.654V269.628Z" fill="#D5E7F7"/>
<path d="M359.885 269.628H352.949V280.219H359.885V269.628Z" fill="#D5E7F7"/>
<path d="M372.715 269.628H365.779V280.219H372.715V269.628Z" fill="#D5E7F7"/>
<path d="M384.947 269.628H378.011V280.219H384.947V269.628Z" fill="#D5E7F7"/>
<path d="M273.733 285.29H266.797V295.881H273.733V285.29Z" fill="#D5E7F7"/>
<path d="M285.965 285.29H279.029V295.881H285.965V285.29Z" fill="#D5E7F7"/>
<path d="M298.28 285.29H291.344V295.881H298.28V285.29Z" fill="#D5E7F7"/>
<path d="M310.511 285.29H303.575V295.881H310.511V285.29Z" fill="#D5E7F7"/>
<path d="M323.108 285.29H316.172V295.881H323.108V285.29Z" fill="#D5E7F7"/>
<path d="M335.339 285.29H328.403V295.881H335.339V285.29Z" fill="#D5E7F7"/>
<path d="M347.654 285.29H340.718V295.881H347.654V285.29Z" fill="#D5E7F7"/>
<path d="M359.885 285.29H352.949V295.881H359.885V285.29Z" fill="#D5E7F7"/>
<path d="M372.715 285.29H365.779V295.881H372.715V285.29Z" fill="#D5E7F7"/>
<path d="M384.947 285.29H378.011V295.881H384.947V285.29Z" fill="#D5E7F7"/>
<path d="M273.733 302.116H266.797V312.707H273.733V302.116Z" fill="#D5E7F7"/>
<path d="M285.965 302.116H279.029V312.707H285.965V302.116Z" fill="#D5E7F7"/>
<path d="M298.28 302.116H291.344V312.707H298.28V302.116Z" fill="#D5E7F7"/>
<path d="M310.511 302.116H303.575V312.707H310.511V302.116Z" fill="#D5E7F7"/>
<path d="M323.108 302.116H316.172V312.707H323.108V302.116Z" fill="#D5E7F7"/>
<path d="M335.339 302.116H328.403V312.707H335.339V302.116Z" fill="#D5E7F7"/>
<path d="M347.654 302.116H340.718V312.707H347.654V302.116Z" fill="#D5E7F7"/>
<path d="M359.885 302.116H352.949V312.707H359.885V302.116Z" fill="#D5E7F7"/>
<path d="M372.715 302.116H365.779V312.707H372.715V302.116Z" fill="#D5E7F7"/>
<path d="M384.947 302.116H378.011V312.707H384.947V302.116Z" fill="#D5E7F7"/>
<path d="M273.733 317.779H266.797V328.37H273.733V317.779Z" fill="#D5E7F7"/>
<path d="M285.965 317.779H279.029V328.37H285.965V317.779Z" fill="#D5E7F7"/>
<path d="M298.28 317.779H291.344V328.37H298.28V317.779Z" fill="#D5E7F7"/>
<path d="M310.511 317.779H303.575V328.37H310.511V317.779Z" fill="#D5E7F7"/>
<path d="M323.108 317.779H316.172V328.37H323.108V317.779Z" fill="#D5E7F7"/>
<path d="M335.339 317.779H328.403V328.37H335.339V317.779Z" fill="#D5E7F7"/>
<path d="M347.654 317.779H340.718V328.37H347.654V317.779Z" fill="#D5E7F7"/>
<path d="M359.885 317.779H352.949V328.37H359.885V317.779Z" fill="#D5E7F7"/>
<path d="M372.715 317.779H365.779V328.37H372.715V317.779Z" fill="#D5E7F7"/>
<path d="M384.947 317.779H378.011V328.37H384.947V317.779Z" fill="#D5E7F7"/>
<path d="M346.977 265.303H374.124V241.633L346.977 252.027V265.303Z" fill="#C4D9ED"/>
<path d="M213.169 337.93H151.041V270.347L213.169 291.854V337.93Z" fill="#C4D9ED"/>
<path d="M211.529 294.093H152.682V296.182H211.529V294.093Z" fill="#D5E7F7"/>
<path d="M211.529 300.805H152.682V302.894H211.529V300.805Z" fill="#D5E7F7"/>
<path d="M211.529 307.517H152.682V309.606H211.529V307.517Z" fill="#D5E7F7"/>
<path d="M211.529 314.231H152.682V316.32H211.529V314.231Z" fill="#D5E7F7"/>
<path d="M211.529 320.943H152.682V323.031H211.529V320.943Z" fill="#D5E7F7"/>
<path d="M211.529 327.655H152.682V329.743H211.529V327.655Z" fill="#D5E7F7"/>
<path d="M379.347 241.633H374.125V261.827H379.347V241.633Z" fill="#C4D9ED"/>
<path d="M368.39 258.7V251.764H357.799V258.7H368.39Z" fill="#D5E7F7"/>
<path d="M160.198 112.776H156.597V143.319H160.198V112.776Z" fill="#C4D9ED"/>
<path d="M167.358 112.776H163.757V143.319H167.358V112.776Z" fill="#C4D9ED"/>
<path d="M174.422 112.776H170.82V143.319H174.422V112.776Z" fill="#C4D9ED"/>
<path d="M181.732 112.776H178.131V143.319H181.732V112.776Z" fill="#C4D9ED"/>
<path d="M35.998 338.293C35.998 338.293 41.8404 322.14 69.2438 326.505C96.6472 330.871 108.778 327.816 122.255 324.322C135.733 320.829 141.528 320.656 154.352 325.326C167.175 329.997 171.675 339.602 213.454 329.999C255.234 320.396 275.002 312.537 301.059 319.957C327.115 327.377 359.218 313.808 391.359 326.505C423.5 339.203 473.123 316.902 498.283 338.293H35.998Z" fill="#88B374"/>
<path d="M89.9395 188.173C89.9395 191.933 93.7761 194.246 97.8929 195.369C92.2186 188.612 104.636 147.72 104.952 146.676C98.6683 161.592 89.9395 183.362 89.9395 188.173Z" fill="#FFA412"/>
<path d="M106.458 221.894L106.487 221.853L106.554 221.755L114.71 209.898L106.965 210.205C106.796 207.041 107.09 203.871 107.836 200.792C108.893 196.433 110.268 192.156 111.951 187.998C113.656 183.766 115.448 179.442 117.329 175.027C119.267 170.457 120.752 165.708 121.764 160.848C122.852 155.601 123.287 150.241 123.06 144.887C122.851 139.289 121.472 133.197 118.925 126.612C115.738 118.38 111.326 111.412 105.687 105.707C100.225 100.126 93.7154 95.6766 86.5308 92.6152C79.4028 89.5958 71.7773 88.0301 63.6543 87.918C55.5313 87.806 47.4868 89.2888 39.5206 92.3665C33.3428 94.7569 27.9502 97.804 23.3426 101.508L21.0366 100.889L14.5241 110.568C10.0066 116.285 6.47343 122.714 4.06971 129.592C1.36458 137.296 -0.00864303 145.404 0.0089561 153.569C0.0328605 161.656 1.21463 168.928 3.55427 175.386C4.26244 177.217 5.29032 178.502 6.63793 179.24C7.98554 179.978 9.29879 180.101 10.5777 179.608L36.5737 169.545C37.7036 169.147 38.7 168.442 39.4512 167.508L39.5049 167.432C39.5677 167.345 39.6282 167.257 39.6865 167.168L47.9783 155.12L40.7375 154.788C40.7375 154.645 40.7487 154.504 40.7554 154.36C40.9048 150.94 41.8849 147.459 43.6957 143.915C45.5064 140.371 49.609 137.363 56.0034 134.89C62.5353 132.362 67.9496 132.002 72.2465 133.81C76.5433 135.618 79.7166 139.174 81.7664 144.479C83.1756 148.06 83.5408 151.966 82.8197 155.745C82.032 159.841 80.8306 163.846 79.234 167.699C77.5592 171.818 75.6917 176.17 73.6314 180.755C71.5403 185.413 69.8431 190.239 68.5577 195.181C67.2215 200.341 66.5186 205.645 66.4646 210.975C66.3884 216.476 67.5186 222.244 69.8553 228.278C70.6351 230.292 71.8759 231.81 73.5776 232.832C75.2793 233.854 76.9115 234.063 78.4743 233.46L104.47 223.398C105.266 223.102 105.957 222.579 106.458 221.894Z" fill="#CDCACA"/>
<path d="M137.956 268.828L128.232 266.472L119.876 244.878C119.096 242.868 117.854 241.351 116.151 240.326C114.448 239.301 112.816 239.091 111.254 239.697L95.4775 245.81L90.2379 240.118L82.3943 251.547C81.8536 252.229 81.4544 253.011 81.22 253.849C80.6508 255.757 80.7554 257.714 81.5338 259.72L92.2616 287.433C93.0415 289.448 94.2823 290.966 95.9839 291.987C97.6856 293.007 99.3186 293.216 100.883 292.614L127.73 282.222C128.695 281.854 129.518 281.19 130.081 280.324L137.956 268.828Z" fill="#CDCACA"/>
<path d="M47.7431 80.4216C55.6928 77.3425 63.7329 75.8634 71.8634 75.9844C79.9938 76.1054 87.6246 77.6741 94.7555 80.6906C101.939 83.7525 108.448 88.2015 113.91 93.7827C119.548 99.4884 123.961 106.456 127.147 114.687C129.695 121.273 131.073 127.365 131.282 132.965C131.509 138.313 131.075 143.668 129.989 148.91C128.977 153.769 127.492 158.518 125.556 163.089C123.669 167.502 121.872 171.827 120.164 176.062C118.482 180.22 117.107 184.495 116.05 188.854C115.02 193.101 114.853 197.511 115.559 201.823C115.914 203.805 115.914 205.835 115.559 207.818C115.2 209.644 114.241 210.852 112.679 211.457L86.6833 221.519C85.1191 222.117 83.4868 221.908 81.7867 220.892C80.0865 219.876 78.8457 218.358 78.0643 216.338C75.7277 210.301 74.5974 204.533 74.6736 199.035C74.7276 193.705 75.4305 188.401 76.7667 183.24C78.0845 178.209 80.6505 173.472 82.7144 168.898C84.7784 164.324 86.6452 159.963 88.317 155.844C89.9888 151.725 90.3093 147.671 91.022 143.816C91.7431 140.037 91.3779 136.13 89.9687 132.55C87.9159 127.248 84.7426 123.692 80.4488 121.881C76.1549 120.07 70.7406 120.43 64.2057 122.961C57.8143 125.437 53.7117 128.445 51.898 131.986C50.0842 135.526 49.1042 139.008 48.9578 142.431C48.8083 145.852 48.7516 148.976 48.7874 151.803C48.8233 154.63 47.4906 156.566 44.7894 157.612L18.7934 167.674C17.5131 168.169 16.1998 168.046 14.8537 167.307C13.5076 166.567 12.4797 165.282 11.77 163.452C9.43041 156.998 8.24863 149.726 8.22473 141.635C8.20976 133.469 9.58602 125.36 12.2944 117.656C15.0345 109.764 19.2842 102.492 25.0437 95.8422C30.8031 89.1923 38.3696 84.0521 47.7431 80.4216ZM138.816 260.646C139.599 262.661 139.704 264.618 139.13 266.517C138.557 268.416 137.491 269.671 135.932 270.282L109.085 280.674C107.52 281.28 105.887 281.071 104.186 280.046C102.484 279.021 101.243 277.503 100.463 275.492L89.7356 247.782C88.9572 245.773 88.8526 243.815 89.4219 241.911C89.9911 240.006 91.0578 238.751 92.6221 238.148L119.47 227.756C121.032 227.159 122.665 227.368 124.369 228.384C126.072 229.4 127.313 230.918 128.091 232.937L138.816 260.646Z" fill="#FFFCFC"/>
<path d="M93.0525 208.979C93.0525 208.979 91.7303 212.096 90.3633 212.965C88.9962 213.835 87.674 215.921 87.3916 217.602C86.8672 220.688 89.2315 222.602 90.9773 222.602C92.7231 222.602 94.3792 220.231 95.4011 214.568C95.4572 214.256 97.1088 211.009 97.1088 211.009L93.0525 208.979Z" fill="#FFB27D"/>
<path d="M147.469 93.1575C145.392 90.0021 137.14 91.768 129.041 97.1017C120.942 102.435 116.061 109.318 118.139 112.473C120.216 115.628 128.468 113.862 136.567 108.529C144.666 103.195 149.542 96.3128 147.469 93.1575Z" fill="#E58638"/>
<path d="M105.152 210.399L106.75 210.496C106.736 210.46 107.373 182.57 109.82 171.278C114.378 150.252 126.291 133.794 126.421 133.655L123.56 132.736C123.418 132.889 121.157 136.389 117.957 142.846C115.008 148.796 110.268 158.708 108.175 170.251C106.111 181.658 105.094 210.249 105.152 210.399Z" fill="#739AF0"/>
<path d="M134.052 92.9111C134.052 92.9111 123.599 90.6812 118.588 99.186C113.577 107.691 113.293 122.459 109.949 127.289C106.606 132.118 100.698 152.507 106.969 157.07C113.239 161.632 151.872 156.902 154.03 154.829C156.188 152.756 153.909 131.338 150.135 125.126C146.362 118.914 155.559 89.7512 134.052 92.9111Z" fill="#2B478B"/>
<path d="M149.62 185.959C161.446 182.949 174.446 164.602 174.446 164.602L171.116 161.715C167.67 165.778 153.336 172.779 153.336 172.779C153.412 169.059 153.316 165.666 153.08 162.578C151.489 141.591 143.578 134.599 141.427 133.066C141.251 132.937 141.068 132.819 140.878 132.712C140.878 132.712 140.878 132.864 140.858 133.16C140.826 133.783 140.768 135.04 140.71 136.764C140.262 149.603 139.74 188.484 149.62 185.959Z" fill="#FFB27D"/>
<path d="M171.116 161.715C171.168 161.218 171.499 154.008 172.934 152.635C174.368 151.261 177.192 149.394 178.005 149.544C178.819 149.694 181.591 154.286 180.275 157.448C178.96 160.61 174.449 164.602 174.449 164.602L171.116 161.715Z" fill="#FFB27D"/>
<path d="M123.869 307.979C124.591 310.843 125.382 313.581 126.191 316.109C126.363 316.654 126.534 317.189 126.709 317.711C126.794 317.971 126.881 318.229 126.964 318.482C127.134 318.987 127.303 319.48 127.47 319.961C127.695 320.589 127.919 321.201 128.123 321.795C128.279 322.243 128.439 322.664 128.593 323.085C130.993 329.517 133.001 333.594 133.001 333.594L137.781 333.264C137.781 333.264 135.989 324.73 135.628 312.505C135.614 312.057 135.603 311.629 135.594 311.183C135.576 310.235 135.567 309.268 135.565 308.283C135.565 307.88 135.565 307.47 135.565 307.057C135.661 296.525 136.966 284.087 141.125 272.207C144.209 263.418 146.749 254.447 148.731 245.346C154.455 218.983 153.11 201.664 153.11 201.664L126.218 204.801L124.965 204.947C124.853 217.293 124.535 234.056 124.257 247.164C124.21 249.438 124.165 251.603 124.12 253.616C123.934 262.031 123.793 267.783 123.793 267.783C118.636 278.921 120.514 294.633 123.869 307.979Z" fill="#FFB27D"/>
<path d="M106.324 304.005C107.045 306.869 107.836 309.607 108.645 312.135C108.818 312.68 108.988 313.215 109.163 313.737C109.248 313.997 109.336 314.255 109.419 314.508C109.589 315.013 109.758 315.506 109.925 315.987C110.149 316.615 110.373 317.227 110.577 317.821C110.734 318.269 110.893 318.69 111.048 319.111C113.448 325.543 115.456 329.62 115.456 329.62L120.236 329.29C120.236 329.29 118.443 320.756 118.082 308.532C118.069 308.083 118.058 307.655 118.049 307.209C118.031 306.261 118.021 305.294 118.02 304.309C118.02 303.906 118.02 303.496 118.02 303.084C118.116 292.551 119.42 280.113 123.58 268.233C126.663 259.444 129.203 250.473 131.186 241.372C136.909 215.009 135.565 197.69 135.565 197.69L108.672 200.827L107.42 200.973C107.308 213.319 106.989 230.082 106.711 243.19C106.664 245.464 106.62 247.629 106.575 249.642C106.389 258.057 106.247 263.809 106.247 263.809C101.091 274.947 102.969 290.659 106.324 304.005Z" fill="#FFB27D"/>
<path d="M111.043 198.648C116.124 187.254 118.553 184.032 118.638 180.448C118.705 177.613 117.307 174.554 114.593 167.053C113.965 165.296 113.515 163.48 113.249 161.632C111.102 147.173 119.463 131.542 124.66 130.482C126.105 130.099 128.557 124.879 128.526 116.462L129.178 116.59L140.121 118.757C140.121 118.757 139.872 122.201 139.863 125.444C139.863 128.149 140.002 130.899 140.614 131.222C141.403 131.293 149.993 132.828 151.555 135.294C153.09 137.716 151.38 137.94 151.978 146.761C152.776 158.544 144.468 172.513 151.837 196.064C159.347 220.11 108.235 204.943 111.043 198.648Z" fill="#FFB27D"/>
<path d="M140.112 118.752C140.112 118.752 139.863 122.197 139.854 125.44C133.732 125.267 130.496 119.682 129.169 116.585L140.112 118.752Z" fill="#EF9E67"/>
<path d="M142.156 121.825C142.156 121.825 127.667 122.062 127.658 113.038C127.649 104.013 125.771 97.9668 135.022 97.4334C144.273 96.9001 146.073 100.347 146.808 103.352C147.543 106.357 145.925 121.529 142.156 121.825Z" fill="#FFB27D"/>
<path d="M141.62 97.2116C141.62 97.2116 137.654 107.807 131.558 109.376C125.462 110.945 122.829 109.311 122.829 109.311C122.829 109.311 127.497 105.602 128.468 99.1255C128.477 99.1143 138.628 92.1738 141.62 97.2116Z" fill="#2B478B"/>
<path d="M140.636 98.0723C140.636 98.0723 143.598 100.434 144.32 102.734C145.042 105.033 145.369 109.761 146.747 109.602C146.747 109.602 149.737 102.404 146.377 98.3344C142.816 94.0182 140.636 98.0723 140.636 98.0723Z" fill="#2B478B"/>
<path d="M92.2002 210.749L96.55 212.053C96.55 212.053 110.893 188.249 112.201 182.055C112.627 180.038 113.669 176.004 114.891 171.482C117.41 162.119 120.661 150.66 120.661 150.66L121.73 146.021L125.381 130.218C125.381 130.218 118.389 130.932 114.297 132.642C112.952 133.207 111.91 133.882 111.549 134.673C108.544 141.282 105.543 157.957 103.435 169.857C102.26 176.486 101.364 181.631 100.895 182.723C99.5911 185.748 95.6066 202.489 92.2002 210.749Z" fill="#FFB27D"/>
<path d="M141.194 98.4285C141.194 98.4285 138.368 109.517 130.686 113.067C130.686 113.067 138.368 106.256 139.02 98.9372C139.672 91.618 141.194 98.4285 141.194 98.4285Z" fill="#2B478B"/>
<path d="M160.122 175.448C159.698 180.993 157.617 188.446 149.629 189.616C146.801 190.029 144.782 187.478 143.355 183.234C141.479 177.687 140.609 169.254 140.264 160.772C139.933 152.74 140.069 144.659 140.264 138.953C143.543 138.583 149.558 135.816 151.402 135.116C151.454 135.172 151.507 135.231 151.555 135.289C151.594 135.333 151.63 135.38 151.664 135.428C151.724 135.513 151.779 135.601 151.828 135.692C152.626 137.207 152.742 145.699 153.139 153.715C153.482 160.731 154.035 167.385 155.445 168.685C156.084 169.27 160.014 169.29 160.014 169.29C160.25 171.334 160.286 173.397 160.122 175.448Z" fill="#FFB93E"/>
<path d="M140.255 160.772C140.869 175.744 143.108 190.578 149.627 189.616C157.616 188.451 159.698 180.993 160.122 175.448C158.161 175.35 154.707 174.87 153.336 172.777C151.37 169.781 145.241 150.494 145.241 150.494C145.241 150.494 142.83 154.824 140.255 160.772Z" fill="#FFA412"/>
<path d="M148.735 181.109C148.735 181.109 132.703 185.143 118.638 180.448C118.638 180.448 110.915 196.843 108.791 203.871C106.666 210.899 90.6182 300.832 90.6182 300.832C90.6182 300.832 125.937 311.046 149.409 302.226C149.409 302.226 156.328 206.085 153.251 196.001C150.174 185.916 148.735 181.109 148.735 181.109Z" fill="#2B478B"/>
<path d="M153.13 153.652C151.955 165.243 148.737 180.966 148.737 180.966C147.024 181.87 145.216 182.58 143.345 183.084C130.887 186.468 118.64 180.307 118.64 180.307C118.64 180.307 118.62 179.948 118.591 179.516C118.566 179.157 118.53 178.754 118.488 178.456C118.396 177.801 115.438 170.765 115.438 170.765C115.438 170.765 115.326 171.311 115.131 172.246C114.05 177.4 110.339 194.293 108.067 195.815C106.747 196.693 102.532 196.711 98.5738 195.629C94.4526 194.508 90.6182 192.202 90.6182 188.458C90.6182 183.657 99.3448 161.955 105.633 147.086C105.633 147.078 105.633 147.071 105.633 147.063C108.981 139.137 110.926 133.617 113.477 133.003C113.477 133.003 130.701 140.013 140.241 138.94C143.52 138.57 149.535 135.802 151.379 135.112C151.431 135.168 151.485 135.226 151.532 135.285C151.571 135.329 151.608 135.375 151.642 135.423C151.677 135.475 151.711 135.527 151.742 135.576C153.139 137.635 152.919 141.053 152.991 142.357C153.143 144.901 153.652 148.464 153.13 153.652Z" fill="#C4D9ED"/>
<path d="M115.438 170.879C115.438 170.879 118.393 177.936 118.488 178.595C118.528 178.89 118.564 179.296 118.591 179.655C120.052 180.826 121.726 181.705 123.521 182.243C128.523 183.758 130.692 174.175 130.399 169.384C130.105 164.593 123.026 150.942 120.668 150.66C118.31 150.378 115.438 170.879 115.438 170.879Z" fill="#9BCCFA"/>
<path d="M115.131 172.362C115.326 171.426 115.438 170.879 115.438 170.879C115.286 171.362 115.184 171.859 115.131 172.362Z" fill="#E58638"/>
<path d="M135.787 184.168C144.919 184.168 148.543 181.605 148.821 181.389L149.41 177.089C149.323 177.154 137.071 184.511 118.107 177.465L118.509 180.724C125.801 183.433 131.043 184.168 135.787 184.168Z" fill="#163560"/>
<path d="M130.251 337.601H133.301C134.323 337.439 135.076 337.152 136.125 337.007C137.716 336.798 138.449 337.455 138.59 337.601L138.619 337.632H151.574C151.902 337.166 151.588 336.088 151.281 335.295C151.178 335.028 151.016 334.79 150.805 334.597C150.595 334.405 150.343 334.264 150.068 334.185C148.695 333.786 145.985 333.432 143.504 331.187C142.111 329.925 136.766 326.55 136.766 326.55H136.739C136.62 326.55 136.066 326.725 133.63 328.775C132.375 329.835 130.233 327.281 130.233 327.281C129.939 327.549 129.701 327.873 129.532 328.233C129.229 328.85 129.131 329.547 129.254 330.223C129.446 331.388 128.823 333.56 128.324 335.026C128.023 335.922 127.768 336.545 127.768 336.545C127.768 336.545 127.627 337.271 130.251 337.601Z" fill="#233862"/>
<path d="M129.541 328.226C130.269 328.74 131.807 329.75 132.826 329.882C134.202 330.064 136.775 326.55 136.775 326.55H136.748C136.629 326.55 136.076 326.725 133.64 328.775C132.385 329.835 130.242 327.281 130.242 327.281C129.949 327.547 129.711 327.868 129.541 328.226Z" fill="#466AA5"/>
<path d="M130.251 337.6H133.301C134.323 337.439 135.076 337.152 136.125 337.007C137.716 336.798 138.449 337.455 138.59 337.6L138.619 337.632H151.574C151.902 337.166 151.588 336.088 151.281 335.294C150.889 334.943 150.777 336.814 150.559 337.112C150.342 337.41 139.991 337.22 139.392 336.785C138.794 336.35 137.001 335.59 134.5 336.186C132.324 336.706 129.122 335.375 128.324 335.019C128.023 335.915 127.768 336.538 127.768 336.538C127.768 336.538 127.627 337.271 130.251 337.6Z" fill="#466AA5"/>
<path d="M113.975 337.601H117.025C118.047 337.439 118.8 337.152 119.848 337.007C121.439 336.798 122.172 337.455 122.314 337.601L122.343 337.632H135.298C135.625 337.166 135.311 336.088 135.004 335.295C134.902 335.028 134.739 334.79 134.529 334.597C134.318 334.405 134.066 334.264 133.792 334.185C132.418 333.786 129.709 333.432 127.228 331.187C125.834 329.925 120.489 326.55 120.489 326.55H120.462C120.344 326.55 119.79 326.725 117.354 328.775C116.099 329.835 113.957 327.281 113.957 327.281C113.663 327.549 113.425 327.873 113.255 328.233C112.952 328.85 112.855 329.547 112.977 330.223C113.17 331.388 112.547 333.56 112.047 335.026C111.747 335.922 111.492 336.545 111.492 336.545C111.492 336.545 111.35 337.271 113.975 337.601Z" fill="#233862"/>
<path d="M113.26 328.226C113.988 328.74 115.525 329.75 116.545 329.882C117.921 330.064 120.494 326.55 120.494 326.55H120.467C120.348 326.55 119.795 326.725 117.359 328.775C116.104 329.835 113.961 327.281 113.961 327.281C113.668 327.547 113.43 327.868 113.26 328.226Z" fill="#466AA5"/>
<path d="M113.975 337.6H117.025C118.047 337.439 118.8 337.152 119.848 337.007C121.439 336.798 122.172 337.455 122.314 337.6L122.343 337.632H135.298C135.625 337.166 135.311 336.088 135.004 335.294C134.612 334.943 134.5 336.814 134.283 337.112C134.065 337.41 123.714 337.22 123.116 336.785C122.517 336.35 120.725 335.59 118.224 336.186C116.048 336.706 112.845 335.375 112.047 335.019C111.747 335.915 111.492 336.538 111.492 336.538C111.492 336.538 111.35 337.271 113.975 337.6Z" fill="#466AA5"/>
<path d="M177.44 148.253L176.894 153.874C176.882 153.993 176.826 154.103 176.738 154.184C176.649 154.264 176.534 154.309 176.414 154.309H166.394C166.326 154.309 166.258 154.294 166.196 154.266C166.134 154.238 166.078 154.197 166.033 154.145C165.988 154.094 165.954 154.034 165.934 153.968C165.914 153.903 165.908 153.834 165.917 153.766L166.656 148.144C166.672 148.028 166.729 147.922 166.817 147.846C166.905 147.769 167.017 147.727 167.134 147.727H176.961C177.028 147.727 177.094 147.741 177.155 147.768C177.217 147.795 177.272 147.835 177.317 147.884C177.362 147.934 177.396 147.992 177.418 148.056C177.439 148.119 177.447 148.187 177.44 148.253Z" fill="#D17A33"/>
<path d="M130.415 210.53L128.819 210.409C128.837 210.375 131.943 182.465 131.031 170.879C129.431 150.551 120.783 133.308 119.687 131.233C119.674 131.209 119.667 131.182 119.667 131.155C119.667 131.127 119.673 131.1 119.685 131.076C119.697 131.051 119.714 131.03 119.736 131.014C119.758 130.997 119.784 130.986 119.81 130.982L122.408 130.518C122.445 130.511 122.483 130.516 122.516 130.532C122.55 130.549 122.577 130.576 122.594 130.61C122.95 131.313 124.658 135.092 126.776 141.418C128.893 147.745 132.271 158.28 132.797 170.077C133.317 181.728 130.493 210.386 130.415 210.53Z" fill="#739AF0"/>
<path d="M111.057 204.396C111.057 204.396 112.61 200.586 115.077 199.622L127.676 201.998C127.676 201.998 124.566 204.956 124.274 206.888L111.057 204.396Z" fill="#D2E4FF"/>
<path d="M126.876 225.948L105.338 221.889C105.097 221.844 104.868 221.752 104.663 221.619C104.458 221.485 104.281 221.312 104.143 221.11C104.005 220.908 103.908 220.68 103.858 220.441C103.809 220.201 103.806 219.954 103.852 219.713L106.541 205.436C106.633 204.95 106.914 204.52 107.323 204.242C107.731 203.963 108.234 203.858 108.72 203.95L130.254 208.008C130.739 208.1 131.168 208.381 131.447 208.789C131.725 209.197 131.831 209.699 131.74 210.184L129.05 224.462C128.958 224.947 128.678 225.376 128.27 225.654C127.863 225.933 127.362 226.038 126.876 225.948Z" fill="#4A75CB"/>
<path d="M118.818 196.795L108.521 196.692L108.388 209.894L118.686 209.997L118.818 196.795Z" fill="#E58638"/>
<path d="M118.536 196.545L108.239 196.455L108.124 209.657L118.421 209.746L118.536 196.545Z" fill="#EE9849"/>
<path d="M124.807 204.434L116.63 198.175L108.606 208.659L116.783 214.918L124.807 204.434Z" fill="#578E9B"/>
<path d="M123.882 203.735L115.705 197.477L107.682 207.958L115.86 214.217L123.882 203.735Z" fill="#74ACBE"/>
<path d="M121.614 224.957L100.997 221.071C100.696 221.014 100.41 220.899 100.153 220.731C99.8972 220.564 99.6766 220.347 99.5041 220.095C99.3316 219.842 99.2105 219.557 99.1479 219.258C99.0853 218.958 99.0823 218.649 99.1391 218.348L101.656 204.99C101.712 204.689 101.828 204.402 101.995 204.146C102.163 203.889 102.379 203.668 102.632 203.496C102.885 203.323 103.169 203.202 103.469 203.14C103.769 203.077 104.078 203.075 104.379 203.132L124.996 207.018C125.297 207.074 125.583 207.189 125.84 207.357C126.096 207.524 126.316 207.74 126.489 207.993C126.661 208.246 126.783 208.53 126.845 208.829C126.908 209.129 126.911 209.438 126.854 209.738L124.337 223.099C124.222 223.707 123.871 224.243 123.36 224.591C122.85 224.94 122.222 225.071 121.614 224.957Z" fill="#739AF0"/>
<path d="M116.74 104.641C116.74 104.641 110.149 91.5216 119.36 86.3336C128.57 81.1456 135.314 83.1962 140.381 89.5271L116.74 104.641Z" fill="#E58638"/>
<path d="M153.847 88.0861C151.954 85.0473 145.32 85.5381 137.315 88.8167C133.91 90.2303 130.628 91.9267 127.506 93.8882C123.682 96.2409 120.12 98.9942 116.879 102.102C111.579 107.287 108.993 112.247 110.71 115.001C111.236 115.841 112.021 116.384 113.204 116.7C114.376 114.172 117.746 111.803 118.699 109.833C120.044 107.05 123.457 102.005 129.698 98.1103C134.491 95.1207 139.26 93.3615 142.541 93.1508C144.451 93.0276 145.858 93.4265 146.477 94.4193C146.958 95.1924 146.909 96.2412 146.409 97.4536C147.024 98.5111 147.506 99.6401 147.846 100.815C153.034 95.7056 155.548 90.809 153.847 88.0861Z" fill="#F1A34F"/>
<path d="M346.412 132.461H260.175V337.63H346.412V132.461Z" fill="#739AF0"/>
<path d="M260.175 207.475L232.254 231.145H322.025L346.412 207.475H260.175Z" fill="#89BCCB"/>
<path d="M270.004 211.464L251.495 227.156H311.006L327.17 211.464H270.004Z" fill="white"/>
<path d="M322.025 231.145H232.254V337.567H322.025V231.145Z" fill="#739AF0"/>
<path d="M346.412 132.461V207.473L322.025 231.145V337.63H346.412H378.851V132.461H346.412Z" fill="#4A75CB"/>
<path d="M335.899 153.033H268.187V192.22H335.899V153.033Z" fill="#4A75CB"/>
<path d="M338.457 153.033H271.226V192.22H338.457V153.033Z" fill="white"/>
<path d="M263.025 239.298H240.145V242.717H263.025V239.298Z" fill="#4A75CB"/>
<path d="M312.214 239.298H289.333V242.717H312.214V239.298Z" fill="#4A75CB"/>
<path d="M378.851 305.715H232.254V306.257H378.851V305.715Z" fill="#4A75CB"/>
<path d="M378.851 250.657H232.254V251.2H378.851V250.657Z" fill="#4A75CB"/>
<path d="M177.38 148.854H166.563L166.356 150.418H177.203L177.38 148.854Z" fill="#163560"/>
<path d="M178.597 150.096C178.597 150.096 176.474 147.725 174.339 149.538C172.203 151.351 174.48 155.216 176.322 156.274C178.164 157.332 178.753 157.883 178.753 157.883L178.597 150.096Z" fill="#FFB27D"/>
<path d="M340.392 63.6587H371.601C371.953 63.6593 372.29 63.7993 372.539 64.0479C372.787 64.2966 372.927 64.6337 372.928 64.9854V78.4876C372.927 78.8395 372.787 79.1768 372.539 79.4259C372.29 79.6749 371.953 79.8154 371.601 79.8165H369.831V83.3574L364.309 79.8165H340.392C340.041 79.8125 339.706 79.6712 339.457 79.4228C339.209 79.1745 339.068 78.8388 339.063 78.4876V64.9854C339.065 64.6335 339.205 64.2964 339.454 64.0478C339.703 63.7992 340.041 63.6593 340.392 63.6587Z" fill="#E58638"/>
<path d="M343.49 69.0821H368.502C368.74 69.0821 368.968 68.9877 369.136 68.8196C369.304 68.6515 369.399 68.4235 369.399 68.1857C369.399 67.948 369.304 67.72 369.136 67.5519C368.968 67.3837 368.74 67.2893 368.502 67.2893H343.49C343.252 67.2893 343.024 67.3837 342.856 67.5519C342.688 67.72 342.594 67.948 342.594 68.1857C342.594 68.4235 342.688 68.6515 342.856 68.8196C343.024 68.9877 343.252 69.0821 343.49 69.0821Z" fill="white"/>
<path d="M343.49 72.2914H368.502C368.738 72.2914 368.965 72.1985 369.132 72.0328C369.3 71.8671 369.396 71.642 369.399 71.4062C369.399 71.1684 369.304 70.9404 369.136 70.7723C368.968 70.6042 368.74 70.5098 368.502 70.5098H343.49C343.252 70.5098 343.024 70.6042 342.856 70.7723C342.688 70.9404 342.594 71.1684 342.594 71.4062C342.597 71.642 342.692 71.8671 342.86 72.0328C343.028 72.1985 343.254 72.2914 343.49 72.2914Z" fill="white"/>
<path d="M343.49 75.5004H368.502C368.74 75.5004 368.968 75.4059 369.136 75.2378C369.304 75.0697 369.399 74.8417 369.399 74.604C369.396 74.3682 369.3 74.143 369.132 73.9773C368.965 73.8116 368.738 73.7187 368.502 73.7188H343.49C343.254 73.7187 343.028 73.8116 342.86 73.9773C342.692 74.143 342.597 74.3682 342.594 74.604C342.594 74.8417 342.688 75.0697 342.856 75.2378C343.024 75.4059 343.252 75.5004 343.49 75.5004Z" fill="white"/>
<path d="M289.999 163.896C290.112 163.888 290.225 163.904 290.331 163.943C290.437 163.981 290.534 164.042 290.615 164.12C290.777 164.311 290.899 164.533 290.974 164.772L297.249 180.959C297.269 181.017 297.278 181.077 297.276 181.138C297.274 181.322 297.2 181.497 297.071 181.626C296.941 181.756 296.766 181.829 296.583 181.831H294.741C294.613 181.844 294.483 181.831 294.36 181.792C294.236 181.754 294.122 181.691 294.024 181.607C293.902 181.487 293.807 181.342 293.744 181.183L292.641 178.342H284.549L283.446 181.183C283.381 181.342 283.285 181.486 283.164 181.607C283.066 181.691 282.951 181.754 282.828 181.792C282.705 181.831 282.575 181.844 282.447 181.831H280.602C280.512 181.831 280.422 181.813 280.338 181.778C280.255 181.742 280.179 181.69 280.116 181.625C280.051 181.562 279.999 181.486 279.964 181.402C279.929 181.319 279.912 181.229 279.912 181.138C279.912 181.078 279.92 181.017 279.937 180.959L286.212 164.772C286.287 164.533 286.409 164.311 286.572 164.12C286.653 164.042 286.749 163.982 286.855 163.943C286.96 163.905 287.072 163.889 287.184 163.896H289.999ZM291.411 175.139L288.592 167.838L285.775 175.139H291.411Z" fill="#2B478B"/>
<path d="M309.72 163.896C309.902 163.897 310.077 163.971 310.206 164.1C310.336 164.229 310.41 164.403 310.412 164.586V166.406C310.412 166.496 310.394 166.586 310.359 166.67C310.323 166.754 310.271 166.829 310.206 166.892C310.143 166.958 310.068 167.01 309.984 167.045C309.9 167.08 309.81 167.098 309.72 167.096H305.11V181.132C305.108 181.314 305.035 181.489 304.906 181.618C304.777 181.748 304.602 181.822 304.42 181.824H302.342C302.159 181.822 301.985 181.748 301.856 181.618C301.727 181.489 301.654 181.314 301.652 181.132V167.096H297.042C296.951 167.098 296.861 167.08 296.777 167.045C296.694 167.01 296.618 166.958 296.556 166.892C296.49 166.829 296.438 166.754 296.403 166.67C296.368 166.586 296.349 166.496 296.35 166.406V164.586C296.352 164.403 296.426 164.229 296.555 164.1C296.685 163.971 296.859 163.897 297.042 163.896H309.72Z" fill="#2B478B"/>
<path d="M321.373 173.039L326.238 164.586C326.308 164.501 326.422 164.362 326.583 164.176C326.681 164.077 326.8 164 326.931 163.952C327.062 163.903 327.202 163.884 327.341 163.896H329.082C329.173 163.895 329.262 163.913 329.346 163.948C329.43 163.983 329.505 164.035 329.568 164.1C329.633 164.163 329.685 164.239 329.72 164.322C329.755 164.406 329.773 164.495 329.772 164.586V181.132C329.771 181.314 329.697 181.489 329.568 181.619C329.439 181.748 329.265 181.822 329.082 181.824H327.007C326.916 181.825 326.825 181.807 326.741 181.771C326.657 181.736 326.581 181.684 326.518 181.618C326.454 181.555 326.403 181.479 326.368 181.395C326.333 181.312 326.316 181.222 326.317 181.132V171.119L322.986 176.88C322.885 177.035 322.765 177.177 322.628 177.302C322.549 177.376 322.457 177.434 322.355 177.472C322.254 177.511 322.147 177.529 322.038 177.526H320.694C320.586 177.529 320.479 177.511 320.378 177.473C320.277 177.434 320.185 177.376 320.107 177.302C319.969 177.177 319.848 177.035 319.746 176.88L316.418 171.119V181.132C316.418 181.222 316.401 181.312 316.366 181.396C316.331 181.479 316.279 181.555 316.214 181.618C316.151 181.683 316.075 181.735 315.992 181.771C315.908 181.806 315.818 181.824 315.728 181.824H313.652C313.469 181.822 313.294 181.749 313.165 181.619C313.035 181.49 312.962 181.315 312.96 181.132V164.586C312.962 164.403 313.035 164.228 313.165 164.099C313.294 163.97 313.47 163.897 313.652 163.896H315.394C315.532 163.884 315.672 163.903 315.803 163.952C315.933 164 316.051 164.077 316.149 164.176C316.313 164.364 316.427 164.501 316.496 164.586L321.373 173.039Z" fill="#2B478B"/>
<path d="M347.553 161.982C347.553 161.982 342.767 158.069 341.054 158.049C339.342 158.029 336.066 157.168 336.196 157.726C336.326 158.284 339.076 159.017 338.603 159.275C338.13 159.532 334.121 158.459 333.014 159.104C331.906 159.75 329.271 162.414 331.378 163.587C333.484 164.759 339.808 166.598 341.442 166.383C343.076 166.168 346.774 165.91 346.774 165.91L347.553 161.982Z" fill="#FFB27D"/>
<path d="M408.704 307.495L404.688 324.408L398.673 324.374L398.451 307.495H408.704Z" fill="#FFB27D"/>
<path d="M358.106 308.216L346.681 324.408L342.229 318.691L349.104 305.991L358.106 308.216Z" fill="#FFB27D"/>
<path d="M381.525 103.713C381.521 103.672 381.521 103.631 381.525 103.59C381.601 102.747 381.696 101.912 381.811 101.084C382.131 98.6702 382.613 96.2804 383.252 93.9308C383.6 92.6825 383.979 91.5149 384.386 90.4661C384.449 90.3048 384.512 90.1524 384.57 89.9978C385.547 87.6133 386.663 85.8989 387.802 85.2535C389.879 84.0725 392.367 83.9447 394.108 84.0456C393.66 83.5839 392.777 83.4158 392.777 83.4158C393.857 83.2545 396.266 84.3122 396.266 84.3122C411.281 78.5281 413.639 100.634 413.323 105.77C413.007 110.907 418.369 112.583 426.179 116.63C441.085 124.351 442.391 134.688 442.391 134.688C442.279 134.758 442.153 134.836 442.028 134.926C441.286 133.673 439.762 131.32 438.48 130.966C438.532 131.078 439.998 134.202 440.547 135.993C438.666 137.427 436.089 139.599 433.301 142.03C429.572 145.28 425.473 148.993 422.195 152C422.219 150.972 422.177 149.515 421.803 148.744L421.177 152.516L421.095 153.009C419.001 154.932 417.354 156.465 416.518 157.251L416.294 157.475L415.92 157.825C416.039 156.507 414.188 153.394 411.288 149.555C411.089 149.287 410.881 149.015 410.665 148.74C409.732 147.527 408.704 146.259 407.608 144.955C407.211 144.484 406.812 144.011 406.4 143.534C406.071 143.148 405.728 142.767 405.392 142.38C404.58 141.459 403.744 140.533 402.893 139.608C400.692 137.21 398.386 134.845 396.136 132.698C392.869 129.561 389.72 126.899 387.172 125.222C387.076 125.081 386.982 124.935 386.896 124.788C386.411 123.983 386 123.135 385.668 122.255C385.561 121.988 385.462 121.715 385.368 121.444C384.658 119.329 384.141 117.153 383.824 114.945C383.983 117.18 384.341 119.397 384.893 121.569C384.989 121.921 385.086 122.242 385.186 122.544C385.374 123.121 385.598 123.684 385.859 124.232C385.414 123.817 385.01 123.361 384.653 122.869C384.41 122.531 384.185 122.179 383.981 121.816C381.455 117.444 380.915 110.438 381.525 103.713Z" fill="#233862"/>
<path d="M387.752 125.536C387.703 125.558 392.575 128.089 396.241 127.085C399.69 126.146 401.942 121.675 401.895 121.664C400.434 121.374 400.015 119.366 400.044 110.743L399.385 110.873L388.286 113.071C388.286 113.071 388.537 116.565 388.546 119.855C388.552 122.618 388.38 125.24 387.752 125.536Z" fill="#FFB27D"/>
<path d="M400.304 88.8636C400.304 88.8636 394.83 83.037 387.954 88.5655C387.954 88.5655 391.966 87.8731 400.304 88.8636Z" fill="#BA4C43"/>
<path d="M388.286 113.071C388.286 113.071 388.537 116.565 388.546 119.855C394.756 119.68 398.041 114.015 399.386 110.873L388.286 113.071Z" fill="#ED975D"/>
<path d="M400.531 109.665C400.531 109.665 403.787 104.522 404.565 100.123C405.12 96.9852 403.523 85.3453 391.827 87.0216C389.473 87.3488 387.224 88.1996 385.243 89.5114C382.703 91.228 379.039 94.9302 383.136 105.087L384.2 108.518L400.531 109.665Z" fill="#233862"/>
<path d="M344.041 314.253L349.926 314.433L356.295 314.628C356.295 314.628 371.005 298.248 379.259 271.992C379.452 271.38 379.653 270.764 379.868 270.139C384.384 256.97 393.747 240.441 398.68 225.479C399.466 223.095 400.172 220.852 400.804 218.729C401.006 218.057 401.203 217.385 401.391 216.712C405.029 204.08 406.08 195.783 407.05 186.922L371.418 187.207C371.418 187.207 365.671 247.735 344.041 314.253Z" fill="#2B478B"/>
<path d="M376.411 166.746C376.501 183.7 373.926 190.974 373.926 190.974C373.926 190.974 389.178 198.724 407.317 193.02C407.541 192.953 419.336 190.04 419.336 190.04C419.033 189.354 416.23 177.79 415.934 177.16C412.106 168.94 412.297 165.01 411.844 162.482C411.001 157.764 410.983 152.883 411.396 148.278C412.115 140.715 413.588 133.243 415.793 125.973C410.862 124.853 406.226 122.874 401.085 120.946C399.902 122.419 396.287 123.961 393.152 123.889C389.539 123.81 388.369 122.264 388.555 120.577C384.707 122.717 381.637 124.741 381.637 124.741C378.365 130.422 371.732 135.946 371.252 144.654C371.125 146.801 376.409 166.271 376.411 166.746Z" fill="#E7A33D"/>
<path d="M386.211 116.189C386.211 116.189 400.908 116.431 400.917 107.276C400.926 98.1213 402.831 91.9876 393.448 91.4453C384.064 90.903 382.242 94.3945 381.492 97.449C380.741 100.504 382.388 115.888 386.211 116.189Z" fill="#FFB27D"/>
<path d="M386.756 91.2235C386.756 91.2235 390.779 101.963 396.955 103.549C403.131 105.136 405.809 103.482 405.809 103.482C405.809 103.482 404.24 95.4321 403.261 88.8637C403.261 88.8637 389.79 86.1095 386.756 91.2235Z" fill="#233862"/>
<path d="M387.753 92.093C387.753 92.093 384.748 94.4909 384.015 96.8215C383.282 99.1522 382.953 103.953 381.55 103.789C381.55 103.789 378.518 96.4876 381.924 92.3596C385.541 87.9807 387.753 92.093 387.753 92.093Z" fill="#233862"/>
<path d="M404.89 323.464C404.642 325.804 404.904 328.169 405.657 330.398C405.657 330.398 406.641 334.88 402.224 334.967C397.806 335.055 396.722 334.633 397.222 331.884C397.721 329.134 398.674 324.376 398.674 324.376L404.89 323.464Z" fill="#FFB27D"/>
<path d="M396.638 337.632H406.308C406.703 335.642 405.826 331.397 405.683 330.582C405.683 330.519 405.663 330.474 405.656 330.445V330.4C400.656 334.983 397.526 330.281 397.526 330.281V330.306C396.782 332.103 396.627 336.928 396.638 337.632Z" fill="#233862"/>
<path d="M331.583 332.332C331.583 332.332 339.727 323.292 342.228 318.691L348.279 321.795L334.739 334.508L331.572 334.091L331.583 332.332Z" fill="#FFB27D"/>
<path d="M326.409 337.632H336.655C338.166 337.632 339.371 335.131 340.996 331.879C341.668 330.548 343.154 329.815 344.685 329.414L344.644 337.632H347.009L349.185 328.941C350.628 326.29 349.301 323.888 348.288 321.794C347.107 321.794 343.932 322.599 337.915 329.378C335.936 331.603 333.753 332.399 331.586 332.332C331.558 332.351 331.528 332.366 331.496 332.379C326.492 334.629 326.409 337.632 326.409 337.632Z" fill="#233862"/>
<path d="M349.926 314.43L356.295 314.625C356.295 314.625 371.005 298.246 379.259 271.99C379.452 271.378 379.653 270.762 379.868 270.136C384.384 256.968 393.747 240.438 398.68 225.477C399.466 223.093 400.172 220.849 400.804 218.727C401.006 218.055 401.203 217.382 401.391 216.71L396.145 212.73C396.145 212.73 380.393 238.235 375.516 262.239C371.281 283.103 354.316 308.194 349.926 314.43Z" fill="#233862"/>
<path d="M395.598 264.489C395.507 276.163 396.098 302.999 397.615 314.11H403.258C406.376 314.11 407.931 314.065 407.931 314.065C411.741 294.748 414.459 278.762 416.433 264.987C418.054 253.685 419.495 243.995 420.602 235.652C421.722 227.257 422.493 220.229 422.771 214.288C422.814 213.353 422.845 212.443 422.863 211.56C422.881 210.677 422.886 209.815 422.878 208.972L392.096 205.965C392.483 226.427 395.648 257.706 395.598 264.489Z" fill="#2B478B"/>
<path d="M403.261 314.11C406.378 314.11 407.933 314.065 407.933 314.065C411.743 294.747 414.461 278.762 416.436 264.987C418.056 253.685 419.497 243.995 420.604 235.651C421.725 227.256 422.495 220.229 422.773 214.288L411.476 220.932C411.476 220.932 418.686 223.476 415.936 242.731C413.186 261.986 407.088 311.385 403.261 314.11Z" fill="#233862"/>
<path d="M401.806 214.102C401.806 214.102 403.974 221.945 411.477 220.935C418.98 219.924 429.647 215.435 429.647 215.435C429.647 215.435 426.44 205.303 422.455 191.996C417.628 175.883 416.427 153.24 413.612 140.139C412.821 136.468 407.508 135.276 407.308 133.079L401.085 121.005C401.085 121.005 391.805 141.833 391.303 147.084C390.801 152.334 401.806 214.102 401.806 214.102Z" fill="#66C1F3"/>
<path d="M407.05 162.549C407.386 171.051 410.36 185.553 422.311 191.929C422.358 191.954 422.405 191.976 422.455 191.996C417.627 175.883 417.69 160.424 414.873 147.323C408.45 145.988 406.868 157.867 407.05 162.549Z" fill="#1CADFF"/>
<path d="M420.176 181.423C420.176 181.423 414.815 180.267 413.439 181.797C412.063 183.328 411.288 185.757 412.664 186.613C414.04 187.469 418.026 185.123 419.459 186.069C420.487 186.741 420.803 188.469 421.843 187.861C422.883 187.254 423.961 183.312 423.961 183.312L420.176 181.423Z" fill="#FFB27D"/>
<path d="M401.085 121.005C401.085 121.005 415.546 121.639 419.013 124.868C422.48 128.098 443.315 153.04 443.658 159.575C444.001 166.11 425.423 184.69 425.423 184.69C425.423 184.69 420.268 183.447 418.027 180.208C418.027 180.208 429.553 159.658 428.865 158.762C428.177 157.865 408.651 141.866 407.051 145.416C405.672 148.464 401.085 121.005 401.085 121.005Z" fill="#1CADFF"/>
<path d="M346.063 159.864C346.063 159.864 362.577 165.368 364.641 164.909C366.705 164.449 369.654 142.073 371.248 134.404C373.301 124.528 381.126 122.562 381.126 122.562L388.553 120.577C388.553 120.577 380.051 141.582 379.8 145.833C379.549 150.084 378.8 215.352 378.8 215.352C378.8 215.352 379.3 218.353 373.549 217.103C367.799 215.852 366.297 214.602 366.297 214.602C366.297 214.602 368.789 196.355 369.961 180.157C364.101 179.157 345.261 169.608 345.261 169.608C342.336 165.016 346.063 159.864 346.063 159.864Z" fill="#1CADFF"/>
<path d="M273.115 215.693H278.037L279.737 214.003H274.812L273.115 215.693Z" fill="#739AF0"/>
<path d="M267.08 221.708H271.983L273.671 220.031H268.763L267.08 221.708Z" fill="#739AF0"/>
<path d="M264.081 224.697H268.973L270.654 223.028H265.757L264.081 224.697Z" fill="#739AF0"/>
<path d="M290.992 217.683H288.412L289.752 216.361H292.336L290.992 217.683Z" fill="#739AF0"/>
<path d="M288.641 220.031H286.063L287.399 218.714H289.979L288.641 220.031Z" fill="#739AF0"/>
<path d="M289.524 215.33H286.938L288.28 214.003H290.868L289.524 215.33Z" fill="#739AF0"/>
<path d="M293.352 215.33H290.768L292.112 214.003H294.701L293.352 215.33Z" fill="#739AF0"/>
<path d="M297.114 215.33H294.528L295.877 214.003H298.466L297.114 215.33Z" fill="#739AF0"/>
<path d="M287.171 217.683H284.589L285.927 216.361H288.511L287.171 217.683Z" fill="#739AF0"/>
<path d="M294.748 217.683H292.166L293.511 216.361H296.095L294.748 217.683Z" fill="#739AF0"/>
<path d="M284.824 220.031H282.247L283.581 218.714H286.16L284.824 220.031Z" fill="#739AF0"/>
<path d="M292.39 220.031H289.812L291.153 218.714H293.732L292.39 220.031Z" fill="#739AF0"/>
<path d="M282.191 222.593H279.618L280.947 221.28H283.522L282.191 222.593Z" fill="#739AF0"/>
<path d="M286 222.593H283.428L284.761 221.28H287.336L286 222.593Z" fill="#739AF0"/>
<path d="M283.755 224.805H281.185L282.514 223.494H285.086L283.755 224.805Z" fill="#739AF0"/>
<path d="M289.746 222.593H287.173L288.508 221.28H291.083L289.746 222.593Z" fill="#739AF0"/>
<path d="M270.092 218.707H275.004L276.698 217.022H271.782L270.092 218.707Z" fill="#739AF0"/>
<path d="M304.929 215.693H309.85L311.587 214.003H306.659L304.929 215.693Z" fill="#739AF0"/>
<path d="M301.843 218.707H306.755L308.483 217.022H303.566L301.843 218.707Z" fill="#739AF0"/>
<path d="M298.768 221.708H303.671L305.392 220.031H300.486L298.768 221.708Z" fill="#739AF0"/>
<path d="M295.707 224.697H300.599L302.316 223.028H297.417L295.707 224.697Z" fill="#739AF0"/>
</g>
<defs>
<clipPath id="clip0_324_2118">
<rect width="530" height="338.871" fill="white"/>
</clipPath>
</defs>
</svg>
