<svg width="682" height="440" viewBox="0 0 682 440" fill="none" xmlns="http://www.w3.org/2000/svg">
<path d="M566.352 322.896H566.191C524.218 307.435 513.073 260.017 502.304 214.145C495.945 187.068 489.371 159.024 476.531 137.876C462.146 114.147 441.253 101.684 412.631 99.7883C363.519 96.5079 338.687 123.988 314.783 150.635C295.383 172.226 275.257 194.57 242.184 200.889C242.095 200.905 242.003 200.886 241.928 200.836C241.853 200.786 241.8 200.709 241.781 200.62C241.771 200.577 241.77 200.532 241.779 200.488C241.787 200.445 241.805 200.403 241.83 200.367C241.855 200.33 241.888 200.299 241.926 200.276C241.963 200.252 242.006 200.237 242.05 200.23C274.867 193.898 294.913 171.648 314.299 150.124C338.364 123.396 363.25 95.755 412.684 99.0354C441.536 100.944 462.616 113.515 477.123 137.446C490.016 158.728 496.604 186.786 502.976 213.917C513.732 259.627 524.796 306.844 566.433 322.183C566.504 322.213 566.562 322.267 566.598 322.334C566.634 322.402 566.646 322.479 566.632 322.555C566.618 322.63 566.579 322.698 566.52 322.748C566.462 322.798 566.389 322.826 566.312 322.829L566.352 322.896Z" fill="#D0D0D0"/>
<path d="M256.812 164.751C256.727 164.751 256.646 164.719 256.583 164.662C256.521 164.605 256.483 164.526 256.476 164.442C256.468 164.354 256.495 164.268 256.55 164.2C256.605 164.132 256.685 164.089 256.772 164.079C257 164.079 279.761 160.381 288.258 138.938C288.273 138.896 288.296 138.858 288.326 138.826C288.356 138.794 288.392 138.768 288.433 138.751C288.473 138.733 288.516 138.724 288.56 138.724C288.604 138.724 288.648 138.732 288.688 138.75C288.73 138.766 288.768 138.79 288.801 138.822C288.833 138.853 288.859 138.89 288.876 138.932C288.894 138.973 288.903 139.017 288.903 139.062C288.903 139.107 288.894 139.152 288.877 139.193C280.245 160.986 257.081 164.737 256.852 164.737L256.812 164.751Z" fill="white"/>
<path d="M355.734 48.8075C355.677 48.8198 355.617 48.8198 355.56 48.8075C355.483 48.7626 355.428 48.6894 355.405 48.6038C355.383 48.5182 355.395 48.4271 355.439 48.3504C361.594 38.4574 369.477 29.7506 378.711 22.6449C392.72 11.8895 415.817 1.13405 446.389 10.2627C446.431 10.2749 446.471 10.2955 446.505 10.3234C446.539 10.3513 446.566 10.3857 446.587 10.4248C446.607 10.4638 446.619 10.5065 446.622 10.5503C446.625 10.5941 446.619 10.6381 446.604 10.6795C446.592 10.7217 446.572 10.7609 446.544 10.7949C446.516 10.8288 446.481 10.8567 446.442 10.8768C446.403 10.897 446.361 10.9089 446.317 10.912C446.273 10.915 446.229 10.9091 446.188 10.8946C415.911 1.80627 393.015 12.5482 379.141 23.1692C369.965 30.2297 362.132 38.882 356.017 48.7133C355.981 48.7505 355.936 48.7785 355.887 48.7949C355.838 48.8113 355.786 48.8156 355.734 48.8075Z" fill="white"/>
<path d="M594.707 196.345C584.529 196.345 575.75 193.118 568.934 186.786C560.007 178.518 557.507 168.166 557.681 166.687C557.69 166.598 557.734 166.516 557.803 166.459C557.873 166.402 557.962 166.375 558.051 166.384C558.14 166.393 558.222 166.437 558.279 166.506C558.336 166.576 558.362 166.665 558.354 166.754C558.206 168.004 560.693 178.222 569.391 186.302C578.385 194.651 590.337 197.461 604.924 194.664C604.967 194.654 605.011 194.653 605.054 194.661C605.097 194.669 605.137 194.685 605.174 194.709C605.21 194.733 605.242 194.764 605.266 194.8C605.29 194.836 605.306 194.877 605.314 194.92C605.324 194.963 605.325 195.008 605.318 195.052C605.311 195.095 605.294 195.137 605.271 195.175C605.247 195.212 605.216 195.245 605.18 195.27C605.143 195.295 605.102 195.314 605.059 195.323C601.648 195.989 598.182 196.331 594.707 196.345Z" fill="white"/>
<path d="M534.759 260.729C534.682 260.732 534.607 260.708 534.546 260.661C534.485 260.615 534.441 260.549 534.423 260.474C529.906 242.19 539.922 232.792 544.197 228.772C544.934 228.201 545.571 227.511 546.079 226.729C546.084 226.685 546.098 226.642 546.12 226.603C546.141 226.564 546.17 226.53 546.206 226.502C546.241 226.475 546.281 226.454 546.324 226.443C546.367 226.431 546.411 226.427 546.456 226.433C546.544 226.45 546.622 226.499 546.675 226.572C546.727 226.644 546.75 226.734 546.738 226.823C546.738 227.388 545.918 228.167 544.668 229.27C540.473 233.209 530.659 242.418 535.082 260.313C535.103 260.4 535.089 260.492 535.044 260.569C534.999 260.647 534.926 260.704 534.84 260.729H534.759Z" fill="white"/>
<path d="M434.088 354.329C432.071 350.295 430.364 346.154 428.71 342.094C427.164 338.303 425.564 334.377 423.723 330.653C414.567 312.154 399.523 302.85 380.163 303.765C362.134 304.585 343.971 313.471 324.638 330.962L324.181 330.465C343.635 312.866 361.946 303.913 380.123 303.092C399.778 302.205 415.078 311.643 424.328 330.398C426.183 334.149 427.783 338.074 429.329 341.879C430.983 345.912 432.676 350.121 434.707 354.073L434.088 354.329Z" fill="#D0D0D0"/>
<path d="M283.203 421.644C281.966 421.687 280.731 421.505 279.56 421.106L279.815 420.488C279.99 420.555 298.516 427.21 326.225 383.758C347.453 350.51 364.864 330.868 386.119 335.708C407.374 340.548 408.974 374.334 410.104 394.554L409.431 394.648C408.369 374.562 406.608 341.059 385.971 336.354C365.092 331.608 347.857 351.142 326.816 384.121C305.776 417.1 289.952 421.644 283.203 421.644Z" fill="#D0D0D0"/>
<path d="M631.356 358.375C629.931 357.286 629.259 337.227 638.616 324.859C652.733 306.171 665.922 298.79 673.423 297.365C679.285 296.263 681.181 299.543 676.112 301.466C671.044 303.388 667.521 306.924 669.121 312.073C670.721 317.222 667.145 320.032 663.394 318.795C659.643 317.558 652.329 316.967 650.447 325.625C648.565 334.283 653.136 342.229 645.258 346.316C637.379 350.403 637.675 362.019 637.675 362.019L631.356 358.375Z" fill="#579B72"/>
<path d="M639.598 350.241C639.532 350.241 639.466 350.228 639.406 350.202C639.345 350.176 639.291 350.138 639.245 350.09C639.2 350.042 639.165 349.986 639.142 349.924C639.12 349.862 639.11 349.796 639.114 349.73C639.799 313.431 674.069 298.992 674.364 298.844C674.49 298.799 674.627 298.802 674.75 298.855C674.872 298.907 674.97 299.004 675.023 299.126C675.05 299.187 675.064 299.252 675.064 299.319C675.065 299.385 675.052 299.451 675.027 299.512C675.002 299.574 674.965 299.629 674.918 299.676C674.872 299.723 674.816 299.76 674.754 299.785C674.418 299.919 640.794 314.157 640.122 349.744C640.12 349.811 640.105 349.877 640.078 349.938C640.051 350 640.011 350.055 639.963 350.101C639.914 350.147 639.857 350.184 639.794 350.208C639.731 350.232 639.665 350.243 639.598 350.241Z" fill="#B4B4B4"/>
<path d="M641.17 383.234C642.891 382.199 641.964 361.145 639.705 338.612C637.809 319.898 636.384 315.636 649.923 301.708C663.461 287.779 664.711 278.637 655.825 273.878C649.102 270.302 635.255 277.777 630.536 295.886C625.817 313.996 628.022 321.014 618.436 326.741C606.175 334.082 601.564 341.852 605.879 350.416C612.265 363.081 629.958 375.651 625.884 387.899L641.17 383.234Z" fill="#349088"/>
<path d="M636.102 383.624C635.993 383.623 635.887 383.587 635.8 383.522C635.713 383.456 635.649 383.365 635.618 383.261C632.929 374.092 628.895 368.163 624.365 361.293C622.173 358.012 619.915 354.571 617.508 350.537C612.789 342.471 620.439 333.853 622.886 331.406C629.084 325.249 631.84 316.859 634.502 308.739C637.876 298.495 641.358 287.914 651.751 281.85C651.807 281.817 651.87 281.794 651.935 281.785C652 281.775 652.066 281.778 652.13 281.795C652.194 281.811 652.254 281.84 652.306 281.879C652.359 281.919 652.403 281.968 652.436 282.025C652.47 282.082 652.491 282.146 652.5 282.211C652.509 282.277 652.504 282.344 652.486 282.408C652.469 282.472 652.439 282.531 652.398 282.583C652.357 282.635 652.306 282.679 652.248 282.711C642.192 288.573 638.925 298.508 635.47 309.035C632.781 317.263 629.958 325.786 623.598 332.105C621.273 334.431 614.026 342.565 618.382 350.026C620.762 354.06 623.02 357.488 625.198 360.782C629.823 367.706 633.816 373.702 636.586 383.019C636.606 383.081 636.614 383.147 636.608 383.213C636.602 383.279 636.582 383.342 636.551 383.4C636.519 383.458 636.476 383.509 636.425 383.55C636.373 383.591 636.313 383.62 636.249 383.637L636.102 383.624Z" fill="#B4B4B4"/>
<path d="M552.747 433.65C553.295 432.377 553.549 430.997 553.491 429.612C553.433 428.227 553.064 426.873 552.411 425.651C548.862 418.848 540.486 407.595 519.97 403.414C498.029 398.964 482.864 403.736 484.907 410.136C486.951 416.535 505.074 408.415 515.345 418.444C521.893 424.79 532.393 439.767 543 439.337C548.889 439.095 551.564 436.339 552.747 433.65Z" fill="#276B65"/>
<path d="M551.174 436.594C551.047 436.594 550.924 436.546 550.832 436.458C550.739 436.371 550.684 436.251 550.677 436.124C550.677 436.016 549.615 424.938 527.082 413.43C504.549 401.921 485.62 408.119 485.405 408.186C485.343 408.21 485.277 408.22 485.212 408.217C485.146 408.213 485.081 408.197 485.022 408.168C484.963 408.139 484.91 408.098 484.868 408.048C484.825 407.998 484.792 407.94 484.773 407.877C484.75 407.815 484.739 407.748 484.742 407.681C484.745 407.615 484.762 407.549 484.791 407.489C484.819 407.429 484.86 407.375 484.91 407.331C484.96 407.287 485.019 407.253 485.082 407.232C485.27 407.165 504.455 400.752 527.512 412.529C550.569 424.306 551.618 435.586 551.712 436.056C551.716 436.189 551.67 436.318 551.582 436.418C551.495 436.518 551.373 436.581 551.241 436.594H551.174Z" fill="#B4B4B4"/>
<path d="M557.883 415.541C558.421 414.035 561.58 415.043 552.344 400.026C540.943 381.513 525.55 379.859 506.284 376.458C493.808 374.28 497.774 347.351 485.499 349.045C473.225 350.739 468.828 375.302 477.433 382.911C486.037 390.521 494.735 382.804 503.488 391.085C507.669 395.038 502.614 406.761 512.495 411.655C521.49 416.119 531.385 399.448 543.068 421.469L546.482 421.846L557.883 415.541Z" fill="#349088"/>
<path d="M553.03 418.686C552.963 418.685 552.898 418.67 552.837 418.642C552.776 418.615 552.722 418.575 552.677 418.526C552.632 418.478 552.597 418.42 552.574 418.358C552.552 418.295 552.542 418.228 552.546 418.162C552.546 418.054 552.693 407.407 537.206 395.159C527.674 387.644 516.501 385.25 505.679 382.938C501.094 381.957 496.752 381.029 492.571 379.725C479.785 375.692 482.326 357.69 482.353 357.501C482.373 357.37 482.444 357.251 482.551 357.171C482.658 357.092 482.792 357.058 482.924 357.078C483.056 357.098 483.175 357.169 483.254 357.276C483.334 357.383 483.368 357.517 483.348 357.649C483.348 357.824 480.914 375.046 492.866 378.77C497.007 380.115 501.323 380.975 505.894 381.957C516.824 384.296 528.117 386.702 537.824 394.366C553.769 406.936 553.567 417.745 553.54 418.202C553.539 418.268 553.524 418.332 553.497 418.392C553.471 418.451 553.433 418.505 553.385 418.55C553.338 418.595 553.282 418.63 553.221 418.654C553.16 418.677 553.095 418.688 553.03 418.686Z" fill="#B4B4B4"/>
<path d="M670.627 439.377H541.468C540.251 439.38 539.073 438.948 538.146 438.159C537.22 437.37 536.605 436.277 536.413 435.075L521.826 347.176L519.742 334.66C519.531 333.394 519.788 332.095 520.466 331.006C521.145 329.917 522.197 329.113 523.426 328.744C523.92 328.602 524.431 328.53 524.945 328.529H653.781C655.031 328.526 656.241 328.967 657.195 329.776C658.148 330.584 658.783 331.705 658.984 332.939L662.668 355.028L675.682 433.475C675.794 434.204 675.748 434.949 675.545 435.659C675.343 436.369 674.99 437.026 674.51 437.587C674.03 438.147 673.434 438.598 672.764 438.907C672.094 439.216 671.365 439.376 670.627 439.377Z" fill="#C8C8C8"/>
<path d="M674.566 437.508C674.795 437.199 680.616 429.98 680.616 429.98L664.188 425.126L668.691 432.332L674.566 437.508Z" fill="#AAAAAA"/>
<path d="M662.628 355.014L654.373 363.457L578.265 364.197L529.691 340.373L525.146 344.232C524.812 344.509 524.412 344.693 523.984 344.768C523.557 344.842 523.118 344.803 522.71 344.655C522.302 344.506 521.94 344.254 521.66 343.923C521.38 343.592 521.192 343.193 521.113 342.767L519.769 334.7C519.557 333.435 519.815 332.136 520.493 331.046C521.171 329.957 522.224 329.153 523.452 328.784C523.946 328.642 524.458 328.57 524.972 328.569H653.808C655.058 328.566 656.268 329.008 657.222 329.816C658.175 330.624 658.81 331.745 659.011 332.979L662.628 355.014Z" fill="#F42024"/>
<path d="M634.901 316.14L541.975 346.261C536.684 347.976 533.786 353.655 535.501 358.946L552.369 410.985C554.084 416.275 559.763 419.174 565.053 417.459L657.979 387.337C663.269 385.622 666.168 379.943 664.453 374.653L647.585 322.614C645.87 317.323 640.191 314.425 634.901 316.14Z" fill="#87B6DE"/>
<path d="M676.22 432.359H547.37C546.119 432.36 544.908 431.915 543.955 431.104C543.002 430.294 542.368 429.171 542.167 427.936L528.561 344.582C528.437 343.827 528.477 343.054 528.681 342.316C528.885 341.579 529.248 340.894 529.743 340.311C530.238 339.728 530.854 339.259 531.549 338.938C532.243 338.617 532.999 338.45 533.764 338.451H662.614C663.867 338.454 665.077 338.902 666.03 339.714C666.983 340.527 667.617 341.651 667.817 342.888L681.423 426.242C681.546 426.996 681.503 427.768 681.298 428.503C681.093 429.239 680.731 429.922 680.236 430.504C679.741 431.085 679.125 431.553 678.432 431.873C677.738 432.194 676.984 432.359 676.22 432.359Z" fill="#F1AA56"/>
<path d="M676.099 393.586C676.007 393.042 675.726 392.548 675.305 392.192C674.885 391.835 674.351 391.638 673.8 391.636H672.939L676.852 389.042L678.344 390.763L676.099 393.586Z" fill="#1A1D30"/>
<path d="M676.434 391.636H639.718C639.105 391.627 638.514 391.409 638.042 391.018C637.57 390.627 637.246 390.086 637.123 389.485L634.313 374.535C634.25 374.156 634.268 373.767 634.368 373.395C634.467 373.024 634.645 372.678 634.89 372.381C635.135 372.084 635.44 371.843 635.786 371.674C636.132 371.505 636.51 371.413 636.895 371.403H673.571C674.184 371.412 674.775 371.63 675.247 372.021C675.719 372.413 676.043 372.953 676.165 373.554L678.975 388.504C679.039 388.88 679.021 389.266 678.924 389.635C678.827 390.003 678.652 390.348 678.412 390.644C678.172 390.94 677.871 391.182 677.53 391.353C677.189 391.524 676.815 391.621 676.434 391.636Z" fill="#F42024"/>
<path d="M657.989 385.304C656.134 388.531 651.683 389.459 648.067 387.361C644.45 385.264 643.039 380.975 644.894 377.749C646.749 374.522 651.199 373.594 654.816 375.678C658.432 377.762 659.858 382.078 657.989 385.304Z" fill="white"/>
<path d="M139.511 397.982C140.506 395.589 139.511 364.304 125.892 339.19C109.1 308.201 84.3489 304.087 53.4539 296.908C33.4758 292.27 42.2952 249.046 22.2767 250.7C2.25814 252.354 -7.05874 291.705 6.14354 304.786C19.3458 317.868 34.148 306.131 47.5653 320.328C53.9917 327.117 44.7689 345.63 60.3105 354.436C74.4673 362.503 91.9852 336.367 108.912 373.056C120.904 399.044 120.433 407.151 120.433 407.151L139.511 397.982Z" fill="#579B72"/>
<path d="M131.418 402.378C131.292 402.379 131.172 402.332 131.079 402.247C130.987 402.162 130.93 402.046 130.92 401.921C130.92 401.41 126.215 351.115 102.002 329.752C87.2129 316.698 69.2917 311.818 51.9755 307.099C44.6349 305.096 37.6977 303.213 31.0696 300.74C10.9436 293.251 16.6574 264.507 16.7246 264.212C16.7374 264.147 16.7629 264.085 16.7997 264.031C16.8365 263.976 16.8838 263.929 16.9388 263.893C16.9939 263.857 17.0556 263.832 17.1203 263.819C17.1851 263.807 17.2517 263.808 17.3162 263.822C17.445 263.851 17.5576 263.929 17.6303 264.039C17.703 264.149 17.7301 264.283 17.706 264.413C17.706 264.696 12.1401 292.646 31.4192 299.799C38.0069 302.245 44.8635 304.128 52.2309 306.131C69.7085 310.877 87.7104 315.784 102.674 328.986C127.183 350.631 131.942 401.316 131.942 401.827C131.949 401.894 131.943 401.961 131.924 402.025C131.905 402.089 131.873 402.148 131.831 402.2C131.788 402.251 131.735 402.294 131.676 402.324C131.617 402.355 131.552 402.373 131.485 402.378H131.418Z" fill="#B4B4B4"/>
<path d="M161.438 329.322C162.272 326.055 131.942 323.205 103.534 298.145C87.4007 283.894 83.6497 253.658 76.3495 221.432C69.1702 189.69 66.9385 176.528 50.8053 181.207C38.6383 184.756 30.7599 209.977 46.315 237.189C61.87 264.4 72.7733 270.221 68.0275 288.277C61.9506 311.428 65.5403 326.136 80.7457 331.299C103.225 338.975 139.148 333.288 148.612 352.742L161.438 329.322Z" fill="#6AAE87"/>
<path d="M155.308 335.56C155.223 335.559 155.139 335.536 155.066 335.493C141.003 327.669 129.306 325.208 115.741 322.345C109.288 321 102.606 319.575 94.9294 317.478C80.0332 313.445 79.1189 294.34 79.1862 288.6C79.3744 273.878 72.827 260.555 66.4813 247.675C58.5358 231.542 50.3482 214.831 55.6452 195.525C55.6629 195.461 55.6929 195.402 55.7335 195.35C55.7742 195.298 55.8246 195.254 55.8821 195.222C55.9395 195.19 56.0027 195.169 56.0682 195.161C56.1337 195.153 56.2001 195.158 56.2637 195.175C56.3272 195.193 56.3867 195.223 56.4387 195.264C56.4906 195.304 56.5341 195.355 56.5665 195.412C56.599 195.47 56.6198 195.533 56.6278 195.598C56.6358 195.664 56.6309 195.73 56.6132 195.794C51.3969 214.723 59.1676 230.507 67.3687 247.232C73.7681 260.219 80.3693 273.65 80.181 288.613C80.1138 294.166 80.9742 312.611 95.1714 316.51C102.821 318.607 109.49 320.005 115.943 321.363C129.575 324.24 141.353 326.741 155.536 334.606C155.633 334.661 155.71 334.747 155.753 334.85C155.797 334.953 155.806 335.067 155.778 335.175C155.751 335.284 155.689 335.38 155.601 335.449C155.514 335.519 155.406 335.558 155.294 335.56H155.308Z" fill="#B4B4B4"/>
<path d="M218.241 423.419C214.96 421.133 211.518 376.431 231.174 347.943C260.845 304.921 289.549 287.148 306.139 283.262C319.099 280.224 323.617 287.376 312.404 292.135C301.192 296.895 293.784 305.163 297.844 316.51C301.904 327.857 294.187 334.445 285.744 332.172C277.301 329.9 260.913 329.161 257.511 348.642C254.11 368.122 265.013 385.425 247.939 395.307C230.865 405.188 232.545 431.069 232.545 431.069L218.241 423.419Z" fill="#61A87F"/>
<path d="M235.785 403.898C235.653 403.898 235.527 403.845 235.433 403.752C235.34 403.659 235.288 403.532 235.288 403.4C234.252 361.306 254.257 331.93 271.211 314.668C282.111 303.502 294.751 294.181 308.64 287.067C308.698 287.038 308.763 287.021 308.828 287.017C308.894 287.014 308.959 287.024 309.021 287.046C309.083 287.069 309.139 287.104 309.187 287.149C309.234 287.194 309.272 287.249 309.298 287.309C309.328 287.369 309.345 287.434 309.348 287.5C309.352 287.567 309.342 287.633 309.32 287.696C309.297 287.759 309.262 287.816 309.217 287.865C309.172 287.914 309.117 287.954 309.056 287.981C295.274 295.051 282.729 304.309 271.91 315.394C255.091 332.495 235.274 361.642 236.296 403.373C236.296 403.506 236.244 403.634 236.151 403.73C236.058 403.825 235.932 403.881 235.798 403.884L235.785 403.898Z" fill="#B4B4B4"/>
<path d="M222.691 411.292C221.54 409.906 220.717 408.279 220.282 406.531C219.846 404.783 219.81 402.959 220.177 401.195C222.099 391.395 228.418 374.307 252.443 361.548C278.175 347.929 298.853 348.319 298.637 357.031C298.422 365.743 272.905 362.288 263.682 378.542C257.861 388.854 250.238 411.386 236.794 414.747C229.534 416.656 225.191 414.21 222.691 411.292Z" fill="#349188"/>
<path d="M225.581 414.25C225.467 414.252 225.356 414.214 225.268 414.143C225.179 414.071 225.119 413.971 225.097 413.86C224.962 413.268 222.085 398.964 246.527 375.786C270.969 352.608 297.158 353.629 297.413 353.643C297.547 353.653 297.67 353.715 297.758 353.816C297.846 353.916 297.891 354.047 297.884 354.181C297.881 354.246 297.864 354.31 297.836 354.369C297.808 354.428 297.768 354.481 297.72 354.525C297.671 354.568 297.614 354.602 297.552 354.624C297.49 354.646 297.425 354.655 297.36 354.651C297.104 354.651 271.278 353.71 247.226 376.525C223.174 399.34 226.051 413.497 226.051 413.645C226.075 413.775 226.048 413.909 225.976 414.019C225.903 414.129 225.79 414.207 225.661 414.236L225.581 414.25Z" fill="#B4B4B4"/>
<path d="M157.903 423.62C159.098 421.419 159.781 418.975 159.9 416.472C160.018 413.97 159.57 411.473 158.588 409.168C153.305 396.302 140.035 374.656 103.695 363.793C64.8682 352.177 36.7428 358.335 39.3913 370.179C42.0399 382.024 75.9463 370.354 92.9399 390.117C103.695 402.62 120.205 431.324 139.403 432.278C150.011 432.803 155.281 428.285 157.903 423.62Z" fill="#349188"/>
<path d="M154.622 428.272C154.556 428.272 154.491 428.259 154.43 428.233C154.369 428.207 154.315 428.169 154.27 428.121C154.224 428.073 154.189 428.017 154.167 427.955C154.144 427.893 154.134 427.827 154.138 427.761C154.138 427.56 154.138 407.232 115.082 382.642C76.0264 358.053 40.8562 366.254 40.5201 366.375C40.4565 366.393 40.3899 366.398 40.3244 366.389C40.2588 366.38 40.1958 366.358 40.1391 366.324C40.0824 366.29 40.0333 366.245 39.9948 366.191C39.9562 366.137 39.9291 366.076 39.9151 366.012C39.899 365.948 39.8957 365.882 39.9052 365.817C39.9148 365.752 39.9371 365.69 39.9708 365.634C40.0045 365.577 40.049 365.529 40.1018 365.49C40.1545 365.451 40.2144 365.422 40.2781 365.407C40.6411 365.313 76.1071 356.896 115.566 381.795C155.025 406.694 155.106 426.941 155.092 427.788C155.086 427.912 155.035 428.03 154.948 428.119C154.862 428.208 154.746 428.262 154.622 428.272Z" fill="#B4B4B4"/>
<path d="M254.688 428.635L248.127 436.137L241.768 435.492L249.216 427.949L254.688 428.635Z" fill="#1A1D30"/>
<path d="M83.501 191.37L90.0483 183.949L86.7814 195.39L83.501 191.37Z" fill="#1A1D30"/>
<path d="M133.084 439.162H241.351C242.794 439.211 244.23 438.93 245.548 438.34C246.867 437.751 248.033 436.868 248.959 435.76C249.884 434.651 250.545 433.346 250.89 431.944C251.235 430.541 251.256 429.079 250.95 427.667L213.145 198.953C212.549 195.792 210.891 192.929 208.446 190.839C206.001 188.748 202.916 187.556 199.7 187.458H91.474C90.0317 187.411 88.5977 187.694 87.281 188.284C85.9643 188.875 84.7996 189.758 83.8754 190.866C82.9512 191.974 82.2919 193.279 81.9475 194.68C81.6032 196.081 81.5829 197.543 81.8882 198.953L119.694 427.667C120.285 430.82 121.934 433.678 124.369 435.768C126.803 437.858 129.877 439.055 133.084 439.162Z" fill="#1A1D30"/>
<path d="M248.906 435.801L253.491 430.544L247.186 429.133L247.777 431.727L248.906 435.801Z" fill="#1A1D30"/>
<path d="M138.341 433.193H246.608C248.051 433.239 249.485 432.956 250.802 432.366C252.119 431.776 253.284 430.893 254.21 429.785C255.135 428.677 255.795 427.373 256.142 425.972C256.488 424.571 256.51 423.109 256.207 421.698L218.402 192.984C217.806 189.823 216.148 186.96 213.703 184.87C211.259 182.779 208.173 181.586 204.958 181.489H96.7313C95.2882 181.439 93.8529 181.72 92.5349 182.31C91.2168 182.899 90.0509 183.782 89.1262 184.891C88.2014 186 87.5423 187.306 87.199 188.708C86.8557 190.111 86.8374 191.573 87.1455 192.984L124.951 421.698C125.542 424.851 127.191 427.709 129.626 429.799C132.06 431.888 135.135 433.086 138.341 433.193Z" fill="#87B6DE"/>
<path d="M143.114 425.207H239.2C240.52 425.251 241.833 424.993 243.038 424.454C244.243 423.914 245.31 423.107 246.156 422.093C247.003 421.08 247.607 419.886 247.923 418.604C248.239 417.322 248.258 415.984 247.979 414.693L212.473 199.975C211.933 197.092 210.427 194.48 208.203 192.568C205.979 190.657 203.17 189.561 200.239 189.461H104.139C102.819 189.417 101.507 189.674 100.302 190.214C99.097 190.753 98.0311 191.561 97.1856 192.575C96.3401 193.589 95.7373 194.783 95.4232 196.065C95.1092 197.348 95.0921 198.685 95.3733 199.975L130.866 414.653C131.398 417.545 132.903 420.169 135.13 422.088C137.358 424.008 140.175 425.108 143.114 425.207Z" fill="white"/>
<path d="M131.995 428.823H251.206L211.639 189.475H92.4287L131.995 428.823Z" fill="#4477A6"/>
<path d="M94.7007 259.842C94.8955 259.844 95.0886 259.804 95.2664 259.724C95.4442 259.645 95.6025 259.527 95.7304 259.38C95.8583 259.233 95.9527 259.06 96.007 258.873C96.0613 258.686 96.0743 258.489 96.0451 258.296L93.168 241.222C93.0842 240.8 92.861 240.418 92.5344 240.138C92.2078 239.857 91.7965 239.695 91.3665 239.676C91.1716 239.674 90.9786 239.714 90.8008 239.794C90.623 239.873 90.4646 239.991 90.3368 240.138C90.2089 240.285 90.1145 240.458 90.0601 240.645C90.0058 240.833 89.9928 241.029 90.0221 241.222L92.9529 258.296C93.0322 258.711 93.2468 259.088 93.5631 259.367C93.8793 259.647 94.2794 259.814 94.7007 259.842Z" fill="#87B6DE"/>
<path d="M98.2498 281.366C98.4447 281.369 98.6377 281.328 98.8155 281.249C98.9933 281.169 99.1517 281.051 99.2796 280.904C99.4074 280.757 99.5018 280.584 99.5561 280.397C99.6105 280.21 99.6235 280.013 99.5942 279.82L96.7172 262.733C96.6401 262.307 96.419 261.921 96.0909 261.64C95.7628 261.358 95.3478 261.198 94.9156 261.187C94.7164 261.169 94.5158 261.198 94.3302 261.273C94.1447 261.347 93.9794 261.465 93.8482 261.616C93.7169 261.767 93.6234 261.947 93.5753 262.141C93.5271 262.335 93.5257 262.538 93.5712 262.733L96.3945 279.82C96.4758 280.253 96.7055 280.645 97.0441 280.927C97.3827 281.209 97.8091 281.365 98.2498 281.366Z" fill="#87B6DE"/>
<path d="M226.522 242.123C226.717 242.125 226.91 242.085 227.087 242.005C227.265 241.925 227.424 241.807 227.552 241.66C227.679 241.513 227.774 241.34 227.828 241.153C227.882 240.966 227.895 240.769 227.866 240.576L225.258 225.089C225.174 224.668 224.95 224.288 224.623 224.01C224.296 223.732 223.885 223.572 223.456 223.556C223.259 223.539 223.06 223.568 222.875 223.642C222.691 223.716 222.527 223.832 222.396 223.982C222.265 224.131 222.171 224.309 222.122 224.501C222.072 224.694 222.069 224.895 222.112 225.089L224.666 240.536C224.739 240.977 224.965 241.377 225.305 241.668C225.644 241.958 226.075 242.119 226.522 242.123Z" fill="#87B6DE"/>
<path d="M163.28 186.759H171.051C171.228 186.765 171.405 186.73 171.567 186.658C171.729 186.586 171.872 186.477 171.986 186.341C172.1 186.205 172.182 186.045 172.225 185.873C172.268 185.701 172.271 185.521 172.234 185.347C172.161 184.961 171.959 184.611 171.661 184.354C171.363 184.098 170.987 183.95 170.594 183.936H162.863C162.686 183.93 162.51 183.964 162.347 184.037C162.185 184.109 162.042 184.217 161.928 184.353C161.814 184.489 161.732 184.65 161.69 184.822C161.647 184.994 161.643 185.174 161.68 185.347C161.751 185.727 161.948 186.073 162.237 186.328C162.527 186.584 162.894 186.736 163.28 186.759Z" fill="#1A1D30"/>
<path d="M154.581 185.347C154.652 185.735 154.853 186.086 155.152 186.343C155.45 186.6 155.828 186.747 156.222 186.759C156.399 186.765 156.575 186.73 156.738 186.658C156.9 186.586 157.043 186.477 157.157 186.341C157.271 186.205 157.353 186.045 157.395 185.873C157.438 185.701 157.442 185.521 157.405 185.347C157.329 184.96 157.124 184.61 156.824 184.353C156.524 184.097 156.146 183.95 155.751 183.936C155.574 183.929 155.398 183.964 155.236 184.036C155.075 184.109 154.932 184.217 154.819 184.354C154.706 184.49 154.625 184.651 154.584 184.823C154.543 184.995 154.542 185.175 154.581 185.347Z" fill="#1A1D30"/>
<path d="M139.363 185.347C139.439 185.735 139.643 186.085 139.943 186.342C140.244 186.598 140.622 186.745 141.016 186.759C141.194 186.765 141.37 186.731 141.531 186.659C141.693 186.586 141.836 186.478 141.949 186.341C142.062 186.205 142.142 186.044 142.183 185.872C142.224 185.7 142.225 185.52 142.186 185.347C142.116 184.96 141.914 184.608 141.616 184.351C141.317 184.095 140.94 183.948 140.546 183.936C140.369 183.93 140.192 183.964 140.03 184.037C139.868 184.109 139.725 184.217 139.611 184.353C139.497 184.489 139.415 184.65 139.372 184.822C139.329 184.994 139.326 185.174 139.363 185.347Z" fill="#1A1D30"/>
<path d="M145.682 185.347C145.799 185.985 146.128 186.565 146.616 186.992C147.105 187.419 147.723 187.668 148.37 187.7C148.666 187.711 148.96 187.654 149.231 187.534C149.501 187.414 149.74 187.233 149.93 187.006C150.119 186.779 150.254 186.511 150.324 186.224C150.394 185.936 150.397 185.636 150.333 185.347C150.214 184.711 149.883 184.133 149.396 183.706C148.908 183.279 148.291 183.029 147.644 182.995C147.349 182.986 147.057 183.045 146.788 183.166C146.519 183.287 146.281 183.468 146.092 183.694C145.903 183.921 145.768 184.187 145.697 184.474C145.625 184.76 145.62 185.059 145.682 185.347Z" fill="#1A1D30"/>
<path d="M131.296 217.049C132.314 217.049 133.138 216.224 133.138 215.207C133.138 214.19 132.314 213.365 131.296 213.365C130.279 213.365 129.455 214.19 129.455 215.207C129.455 216.224 130.279 217.049 131.296 217.049Z" fill="white"/>
<path d="M183.285 220.639C183.282 221.002 183.172 221.357 182.968 221.658C182.764 221.959 182.475 222.193 182.138 222.331C181.802 222.468 181.432 222.503 181.075 222.43C180.719 222.358 180.392 222.181 180.136 221.923C179.88 221.665 179.705 221.337 179.635 220.98C179.566 220.623 179.603 220.253 179.743 219.917C179.882 219.582 180.118 219.295 180.421 219.093C180.724 218.891 181.079 218.783 181.443 218.783C181.686 218.783 181.927 218.832 182.151 218.925C182.375 219.018 182.579 219.155 182.75 219.328C182.921 219.5 183.057 219.705 183.148 219.93C183.24 220.155 183.287 220.396 183.285 220.639Z" fill="white"/>
<path d="M142.401 209.184C142.401 209.45 142.322 209.71 142.175 209.931C142.027 210.152 141.817 210.325 141.571 210.426C141.326 210.528 141.055 210.555 140.795 210.503C140.534 210.451 140.294 210.323 140.106 210.135C139.918 209.947 139.79 209.707 139.738 209.447C139.686 209.186 139.713 208.915 139.815 208.67C139.917 208.424 140.089 208.214 140.31 208.066C140.531 207.919 140.791 207.84 141.057 207.84C141.413 207.84 141.755 207.981 142.007 208.234C142.26 208.486 142.401 208.828 142.401 209.184Z" fill="white"/>
<path d="M156.034 202.301C156.034 202.567 155.955 202.827 155.807 203.048C155.66 203.269 155.45 203.441 155.204 203.543C154.958 203.645 154.688 203.671 154.427 203.619C154.167 203.567 153.927 203.439 153.739 203.251C153.551 203.063 153.423 202.824 153.371 202.563C153.319 202.302 153.346 202.032 153.448 201.786C153.549 201.541 153.722 201.331 153.943 201.183C154.164 201.035 154.424 200.956 154.69 200.956C155.046 200.956 155.388 201.098 155.64 201.35C155.892 201.602 156.034 201.944 156.034 202.301Z" fill="white"/>
<path d="M171.575 205.285C171.575 205.551 171.496 205.811 171.348 206.032C171.201 206.253 170.991 206.426 170.745 206.527C170.499 206.629 170.229 206.656 169.968 206.604C169.708 206.552 169.468 206.424 169.28 206.236C169.092 206.048 168.964 205.808 168.912 205.548C168.86 205.287 168.887 205.017 168.989 204.771C169.09 204.525 169.263 204.315 169.484 204.167C169.705 204.02 169.965 203.941 170.231 203.941C170.587 203.941 170.929 204.083 171.181 204.335C171.433 204.587 171.575 204.929 171.575 205.285Z" fill="white"/>
<path d="M187.399 210.932C187.399 211.178 187.301 211.414 187.127 211.588C186.953 211.762 186.717 211.86 186.471 211.86C186.225 211.86 185.989 211.762 185.815 211.588C185.641 211.414 185.543 211.178 185.543 210.932C185.543 210.686 185.641 210.45 185.815 210.276C185.989 210.102 186.225 210.004 186.471 210.004C186.717 210.004 186.953 210.102 187.127 210.276C187.301 210.45 187.399 210.686 187.399 210.932Z" fill="white"/>
<path d="M166.963 214.885C166.965 215.006 166.943 215.126 166.898 215.239C166.853 215.351 166.786 215.454 166.7 215.54C166.615 215.626 166.514 215.695 166.402 215.741C166.29 215.788 166.17 215.812 166.049 215.812C165.803 215.812 165.567 215.715 165.393 215.541C165.219 215.367 165.122 215.131 165.122 214.885C165.122 214.639 165.219 214.403 165.393 214.229C165.567 214.055 165.803 213.957 166.049 213.957C166.17 213.957 166.29 213.981 166.402 214.028C166.514 214.075 166.615 214.143 166.7 214.23C166.786 214.316 166.853 214.418 166.898 214.531C166.943 214.643 166.965 214.764 166.963 214.885Z" fill="white"/>
<path d="M142.401 226.245C142.401 226.366 142.377 226.486 142.33 226.598C142.283 226.71 142.215 226.811 142.129 226.896C142.042 226.981 141.94 227.048 141.827 227.094C141.715 227.139 141.595 227.161 141.473 227.159C141.353 227.161 141.233 227.139 141.121 227.093C141.01 227.048 140.908 226.981 140.823 226.896C140.738 226.81 140.67 226.709 140.625 226.597C140.58 226.485 140.557 226.366 140.559 226.245C140.557 226.124 140.58 226.004 140.625 225.891C140.67 225.779 140.737 225.676 140.822 225.59C140.907 225.504 141.009 225.435 141.12 225.388C141.232 225.341 141.352 225.317 141.473 225.317C141.719 225.317 141.955 225.415 142.129 225.589C142.303 225.763 142.401 225.999 142.401 226.245Z" fill="white"/>
<path d="M156.867 230.332C156.798 230.334 156.729 230.314 156.672 230.276C156.614 230.237 156.569 230.182 156.544 230.117C154.891 225.573 147.98 222.817 147.913 222.79C147.844 222.749 147.792 222.686 147.765 222.61C147.739 222.534 147.741 222.452 147.77 222.377C147.799 222.302 147.854 222.241 147.924 222.203C147.995 222.165 148.077 222.154 148.155 222.171C148.451 222.279 155.429 225.062 157.176 229.888C157.207 229.972 157.202 230.065 157.165 230.145C157.127 230.226 157.058 230.288 156.975 230.319L156.867 230.332Z" fill="white"/>
<path d="M166.896 231.596C166.813 231.6 166.731 231.571 166.669 231.516C166.606 231.461 166.567 231.383 166.56 231.3C165.861 223.664 173.686 215.624 174.022 215.288C174.087 215.226 174.174 215.191 174.264 215.191C174.354 215.191 174.441 215.226 174.506 215.288C174.565 215.355 174.598 215.441 174.598 215.53C174.598 215.619 174.565 215.705 174.506 215.772C174.425 215.853 166.56 223.919 167.233 231.246C167.236 231.291 167.231 231.335 167.218 231.377C167.204 231.419 167.182 231.458 167.153 231.492C167.125 231.526 167.09 231.554 167.05 231.574C167.011 231.594 166.967 231.606 166.923 231.609L166.896 231.596Z" fill="white"/>
<path d="M161.868 231.596C161.779 231.596 161.693 231.56 161.63 231.497C161.567 231.434 161.532 231.349 161.532 231.26C161.532 219.872 155.805 213.648 155.751 213.594C155.718 213.563 155.692 213.525 155.675 213.483C155.657 213.442 155.648 213.397 155.648 213.352C155.648 213.307 155.657 213.262 155.675 213.22C155.692 213.179 155.718 213.141 155.751 213.11C155.814 213.048 155.898 213.014 155.986 213.014C156.074 213.014 156.159 213.048 156.221 213.11C156.221 213.177 162.244 219.59 162.191 231.246C162.192 231.29 162.185 231.334 162.17 231.376C162.155 231.417 162.132 231.455 162.102 231.488C162.072 231.52 162.036 231.547 161.996 231.565C161.955 231.584 161.912 231.594 161.868 231.596Z" fill="white"/>
<path d="M169.491 386.439C176.772 380.902 177.527 369.643 171.177 361.291C164.826 352.94 153.775 350.659 146.494 356.196C139.212 361.733 138.457 372.991 144.808 381.343C151.158 389.694 162.209 391.976 169.491 386.439Z" fill="white"/>
<path d="M166.399 372.33L161.115 365.434L155.845 358.537L152.713 365.434L149.58 372.33H155.657L157.378 383.409H162.029L160.309 372.33H166.399Z" fill="#C73031"/>
<path d="M220.956 361.064C227.316 369.413 226.549 380.679 219.276 386.205C212.003 391.73 200.938 389.472 194.592 381.123C188.247 372.774 188.999 361.508 196.273 355.969C203.546 350.43 214.611 352.715 220.956 361.064Z" fill="white"/>
<path d="M216.21 369.399L213.091 376.296L209.972 383.193L204.689 376.296L199.392 369.399H205.482L203.734 358.308H208.399L210.134 369.399H216.21Z" fill="#48A871"/>
<path d="M222.421 326.378H130.113C129.865 326.379 129.62 326.433 129.395 326.538C129.169 326.642 128.969 326.794 128.808 326.983C128.648 327.172 128.529 327.394 128.462 327.633C128.395 327.872 128.38 328.123 128.419 328.368L129.683 336.058C129.817 336.891 130.53 337.496 130.597 336.73H222.905C224.72 337.496 225.594 336.555 225.366 335.507L224.102 327.816C224.036 327.417 223.831 327.054 223.523 326.791C223.216 326.528 222.826 326.382 222.421 326.378Z" fill="#669DCF"/>
<path d="M218.59 306.857H126.282C126.033 306.858 125.788 306.912 125.563 307.017C125.338 307.121 125.138 307.273 124.977 307.462C124.816 307.651 124.698 307.873 124.631 308.112C124.563 308.351 124.549 308.601 124.588 308.847L125.851 316.537C125.915 316.937 126.119 317.302 126.427 317.565C126.735 317.829 127.127 317.974 127.532 317.975H219.84C220.089 317.975 220.334 317.92 220.559 317.815C220.784 317.711 220.984 317.559 221.145 317.37C221.306 317.181 221.424 316.959 221.491 316.72C221.558 316.481 221.573 316.231 221.534 315.986L220.27 308.295C220.207 307.895 220.003 307.531 219.695 307.267C219.387 307.004 218.995 306.858 218.59 306.857Z" fill="#669DCF"/>
<path d="M205.145 413.309H169.585C169.194 413.309 168.814 413.176 168.509 412.932C168.203 412.687 167.99 412.346 167.905 411.964C167.857 411.716 167.865 411.461 167.927 411.216C167.99 410.972 168.105 410.744 168.266 410.549C168.426 410.354 168.627 410.196 168.855 410.088C169.083 409.979 169.333 409.922 169.585 409.921H205.199C205.589 409.921 205.966 410.055 206.27 410.299C206.573 410.544 206.783 410.885 206.866 411.265C206.919 411.517 206.915 411.778 206.852 412.028C206.789 412.278 206.67 412.51 206.505 412.707C206.339 412.904 206.13 413.061 205.894 413.165C205.659 413.269 205.403 413.319 205.145 413.309Z" fill="#669DCF"/>
<path d="M436.347 227.926C433.994 228.235 427.877 224.954 425.672 220.572C409.391 219.483 389.937 208.66 373.616 207.719C382.314 191.492 379.141 164.361 380.244 138.642C389.362 139.139 398.414 140.489 407.28 142.675C414.891 144.538 422.365 146.919 429.651 149.801C432.784 151.051 447.761 154.547 450.853 155.958C446.672 172.71 437.745 188.225 436.911 199.706C436.911 199.679 444.843 226.81 436.347 227.926Z" fill="#8FB1D5"/>
<path d="M427.151 148.819C427.151 148.819 425.228 154.009 418.143 157.155C403.771 163.554 403.919 146.211 407.28 142.635C414.055 144.172 420.7 146.24 427.151 148.819Z" fill="#FFBB96"/>
<path d="M436.898 132.713L435.728 133.789C434.609 130.894 433.26 128.093 431.695 125.413L420.94 137.082L422.136 141.237L411.381 131.557L424.153 113.34L434.908 118.812C436.139 119.433 437.202 120.342 438.006 121.462C438.81 122.582 439.332 123.879 439.527 125.244C439.723 126.608 439.585 128 439.128 129.3C438.67 130.601 437.905 131.772 436.898 132.713Z" fill="#613830"/>
<path d="M435.782 133.789L425.027 143.737L422.943 141.963L422.136 141.237L420.939 137.082L431.695 125.413C433.278 128.092 434.645 130.892 435.782 133.789Z" fill="#1A1D30"/>
<path d="M428.764 136.746L426.223 144.423L424.314 149.922L423.252 152.947L410.265 149.908L411.744 145.66L411.838 145.405L413.371 141.008L413.935 139.287L416.221 132.377L428.764 136.746Z" fill="#FFBB96"/>
<path d="M419.904 142.756C417.407 144.149 414.671 145.061 411.838 145.445L413.357 141.062L413.935 139.328L419.904 142.756Z" fill="#1A1D30"/>
<path d="M412.294 142.164C413.418 142.784 414.653 143.177 415.928 143.319C417.203 143.461 418.494 143.35 419.726 142.993C420.959 142.636 422.109 142.04 423.11 141.237C424.112 140.435 424.946 139.444 425.564 138.319L426.908 135.859L432.098 126.69C432.353 125.117 426.088 118.825 416.516 120.627L411.407 130.979C408.274 136.813 409.216 140.47 412.294 142.164Z" fill="#FFBB96"/>
<path d="M428.307 132.7C427.931 132.963 427.636 133.327 427.456 133.75C427.277 134.172 427.218 134.637 427.289 135.09C427.359 135.544 427.555 135.969 427.854 136.317C428.154 136.666 428.545 136.923 428.983 137.061C429.421 137.198 429.889 137.211 430.334 137.096C430.778 136.982 431.182 136.745 431.499 136.413C431.816 136.081 432.034 135.666 432.128 135.217C432.222 134.767 432.189 134.301 432.031 133.869C431.683 133.23 431.1 132.75 430.405 132.532C429.711 132.314 428.958 132.374 428.307 132.7Z" fill="#FFBB96"/>
<path d="M454.981 104.776L443.459 106.094L444.01 61.4317L452.252 61.0149L454.981 104.776Z" fill="#FFBB96"/>
<path d="M394.844 62.9373L388.297 63.8111L385.111 104.386L373.629 102.746L380.257 62.4129C380.498 60.9243 380.862 59.4582 381.346 58.0301L384.102 49.7484C384.22 49.3629 384.413 49.0049 384.672 48.6958C384.931 48.3868 385.249 48.1331 385.608 47.9499C385.967 47.7667 386.359 47.6577 386.761 47.6294C387.163 47.6012 387.567 47.6543 387.948 47.7856L393.46 49.6812C393.46 49.6812 393.89 54.8976 393.89 55.0589C393.89 55.2202 394.844 62.9373 394.844 62.9373Z" fill="#FFBB96"/>
<path d="M418.184 131.57C418.131 131.582 418.076 131.582 418.023 131.57L417.149 131.113C416.964 131.02 416.802 130.888 416.674 130.725C416.547 130.562 416.456 130.374 416.409 130.172C416.358 129.968 416.353 129.755 416.392 129.549C416.431 129.342 416.515 129.147 416.638 128.976L418.695 126.072C418.72 126.035 418.753 126.005 418.79 125.981C418.828 125.957 418.87 125.941 418.913 125.934C418.957 125.926 419.002 125.928 419.045 125.937C419.088 125.947 419.129 125.965 419.165 125.991C419.202 126.017 419.232 126.049 419.256 126.087C419.28 126.124 419.296 126.166 419.303 126.209C419.311 126.253 419.309 126.298 419.3 126.341C419.29 126.384 419.272 126.425 419.246 126.461L417.176 129.365C417.113 129.459 417.07 129.565 417.049 129.676C417.028 129.787 417.03 129.901 417.055 130.011C417.083 130.119 417.133 130.221 417.202 130.309C417.272 130.397 417.359 130.469 417.458 130.522L418.332 130.979C418.397 131.014 418.449 131.069 418.479 131.137C418.509 131.204 418.517 131.279 418.5 131.351C418.483 131.423 418.443 131.488 418.386 131.534C418.329 131.581 418.258 131.608 418.184 131.611V131.57Z" fill="#C97125"/>
<path d="M427.608 126.946C427.365 125.948 426.791 125.062 425.982 124.431C425.089 123.983 424.124 123.697 423.131 123.584C422.99 123.613 422.844 123.584 422.724 123.505C422.605 123.426 422.521 123.302 422.493 123.161C422.464 123.02 422.493 122.874 422.572 122.754C422.652 122.634 422.775 122.551 422.916 122.522C423.912 122.315 424.949 122.445 425.864 122.89C426.778 123.335 427.52 124.071 427.971 124.983C428.234 125.577 428.384 126.216 428.415 126.865C428.415 126.971 428.375 127.073 428.302 127.15C428.23 127.228 428.131 127.275 428.025 127.282C427.927 127.286 427.83 127.255 427.753 127.193C427.676 127.131 427.625 127.043 427.608 126.946Z" fill="#1A1D30"/>
<path d="M414.473 121.568C415.258 120.967 416.22 120.641 417.209 120.641C418.198 120.641 419.159 120.967 419.945 121.568C420.033 121.658 420.087 121.777 420.097 121.903C420.107 122.03 420.071 122.155 419.997 122.258C419.923 122.361 419.816 122.434 419.693 122.465C419.57 122.497 419.44 122.483 419.326 122.428C417.906 121.884 416.346 121.827 414.89 122.267C414.8 122.297 414.702 122.295 414.613 122.262C414.524 122.229 414.449 122.166 414.401 122.085C414.352 122.003 414.333 121.907 414.346 121.813C414.359 121.719 414.404 121.633 414.473 121.568Z" fill="#1A1D30"/>
<path d="M434.142 118.422C432.583 120.452 422.271 120.035 418.184 117.481C413.089 114.308 413.452 110.839 414.998 108.809C416.544 106.779 420.375 108.271 423.871 111.565C426.924 114.362 430.388 116.675 434.142 118.422Z" fill="#613830"/>
<path d="M430.821 124.458C430.821 124.458 428.038 121.393 417.78 120.976C413.827 120.815 412.591 117.642 413.276 115.935C414.365 113.246 417.215 113.905 421.101 114.711C427.715 116.083 431.332 122.684 430.821 124.458Z" fill="#613830"/>
<path d="M413.276 116.271H413.209C413.124 116.252 413.05 116.2 413.003 116.127C412.955 116.055 412.937 115.966 412.954 115.881C413.061 115.541 413.235 115.225 413.466 114.953C413.697 114.68 413.98 114.457 414.298 114.295C415.992 113.367 418.694 113.569 422.365 114.913C422.407 114.926 422.447 114.949 422.48 114.978C422.514 115.007 422.541 115.043 422.56 115.084C422.579 115.124 422.589 115.168 422.59 115.213C422.591 115.258 422.583 115.302 422.566 115.343C422.536 115.427 422.474 115.495 422.393 115.533C422.312 115.571 422.22 115.575 422.136 115.545C417.834 113.972 415.696 114.308 414.648 114.873C414.403 114.984 414.185 115.144 414.004 115.343C413.824 115.542 413.686 115.775 413.599 116.029C413.577 116.098 413.534 116.158 413.476 116.201C413.418 116.244 413.348 116.269 413.276 116.271Z" fill="#1A1D30"/>
<path d="M438.727 130.629H438.579C438.499 130.591 438.437 130.524 438.407 130.441C438.377 130.358 438.38 130.266 438.417 130.186C439.028 128.722 439.076 127.084 438.552 125.588C438.214 124.864 437.727 124.22 437.122 123.699C436.517 123.177 435.808 122.79 435.043 122.563C431.962 121.585 428.715 121.238 425.497 121.541C422.303 121.758 419.094 121.554 415.952 120.936C415.909 120.926 415.868 120.908 415.831 120.883C415.795 120.857 415.764 120.825 415.74 120.788C415.716 120.75 415.7 120.708 415.693 120.664C415.685 120.621 415.687 120.576 415.696 120.533C415.721 120.448 415.776 120.376 415.85 120.329C415.924 120.282 416.013 120.264 416.1 120.277C419.197 120.889 422.361 121.088 425.511 120.869C428.82 120.555 432.159 120.916 435.325 121.931C436.185 122.193 436.979 122.635 437.653 123.229C438.328 123.822 438.868 124.553 439.237 125.373C439.813 127.034 439.751 128.85 439.063 130.468C439.03 130.526 438.98 130.573 438.92 130.602C438.86 130.631 438.792 130.64 438.727 130.629Z" fill="#1A1D30"/>
<path d="M420.388 111.633C420.319 111.631 420.253 111.608 420.198 111.567C420.142 111.526 420.101 111.469 420.079 111.404C419.936 110.803 419.672 110.237 419.302 109.742C418.932 109.248 418.464 108.834 417.928 108.527C417.317 108.256 416.627 108.222 415.992 108.433C415.951 108.451 415.908 108.46 415.863 108.461C415.819 108.462 415.775 108.454 415.734 108.438C415.692 108.421 415.655 108.397 415.623 108.366C415.591 108.336 415.566 108.299 415.548 108.258C415.516 108.176 415.516 108.084 415.548 108.002C415.581 107.919 415.643 107.852 415.723 107.814C416.529 107.529 417.415 107.562 418.197 107.908C418.821 108.251 419.367 108.719 419.799 109.284C420.232 109.849 420.543 110.497 420.711 111.189C420.737 111.275 420.729 111.367 420.689 111.447C420.649 111.527 420.58 111.589 420.496 111.619L420.388 111.633Z" fill="#1A1D30"/>
<path d="M400.827 140.726L380.217 153.659L371.25 110.369C371.045 109.296 370.928 108.207 370.9 107.115L370.053 72.7382C369.851 70.6678 376.103 67.8042 384.022 66.3118C387.941 65.4526 391.976 65.2527 395.96 65.7203C396.273 65.769 396.583 65.8363 396.888 65.922C398.058 66.2312 398.757 66.7286 398.824 67.3605V67.468V67.6159L397.385 76.879L392.223 110.342C393.443 111.851 394.307 113.615 394.75 115.504L400.209 138.212L400.464 139.26L400.827 140.726Z" fill="#8FB1D5"/>
<path d="M455.613 329.752C449.039 330.183 443.298 326.741 441.738 321.793C441.531 321.112 441.404 320.408 441.362 319.696C440.945 313.633 446.74 308.322 454.174 307.825C460.292 307.422 465.669 310.366 467.619 314.789C468.062 315.779 468.326 316.839 468.398 317.921C468.815 323.931 463.088 329.255 455.613 329.752Z" fill="#1A1D30"/>
<path opacity="0.5" d="M400.263 138.171L396.485 134.636C396.485 134.636 395.436 130.226 393.903 123.06C392.559 116.58 387.679 105.273 387.679 105.273C390.368 96.8706 393.93 80.2938 395.92 70.829C396.122 69.8342 396.31 68.92 396.485 68.1402C396.659 67.3604 396.807 66.5269 396.942 65.9219L397.439 76.8655L392.277 110.328C393.497 111.837 394.361 113.602 394.804 115.491L400.263 138.171Z" fill="#375D84"/>
<path d="M432.246 144.235L439.17 120.788C439.719 118.93 440.675 117.217 441.967 115.773L437.57 72.7515V72.6037C437.57 72.6037 437.57 72.6037 437.57 72.5095C437.705 71.7163 438.767 71.1651 440.501 71.0172C444.507 70.7579 448.528 71.1669 452.399 72.2272C460.237 74.1094 466.328 77.2957 466.018 79.3527L463.41 113.636C463.324 114.724 463.149 115.803 462.886 116.862L447.761 165.934L428.482 150.97L432.246 144.235Z" fill="#8FB1D5"/>
<path d="M252.214 276.002C252.071 276.115 251.913 276.205 251.743 276.271C248.288 277.616 243.502 273.865 240.988 267.801C238.474 261.738 239.643 256.239 242.816 254.29C243.551 253.833 244.369 253.527 245.223 253.389C247.912 252.972 250.923 254.33 252.779 258.915C255.172 264.696 255.199 273.945 252.214 276.002Z" fill="#1A1D30"/>
<path d="M253.791 253.806L223.652 264.592L228.545 278.262L258.684 267.477L253.791 253.806Z" fill="#FFBB96"/>
<path d="M234.508 276.446L216.519 284.768L208.574 266.497L201.395 238.721L204.836 239.044C206.284 239.187 207.668 239.71 208.848 240.56C210.029 241.41 210.964 242.556 211.558 243.884C213.051 247.232 214.556 251.749 216.183 256.575C217.393 260.151 221.158 263.553 228.74 262.598H228.848C230.3 262.007 232.733 264.655 234.225 268.487C235.718 272.319 235.946 275.881 234.508 276.446Z" fill="#966D5A"/>
<path d="M204.38 266.47L207.337 271.324L200.79 273.488L204.46 281.017C205.032 282.424 205.903 283.691 207.013 284.728C208.122 285.766 209.444 286.55 210.887 287.027C211.492 286.879 215.592 285.306 216.116 285.023C218.079 283.975 219.061 281.057 216.869 275.612C215.122 271.324 212.07 269.307 210.147 260.286C209.072 255.271 205.092 236.153 200.817 238.694C197.604 240.603 198.948 250.673 202.269 261.671C202.765 263.354 203.474 264.967 204.38 266.47Z" fill="#1A1D30"/>
<path d="M200.79 273.488L203.6 281.205C205.213 285.79 208.978 288.505 212.366 286.435C215.054 284.808 209.408 273.488 209.408 273.488H200.79Z" fill="#212747"/>
<path d="M439.214 297.284L449.741 327.514L463.415 322.752L452.888 292.522L439.214 297.284Z" fill="#FFBB96"/>
<path opacity="0.5" d="M432.246 144.235L436.279 144.114C436.279 144.114 436.118 141.627 438.78 133.09C443.378 118.301 443.324 118.301 447.747 110.96C445.502 102.45 442.786 85.6985 441.281 76.1397C441.133 75.1448 440.998 74.2306 440.864 73.4508C440.729 72.671 440.608 71.7299 440.501 71.0712C438.767 71.2728 437.704 71.7703 437.57 72.5635C437.57 72.5635 437.57 72.5635 437.57 72.6576V72.8055L441.966 115.827C440.674 117.271 439.719 118.984 439.17 120.842L432.246 144.235Z" fill="#375D84"/>
<path d="M427.218 152.113C428.28 155.824 433.698 157.491 439.318 155.904C444.937 154.318 448.635 149.976 447.572 146.265C446.51 142.554 441.079 140.887 435.473 142.474C429.866 144.06 426.142 148.456 427.218 152.113Z" fill="#7FA8D2"/>
<path d="M439.318 120.358C439.274 120.369 439.228 120.369 439.184 120.358C439.104 120.32 439.042 120.252 439.012 120.169C438.982 120.086 438.985 119.995 439.022 119.914C440.23 117.098 442.106 114.62 444.489 112.694C446.872 110.768 449.689 109.453 452.695 108.863C452.969 108.807 453.239 108.731 453.502 108.634C453.584 108.603 453.675 108.606 453.755 108.641C453.836 108.676 453.899 108.741 453.932 108.823C453.952 108.862 453.963 108.905 453.964 108.949C453.966 108.993 453.958 109.037 453.942 109.077C453.925 109.118 453.9 109.155 453.868 109.185C453.837 109.215 453.799 109.238 453.757 109.253C453.463 109.362 453.162 109.452 452.856 109.522C449.949 110.086 447.224 111.352 444.918 113.21C442.613 115.068 440.796 117.462 439.627 120.183C439.598 120.239 439.554 120.286 439.499 120.317C439.444 120.348 439.381 120.362 439.318 120.358Z" fill="#1A1D30"/>
<path d="M427.245 149.801H427.137C427.053 149.77 426.984 149.709 426.944 149.629C426.904 149.549 426.896 149.456 426.922 149.371C428.764 143.563 435.957 141.855 438.323 141.304L438.901 141.156C438.942 141.138 438.985 141.129 439.03 141.128C439.074 141.127 439.118 141.135 439.159 141.151C439.201 141.167 439.238 141.192 439.27 141.223C439.302 141.253 439.327 141.29 439.345 141.331C439.365 141.37 439.377 141.413 439.38 141.458C439.382 141.502 439.376 141.546 439.361 141.588C439.346 141.629 439.322 141.667 439.292 141.7C439.261 141.732 439.224 141.757 439.184 141.775L438.471 141.963C436.199 142.501 429.289 144.141 427.568 149.586C427.541 149.649 427.496 149.704 427.439 149.742C427.381 149.78 427.314 149.801 427.245 149.801Z" fill="#1A1D30"/>
<path d="M403.085 146.171C401.015 149.438 395.866 149.868 391.577 147.139C387.288 144.41 385.487 139.556 387.544 136.303C389.601 133.049 394.777 132.619 399.066 135.348C403.354 138.077 405.156 142.917 403.085 146.171Z" fill="#7FA8D2"/>
<path d="M394.696 115.02C394.627 115.02 394.56 115 394.502 114.962C394.445 114.923 394.4 114.869 394.373 114.805C393.345 112.03 391.655 109.547 389.451 107.573C387.246 105.598 384.593 104.19 381.722 103.472C381.42 103.389 381.123 103.286 380.835 103.163C380.79 103.148 380.749 103.123 380.714 103.091C380.679 103.059 380.651 103.02 380.632 102.977C380.613 102.933 380.604 102.886 380.605 102.839C380.605 102.791 380.616 102.744 380.636 102.701C380.656 102.658 380.685 102.62 380.721 102.589C380.757 102.558 380.799 102.535 380.844 102.521C380.89 102.508 380.938 102.504 380.985 102.51C381.032 102.516 381.077 102.533 381.117 102.558C381.375 102.664 381.64 102.754 381.91 102.826C384.884 103.569 387.631 105.026 389.913 107.072C392.195 109.117 393.943 111.689 395.005 114.563C395.037 114.647 395.035 114.74 395 114.823C394.965 114.905 394.899 114.971 394.817 115.007L394.696 115.02Z" fill="#1A1D30"/>
<path d="M403.906 144.033C403.862 144.031 403.818 144.021 403.778 144.002C403.738 143.984 403.702 143.958 403.672 143.925C403.642 143.893 403.619 143.855 403.604 143.813C403.588 143.772 403.581 143.728 403.583 143.684C403.825 138.212 398.461 135.2 396.7 134.273C396.502 134.173 396.313 134.056 396.135 133.923C396.069 133.862 396.03 133.778 396.026 133.689C396.022 133.599 396.054 133.512 396.115 133.446C396.176 133.38 396.26 133.341 396.349 133.337C396.439 133.333 396.526 133.365 396.592 133.426L397.036 133.694C398.878 134.73 404.511 137.903 404.255 143.778C404.239 143.856 404.194 143.926 404.13 143.973C404.065 144.02 403.985 144.041 403.906 144.033Z" fill="#1A1D30"/>
<path d="M389.064 235.185H388.916L252.214 276.002C254.258 274.591 254.903 269.791 254.325 265.045C254.111 262.949 253.614 260.891 252.846 258.928C250.991 254.33 247.966 252.972 245.291 253.389V253.322L378.389 205.89L379.841 205.366L385.501 223.744L389.064 235.185Z" fill="#DDDDDD"/>
<path d="M467.645 314.735C465.655 310.325 460.278 307.395 454.201 307.798C448.326 308.174 443.526 311.535 441.94 315.864C441.495 317.062 441.307 318.34 441.388 319.615C441.437 320.326 441.563 321.029 441.765 321.713L405.788 237.686L401.096 226.675L400.908 226.285L403.879 226.621L407.509 227.038L438.659 230.614L467.645 314.735Z" fill="#DDDDDD"/>
<path d="M439.063 233.76L412.242 238.681H411.986L405.748 237.767L388.916 235.266L371.64 232.712L372.245 230.359L378.322 206.025V205.931L379.021 203.148C381.71 200.997 395.087 200.459 406.716 202.959C407.792 203.188 408.867 203.47 409.956 203.78C415.915 205.339 421.61 207.771 426.856 210.999C429.118 212.472 431.217 214.18 433.121 216.094C434.294 217.253 435.286 218.581 436.065 220.034C436.24 220.329 436.388 220.625 436.536 220.934V221.002C436.657 221.247 436.765 221.498 436.858 221.755C437.412 223.127 437.791 224.563 437.988 226.03L438.579 230.641L439.063 233.76Z" fill="#DDDDDD"/>
<path opacity="0.5" d="M433.093 216.054C434.266 217.213 435.259 218.54 436.038 219.993C431.762 213.473 410.722 207.356 395.127 205.81C386.536 204.949 381.319 205.38 378.268 205.985L378.994 203.107C381.682 200.956 395.059 200.419 406.689 202.919C407.764 203.148 408.84 203.43 409.929 203.739C415.888 205.298 421.582 207.731 426.828 210.959C429.09 212.432 431.19 214.14 433.093 216.054Z" fill="#8A2121"/>
<path d="M395.987 208.055C395.943 208.051 395.9 208.039 395.86 208.019C395.821 207.999 395.786 207.971 395.757 207.938C395.728 207.904 395.706 207.865 395.693 207.823C395.679 207.78 395.674 207.736 395.678 207.692L396.162 201.306C396.163 201.261 396.174 201.217 396.194 201.176C396.213 201.136 396.241 201.1 396.275 201.071C396.309 201.042 396.349 201.02 396.392 201.007C396.435 200.995 396.48 200.991 396.525 200.997C396.568 200.998 396.611 201.009 396.651 201.027C396.69 201.046 396.725 201.073 396.754 201.105C396.783 201.138 396.805 201.176 396.819 201.217C396.833 201.259 396.838 201.303 396.834 201.346L396.35 207.746C396.347 207.79 396.335 207.833 396.315 207.872C396.294 207.912 396.267 207.947 396.233 207.976C396.199 208.004 396.16 208.026 396.118 208.04C396.076 208.053 396.031 208.058 395.987 208.055Z" fill="#1A1D30"/>
<path d="M446.94 319.481L452.103 339.217L466.542 326.284L480.148 301.076C480.148 301.076 471.275 296.384 461.178 315.488C461.178 315.488 460.976 311.361 457.682 311.038C454.389 310.715 447.505 315.501 446.94 319.481Z" fill="#966D5A"/>
<path d="M472.807 328.018L468.223 332.132L470.334 336.031L466.704 340.145C463.195 343.519 457.293 344.877 454.16 342.377C453.687 341.993 453.274 341.54 452.937 341.032C452.292 340.121 451.885 339.064 451.751 337.956C451.617 336.849 451.761 335.725 452.17 334.687C452.822 333.161 453.784 331.788 454.994 330.653C458.346 327.462 460.846 323.482 462.267 319.078C462.59 318.056 462.926 317.007 463.275 316.013C465.534 309.626 472.552 299.1 479.57 300.941C484.827 302.38 481.681 319.078 472.807 328.018Z" fill="#1A1D30"/>
<path d="M470.334 336.031L466.704 340.145C463.195 343.519 457.293 344.877 454.16 342.377C453.687 341.993 453.275 341.54 452.937 341.032C451.27 336.864 459.578 330.895 459.578 330.895L470.334 336.031Z" fill="#212747"/>
<path d="M416.167 125.278C416.167 125.514 416.073 125.739 415.907 125.906C415.74 126.072 415.515 126.166 415.279 126.166C415.044 126.166 414.818 126.072 414.652 125.906C414.486 125.739 414.392 125.514 414.392 125.278C414.392 125.043 414.486 124.817 414.652 124.651C414.818 124.484 415.044 124.391 415.279 124.391C415.515 124.391 415.74 124.484 415.907 124.651C416.073 124.817 416.167 125.043 416.167 125.278Z" fill="#1A1D30"/>
<path d="M417.135 126.945C417.046 126.945 416.961 126.91 416.898 126.847C416.835 126.784 416.799 126.699 416.799 126.609C416.767 126.191 416.611 125.792 416.349 125.463C416.088 125.135 415.734 124.893 415.334 124.768C415.139 124.725 414.936 124.731 414.744 124.785C414.552 124.839 414.376 124.939 414.231 125.077C414.166 125.139 414.08 125.174 413.989 125.174C413.899 125.174 413.813 125.139 413.747 125.077C413.686 125.014 413.651 124.929 413.651 124.841C413.651 124.753 413.686 124.669 413.747 124.606C413.974 124.383 414.252 124.218 414.556 124.127C414.861 124.036 415.183 124.02 415.495 124.082C416.046 124.241 416.534 124.567 416.893 125.015C417.251 125.463 417.463 126.01 417.498 126.582C417.502 126.631 417.496 126.68 417.479 126.726C417.462 126.772 417.436 126.814 417.401 126.848C417.367 126.883 417.325 126.909 417.279 126.926C417.233 126.943 417.184 126.95 417.135 126.945Z" fill="#1A1D30"/>
<path d="M423.749 128.29C423.765 128.415 423.754 128.541 423.716 128.661C423.679 128.782 423.617 128.892 423.534 128.987C423.45 129.081 423.348 129.156 423.233 129.208C423.119 129.26 422.994 129.286 422.869 129.286C422.743 129.286 422.619 129.26 422.504 129.208C422.39 129.156 422.287 129.081 422.204 128.987C422.121 128.892 422.058 128.782 422.021 128.661C421.984 128.541 421.973 128.415 421.988 128.29C421.973 128.165 421.984 128.039 422.021 127.918C422.058 127.798 422.121 127.687 422.204 127.593C422.287 127.499 422.39 127.424 422.504 127.372C422.619 127.32 422.743 127.294 422.869 127.294C422.994 127.294 423.119 127.32 423.233 127.372C423.348 127.424 423.45 127.499 423.534 127.593C423.617 127.687 423.679 127.798 423.716 127.918C423.754 128.039 423.765 128.165 423.749 128.29Z" fill="#1A1D30"/>
<path d="M424.906 129.849C424.817 129.849 424.731 129.814 424.668 129.751C424.605 129.688 424.57 129.603 424.57 129.513C424.535 129.094 424.375 128.694 424.112 128.366C423.848 128.038 423.493 127.796 423.091 127.672C422.896 127.626 422.692 127.63 422.5 127.684C422.307 127.738 422.131 127.84 421.988 127.981C421.958 128.013 421.922 128.039 421.881 128.056C421.841 128.074 421.797 128.083 421.753 128.083C421.709 128.083 421.665 128.074 421.625 128.056C421.584 128.039 421.548 128.013 421.518 127.981C421.484 127.952 421.456 127.916 421.438 127.875C421.419 127.834 421.409 127.79 421.409 127.745C421.409 127.701 421.419 127.657 421.438 127.616C421.456 127.575 421.484 127.539 421.518 127.51C421.74 127.285 422.015 127.119 422.318 127.027C422.621 126.936 422.942 126.922 423.252 126.986C423.804 127.145 424.294 127.47 424.655 127.918C425.016 128.365 425.23 128.913 425.269 129.486C425.273 129.535 425.266 129.584 425.249 129.63C425.233 129.676 425.206 129.718 425.171 129.752C425.137 129.787 425.095 129.813 425.049 129.83C425.003 129.847 424.954 129.854 424.906 129.849Z" fill="#1A1D30"/>
<path d="M420.993 134.017C420.872 134.414 420.66 134.778 420.375 135.079C419.635 135.98 418.372 136.975 417.135 136.141C416.89 135.985 416.672 135.79 416.49 135.563L416.395 135.442C416.238 135.217 416.145 134.952 416.126 134.677C416.107 134.403 416.163 134.128 416.288 133.883C416.718 133.157 417.632 133.399 418.667 133.48C420.361 133.668 420.993 133.412 420.993 134.017Z" fill="#1A1D30"/>
<path d="M420.321 135.079C419.582 135.98 418.318 136.975 417.081 136.142C416.836 135.985 416.618 135.79 416.436 135.563C417.471 135.21 418.556 135.024 419.649 135.012L420.321 135.079Z" fill="#944042"/>
<path d="M312.176 236.234C312.119 236.232 312.064 236.216 312.015 236.188C311.965 236.16 311.924 236.121 311.893 236.073C308.478 230.426 304.58 232.308 304.539 232.322C304.501 232.342 304.458 232.355 304.415 232.359C304.371 232.362 304.327 232.357 304.286 232.343C304.244 232.329 304.206 232.307 304.173 232.278C304.141 232.249 304.114 232.214 304.096 232.174C304.058 232.095 304.052 232.005 304.08 231.922C304.107 231.839 304.166 231.771 304.244 231.73C304.244 231.73 308.734 229.552 312.458 235.764C312.482 235.8 312.499 235.842 312.506 235.885C312.514 235.928 312.513 235.973 312.503 236.015C312.493 236.058 312.474 236.098 312.448 236.134C312.422 236.169 312.388 236.199 312.35 236.221C312.295 236.243 312.234 236.247 312.176 236.234Z" fill="#1A1D30"/>
<path d="M444.158 259.923C444.062 259.922 443.97 259.884 443.902 259.815C443.434 259.226 442.85 258.739 442.187 258.383C441.523 258.027 440.794 257.81 440.044 257.745C438.002 257.777 436.034 258.519 434.478 259.842C434.415 259.904 434.331 259.938 434.243 259.938C434.155 259.938 434.07 259.904 434.007 259.842C433.945 259.777 433.91 259.69 433.91 259.6C433.91 259.51 433.945 259.423 434.007 259.358C435.695 257.915 437.837 257.115 440.057 257.1C440.896 257.168 441.711 257.407 442.453 257.802C443.195 258.198 443.849 258.741 444.373 259.399C444.435 259.461 444.469 259.546 444.469 259.634C444.469 259.722 444.435 259.806 444.373 259.869C444.309 259.909 444.233 259.928 444.158 259.923Z" fill="#1A1D30"/>
<path d="M401.096 73.7197C402.048 74.5421 403.074 75.2756 404.161 75.9111L404.026 77.6857L411.367 80.1326C419.944 82.6198 429.221 79.4066 436.118 72.4156C440.014 68.4263 442.943 63.5971 444.682 58.2991C447.016 51.556 447.264 44.2661 445.395 37.3798C443.176 29.5956 438.108 23.4246 430.942 20.7358C430.754 20.6551 423.682 18.3024 423.682 18.3024L421.773 20.4938C417.006 20.1235 412.257 21.4105 408.329 24.1372C403.058 27.7537 398.918 33.9246 396.229 42.1122C391.886 55.2204 393.19 66.9572 401.096 73.7197Z" fill="#FACA32"/>
<path opacity="0.5" d="M404.161 75.8572L404.027 77.6318L411.367 80.0787C419.945 82.5659 429.221 79.3527 436.118 72.3617L417.067 63.7573L401.096 73.6658C402.049 74.4882 403.075 75.2217 404.161 75.8572Z" fill="#8B5703"/>
<path opacity="0.5" d="M408.382 24.1506C415.279 26.5975 434.007 33.2927 445.394 37.3798C443.176 29.5956 438.108 23.4246 430.942 20.7358C430.754 20.6551 423.682 18.3024 423.682 18.3024L421.773 20.4938C417.022 20.14 412.294 21.4312 408.382 24.1506Z" fill="white"/>
<path d="M437.073 55.7491C442.547 39.3609 436.148 22.4564 422.781 17.9917C409.414 13.527 394.141 23.1928 388.667 39.5809C383.193 55.9691 389.592 72.8736 402.959 77.3383C416.326 81.803 431.599 72.1372 437.073 55.7491Z" fill="#FAE278"/>
<path opacity="0.5" d="M388.332 14.4794L423.153 87.7787L434.216 82.5233L399.395 9.22399L388.332 14.4794Z" fill="white"/>
<path opacity="0.5" d="M404.445 2.37674L439.266 75.676L444.269 73.2993L409.448 -1.96736e-05L404.445 2.37674Z" fill="white"/>
<path opacity="0.5" d="M375.302 18.0101L410.123 91.3093L412.005 90.4152L377.185 17.1159L375.302 18.0101Z" fill="white"/>
<path d="M409.754 75.2926C407.789 75.2998 405.835 74.9818 403.973 74.3515C392.223 70.4258 386.67 55.2606 391.578 40.5526C393.746 33.7122 398.155 27.8016 404.094 23.7742C409.808 20.0635 416.1 19.0687 421.8 20.9777C427.501 22.8868 431.937 27.4579 434.277 33.8574C436.604 40.6456 436.575 48.02 434.196 54.7901C430.069 67.1319 419.864 75.2926 409.754 75.2926ZM391.9 40.6602L392.223 40.7677C387.423 55.1262 392.788 69.9149 404.188 73.7196C415.589 77.5244 428.751 68.9335 433.551 54.575C435.887 47.9506 435.92 40.7315 433.645 34.0859C431.373 27.8881 427.097 23.4515 421.545 21.6096C415.992 19.7678 409.956 20.7492 404.417 24.2985C398.606 28.2421 394.296 34.0304 392.183 40.7274L391.9 40.6602Z" fill="#A37010"/>
<path d="M384.694 49.5872C384.855 49.2242 385.205 48.31 385.353 47.9605C385.631 47.2207 386.187 46.6188 386.903 46.2824C387.618 45.946 388.437 45.9018 389.184 46.1589L395.449 48.9688C395.563 49.017 395.666 49.0875 395.753 49.1762C395.839 49.2649 395.907 49.3699 395.952 49.4852C395.997 49.6005 396.019 49.7236 396.015 49.8473C396.012 49.9711 395.984 50.0929 395.933 50.2057C395.835 50.4293 395.655 50.6062 395.429 50.699C395.203 50.7918 394.95 50.7933 394.723 50.7031L388.27 48.1352H388.391C388.23 48.0983 388.062 48.1107 387.909 48.1706C387.755 48.2306 387.624 48.3354 387.53 48.4713C387.302 48.9284 387.02 49.8158 386.831 50.3535C386.778 50.4983 386.696 50.6311 386.591 50.7442C386.485 50.8574 386.359 50.9487 386.219 51.013C386.078 51.0773 385.926 51.1133 385.772 51.1189C385.618 51.1246 385.464 51.0998 385.319 51.0459C385.174 50.9921 385.041 50.9102 384.928 50.8051C384.815 50.6999 384.724 50.5735 384.659 50.4331C384.595 50.2926 384.559 50.1409 384.554 49.9865C384.548 49.8322 384.573 49.6782 384.627 49.5334L384.694 49.5872Z" fill="#FFBB96"/>
<path d="M383.74 51.7248L384.183 50.6492C384.283 50.2051 384.472 49.786 384.74 49.4179C385.007 49.0497 385.347 48.7402 385.739 48.5084C386.131 48.2767 386.566 48.1276 387.017 48.0703C387.469 48.0131 387.927 48.0488 388.364 48.1755H388.445L394.777 51.0122C395.041 51.1245 395.25 51.3371 395.357 51.6031C395.464 51.869 395.461 52.1667 395.349 52.4306C395.236 52.6944 395.024 52.9029 394.758 53.01C394.492 53.1172 394.194 53.1143 393.93 53.002L387.477 50.4475H387.625C387.458 50.411 387.282 50.4411 387.137 50.5314C386.991 50.6218 386.887 50.7653 386.845 50.9315C386.711 51.2811 386.388 52.276 386.267 52.5717C386.205 52.7377 386.111 52.8899 385.991 53.0195C385.87 53.1492 385.725 53.2539 385.564 53.3275C385.403 53.4012 385.229 53.4424 385.052 53.4488C384.875 53.4552 384.699 53.4267 384.533 53.3649C384.367 53.3032 384.215 53.2093 384.085 53.0887C383.955 52.9681 383.851 52.8231 383.777 52.6621C383.703 52.501 383.662 52.3271 383.656 52.1501C383.649 51.9731 383.678 51.7966 383.74 51.6306V51.7248Z" fill="#FFBB96"/>
<path d="M390.69 49.8291C390.633 49.8467 390.572 49.8467 390.515 49.8291C389.267 49.0425 387.907 48.4488 386.482 48.0679C385.675 47.9604 385.138 48.4981 384.855 49.6006C384.846 49.6436 384.828 49.6843 384.802 49.7201C384.777 49.756 384.744 49.7861 384.706 49.8088C384.668 49.8315 384.626 49.8462 384.582 49.852C384.539 49.8578 384.494 49.8546 384.452 49.8426C384.409 49.8332 384.368 49.8151 384.332 49.7895C384.297 49.7638 384.266 49.731 384.244 49.6932C384.221 49.6555 384.206 49.6134 384.201 49.5697C384.195 49.526 384.198 49.4816 384.21 49.4392C384.573 48.0007 385.42 47.2747 386.563 47.3957C388.093 47.7813 389.55 48.4124 390.878 49.2645C390.955 49.3094 391.01 49.3825 391.033 49.4681C391.055 49.5537 391.043 49.6448 390.999 49.7216C390.961 49.7644 390.913 49.7967 390.859 49.8155C390.805 49.8344 390.747 49.839 390.69 49.8291Z" fill="#C97125"/>
<path d="M382.973 53.5398L383.416 52.4642C383.515 52.0266 383.701 51.6134 383.964 51.2497C384.227 50.886 384.56 50.5793 384.945 50.3482C385.329 50.117 385.757 49.9661 386.201 49.9046C386.645 49.8431 387.098 49.8723 387.53 49.9905L387.759 50.0846L392.854 52.9079C393.086 53.0541 393.253 53.282 393.324 53.5463C393.395 53.8106 393.364 54.0919 393.237 54.3342C393.11 54.5766 392.896 54.7622 392.638 54.8541C392.381 54.9461 392.098 54.9376 391.846 54.8304L386.616 52.2626L386.858 52.3567C386.689 52.3161 386.51 52.3443 386.362 52.435C386.213 52.5257 386.106 52.6715 386.065 52.8407C385.944 53.1902 385.621 54.1851 385.487 54.4809C385.433 54.6557 385.343 54.8176 385.224 54.9566C385.105 55.0957 384.959 55.2089 384.795 55.2895C384.63 55.3701 384.451 55.4163 384.268 55.4252C384.086 55.4341 383.903 55.4056 383.731 55.3415C383.56 55.2773 383.404 55.1788 383.272 55.052C383.14 54.9252 383.035 54.7728 382.964 54.6042C382.893 54.4355 382.857 54.2541 382.858 54.071C382.86 53.888 382.899 53.7072 382.973 53.5398Z" fill="#FFBB96"/>
<path d="M382.005 56.4572L382.435 55.3816C382.535 54.9452 382.722 54.5335 382.986 54.1713C383.249 53.8091 383.583 53.5039 383.967 53.2741C384.351 53.0443 384.778 52.8945 385.222 52.8339C385.665 52.7733 386.117 52.803 386.549 52.9213C386.602 52.9136 386.657 52.9136 386.71 52.9213L391.106 55.0321C391.368 55.148 391.574 55.3632 391.677 55.6305C391.78 55.8977 391.773 56.1951 391.658 56.4572C391.542 56.7192 391.326 56.9245 391.059 57.0279C390.792 57.1313 390.494 57.1243 390.232 57.0084L385.715 55.1531H385.89C385.717 55.1162 385.537 55.1473 385.387 55.24C385.237 55.3327 385.128 55.4797 385.083 55.6505L384.519 57.3041C384.456 57.4692 384.361 57.6203 384.24 57.7489C384.119 57.8774 383.974 57.9808 383.813 58.0532C383.652 58.1256 383.478 58.1656 383.302 58.1709C383.125 58.1761 382.949 58.1466 382.784 58.0839C382.619 58.0212 382.468 57.9267 382.34 57.8056C382.211 57.6845 382.108 57.5393 382.035 57.3783C381.963 57.2172 381.923 57.0435 381.918 56.867C381.912 56.6905 381.942 56.5147 382.005 56.3496V56.4572Z" fill="#FFBB96"/>
<path d="M446.982 55.5563L444.71 51.523C444.061 50.2512 443.305 49.0369 442.451 47.893C440.905 45.9571 436.804 45.9571 434.573 45.5C434.331 45.4638 434.113 45.3353 433.965 45.1416C433.817 44.9478 433.749 44.7041 433.777 44.4617C433.805 44.2193 433.926 43.9972 434.115 43.8422C434.303 43.6873 434.544 43.6116 434.788 43.6312L439.372 43.9808C440.704 44.0777 441.992 44.4951 443.127 45.1974C444.263 45.8997 445.211 46.866 445.893 48.014L449.832 53.701C450.071 54.0789 450.15 54.5363 450.051 54.9725C449.953 55.4087 449.685 55.7879 449.307 56.0268C448.929 56.2657 448.472 56.3447 448.036 56.2464C447.6 56.148 447.22 55.8805 446.982 55.5025V55.5563Z" fill="#FFBB96"/>
<path d="M446.241 58.4469C444.776 56.2286 442.692 52.7331 441.173 50.6089C439.654 48.4847 435.553 48.525 433.106 48.0141C432.859 47.9838 432.633 47.8563 432.479 47.6597C432.325 47.463 432.256 47.2133 432.286 46.9655C432.317 46.7177 432.444 46.4921 432.641 46.3383C432.837 46.1845 433.087 46.1151 433.335 46.1454L438.081 46.5084C439.251 46.6023 440.387 46.9505 441.408 47.5287C442.43 48.1069 443.313 48.9012 443.996 49.856C445.341 51.5769 447.693 54.7766 449.024 56.5782C449.151 56.76 449.24 56.9649 449.287 57.1812C449.334 57.3976 449.338 57.621 449.299 57.8389C449.259 58.0567 449.177 58.2647 449.058 58.4509C448.938 58.6371 448.783 58.7979 448.601 58.9242C448.419 59.0504 448.214 59.1396 447.998 59.1866C447.781 59.2337 447.558 59.2376 447.34 59.1983C447.122 59.159 446.914 59.0771 446.728 58.9574C446.542 58.8377 446.381 58.6825 446.255 58.5007L446.241 58.4469Z" fill="#FFBB96"/>
<path d="M444.534 60.0469C443.526 58.4605 441.738 55.5969 440.743 54.0373C440.411 53.4511 439.95 52.9474 439.396 52.5634C438.842 52.1793 438.209 51.925 437.543 51.819L433.51 51.1603C433.262 51.13 433.037 51.0024 432.883 50.8058C432.729 50.6091 432.66 50.3594 432.69 50.1116C432.72 49.8638 432.848 49.6382 433.045 49.4844C433.241 49.3306 433.491 49.2612 433.739 49.2915L437.772 49.5738C438.795 49.6564 439.788 49.9586 440.684 50.4598C441.579 50.9609 442.356 51.6492 442.961 52.4778C444.077 53.9432 446.134 56.6455 447.277 58.1244C447.403 58.3062 447.493 58.5112 447.54 58.7275C447.587 58.9438 447.591 59.1673 447.551 59.3851C447.512 59.603 447.43 59.8109 447.31 59.9972C447.191 60.1834 447.035 60.3442 446.854 60.4704C446.672 60.5967 446.467 60.6858 446.251 60.7329C446.034 60.7799 445.811 60.7839 445.593 60.7446C445.375 60.7052 445.167 60.6234 444.981 60.5037C444.795 60.384 444.634 60.2288 444.508 60.0469H444.534Z" fill="#FFBB96"/>
<path d="M442.625 61.3106C441.845 59.9661 440.433 57.7344 439.667 56.4706C439.425 56.029 439.086 55.6475 438.677 55.3543C438.267 55.0611 437.797 54.8637 437.301 54.7767L434.115 54.212C433.873 54.1758 433.655 54.0473 433.507 53.8536C433.359 53.6599 433.291 53.4161 433.319 53.1737C433.347 52.9313 433.468 52.7092 433.657 52.5542C433.845 52.3993 434.086 52.3237 434.33 52.3432C436.561 52.4911 439.559 52.3432 441.226 54.1582C442.571 55.5968 444.157 57.8688 445.394 59.388C445.52 59.5699 445.61 59.7748 445.657 59.9911C445.704 60.2075 445.708 60.4309 445.668 60.6488C445.629 60.8666 445.547 61.0746 445.428 61.2608C445.308 61.447 445.153 61.6078 444.971 61.7341C444.789 61.8603 444.584 61.9495 444.368 61.9965C444.151 62.0436 443.928 62.0475 443.71 62.0082C443.492 61.9689 443.284 61.887 443.098 61.7673C442.912 61.6476 442.751 61.4924 442.625 61.3106Z" fill="#FFBB96"/>
<path d="M441.617 62.5207L440.77 58.1782L443.459 55.9734C445.355 54.1718 446.578 50.2864 446.685 47.6648L447.317 48.2832C448.033 48.9755 448.644 49.768 449.132 50.636C450.342 52.8005 452.292 61.0015 452.292 61.0015C452.225 63.0316 446.013 63.5963 443.23 63.6904C442.866 63.7225 442.502 63.6219 442.205 63.407C441.909 63.1921 441.7 62.8774 441.617 62.5207Z" fill="#FFBB96"/>
<path d="M443.983 64.1474C443.755 64.1474 441.738 64.1474 441.227 62.9105C440.8 61.4784 440.499 60.012 440.326 58.5277C440.232 57.9899 440.151 57.4252 440.111 57.2908C440.081 57.2257 440.073 57.1527 440.088 57.0826C440.102 57.0125 440.139 56.9488 440.192 56.9009C440.257 56.8385 440.344 56.8036 440.434 56.8036C440.524 56.8036 440.611 56.8385 440.676 56.9009C440.77 57.0085 440.783 57.0622 440.985 58.3932C441.165 59.8245 441.453 61.2401 441.845 62.6282C442.141 63.3004 443.526 63.4483 443.983 63.4483C444.072 63.4483 444.158 63.4837 444.221 63.5467C444.284 63.6097 444.319 63.6952 444.319 63.7844C444.319 63.8735 444.284 63.959 444.221 64.022C444.158 64.0851 444.072 64.1205 443.983 64.1205V64.1474Z" fill="#C97125"/>
<path d="M443.513 56.6723C443.461 56.6723 443.409 56.6601 443.362 56.6368C443.316 56.6134 443.275 56.5796 443.244 56.5378C440.461 52.8675 438.068 52.8944 438.028 52.9213C437.938 52.9213 437.853 52.8859 437.79 52.8229C437.727 52.7598 437.691 52.6743 437.691 52.5852C437.691 52.4961 437.727 52.4106 437.79 52.3475C437.853 52.2845 437.938 52.2491 438.028 52.2491C438.149 52.2491 440.81 52.155 443.822 56.1345C443.848 56.1698 443.868 56.21 443.879 56.2527C443.89 56.2955 443.892 56.34 443.886 56.3837C443.88 56.4274 443.865 56.4694 443.842 56.5074C443.82 56.5454 443.79 56.5786 443.755 56.605C443.685 56.6555 443.599 56.6794 443.513 56.6723Z" fill="#C97125"/>
<path d="M444.629 54.0103C444.577 54.0094 444.526 53.9968 444.479 53.9735C444.433 53.9502 444.392 53.9169 444.36 53.8759C441.577 50.2056 439.17 50.2325 439.13 50.2459C439.085 50.2497 439.041 50.2441 438.998 50.2296C438.956 50.215 438.917 50.1918 438.884 50.1615C438.851 50.1312 438.825 50.0943 438.807 50.0533C438.79 50.0123 438.78 49.968 438.781 49.9233C438.779 49.8791 438.786 49.8351 438.801 49.7936C438.816 49.7521 438.839 49.7141 438.869 49.6816C438.899 49.6491 438.935 49.6229 438.976 49.6044C439.016 49.5859 439.059 49.5755 439.103 49.5737C439.211 49.5737 441.873 49.4931 444.898 53.4726C444.959 53.5354 444.994 53.6199 444.994 53.7079C444.994 53.7958 444.959 53.8803 444.898 53.9431C444.819 53.9966 444.724 54.0204 444.629 54.0103Z" fill="#C97125"/>
<path d="M445.919 51.4962C445.867 51.4935 445.817 51.4802 445.771 51.457C445.724 51.4339 445.683 51.4015 445.65 51.3618C442.867 47.6781 440.461 47.705 440.434 47.7319C440.39 47.7337 440.346 47.7267 440.304 47.7115C440.263 47.6962 440.225 47.673 440.192 47.643C440.16 47.613 440.133 47.577 440.115 47.5368C440.096 47.4967 440.086 47.4533 440.084 47.4092C440.081 47.3222 440.111 47.2372 440.168 47.172C440.226 47.1068 440.307 47.0665 440.393 47.0596C440.514 47.0596 443.176 46.9655 446.188 50.945C446.25 51.0079 446.284 51.0923 446.284 51.1803C446.284 51.2683 446.25 51.3528 446.188 51.4156C446.152 51.4476 446.109 51.4714 446.062 51.4853C446.016 51.4993 445.967 51.503 445.919 51.4962Z" fill="#C97125"/>
<path d="M450.087 53.4859C450.018 53.484 449.951 53.4611 449.896 53.4202C449.841 53.3794 449.799 53.3225 449.777 53.2574C449.119 51.0928 446.806 49.0493 445.744 48.0544C445.166 47.5436 445.031 47.4226 444.991 47.2478C444.975 47.1605 444.995 47.0705 445.045 46.9974C445.096 46.9244 445.173 46.8742 445.26 46.8579C445.333 46.8425 445.409 46.8529 445.475 46.8872C445.541 46.9215 445.594 46.9776 445.623 47.0461L446.188 47.557C447.344 48.5788 449.75 50.7164 450.45 53.0557C450.475 53.1395 450.467 53.23 450.427 53.3078C450.386 53.3857 450.318 53.4447 450.234 53.4725L450.087 53.4859Z" fill="#C97125"/>
<path d="M383.713 58.1916C383.65 58.205 383.586 58.205 383.524 58.1916C383.452 58.1399 383.401 58.0625 383.384 57.975C383.366 57.8875 383.383 57.7966 383.43 57.721C383.538 57.5597 385.178 55.4893 385.514 55.0322C385.562 54.9755 385.628 54.9359 385.7 54.9189C385.773 54.902 385.849 54.9087 385.917 54.938C387.46 55.6721 389.079 56.2356 390.744 56.6186C390.792 56.6186 390.84 56.6289 390.883 56.6489C390.927 56.6689 390.966 56.6981 390.998 56.7345C391.029 56.7708 391.053 56.8136 391.066 56.8598C391.08 56.906 391.083 56.9545 391.077 57.0022C391.07 57.0499 391.053 57.0955 391.027 57.1361C391.001 57.1766 390.966 57.2111 390.926 57.2372C390.885 57.2633 390.84 57.2804 390.792 57.2873C390.745 57.2942 390.696 57.2908 390.65 57.2773C389.001 56.9284 387.399 56.3869 385.877 55.664C385.124 56.6051 384.076 57.9361 383.995 58.0571C383.961 58.0999 383.919 58.1343 383.87 58.1577C383.821 58.181 383.767 58.1926 383.713 58.1916Z" fill="#C97125"/>
<path d="M382.005 55.5698C381.922 55.5699 381.841 55.5414 381.777 55.4892C381.715 55.4263 381.681 55.3419 381.681 55.2539C381.681 55.1659 381.715 55.0814 381.777 55.0186C382.032 54.7228 384.197 52.1953 385.81 52.4373C386.928 52.6643 387.985 53.1222 388.916 53.7818C388.952 53.806 388.982 53.8372 389.006 53.8735C389.029 53.9098 389.045 53.9505 389.053 53.9932C389.061 54.0358 389.059 54.0796 389.05 54.1218C389.04 54.164 389.022 54.2038 388.996 54.2389C388.945 54.3116 388.867 54.3619 388.78 54.3794C388.692 54.3969 388.601 54.3803 388.526 54.333C387.677 53.7582 386.722 53.3604 385.716 53.1633C384.587 53.002 382.839 54.8035 382.247 55.5026C382.178 55.5555 382.092 55.5795 382.005 55.5698Z" fill="#C97125"/>
<path d="M383.35 52.3164C383.305 52.3165 383.261 52.3074 383.22 52.2895C383.179 52.2716 383.142 52.2454 383.111 52.2126C383.081 52.1797 383.058 52.1409 383.043 52.0986C383.029 52.0563 383.023 52.0114 383.027 51.9668C383.059 51.0091 383.431 50.0941 384.076 49.3855C384.274 49.2124 384.508 49.0843 384.761 49.0101C385.014 48.9358 385.28 48.9171 385.541 48.9553C387.075 49.3427 388.536 49.9736 389.87 50.8241C389.931 50.8763 389.971 50.9485 389.983 51.0277C389.995 51.1068 389.979 51.1878 389.937 51.2559C389.895 51.324 389.83 51.3748 389.753 51.3992C389.677 51.4235 389.594 51.4198 389.521 51.3887C388.273 50.6012 386.913 50.0074 385.487 49.6275C385.32 49.6008 385.15 49.611 384.987 49.6575C384.824 49.7039 384.674 49.7855 384.546 49.8964C384.045 50.489 383.757 51.2319 383.726 52.0072C383.716 52.0975 383.671 52.1804 383.601 52.2381C383.53 52.2959 383.44 52.3239 383.35 52.3164Z" fill="#C97125"/>
<path d="M384.855 63.3003C384.269 63.2947 383.689 63.176 383.148 62.9508C383.066 62.9133 383.002 62.8449 382.971 62.7604C382.939 62.6759 382.942 62.5824 382.98 62.5004C383.017 62.4184 383.086 62.3546 383.17 62.3231C383.255 62.2916 383.348 62.2949 383.43 62.3323C383.887 62.5413 384.389 62.6347 384.891 62.6042C385.392 62.5737 385.879 62.4204 386.307 62.1576C387.181 61.4585 386.563 59.8855 386.307 59.2133C386.186 58.9175 386.146 58.8234 386.2 58.6755C386.228 58.5924 386.287 58.5234 386.365 58.4832C386.442 58.4431 386.533 58.4349 386.617 58.4604C386.681 58.4799 386.737 58.5188 386.778 58.5718C386.819 58.6248 386.842 58.6892 386.845 58.7562C386.865 58.826 386.892 58.8936 386.926 58.9578C387.222 59.6973 388.001 61.6467 386.724 62.6819C386.191 63.0963 385.531 63.3147 384.855 63.3003Z" fill="#C97125"/>
<path d="M225.728 266.43C225.648 266.428 225.572 266.4 225.51 266.348C225.449 266.297 225.407 266.226 225.392 266.148C224.854 262.746 222.797 262.666 222.703 262.666C222.614 262.666 222.529 262.63 222.466 262.567C222.403 262.504 222.367 262.419 222.367 262.33C222.367 262.24 222.403 262.155 222.466 262.092C222.529 262.029 222.614 261.993 222.703 261.993C222.811 261.993 225.392 261.993 226.051 266.027C226.063 266.115 226.04 266.205 225.988 266.278C225.935 266.351 225.857 266.4 225.769 266.417L225.728 266.43Z" fill="#1A1D30"/>
<path d="M229.439 266.43C229.359 266.428 229.282 266.4 229.221 266.348C229.16 266.297 229.118 266.226 229.103 266.148C228.565 262.746 226.508 262.666 226.414 262.666C226.37 262.668 226.326 262.66 226.285 262.644C226.244 262.628 226.207 262.603 226.176 262.571C226.146 262.539 226.123 262.501 226.108 262.459C226.093 262.418 226.088 262.373 226.092 262.33C226.091 262.243 226.125 262.159 226.185 262.096C226.245 262.034 226.327 261.997 226.414 261.993C226.535 261.993 229.103 261.993 229.762 266.027C229.778 266.114 229.758 266.204 229.708 266.277C229.657 266.35 229.58 266.4 229.493 266.417L229.439 266.43Z" fill="#1A1D30"/>
<path d="M454.402 324.442H454.335C454.249 324.422 454.174 324.371 454.124 324.299C454.074 324.227 454.054 324.139 454.066 324.052C454.066 323.635 455.343 321.995 458.287 318.056C460.022 315.743 461.81 313.35 462.845 311.804C462.871 311.768 462.903 311.737 462.94 311.713C462.978 311.689 463.02 311.673 463.064 311.666C463.107 311.658 463.152 311.659 463.195 311.669C463.239 311.679 463.279 311.698 463.316 311.723C463.355 311.747 463.388 311.778 463.414 311.814C463.441 311.851 463.459 311.893 463.468 311.938C463.476 311.982 463.476 312.028 463.466 312.072C463.456 312.116 463.437 312.158 463.41 312.194C462.348 313.74 460.56 316.133 458.825 318.459C457.091 320.785 454.859 323.77 454.725 324.173C454.712 324.249 454.672 324.318 454.613 324.367C454.554 324.416 454.479 324.443 454.402 324.442Z" fill="#1A1D30"/>
<path d="M450.571 320.718H450.436C450.396 320.7 450.359 320.675 450.328 320.643C450.297 320.611 450.273 320.574 450.257 320.532C450.241 320.491 450.233 320.447 450.233 320.403C450.234 320.359 450.244 320.315 450.262 320.274C451.521 317.544 453.763 315.389 456.54 314.238C459.646 313.041 460.95 314.776 461.004 314.843C461.029 314.879 461.048 314.92 461.058 314.963C461.068 315.006 461.069 315.051 461.061 315.095C461.054 315.139 461.038 315.18 461.014 315.218C460.99 315.255 460.959 315.288 460.923 315.313C460.887 315.339 460.846 315.357 460.803 315.367C460.759 315.377 460.715 315.379 460.671 315.371C460.627 315.364 460.585 315.347 460.548 315.324C460.51 315.3 460.478 315.269 460.452 315.233C460.452 315.233 459.39 313.888 456.782 314.856C454.172 315.946 452.066 317.975 450.88 320.543C450.849 320.597 450.804 320.642 450.749 320.673C450.695 320.703 450.633 320.719 450.571 320.718Z" fill="#1A1D30"/>
<path d="M452.197 322.963H452.049C451.97 322.925 451.908 322.858 451.878 322.774C451.847 322.691 451.851 322.6 451.888 322.52C453.142 319.785 455.385 317.628 458.166 316.483C458.725 316.262 459.315 316.13 459.914 316.093C459.958 316.09 460.003 316.095 460.045 316.108C460.087 316.122 460.126 316.144 460.16 316.172C460.194 316.201 460.221 316.236 460.242 316.276C460.262 316.315 460.274 316.358 460.277 316.402C460.281 316.493 460.249 316.581 460.189 316.649C460.129 316.717 460.045 316.759 459.955 316.765C459.423 316.796 458.901 316.914 458.408 317.115C455.788 318.189 453.677 320.223 452.506 322.802C452.473 322.853 452.427 322.894 452.372 322.922C452.318 322.95 452.258 322.964 452.197 322.963Z" fill="#1A1D30"/>
<path d="M436.912 221.728C436.817 221.539 436.71 221.284 436.589 220.975C436.71 221.22 436.818 221.471 436.912 221.728Z" fill="#1A1D30"/>
<path opacity="0.5" d="M441.899 315.905C441.454 317.103 441.266 318.381 441.348 319.656C441.397 320.367 441.523 321.07 441.724 321.753L405.747 237.726L388.915 235.226L252.214 276.002C254.257 274.591 254.903 269.791 254.325 265.045C261.302 263.392 385.487 223.691 385.487 223.691C388.548 224.774 391.697 225.593 394.898 226.138C396.903 226.509 398.936 226.702 400.975 226.716C401.997 226.716 402.938 226.716 403.758 226.716C404.874 226.664 405.987 226.552 407.092 226.38L407.388 227.132L441.778 315.945L441.899 315.905Z" fill="#9B8585"/>
<path d="M566.353 392.336V404.745C566.353 405.265 566.146 405.764 565.778 406.133C565.41 406.501 564.911 406.707 564.39 406.707H516.891C516.744 406.728 516.595 406.728 516.448 406.707C516.013 406.612 515.623 406.371 515.344 406.024C515.065 405.676 514.914 405.244 514.915 404.798V392.336C514.915 392.076 514.966 391.819 515.065 391.579C515.165 391.34 515.31 391.122 515.494 390.938C515.677 390.755 515.895 390.609 516.135 390.51C516.375 390.41 516.632 390.359 516.891 390.359H564.39C564.704 390.36 565.013 390.436 565.291 390.581C565.57 390.726 565.809 390.936 565.99 391.193C566.229 391.526 566.356 391.926 566.353 392.336Z" fill="#FACA32"/>
<path d="M561.204 406.721H560.532L560.545 390.373H561.217L561.204 406.721Z" fill="#A37010"/>
<path d="M551.013 406.721H550.341L550.354 390.373H551.026L551.013 406.721Z" fill="#A37010"/>
<path d="M540.822 406.721H540.15L540.177 390.373H540.849L540.822 406.721Z" fill="#A37010"/>
<path d="M530.631 406.721H529.959L529.986 390.373H530.658L530.631 406.721Z" fill="#A37010"/>
<path d="M520.441 406.721H519.769L519.795 390.373H520.468L520.441 406.721Z" fill="#A37010"/>
<path d="M579.636 408.684V421.079C579.636 421.6 579.429 422.099 579.061 422.467C578.693 422.835 578.194 423.042 577.673 423.042H530.175C529.653 423.042 529.152 422.836 528.782 422.468C528.412 422.1 528.202 421.601 528.198 421.079V408.684C528.198 408.16 528.406 407.657 528.777 407.286C529.148 406.916 529.65 406.707 530.175 406.707H577.673C577.932 406.707 578.188 406.759 578.427 406.858C578.667 406.958 578.883 407.103 579.066 407.287C579.248 407.471 579.393 407.689 579.491 407.928C579.588 408.168 579.638 408.425 579.636 408.684Z" fill="#FACA32"/>
<path d="M574.877 423.056H574.205L574.218 406.721H574.89L574.877 423.056Z" fill="#A37010"/>
<path d="M564.685 423.056H564.013L564.04 406.721H564.712L564.685 423.056Z" fill="#A37010"/>
<path d="M554.495 423.056H553.823L553.85 406.721H554.522L554.495 423.056Z" fill="#A37010"/>
<path d="M544.304 423.056H543.632L543.659 406.721H544.331L544.304 423.056Z" fill="#A37010"/>
<path d="M534.113 423.056H533.441L533.468 406.721H534.14L534.113 423.056Z" fill="#A37010"/>
<path d="M555.436 406.707C550.327 407.541 545.191 408.818 541.736 410.808C533.898 415.271 529.784 420.313 528.547 422.262C528.288 421.923 528.146 421.507 528.144 421.079V408.684C528.144 408.16 528.352 407.657 528.723 407.286C529.094 406.916 529.596 406.707 530.12 406.707H555.436Z" fill="#1A1D30"/>
<path d="M571.583 423.056H524.097C523.006 423.056 522.121 423.941 522.121 425.032V437.414C522.121 438.506 523.006 439.391 524.097 439.391H571.583C572.674 439.391 573.559 438.506 573.559 437.414V425.032C573.559 423.941 572.674 423.056 571.583 423.056Z" fill="#FACA32"/>
<path d="M568.545 439.391H567.873L567.899 423.056H568.572L568.545 439.391Z" fill="#A37010"/>
<path d="M558.353 439.391H557.681L557.708 423.056H558.38L558.353 439.391Z" fill="#A37010"/>
<path d="M548.162 439.391H547.49L547.517 423.056H548.189L548.162 439.391Z" fill="#A37010"/>
<path d="M537.972 439.391H537.3L537.327 423.056H537.999L537.972 439.391Z" fill="#A37010"/>
<path d="M527.795 439.391H527.123L527.136 423.056H527.808L527.795 439.391Z" fill="#A37010"/>
<path d="M573.559 425.019V431.741C570.805 430.35 567.951 429.163 565.022 428.192C555.771 425.29 546.19 423.573 536.507 423.083H571.569C572.089 423.079 572.589 423.28 572.962 423.642C573.334 424.005 573.549 424.499 573.559 425.019Z" fill="#1A1D30"/>
<path opacity="0.5" d="M557.305 390.373H546.416V406.721H557.305V390.373Z" fill="white"/>
<path opacity="0.5" d="M577.229 406.707H566.702V423.056H577.229V406.707Z" fill="white"/>
<path opacity="0.5" d="M536.521 423.042H525.994V439.39H536.521V423.042Z" fill="white"/>
<path d="M283.782 134.205L275.204 142.272C269.826 147.273 261.625 147.959 253.344 144.961C247.606 142.744 242.45 139.245 238.273 134.73C230.972 126.986 227.289 117.561 227.692 109.576C227.782 105.018 229.649 100.676 232.895 97.4757L241.459 89.4092L244.86 93.0122L246.514 94.76L275.581 125.601L280.38 130.697L283.782 134.205Z" fill="#FACA32"/>
<path opacity="0.5" d="M283.781 134.205L275.203 142.272C269.825 147.273 261.624 147.959 253.343 144.961L275.58 125.534L280.379 130.629L283.781 134.205Z" fill="#8B5703"/>
<path opacity="0.5" d="M246.513 94.6792C243.515 97.2068 234.01 104.628 227.691 109.562C227.781 105.005 229.648 100.663 232.894 97.4622L241.458 89.3956L244.86 92.9987L246.513 94.6792Z" fill="white"/>
<path d="M283.782 134.248C292.493 126.039 290.085 109.335 278.403 96.9392C266.722 84.543 250.19 81.1483 241.479 89.357C232.769 97.5657 235.177 114.269 246.858 126.666C258.54 139.062 275.071 142.456 283.782 134.248Z" fill="#FAE278"/>
<path opacity="0.5" d="M261.301 150.875L275.801 72.1798L262.539 69.7363L248.039 148.432L261.301 150.875Z" fill="white"/>
<path opacity="0.5" d="M239.2 150.816L253.7 72.1201L247.71 71.0165L233.21 149.712L239.2 150.816Z" fill="white"/>
<path opacity="0.5" d="M275.254 155.861L289.754 77.1653L287.493 76.7487L272.993 155.444L275.254 155.861Z" fill="white"/>
<path d="M271.211 134.757C264.314 134.757 256.127 130.965 249.606 124.001C244.954 119.266 241.774 113.284 240.451 106.779C239.429 100.756 240.787 95.6339 244.282 92.34C247.778 89.0462 252.94 87.9572 258.923 89.3016C265.359 90.9941 271.165 94.5206 275.634 99.4521C285.744 110.207 288.137 124.418 281.012 131.181C278.334 133.601 274.819 134.884 271.211 134.757ZM254.016 89.4226C250.603 89.3014 247.277 90.5114 244.739 92.7971C241.419 95.9296 240.128 100.864 241.109 106.631C242.395 113.03 245.515 118.916 250.09 123.571C259.945 134.031 273.591 137.244 280.501 130.737C287.411 124.23 285.005 110.423 275.123 99.9629C270.748 95.1232 265.058 91.6617 258.748 90.0007C257.198 89.6273 255.61 89.4333 254.016 89.4226Z" fill="#A37010"/>
<path d="M187.721 277.669C187.165 278.623 186.522 279.523 185.799 280.358L186.404 281.783L181.026 285.816C174.64 290.28 166.09 290.226 158.426 286.395C154.086 284.193 150.309 281.024 147.389 277.131C143.564 272.221 141.31 266.27 140.922 260.057C140.559 252.999 143.006 246.425 148.195 242.257C148.33 242.136 153.506 238.224 153.506 238.224L155.697 239.487C159.528 237.868 163.797 237.607 167.797 238.748C173.175 240.254 178.297 244.126 182.855 250.189C190.141 259.802 192.36 269.858 187.721 277.669Z" fill="#FACA32"/>
<path opacity="0.5" d="M185.799 280.345L186.404 281.77L181.027 285.803C174.641 290.267 166.09 290.213 158.427 286.381L171.75 273.918L187.722 277.616C187.168 278.583 186.524 279.497 185.799 280.345Z" fill="#8B5703"/>
<path opacity="0.5" d="M167.785 238.775C162.77 242.741 149.178 253.564 140.896 260.098C140.533 253.039 142.98 246.465 148.169 242.297C148.304 242.176 153.48 238.264 153.48 238.264L155.671 239.528C159.505 237.901 163.779 237.635 167.785 238.775Z" fill="white"/>
<path d="M187.192 281.189C196.979 273.746 197.518 257.986 188.394 245.988C179.271 233.99 163.94 230.297 154.153 237.74C144.365 245.183 143.827 260.942 152.95 272.94C162.074 284.939 177.404 288.631 187.192 281.189Z" fill="#FAE278"/>
<path opacity="0.5" d="M171.001 223.899L162.827 294.223L173.444 295.457L181.618 225.133L171.001 223.899Z" fill="white"/>
<path opacity="0.5" d="M160.104 219.117L151.93 289.441L156.724 289.998L164.898 219.674L160.104 219.117Z" fill="white"/>
<path opacity="0.5" d="M191.567 224.184L183.393 294.508L185.195 294.718L193.37 224.394L191.567 224.184Z" fill="white"/>
<path d="M175.313 282.361C168.174 282.361 160.416 278.436 155.025 271.35C151.156 266.42 149.062 260.329 149.083 254.061C148.976 251.333 149.528 248.619 150.692 246.149C151.856 243.679 153.597 241.525 155.769 239.87C157.941 238.215 160.479 237.108 163.17 236.641C165.86 236.174 168.623 236.362 171.226 237.189C177.269 238.848 182.578 242.495 186.297 247.541C194.511 258.296 194.175 272.453 185.557 279.014C182.605 281.229 179.003 282.405 175.313 282.361ZM166.023 237.189C162.463 237.144 158.989 238.279 156.141 240.415C154.098 242.05 152.456 244.131 151.342 246.499C150.228 248.867 149.671 251.458 149.715 254.075C149.698 260.192 151.744 266.136 155.523 270.947C163.508 281.447 176.778 284.835 185.1 278.503C193.422 272.171 193.704 258.484 185.718 247.984C182.096 243.058 176.919 239.497 171.024 237.874C169.392 237.437 167.712 237.207 166.023 237.189Z" fill="#A37010"/>
<path d="M572.618 170.814L584.341 180.225C587.393 182.672 593.523 180.508 600.273 175.278C604.76 171.725 608.82 167.665 612.372 163.178C617.123 157.435 620.861 150.925 623.424 143.926C625.265 138.4 625.212 134.044 622.805 132.122L610.557 122.307L604.548 130.011L581.182 159.938L572.618 170.814Z" fill="#FACA32"/>
<path opacity="0.5" d="M572.618 170.814L584.341 180.225C587.393 182.672 593.523 180.507 600.273 175.278C594.666 170.828 587.245 164.899 581.128 160.005L572.618 170.814Z" fill="#8B5703"/>
<path opacity="0.5" d="M604.494 130.011C608.997 133.332 617.414 139.422 623.316 143.818C625.158 138.293 625.104 133.937 622.697 132.014L610.557 122.307L604.494 130.011Z" fill="white"/>
<path d="M600.584 153.715C611.19 140.415 615.867 126.508 611.031 122.651C606.196 118.795 593.678 126.451 583.072 139.751C572.466 153.05 567.789 166.958 572.625 170.814C577.46 174.671 589.978 167.015 600.584 153.715Z" fill="#FAE278"/>
<path opacity="0.5" d="M586.771 105.817L588.615 185.816L598.131 185.596L596.287 105.597L586.771 105.817Z" fill="white"/>
<path opacity="0.5" d="M576.554 102.086L578.397 182.085L582.698 181.986L580.855 101.987L576.554 102.086Z" fill="white"/>
<path opacity="0.5" d="M604.943 103.008L606.787 183.007L608.413 182.97L606.57 102.971L604.943 103.008Z" fill="white"/>
<path d="M577.202 168.851C576.333 168.889 575.477 168.623 574.782 168.099C572.846 166.566 572.86 162.869 574.782 157.72C577.258 151.724 580.616 146.132 584.745 141.129C588.704 135.976 593.412 131.444 598.713 127.685C603.298 124.633 606.887 123.8 608.823 125.332C610.759 126.865 610.746 130.562 608.823 135.725C603.652 147.674 595.392 158.032 584.892 165.732C581.814 167.803 579.179 168.851 577.202 168.851ZM585.269 141.546C581.19 146.502 577.864 152.034 575.401 157.962C573.586 162.748 573.505 166.257 575.159 167.574C576.812 168.892 580.227 168.031 584.489 165.195C594.869 157.569 603.039 147.326 608.164 135.51C609.979 130.723 610.074 127.214 608.407 125.884C606.739 124.553 603.351 125.44 599.076 128.263C593.843 131.985 589.19 136.461 585.269 141.546Z" fill="#A37010"/>
<path d="M553.379 249.584L543.968 258.081L543.673 258.323C542.53 259.385 543.444 262.477 545.851 266.645C549.202 272.111 553.099 277.223 557.48 281.904C560.792 285.553 564.35 288.971 568.128 292.135C573.29 296.384 577.539 298.696 579.3 297.997C579.463 297.95 579.611 297.862 579.73 297.742L579.986 297.513L589.504 288.761L589.719 288.586L558.918 255.674L553.379 249.584Z" fill="#FACA32"/>
<path opacity="0.5" d="M581.666 279.82C577.431 283.706 572.416 288.29 568.222 292.135C573.384 296.384 577.633 298.696 579.394 297.997C579.644 297.869 579.875 297.706 580.08 297.513L589.625 288.788L581.666 279.82Z" fill="#8B5703"/>
<path opacity="0.5" d="M553.379 249.584L543.968 258.081L543.673 258.323C542.53 259.385 543.444 262.477 545.851 266.645C550.287 262.934 555.665 258.404 558.972 255.621L553.379 249.584Z" fill="white"/>
<path d="M575.845 265.166C585.807 276.042 591.978 286.596 589.652 288.734C587.326 290.872 577.351 283.773 567.402 272.897C557.453 262.02 551.269 251.453 553.595 249.315C555.92 247.178 565.896 254.276 575.845 265.166Z" fill="#FAE278"/>
<path opacity="0.5" d="M578.64 303.615L569.149 234.867L563.622 235.63L573.113 304.378L578.64 303.615Z" fill="white"/>
<path opacity="0.5" d="M572.655 308.932L562.939 240.226L560.451 240.578L570.166 309.284L572.655 308.932Z" fill="white"/>
<path opacity="0.5" d="M584.923 304.805L575.433 236.058L574.487 236.188L583.978 304.936L584.923 304.805Z" fill="white"/>
<path d="M587.124 287.255C585.861 287.255 583.71 286.085 580.711 283.76C571.908 276.54 564.181 268.102 557.762 258.699C555.073 254.572 554.253 251.977 555.235 251.13C556.216 250.283 558.663 251.318 562.548 254.33C566.981 257.897 571.117 261.818 574.917 266.053C578.793 270.212 582.327 274.676 585.484 279.404C588.173 283.544 588.993 286.126 588.025 286.986C587.767 287.181 587.447 287.277 587.124 287.255ZM556.122 251.466C555.963 251.457 555.806 251.505 555.678 251.601C555.194 252.044 555.598 254.061 558.367 258.323C564.766 267.668 572.462 276.057 581.222 283.235C585.256 286.327 587.192 286.919 587.676 286.475C588.16 286.032 587.756 284.002 584.987 279.753C578.598 270.404 570.911 262.011 562.158 254.827C558.905 252.327 556.996 251.466 556.122 251.466Z" fill="#A37010"/>
</svg>
