<svg width="500" height="500" viewBox="0 0 500 500" fill="none" xmlns="http://www.w3.org/2000/svg">
<path d="M312.518 395.104L357.61 362.502C357.61 362.502 349.368 333.241 326.518 324.913C279.883 307.918 298.027 268.274 303.143 250.533C310.856 223.776 305.69 200.149 275.883 203.948C242.156 208.246 238.082 157.736 256.769 116.322C275.056 75.7951 213.541 19.9169 165.906 103.999C137.459 154.221 176.732 194.474 191.729 219.518C206.725 244.562 173.082 271.858 205.904 291.968C233.942 309.147 266.385 312.996 263.755 340.645C261.126 368.293 273.297 388.347 312.518 395.104Z" fill="url(#paint0_linear_323_630)"/>
<g style="mix-blend-mode:soft-light" opacity="0.5">
<path opacity="0.5" d="M335.064 385.17L335.877 384.322C335.35 383.818 282.896 333.282 246.005 267.507C212.019 206.912 184.677 120.607 247.41 53.5728L246.551 52.7703C218.621 82.6103 205.918 118.682 208.783 159.984C211.067 192.976 223.255 229.347 244.991 268.102C281.97 334.024 334.537 384.666 335.064 385.17Z" fill="#BEB8F2"/>
<path opacity="0.5" d="M210.728 177.182L211.589 176.381C184.934 147.788 164.609 94.4826 164.409 93.947L163.31 94.3614C163.513 94.8988 183.918 148.422 210.728 177.182Z" fill="#BEB8F2"/>
<path opacity="0.5" d="M209.579 149.613C227.184 106.485 264.052 94.4142 264.422 94.2983L264.071 93.178C263.695 93.2956 226.314 105.512 208.493 149.169L209.579 149.613Z" fill="#BEB8F2"/>
<g style="mix-blend-mode:soft-light" opacity="0.5">
<path d="M272.466 309.194C250.649 256.633 303.734 201.496 304.292 201.003L303.576 200.072C302.978 200.504 249.37 256.616 271.38 309.648L272.466 309.194Z" fill="#BEB8F2"/>
</g>
<g style="mix-blend-mode:soft-light" opacity="0.5">
<path d="M258.413 290.396L259.206 289.527C232.37 265.053 186.771 267.831 186.306 267.863L186.385 269.034C186.848 269.004 231.957 266.263 258.413 290.396Z" fill="#BEB8F2"/>
</g>
<g style="mix-blend-mode:soft-light" opacity="0.5">
<path d="M327.8 376.188C316.538 357.733 331.475 325.873 331.628 325.554L330.574 325.05C329.941 326.377 315.21 357.799 326.806 376.799L327.8 376.188Z" fill="#BEB8F2"/>
</g>
<g style="mix-blend-mode:soft-light" opacity="0.5">
<path d="M315.214 364.386L316.036 363.548C303.827 351.581 272.18 351.298 261.781 351.205C260.312 351.191 259.042 351.181 258.817 351.133L258.564 352.28C258.881 352.35 259.724 352.361 261.77 352.378C272.054 352.471 303.343 352.752 315.214 364.386Z" fill="#BEB8F2"/>
</g>
</g>
<path d="M185.044 221.069C197.593 220.066 205.888 229.023 210.867 236.444C210.398 237.559 210.412 238.321 210.188 239.545C208.174 250.608 204.957 254.895 201.249 265.482C200.451 267.765 196.074 273.735 194.129 276.065L190.44 280.346C190.44 280.346 161.488 279.098 160.379 262.649C159.271 246.201 131.922 241.526 117.742 237.266C109.035 234.65 105.891 230.663 102.845 229.188C70.6052 213.576 56.6962 219.485 49.3324 207.97C41.2028 195.259 55.832 184.419 47.7163 170.123C38.5555 153.982 13.7572 156.967 8.50317 139.754C7.60377 136.804 6.75708 133.747 7.19799 129.656C8.2871 119.557 16.5661 114.41 11.8144 104.917C2.26363 85.836 5.91741 62.4388 26.9214 55.924C47.6689 49.5198 71.8085 76.8065 80.2789 124.298C90.1564 157.385 96.143 160.205 111.968 164.16C123.055 166.931 154.946 167.103 159.397 186.545C163.849 205.988 170.696 222.214 185.044 221.069Z" fill="url(#paint1_linear_323_630)"/>
<g style="mix-blend-mode:soft-light" opacity="0.5">
<path opacity="0.5" d="M203.946 260.268L203.535 260.986C199.551 258.758 195.563 256.459 191.681 254.152C162.944 237.064 136.987 217.709 114.528 196.625C95.4986 178.762 78.7122 159.402 64.6276 139.096C53.3009 122.765 43.657 105.732 35.9612 88.4716C30.5526 76.3375 26.154 64.2175 22.8902 52.4452C22.3245 50.3977 21.8537 48.2553 21.4005 46.1832C20.798 43.428 20.1709 40.578 19.3066 37.9141L20.0514 37.6104C20.9298 40.3111 21.5586 43.1787 22.1594 45.9532C22.6109 48.0112 23.0764 50.1395 23.6402 52.1695C26.8935 63.905 31.278 75.9881 36.6726 88.0888C44.3473 105.307 53.9701 122.3 65.2688 138.592C79.3218 158.858 96.0782 178.174 115.071 196.014C137.492 217.063 163.408 236.386 192.101 253.446C195.983 255.748 199.965 258.043 203.946 260.268Z" fill="#FCFDFE"/>
<g style="mix-blend-mode:soft-light" opacity="0.5">
<path d="M83.4551 162.495L82.8578 163.062C61.0142 138.265 4.53516 130.147 3.96777 130.068L4.12587 129.266C4.68975 129.345 61.4305 137.496 83.4551 162.495Z" fill="#FCFDFE"/>
</g>
<g style="mix-blend-mode:soft-light" opacity="0.5">
<path d="M150.839 225.894L150.312 226.524C133.429 211.598 134.987 165.979 135.005 165.52L135.79 165.496C135.767 165.943 134.221 211.21 150.839 225.894Z" fill="#FCFDFE"/>
</g>
<g style="mix-blend-mode:soft-light" opacity="0.5">
<path d="M161.189 233.45L160.764 234.153C148.117 226.705 126.51 223.82 99.9342 226.033C98.5991 226.143 98.5991 226.143 98.4727 226.071L98.8872 225.357L98.6799 225.708L98.7484 225.307C98.8363 225.307 99.3422 225.269 99.9254 225.22C126.647 223.014 148.403 225.927 161.189 233.45Z" fill="#FCFDFE"/>
</g>
<g style="mix-blend-mode:soft-light" opacity="0.5">
<path d="M196.736 256.092L196.143 256.661C185.345 244.511 189.806 219.325 189.852 219.072L190.623 219.167C190.578 219.416 186.188 244.22 196.736 256.092Z" fill="#FCFDFE"/>
</g>
<g style="mix-blend-mode:soft-light" opacity="0.5">
<path d="M203.51 261.438C190.427 259.61 176.14 261.643 159.835 267.656L159.617 266.895C176.047 260.837 190.457 258.79 203.67 260.635L203.51 261.438Z" fill="#FCFDFE"/>
</g>
<path opacity="0.5" d="M41.3783 98.1701L40.7529 98.697C29.4033 84.1571 14.0188 71.8299 8.95798 67.791C7.72834 66.8112 7.30323 66.4653 7.17676 66.316L7.78104 65.7576C7.87941 65.87 8.57855 66.4301 9.46564 67.1396C14.5423 71.2047 29.976 83.5618 41.3783 98.1701Z" fill="#FCFDFE"/>
<path opacity="0.5" d="M56.2426 124.879L55.5066 125.204C49.4567 108.652 64.3582 74.794 64.9924 73.3611L65.695 73.6561C65.5492 74.0091 50.307 108.634 56.2426 124.879Z" fill="#FCFDFE"/>
</g>
<path d="M278.997 296.665C277.186 298.878 266.556 288.271 246.295 285.309C241.233 284.568 213.901 278.617 202.106 296.021L195.236 306.156C185.606 304.264 176.881 300.695 180.48 288.345C186.075 269.17 158.898 252.115 146.386 250.703C130.897 248.947 94.9568 244.13 103.151 214.371C109.972 189.597 119.312 174.736 94.5106 157.652C69.7088 140.568 62.9019 116.106 79.7778 92.5879C97.532 67.8386 78.102 26.8989 102.263 12.4591C144.351 -12.6993 180.143 54.9934 168.53 109.63C156.917 164.267 188.35 147.971 210.151 159.548C213.037 161.294 215.705 163.376 218.102 165.749C236.796 184.319 226.293 209.396 233.929 236.829C244.339 274.239 282.05 292.941 278.997 296.665Z" fill="url(#paint2_linear_323_630)"/>
<g style="mix-blend-mode:soft-light" opacity="0.5">
<path opacity="0.5" d="M213.074 273.291L212.095 274.344C140.293 206.09 103.601 100.971 116.336 0L117.712 0.0983366C105.031 100.643 141.57 205.324 213.074 273.291Z" fill="#D7D7D7"/>
<g style="mix-blend-mode:soft-light" opacity="0.5">
<path d="M177.272 232.497L176.507 233.71C143.287 213.365 98.5405 227.327 98.0925 227.469L97.7412 226.133C98.1979 226 143.531 211.836 177.272 232.497Z" fill="#FCFDFE"/>
</g>
<g style="mix-blend-mode:soft-light" opacity="0.5">
<path d="M200.224 260.351L198.995 261.083C179.953 226.163 216.319 159.431 216.689 158.761L217.891 159.39C217.532 160.054 181.546 226.096 200.224 260.351Z" fill="#FCFDFE"/>
</g>
<path opacity="0.5" d="M132.529 145.375L131.366 146.208C113.904 120.043 65.5823 113.721 65.0957 113.663L65.3416 112.269C65.8335 112.331 114.743 118.733 132.529 145.375Z" fill="#FCFDFE"/>
<path opacity="0.5" d="M117.963 82.8155L116.577 82.8471C117.828 45.8899 153.261 9.16286 153.619 8.79761L154.578 9.75463C154.223 10.1164 119.195 46.4343 117.963 82.8155Z" fill="white"/>
</g>
<path d="M463.766 158.858V393.655L1.04395 429.632V151.829L463.766 158.858Z" fill="url(#paint3_linear_323_630)"/>
<path d="M454.348 378.889L14.8564 410.392V169.538L454.348 173.635V378.889ZM19.2515 405.15L449.953 374.959V177.776L19.2515 174.476V405.15Z" fill="url(#paint4_linear_323_630)"/>
<path d="M51.2711 216.907L46.876 216.931V200.054H51.2711V216.907Z" fill="url(#paint5_linear_323_630)"/>
<path d="M61.9448 216.821L58.8057 216.854V199.608L61.9448 199.6V216.821Z" fill="url(#paint6_linear_323_630)"/>
<path d="M61.9462 199.685C61.9462 200.017 61.8952 200.29 61.5702 200.29H58.3943C58.0675 200.29 58.1782 200.023 58.1782 199.691V198.825C58.1782 198.493 58.1782 198.221 58.5014 198.221H61.7038C62.0305 198.221 61.9462 198.486 61.9462 198.818V199.685Z" fill="url(#paint7_linear_323_630)"/>
<path d="M61.9462 218.975C61.9462 219.307 61.8952 219.581 61.5702 219.585L58.3943 219.615C58.0675 219.615 58.1782 219.351 58.1782 219.017V218.153C58.1782 217.822 58.1782 217.548 58.5014 217.546L61.7038 217.518C62.0305 217.518 61.9462 217.779 61.9462 218.113V218.975Z" fill="url(#paint8_linear_323_630)"/>
<path d="M73.8734 216.747L70.7344 216.768V199.598L73.8734 199.592V216.747Z" fill="url(#paint9_linear_323_630)"/>
<path d="M86.4303 216.663L82.6641 216.694V199.592L86.4303 199.583V216.663Z" fill="url(#paint10_linear_323_630)"/>
<path d="M44.4326 196.152L66.5538 183.713L88.3448 196.17L44.4326 196.152Z" fill="url(#paint11_linear_323_630)"/>
<path d="M51.9001 199.703C51.9001 200.037 51.4522 200.305 51.1237 200.305H47.5103C47.3472 200.306 47.1902 200.243 47.0723 200.131C46.9544 200.018 46.8847 199.864 46.8779 199.701V198.834C46.8779 198.5 47.094 198.167 47.4225 198.167H51.0815C51.41 198.167 51.9001 198.5 51.9001 198.834V199.703Z" fill="url(#paint12_linear_323_630)"/>
<path d="M51.9004 219.062C51.9004 219.395 51.4524 219.666 51.1239 219.669L47.5105 219.695C47.3478 219.698 47.1906 219.637 47.0724 219.525C46.9543 219.413 46.8846 219.259 46.8782 219.097V218.229C46.8714 218.153 46.8803 218.076 46.9042 218.004C46.9281 217.931 46.9665 217.864 47.0172 217.807C47.0678 217.75 47.1296 217.704 47.1987 217.671C47.2678 217.639 47.3428 217.621 47.4192 217.618L51.1503 217.595C51.4788 217.595 51.9004 217.862 51.9004 218.196V219.062Z" fill="url(#paint13_linear_323_630)"/>
<path d="M74.4958 199.677C74.4945 199.835 74.431 199.987 74.319 200.099C74.207 200.212 74.0554 200.275 73.8968 200.277H70.2079C69.8847 200.277 69.4648 200.012 69.4648 199.68V198.82C69.4648 198.488 69.8777 198.218 70.2009 198.218H73.8125C74.1357 198.218 74.487 198.483 74.487 198.813L74.4958 199.677Z" fill="url(#paint14_linear_323_630)"/>
<path d="M74.4958 218.884C74.4945 219.043 74.4312 219.195 74.3193 219.308C74.2075 219.421 74.0559 219.486 73.8968 219.49L70.2079 219.52C69.8847 219.52 69.4648 219.258 69.4648 218.926V218.066C69.4648 217.734 69.8777 217.461 70.2009 217.46L73.8125 217.433C74.1357 217.433 74.487 217.695 74.487 218.025L74.4958 218.884Z" fill="url(#paint15_linear_323_630)"/>
<path d="M86.4407 199.668C86.4443 199.744 86.4325 199.82 86.4061 199.892C86.3796 199.964 86.3391 200.03 86.2869 200.085C86.2347 200.141 86.1718 200.186 86.102 200.217C86.0321 200.248 85.9568 200.265 85.8804 200.267H82.1915C81.87 200.267 81.415 199.998 81.415 199.668V198.809C81.415 198.479 81.8805 198.214 82.202 198.214H85.7767C85.9416 198.213 86.1006 198.274 86.223 198.385C86.3454 198.495 86.4224 198.647 86.439 198.811L86.4407 199.668Z" fill="url(#paint16_linear_323_630)"/>
<path d="M86.4407 218.8C86.444 218.876 86.4321 218.953 86.4056 219.024C86.3792 219.096 86.3387 219.162 86.2865 219.218C86.2344 219.274 86.1717 219.319 86.1019 219.351C86.0322 219.382 85.9569 219.4 85.8804 219.402L82.1915 219.427C81.87 219.427 81.415 219.162 81.415 218.831V217.975C81.415 217.644 81.8805 217.376 82.202 217.374L85.7767 217.351C85.9412 217.349 86.1004 217.409 86.2231 217.518C86.3457 217.628 86.4227 217.779 86.439 217.943L86.4407 218.8Z" fill="url(#paint17_linear_323_630)"/>
<path d="M87.059 224.171L46.249 224.556V220.401L87.059 220.073V224.171Z" fill="url(#paint18_linear_323_630)"/>
<path d="M90.1983 224.152L43.7373 224.57V222.491L90.1983 222.104V224.152Z" fill="url(#paint19_linear_323_630)"/>
<path d="M105.003 194.918H111.624C114.63 194.918 116.809 195.363 118.162 196.254C119.514 197.145 120.191 198.555 120.191 200.485C120.191 201.796 119.895 202.873 119.304 203.716C119.035 204.117 118.686 204.46 118.28 204.722C117.874 204.984 117.418 205.16 116.941 205.24V205.391C118.28 205.699 119.245 206.277 119.838 207.126C120.43 207.975 120.726 209.105 120.725 210.517C120.725 212.521 120.029 214.088 118.638 215.218C117.247 216.347 115.354 216.921 112.959 216.938L105.003 216.993V194.918ZM109.517 203.652H112.131C113.348 203.652 114.23 203.455 114.777 203.059C115.324 202.663 115.597 202.016 115.595 201.117C115.595 200.274 115.299 199.67 114.705 199.304C114.109 198.939 113.171 198.755 111.884 198.757H109.517V203.652ZM109.517 207.363V213.109L112.451 213.091C113.688 213.084 114.601 212.833 115.19 212.339C115.779 211.845 116.071 211.091 116.068 210.078C116.068 208.254 114.813 207.345 112.302 207.352L109.517 207.363Z" fill="url(#paint20_linear_323_630)"/>
<path d="M138.473 216.77L136.963 211.582L129.341 211.621L127.821 216.842L123.019 216.875L130.43 194.849H135.849L143.227 216.733L138.473 216.77ZM135.907 207.703C134.502 202.996 133.714 200.332 133.543 199.712C133.372 199.091 133.246 198.605 133.167 198.254C132.853 199.533 131.951 202.693 130.461 207.737L135.907 207.703Z" fill="url(#paint21_linear_323_630)"/>
<path d="M164.814 216.589L159.293 216.628L150.334 200.248H150.206C150.385 203.152 150.475 205.223 150.475 206.46V216.693L146.556 216.719V194.953H152.084L161.016 211.177H161.113C160.972 208.367 160.902 206.377 160.902 205.207V194.958H164.811L164.814 216.589Z" fill="url(#paint22_linear_323_630)"/>
<path d="M186.946 216.438L182.093 216.471L176.793 207.437L174.975 208.827V216.517L170.664 216.545V194.972H174.975V204.831L176.668 202.293L182.147 194.978H186.89L179.851 204.49L186.946 216.438Z" fill="url(#paint23_linear_323_630)"/>
<path d="M206.621 198.454C205.037 198.454 203.807 199.094 202.933 200.374C202.058 201.653 201.622 203.437 201.626 205.726C201.626 210.484 203.289 212.853 206.616 212.834C208.009 212.827 209.693 212.445 211.67 211.688V215.463C209.955 216.221 208.099 216.606 206.224 216.592C203.333 216.611 201.119 215.684 199.583 213.811C198.046 211.938 197.28 209.238 197.283 205.71C197.283 203.486 197.661 201.539 198.418 199.868C199.175 198.198 200.258 196.917 201.669 196.026C203.082 195.135 204.734 194.691 206.627 194.695C208.552 194.695 210.484 195.196 212.424 196.198L211.071 199.863C210.345 199.492 209.599 199.162 208.837 198.876C208.13 198.603 207.379 198.46 206.621 198.454V198.454Z" fill="url(#paint24_linear_323_630)"/>
<path d="M232.615 216.125L228.494 216.153V207.022L220.736 207.05V216.197L216.564 216.227V195.009H220.736V203.315L228.494 203.298V195.015H232.615V216.125Z" fill="url(#paint25_linear_323_630)"/>
<path d="M249.328 216.011L238.203 216.087V195.027L249.328 195.036V198.679H242.301V203.298L248.834 203.284V206.927L242.301 206.95V212.373L249.328 212.334V216.011Z" fill="url(#paint26_linear_323_630)"/>
<path d="M262.126 198.43C260.604 198.43 259.425 199.057 258.59 200.312C257.755 201.567 257.336 203.315 257.334 205.556C257.334 210.22 258.931 212.543 262.126 212.525C263.465 212.517 265.083 212.142 266.982 211.4V215.112C265.338 215.854 263.552 216.231 261.749 216.217C258.973 216.235 256.847 215.327 255.37 213.491C253.893 211.656 253.154 209.007 253.153 205.545C253.153 203.368 253.516 201.46 254.242 199.821C254.969 198.182 256.01 196.927 257.366 196.056C258.722 195.185 260.309 194.75 262.126 194.751C263.978 194.751 265.834 195.242 267.695 196.224L266.397 199.817C265.7 199.453 264.983 199.13 264.25 198.848C263.574 198.579 262.854 198.437 262.126 198.43V198.43Z" fill="url(#paint27_linear_323_630)"/>
<path d="M286.817 215.755L282.303 215.785L277.384 207.071L275.694 208.413V215.83L271.688 215.858V195.053H275.694V204.558L277.275 202.112L282.37 195.058H286.782L280.237 204.232L286.817 215.755Z" fill="url(#paint28_linear_323_630)"/>
<path d="M382.982 219.853C382.982 222.379 382.185 224.416 380.591 225.964C378.997 227.513 376.758 228.458 373.872 228.799V233.696L371.002 233.736V228.929C367.587 228.89 364.585 228.238 361.997 226.972V220.637C363.402 221.386 364.882 221.983 366.413 222.417C367.905 222.885 369.444 223.184 371.002 223.307V215.892L369.596 215.279C366.823 214.051 364.856 212.709 363.696 211.252C362.535 209.796 361.955 207.987 361.955 205.826C361.955 203.505 362.753 201.596 364.349 200.098C365.946 198.601 368.163 197.694 371.002 197.376V193.715H373.872V197.275C377.062 197.434 379.94 198.164 382.504 199.466L380.549 205.045C378.447 204.051 376.188 203.427 373.874 203.201V210.25C376.59 211.43 378.522 212.454 379.671 213.321C380.82 214.189 381.659 215.144 382.19 216.187C382.742 217.329 383.014 218.586 382.982 219.853V219.853ZM368.295 205.805C368.271 206.445 368.501 207.068 368.936 207.538C369.361 207.992 370.05 208.455 371.002 208.929V203.31C369.197 203.616 368.295 204.447 368.295 205.805ZM376.714 220.266C376.722 219.951 376.663 219.638 376.542 219.347C376.421 219.056 376.24 218.794 376.012 218.577C375.372 218.007 374.654 217.53 373.881 217.161V223.111C375.771 222.726 376.716 221.777 376.714 220.264V220.266Z" fill="url(#paint29_linear_323_630)"/>
<path d="M408.089 219.634C408.089 222.134 407.307 224.151 405.742 225.685C404.178 227.219 401.981 228.155 399.153 228.495V233.346L396.342 233.385V228.623C392.992 228.584 390.048 227.94 387.51 226.691V220.415C388.886 221.155 390.338 221.744 391.84 222.171C393.303 222.633 394.813 222.927 396.342 223.049V215.709L394.964 215.101C392.242 213.887 390.313 212.559 389.177 211.115C388.041 209.672 387.472 207.88 387.47 205.74C387.47 203.443 388.252 201.553 389.817 200.068C391.381 198.584 393.556 197.685 396.342 197.373V193.748H399.153V197.274C402.281 197.432 405.103 198.156 407.62 199.445L405.702 204.969C403.641 203.986 401.425 203.368 399.153 203.143V210.125C401.819 211.296 403.712 212.309 404.834 213.166C405.956 214.023 406.779 214.969 407.304 216.004C407.849 217.135 408.118 218.379 408.089 219.634V219.634ZM393.685 205.721C393.661 206.353 393.887 206.969 394.314 207.436C394.732 207.886 395.407 208.345 396.341 208.815V203.248C394.569 203.548 393.683 204.372 393.683 205.721H393.685ZM401.941 220.043C401.946 219.73 401.887 219.42 401.766 219.132C401.645 218.844 401.465 218.584 401.238 218.369C400.611 217.805 399.908 217.332 399.148 216.965V222.858C401.01 222.478 401.941 221.54 401.941 220.043Z" fill="url(#paint30_linear_323_630)"/>
<path d="M432.716 219.421C432.716 221.897 431.948 223.895 430.414 225.415C428.88 226.934 426.725 227.86 423.95 228.193V232.997L421.189 233.036V228.319C417.904 228.281 415.016 227.641 412.527 226.4V220.185C413.875 220.92 415.299 221.506 416.774 221.933C418.207 222.393 419.688 222.687 421.189 222.811V215.537L419.838 214.937C417.169 213.733 415.276 212.417 414.16 210.987C413.044 209.558 412.486 207.784 412.486 205.665C412.486 203.389 413.254 201.516 414.789 200.046C416.325 198.575 418.458 197.685 421.189 197.375V193.785H423.95V197.278C427.019 197.434 429.788 198.15 432.255 199.427L430.374 204.899C428.355 203.925 426.181 203.313 423.95 203.091V210.004C426.564 211.163 428.422 212.167 429.524 213.017C430.533 213.759 431.361 214.72 431.946 215.827C432.481 216.948 432.744 218.18 432.716 219.421V219.421ZM418.585 205.639C418.561 206.264 418.782 206.875 419.202 207.34C419.611 207.784 420.273 208.239 421.189 208.705V203.191C419.453 203.493 418.585 204.309 418.585 205.639ZM426.685 219.825C426.692 219.517 426.634 219.21 426.517 218.925C426.399 218.64 426.224 218.382 426.002 218.168C425.388 217.609 424.697 217.141 423.95 216.779V222.614C425.773 222.237 426.685 221.307 426.685 219.825Z" fill="url(#paint31_linear_323_630)"/>
<path d="M426.095 264.484L52.5273 274.269V263.21L426.095 254.83V264.484Z" fill="url(#paint32_linear_323_630)"/>
<path d="M426.095 292.241L52.5273 306.067V295.697L426.095 283.189V292.241Z" fill="url(#paint33_linear_323_630)"/>
<path d="M195.048 370.518L36.832 380.313V369.194L195.048 359.994V370.518Z" fill="url(#paint34_linear_323_630)"/>
<path d="M437.395 355.435L306.804 363.56V353.46L437.395 345.826V355.435Z" fill="url(#paint35_linear_323_630)"/>
<path style="mix-blend-mode:multiply" opacity="0.3" d="M353.892 402.191L1.04395 429.631V151.829L2.40709 151.85C23.52 161.944 42.1472 179.523 47.0254 208.569C59.4131 282.241 85.0511 279.772 104.994 282.859C124.668 285.904 172.57 296.274 176.68 339.285C180.773 382.166 228.453 378.583 251.688 376.283C268.766 374.599 324.541 380.015 353.892 402.191Z" fill="#A4CCF0"/>
<path d="M477.206 143.894V378.396L18.8799 411.376V134.113L477.206 143.894Z" fill="#F5F5F5"/>
<path d="M463.765 362.781L26.7861 391.369V152.219L463.765 158.86V362.781ZM31.8101 386.178L459.373 358.84V162.958L31.8101 157.163V386.178Z" fill="#D8DEE8"/>
<path d="M72.0103 199.422H67.6152V181.733L72.0103 181.758V199.422Z" fill="#D8DEE8"/>
<path d="M83.3102 198.958L79.5439 198.965V181.795L83.3102 181.807V198.958Z" fill="#D8DEE8"/>
<path d="M83.3054 181.207C83.3045 181.365 83.2411 181.517 83.1289 181.629C83.0168 181.741 82.865 181.804 82.7064 181.805L79.0175 181.79C78.6943 181.79 78.2744 181.521 78.2744 181.191V180.329C78.2744 179.998 78.6872 179.728 79.0104 179.73L82.6221 179.747C82.9453 179.747 83.2966 180.016 83.2966 180.348L83.3054 181.207Z" fill="#D8DEE8"/>
<path d="M84.0496 201.137C84.0482 201.296 83.9848 201.448 83.8728 201.56C83.7609 201.673 83.6093 201.737 83.4506 201.739H79.7616C79.4384 201.739 79.0186 201.474 79.0186 201.142V200.291C79.0186 199.959 79.4314 199.688 79.7546 199.688H83.3662C83.6894 199.688 84.0408 199.953 84.0408 200.283L84.0496 201.137Z" fill="#D8DEE8"/>
<path d="M95.2397 198.951L92.1006 198.958V181.858L95.2397 181.87V198.951Z" fill="#D8DEE8"/>
<path d="M107.17 198.944L103.403 198.941V181.913L107.17 181.934V198.944Z" fill="#D8DEE8"/>
<path d="M65.8477 178.272L87.7809 166.014L109.389 178.545L65.8477 178.272Z" fill="#D8DEE8"/>
<path d="M72.6392 181.158C72.6289 181.32 72.5564 181.473 72.4368 181.584C72.3172 181.695 72.1595 181.756 71.9963 181.755L68.3284 181.737C68.0017 181.737 67.6152 181.463 67.6152 181.131V180.267C67.6152 179.934 67.9753 179.665 68.3021 179.667L71.9488 179.69C72.2756 179.69 72.6392 179.964 72.6392 180.295V181.158Z" fill="#D8DEE8"/>
<path d="M72.731 201.337C72.7207 201.5 72.6484 201.653 72.5289 201.765C72.4093 201.877 72.2516 201.938 72.0881 201.938H68.4202C68.0935 201.938 67.707 201.667 67.707 201.335V200.471C67.707 200.138 68.0671 199.867 68.3939 199.867H72.0406C72.3674 199.867 72.731 200.138 72.731 200.47V201.337Z" fill="#D8DEE8"/>
<path d="M95.8687 181.275C95.8742 181.35 95.8644 181.425 95.8398 181.497C95.8153 181.568 95.7766 181.633 95.7259 181.689C95.6753 181.744 95.6139 181.789 95.5455 181.82C95.477 181.852 95.4029 181.869 95.3277 181.87L91.9462 181.856C91.6247 181.856 91.4736 181.588 91.4736 181.257V180.401C91.4736 180.07 91.6493 179.802 91.9655 179.803L95.3733 179.821C95.6931 179.821 95.8687 180.09 95.8687 180.42V181.275Z" fill="#D8DEE8"/>
<path d="M95.8687 201.083C95.8742 201.158 95.8644 201.234 95.8399 201.305C95.8154 201.376 95.7767 201.442 95.7261 201.498C95.6756 201.554 95.6142 201.599 95.5457 201.631C95.4772 201.662 95.4031 201.68 95.3277 201.682L91.9462 201.691C91.6247 201.691 91.4736 201.427 91.4736 201.097V200.24C91.4736 199.91 91.6493 199.64 91.9655 199.64H95.3733C95.693 199.64 95.8687 199.903 95.8687 200.233V201.083Z" fill="#D8DEE8"/>
<path d="M107.17 181.338C107.173 181.415 107.159 181.491 107.132 181.562C107.104 181.633 107.063 181.698 107.01 181.753C106.957 181.808 106.893 181.852 106.823 181.883C106.753 181.913 106.678 181.929 106.601 181.93L102.93 181.911C102.612 181.911 102.146 181.64 102.146 181.31V180.457C102.146 180.128 102.616 179.865 102.933 179.867L106.496 179.888C106.814 179.888 107.17 180.158 107.17 180.487V181.338Z" fill="#D8DEE8"/>
<path d="M107.887 201.318C107.889 201.394 107.876 201.47 107.848 201.541C107.821 201.613 107.779 201.678 107.726 201.733C107.673 201.788 107.61 201.832 107.54 201.863C107.47 201.893 107.395 201.91 107.318 201.911H103.647C103.329 201.911 102.863 201.644 102.863 201.316V200.462C102.863 200.132 103.332 199.867 103.65 199.867H107.209C107.527 199.867 107.884 200.132 107.884 200.461L107.887 201.318Z" fill="#D8DEE8"/>
<path d="M109.054 205.742L67.6152 205.875V202.426L109.054 202.342V205.742Z" fill="#D8DEE8"/>
<path d="M110.309 205.733L65.1035 205.875V204.495L110.309 204.374V205.733Z" fill="#D8DEE8"/>
<path d="M117.097 177.709L123.661 177.753C126.642 177.774 128.803 178.231 130.145 179.123C131.487 180.015 132.158 181.423 132.158 183.348C132.158 184.654 131.865 185.725 131.28 186.561C131.013 186.959 130.667 187.298 130.264 187.556C129.861 187.815 129.409 187.988 128.936 188.064V188.213C130.264 188.527 131.222 189.109 131.808 189.959C132.395 190.809 132.688 191.936 132.687 193.341C132.687 195.331 131.998 196.887 130.619 198.009C129.241 199.13 127.363 199.691 124.986 199.691H117.097V177.709ZM121.573 186.435H124.165C125.373 186.435 126.247 186.243 126.788 185.86C127.329 185.478 127.6 184.834 127.6 183.929C127.6 183.089 127.307 182.486 126.721 182.118C126.136 181.751 125.203 181.563 123.923 181.556L121.576 181.542L121.573 186.435ZM121.573 190.122V195.843H124.482C125.71 195.843 126.615 195.599 127.197 195.109C127.779 194.62 128.072 193.871 128.076 192.863C128.076 191.047 126.83 190.135 124.339 190.128L121.573 190.122Z" fill="#D8DEE8"/>
<path d="M150.289 199.659L148.79 194.484H141.237L139.728 199.675H134.966L142.317 177.784L147.691 177.821L155 199.659H150.289ZM147.744 190.616C146.356 185.919 145.575 183.261 145.4 182.643C145.225 182.027 145.1 181.539 145.024 181.182C144.712 182.453 143.817 185.593 142.34 190.603L147.744 190.616Z" fill="#D8DEE8"/>
<path d="M176.413 199.643H170.938L162.054 183.279H161.928C162.105 186.171 162.194 188.234 162.195 189.469V199.654H158.308V177.986L163.79 178.023L172.649 194.233H172.745C172.607 191.43 172.538 189.449 172.538 188.289V178.083L176.413 178.109V199.643Z" fill="#D8DEE8"/>
<path d="M198.364 199.624H193.551L188.294 190.595L186.49 191.97V199.631H182.216V178.148L186.49 178.178V187.996L188.169 185.479L193.615 178.227L198.319 178.259L191.338 187.69L198.364 199.624Z" fill="#D8DEE8"/>
<path d="M435.513 248.597L65.084 256.038V245.714L435.513 239.58V248.597Z" fill="#D8DEE8"/>
<path d="M435.513 276.25L65.084 287.695V278.06L435.513 267.833V276.25Z" fill="#D8DEE8"/>
<path d="M205.721 353.453L48.7607 362.208V350.447L205.721 342.314V353.453Z" fill="#D8DEE8"/>
<path d="M446.814 339.877L317.478 347.173V336.485L446.814 329.708V339.877Z" fill="#D8DEE8"/>
<path opacity="0.3" d="M364.241 385.96L14.8564 411.092V133.83L15.5433 133.847C36.4735 144.42 54.8566 161.821 59.6996 190.772C71.9819 264.207 97.3617 261.992 117.141 265.188C136.64 268.349 184.137 279.003 188.213 321.864C192.272 364.595 239.682 361.501 262.736 359.353C279.67 357.78 335.116 363.689 364.241 385.96Z" fill="#D8D8D8"/>
<path d="M315.596 348.85C315.596 348.85 317.194 346.392 320.073 342.178C321.51 340.07 323.288 337.521 325.354 334.627C327.419 331.733 329.784 328.481 332.44 324.979C335.096 321.478 338.028 317.727 341.399 313.929C343.103 312.039 344.887 310.125 347.006 308.32C347.554 307.855 348.126 307.418 348.719 307.012C349.388 306.541 350.117 306.16 350.886 305.879C351.409 305.694 351.962 305.61 352.516 305.633C352.88 305.657 353.236 305.743 353.57 305.888C353.923 306.042 354.242 306.263 354.51 306.539C355.503 307.619 355.517 308.725 355.664 309.277C356.209 312.128 356.439 315.031 356.351 317.932C356.308 319.424 356.162 320.912 355.915 322.384C355.669 323.933 355.24 325.448 354.637 326.897C354.29 327.73 353.816 328.504 353.231 329.192C352.847 329.631 352.383 329.994 351.863 330.259C351.2 330.59 350.447 330.697 349.718 330.565C349.094 330.435 348.509 330.158 348.012 329.759L347.902 329.673L347.747 329.545C347.64 329.457 347.554 329.369 347.461 329.29C347.272 329.111 347.096 328.918 346.934 328.714C346.555 328.249 346.275 327.711 346.11 327.134C345.942 326.507 345.928 325.848 346.07 325.214C346.347 324.006 346.978 323.199 347.575 322.529C348.16 321.911 348.808 321.354 349.507 320.868C350.798 319.976 352.168 319.206 353.602 318.568C356.37 317.335 359.253 316.381 362.209 315.718C365.148 315.061 368.135 314.612 371.245 314.696C372.802 314.764 374.407 314.921 376.078 315.63C377.017 316.017 377.84 316.641 378.465 317.441C378.548 317.553 378.629 317.667 378.702 317.792C378.776 317.916 378.85 318.043 378.878 318.103L379.131 318.566L379.639 319.521C380.299 320.777 380.923 321.996 381.594 323.1C382.265 324.205 382.999 325.183 383.812 325.861C384.585 326.527 385.544 326.939 386.56 327.041C387.673 327.122 388.791 327.003 389.862 326.689C392.146 326.056 394.354 324.921 396.455 323.704C398.621 322.449 400.734 321.221 402.831 320.071C403.885 319.499 404.939 318.944 406.016 318.438C407.127 317.898 408.29 317.473 409.487 317.168C410.731 316.887 412.016 316.836 413.278 317.019C414.446 317.181 415.46 317.426 416.44 317.646L417.868 317.967C418.323 318.064 418.847 318.189 419.106 318.215C419.689 318.311 420.286 318.232 420.823 317.987C421.293 317.737 421.682 317.358 421.942 316.893C422.229 316.37 422.413 315.797 422.483 315.205C422.632 314.057 422.486 312.889 422.058 311.813C421.725 310.934 421.188 310.146 420.492 309.514C419.962 309.042 419.349 308.673 418.683 308.425C418.249 308.264 417.8 308.146 417.343 308.074C417.025 308.025 416.856 308.009 416.856 308.009C416.764 308.002 416.673 307.976 416.59 307.934C416.508 307.891 416.434 307.833 416.374 307.762C416.314 307.691 416.269 307.608 416.241 307.52C416.213 307.431 416.203 307.338 416.212 307.245C416.226 307.086 416.295 306.936 416.405 306.82C416.515 306.704 416.661 306.629 416.819 306.606C416.819 306.606 417.014 306.58 417.403 306.553C417.984 306.51 418.568 306.54 419.142 306.643C420.106 306.807 421.026 307.17 421.843 307.709C422.961 308.455 423.872 309.473 424.491 310.666C425.265 312.15 425.624 313.816 425.529 315.488C425.464 316.488 425.205 317.465 424.766 318.366C424.248 319.446 423.4 320.334 422.344 320.9C421.227 321.472 419.964 321.696 418.718 321.543C418.186 321.478 417.658 321.383 417.137 321.258L415.686 320.935C414.718 320.719 413.742 320.491 412.837 320.37C411.978 320.242 411.102 320.277 410.255 320.471C408.498 320.896 406.494 321.961 404.474 323.06C402.454 324.159 400.346 325.404 398.183 326.665C395.956 327.95 393.565 329.218 390.772 330.01C389.288 330.446 387.736 330.606 386.194 330.484C385.353 330.393 384.529 330.183 383.747 329.859C382.964 329.526 382.235 329.078 381.585 328.528C380.297 327.459 379.396 326.171 378.615 324.914C377.833 323.657 377.192 322.38 376.54 321.151L376.055 320.243L375.8 319.78C375.749 319.683 375.732 319.657 375.716 319.63C375.7 319.604 375.674 319.571 375.655 319.541C375.39 319.227 375.049 318.985 374.666 318.838C373.719 318.426 372.422 318.247 371.126 318.208C368.491 318.136 365.712 318.543 362.998 319.161C360.275 319.782 357.618 320.664 355.065 321.795C353.834 322.336 352.654 322.988 351.541 323.743C351.042 324.085 350.579 324.476 350.159 324.911C349.783 325.308 349.537 325.727 349.5 325.948C349.479 326.028 349.479 326.111 349.5 326.191C349.535 326.311 349.595 326.422 349.676 326.517C349.738 326.596 349.805 326.67 349.878 326.739L349.997 326.846L350.048 326.893L350.152 326.974C350.218 327.031 350.292 327.08 350.371 327.118C350.35 327.104 350.273 327.134 350.329 327.118C350.449 327.049 350.556 326.959 350.646 326.853C350.987 326.44 351.265 325.979 351.471 325.485C351.964 324.295 352.318 323.051 352.525 321.78C352.752 320.464 352.888 319.135 352.934 317.801C353.028 315.153 352.832 312.504 352.351 309.898L352.255 309.403L352.232 309.279L352.214 309.21C352.206 309.163 352.194 309.117 352.179 309.071C352.132 308.906 352.068 308.822 352.105 308.871C352.159 308.922 352.226 308.955 352.299 308.968C352.178 308.974 352.06 308.998 351.947 309.04C351.463 309.224 351.004 309.468 350.581 309.765C350.082 310.104 349.602 310.468 349.14 310.855C347.243 312.45 345.492 314.29 343.839 316.109C340.533 319.771 337.571 323.436 334.892 326.858C329.543 333.707 325.32 339.635 322.364 343.769C319.407 347.902 317.788 350.326 317.788 350.326C317.59 350.607 317.289 350.8 316.95 350.863C316.612 350.927 316.262 350.855 315.975 350.664C315.688 350.473 315.488 350.178 315.416 349.841C315.344 349.504 315.407 349.152 315.59 348.861L315.596 348.85Z" fill="#97A6B7"/>
<path d="M400.636 240.241C400.636 240.241 399.198 236.692 399.43 235.095C399.661 233.499 403.47 231.367 406.057 229.167C408.645 226.967 405.961 231.38 405.355 232.384C404.749 233.389 402.637 234.895 402.943 238.309L400.636 240.241Z" fill="url(#paint36_linear_323_630)"/>
<path d="M405.33 235.721C405.33 235.721 402.135 259.504 427.204 276.272L400.526 282.634C400.526 282.634 391.989 266.674 398.17 240.241L405.33 235.721Z" fill="url(#paint37_linear_323_630)"/>
<path d="M423.444 236.711C423.444 258.888 406.097 276.334 383.92 275.654C360.845 274.952 341.439 255.025 341.439 231.185C341.439 207.345 360.845 190.04 383.92 192.442C406.097 194.753 423.444 214.536 423.444 236.711Z" fill="url(#paint38_linear_323_630)"/>
<path d="M429.436 234.802C429.436 256.979 412.089 274.425 389.912 273.745C366.837 273.043 347.43 253.116 347.43 229.276C347.43 205.436 366.837 188.131 389.912 190.533C412.089 192.84 429.436 212.624 429.436 234.802Z" fill="url(#paint39_linear_323_630)"/>
<path d="M427.695 234.685C427.695 255.885 411.097 272.535 389.917 271.849C367.914 271.146 349.439 252.125 349.439 229.411C349.439 206.697 367.914 190.175 389.917 192.428C411.097 194.596 427.695 213.484 427.695 234.685Z" fill="url(#paint40_linear_323_630)"/>
<path d="M426.45 234.604C426.45 255.105 410.389 271.187 389.912 270.499C368.673 269.786 350.862 251.425 350.862 229.511C350.862 207.598 368.673 191.636 389.912 193.785C410.389 195.854 426.45 214.099 426.45 234.604Z" fill="url(#paint41_linear_323_630)"/>
<path d="M389.706 200.757C390.245 200.82 390.742 201.077 391.104 201.48C391.467 201.883 391.671 202.404 391.677 202.946V206.72C393.88 206.968 396.065 207.347 398.222 207.856C399.834 208.233 401.434 208.683 403.021 209.207C403.489 209.362 403.891 209.67 404.164 210.08C404.437 210.491 404.564 210.981 404.525 211.472L404.061 216.213C404.04 216.501 403.949 216.779 403.796 217.024C403.643 217.269 403.433 217.472 403.183 217.617C402.934 217.762 402.653 217.844 402.364 217.856C402.076 217.868 401.789 217.809 401.528 217.685C400.481 217.218 399.406 216.817 398.308 216.485C396.33 215.893 394.293 215.513 392.234 215.351L391.677 215.305V226.115C397.362 227.704 401.534 229.843 404.232 232.532C406.93 235.22 408.253 238.544 408.253 242.541C408.253 246.873 406.77 250.344 403.805 252.954C400.82 255.584 396.627 257.059 391.226 257.381V261.548C391.231 261.807 391.183 262.064 391.085 262.303C390.988 262.542 390.842 262.759 390.657 262.94C390.472 263.121 390.252 263.262 390.011 263.355C389.769 263.448 389.512 263.49 389.253 263.48H389.218C388.684 263.451 388.181 263.218 387.812 262.83C387.444 262.441 387.239 261.927 387.238 261.392V257.274L386.36 257.235C383.916 257.131 381.482 256.871 379.072 256.457C377.373 256.163 375.691 255.777 374.034 255.3C373.552 255.166 373.132 254.869 372.843 254.461C372.555 254.052 372.417 253.557 372.453 253.058L372.999 246.973C373.117 245.658 374.438 244.892 375.688 245.393C377.135 245.963 378.615 246.448 380.119 246.845C382.438 247.457 384.809 247.854 387.201 248.029L387.236 236.003C381.78 234.655 377.706 232.656 375.014 230.008C372.322 227.36 370.972 223.959 370.965 219.806C370.965 215.522 372.429 212.22 375.356 209.898C378.264 207.589 382.397 206.441 387.728 206.444V202.581C387.721 202.326 387.768 202.073 387.867 201.838C387.966 201.602 388.114 201.391 388.301 201.218C388.489 201.045 388.711 200.915 388.954 200.835C389.196 200.755 389.453 200.729 389.706 200.757V200.757ZM387.728 215.186C386.043 215.303 384.729 215.766 383.786 216.575C382.844 217.384 382.372 218.465 382.372 219.82C382.357 220.419 382.466 221.014 382.691 221.569C382.916 222.124 383.253 222.627 383.681 223.046C384.552 223.906 385.899 224.594 387.721 225.109L387.728 215.186ZM391.226 236.96V247.988C393.057 247.988 394.463 247.551 395.442 246.676C396.421 245.802 396.91 244.565 396.91 242.964C396.91 241.507 396.455 240.297 395.545 239.335C394.635 238.372 393.196 237.581 391.226 236.96V236.96Z" fill="url(#paint42_linear_323_630)"/>
<path style="mix-blend-mode:multiply" opacity="0.3" d="M383.311 239.621C384.541 227.434 395.75 222.275 394.288 211.066C393.387 204.156 388.14 198.333 382.304 193.787C364.578 195.647 350.873 210.318 350.873 229.508C350.873 251.421 368.683 269.784 389.923 270.495C391.939 270.563 393.957 270.465 395.957 270.202C387.516 261.812 382.245 250.092 383.311 239.621Z" fill="url(#paint43_linear_323_630)"/>
<path d="M410.173 439.297L410.727 448.151C410.727 448.151 409.469 449.484 407.05 448.557L404.415 439.861L410.173 439.297Z" fill="url(#paint44_linear_323_630)"/>
<path d="M409.064 445.807C409.064 445.807 413.403 447.577 412.56 449.495C412.109 450.524 410.543 452.851 409.191 454.786C408.581 455.659 407.71 456.318 406.704 456.669C405.698 457.02 404.607 457.045 403.585 456.74C402.883 456.529 402.166 456.324 401.53 456.161C401.243 456.088 400.986 455.925 400.799 455.696C400.611 455.466 400.503 455.182 400.491 454.886C400.478 454.589 400.561 454.297 400.728 454.052C400.895 453.807 401.137 453.623 401.418 453.527C401.993 453.315 402.586 453.155 403.19 453.049C404.771 452.803 406.963 449.052 407.22 447.549C407.476 446.046 409.064 445.807 409.064 445.807Z" fill="url(#paint45_linear_323_630)"/>
<path d="M419.497 354.304C413.107 356.508 389.476 365.438 384.214 385.913C383.932 387.005 383.211 390.046 383.179 395.012C383.042 415.686 395.068 433.181 403.814 443.359L412.086 443.222C413.463 437.954 414.721 430.052 412.748 421.174C409.723 407.603 401.876 404.082 403.389 397.422C406.138 385.324 434.235 387.156 436.882 376.323C437.835 372.418 435.732 365.778 419.497 354.304Z" fill="#9B9498"/>
<path d="M498.531 478.071L486.532 477.791C486.369 477.787 486.212 477.733 486.081 477.636C485.95 477.54 485.851 477.406 485.798 477.253C485.745 477.099 485.74 476.933 485.783 476.776C485.827 476.62 485.917 476.48 486.042 476.376C486.355 476.099 486.723 475.889 487.121 475.76C487.52 475.631 487.94 475.585 488.357 475.626C490.641 475.863 495.758 472.672 498.082 473.357C498.841 473.582 499.457 475.366 499.773 475.86C499.914 476.079 499.992 476.332 500 476.593C500.007 476.853 499.944 477.111 499.816 477.338C499.689 477.565 499.502 477.753 499.275 477.882C499.049 478.011 498.792 478.076 498.531 478.071V478.071Z" fill="url(#paint46_linear_323_630)"/>
<path d="M493.14 468.856L498.082 473.359C497.46 473.761 496.765 474.033 496.036 474.159C495.307 474.286 494.56 474.264 493.839 474.095L488.789 470.612L493.14 468.856Z" fill="url(#paint47_linear_323_630)"/>
<g style="mix-blend-mode:color-burn" opacity="0.3">
<path style="mix-blend-mode:color-burn" opacity="0.3" d="M398.295 407.642C394.98 398.698 391.005 387.669 395.544 381.407C400.137 375.069 410.201 380.418 420.296 375.312C424.041 373.419 427.888 370.03 431.091 363.898C436.758 369.747 437.529 373.672 436.877 376.334C434.23 387.167 406.136 385.335 403.383 397.432C401.871 404.093 409.718 407.617 412.743 421.184C414.443 428.819 413.746 435.717 412.644 440.852C411.603 435.734 409.976 430.752 407.796 426.006C404.174 418.166 401.785 417.065 398.295 407.642Z" fill="#A48F99"/>
</g>
<path d="M415.831 351.73C419.722 369.58 428.01 396.837 446.997 425.29C458.555 442.594 472.573 458.123 488.61 471.387C491.009 472.111 493.593 471.912 495.854 470.83C494.691 463.685 492.407 456.768 489.088 450.334C481.451 435.641 474.652 436.11 466.98 423.146C461.359 413.651 459.539 403.564 455.887 383.389C453.066 367.812 453.064 364.089 449.212 359.622C441.395 350.584 426.736 350.48 415.831 351.73Z" fill="#A48F99"/>
<g style="mix-blend-mode:multiply" opacity="0.3">
<path style="mix-blend-mode:multiply" opacity="0.3" d="M486.16 453.647C483.435 449.349 478.606 444.867 469.061 436.038C459.204 426.907 459.575 428.561 457.643 425.864C448.956 413.786 453.66 400.881 451.512 385.3C450.314 376.609 446.476 365.257 435.302 352.538C440.538 353.504 445.553 355.579 449.204 359.604C453.685 364.549 453.355 369.389 455.879 383.372C459.531 403.547 461.356 413.633 466.972 423.128C474.643 436.096 481.443 435.624 489.079 450.316C492.399 456.75 494.682 463.667 495.846 470.813C494.015 471.69 491.961 471.99 489.956 471.673C490.595 461.481 487.542 455.828 486.16 453.647Z" fill="#181818" fill-opacity="0.94"/>
</g>
<path d="M430.483 258.345C429.174 255.766 428.633 255.782 428.311 254.421C427.577 251.318 429.471 247.377 431.076 247.323C432.111 247.288 432.197 248.903 434.388 251.402C437.072 254.473 438.7 254.069 440.279 256.735C440.65 257.36 442.312 260.166 441.289 262.261C439.984 264.934 434.839 265.357 432.682 263.296C431.668 262.317 432.097 261.524 430.483 258.345Z" fill="url(#paint48_linear_323_630)"/>
<path d="M434.341 261.129C434.341 261.129 433.422 266.031 434.076 270.018C434.668 273.619 441.343 277.361 442.622 278.434C443.9 279.507 439.228 280.671 434.942 280.111C430.655 279.551 418.918 275.797 417.135 273.703C415.352 271.61 419.211 272.65 422.457 272.246C425.704 271.842 428.804 266.411 428.899 263.641C428.994 260.872 434.341 261.129 434.341 261.129Z" fill="url(#paint49_linear_323_630)"/>
<path d="M432.942 264.788C432.942 264.788 429.661 266.228 426.753 263.91C424.152 261.829 428.022 255.439 430.669 255.357C431.547 255.33 432.84 255.962 433.603 256.888C434.052 257.434 434.079 257.799 434.832 258.677C435.526 259.488 435.83 259.555 435.935 259.955C436.067 260.447 435.84 261.269 434.059 262.684C434.946 262.521 435.712 262.755 436.009 263.271C436.104 263.459 436.144 263.669 436.125 263.878C436.009 264.837 434.757 265.283 432.942 264.788Z" fill="url(#paint50_linear_323_630)"/>
<path d="M360.826 247.737C360.826 247.737 358.839 247.46 359.457 243.665C359.944 240.692 359.577 239.691 358.874 240.218C358.171 240.745 358.071 242.464 358.071 242.464C358.071 242.464 355.51 240.281 354.456 237.419C353.402 234.556 352.722 236.966 352.496 238.397C352.269 239.828 354.003 244.273 354.983 245.101C355.963 245.93 357.393 249.581 357.393 249.581L360.826 247.737Z" fill="url(#paint51_linear_323_630)"/>
<path d="M355.53 248.754L362.313 244.013C365.063 260.916 371.315 267.543 376.626 270.453C389.438 277.453 400.867 264.978 425.396 270.068C432.154 271.473 443.932 274.084 450.464 283.709C452.182 286.238 452.791 288.154 455.642 306.3C459.287 329.497 459.417 333.547 458.902 338.541C457.963 347.681 457.393 353.221 453.177 358.124C441.981 371.143 418.186 364.43 415.203 363.547C409.692 361.915 401.125 359.378 397.723 352.097C396.121 348.673 396.291 345.542 398.752 333.015C403.628 308.2 404.25 306.595 402.889 303.877C398.297 294.707 383.742 299.954 371.456 291.427C364.268 286.435 356.166 275.568 355.53 248.754Z" fill="url(#paint52_linear_323_630)"/>
<path style="mix-blend-mode:multiply" opacity="0.3" d="M426.348 360.226C423.948 355.309 427.174 350.773 423.636 344.861C419.128 337.326 411.016 339.884 407.963 334.316C402.744 324.795 423.29 311.514 419.114 296.354C417.122 289.118 410.155 283.878 404.348 281.893C391.438 277.488 382.996 288.719 370.893 285.207C368.026 284.375 364.734 282.65 361.407 279.072C364.35 285.279 368.005 289.028 371.453 291.42C383.75 299.947 398.295 294.7 402.886 303.87C404.248 306.588 403.626 308.193 398.75 333.008C396.29 345.535 396.115 348.666 397.72 352.09C401.123 359.371 409.69 361.908 415.2 363.54C416.834 364.022 424.704 366.247 433.329 366.031C429.482 364.468 427.412 362.396 426.348 360.226Z" fill="url(#paint53_linear_323_630)"/>
<path d="M122.139 248.352C120.878 247.373 119.896 246.08 119.293 244.603C118.541 242.671 119.07 241.814 118.128 240.609C116.934 239.082 114.49 238.423 112.814 239.17C112.383 239.328 112.013 239.621 111.76 240.005C111.016 241.263 112.67 243.442 113.99 244.603C114.984 245.481 115.395 245.41 116.449 246.153C117.503 246.896 118.762 248.125 119.816 250.422L122.139 248.352Z" fill="url(#paint54_linear_323_630)"/>
<path d="M66.8564 237.796C68.3998 237.386 69.8083 236.578 70.9406 235.452C72.3845 233.97 72.2335 232.973 73.5755 232.232C75.2724 231.29 77.7791 231.638 79.0316 232.98C79.3673 233.293 79.5933 233.706 79.6763 234.158C79.8713 235.608 77.4981 236.968 75.8293 237.522C74.5733 237.939 74.2202 237.719 72.9607 237.991C71.7311 238.258 70.05 238.904 68.1968 240.609L66.8564 237.796Z" fill="url(#paint55_linear_323_630)"/>
<path d="M72.1377 239.587C72.8719 243.082 69.0934 246.192 66.3671 249.246C60.8988 255.365 55.1722 266.291 57.2801 275.667C58.4272 280.789 62.1073 286.326 67.3034 288.951C72.8965 291.776 76.2464 289.205 82.0591 292.559C82.4894 292.807 89.8462 297.167 90.0587 303.052C90.3222 310.311 79.6472 318.032 70.5093 318.624C53.795 319.704 33.657 297.485 34.5951 275.438C35.6157 251.435 61.4152 232.384 68.837 235.614C70.0051 236.123 71.7249 237.621 72.1377 239.587Z" fill="url(#paint56_linear_323_630)"/>
<path d="M79.578 488.125L80.1753 494.205L77.3436 493.692L75.4395 487.979L79.578 488.125Z" fill="url(#paint57_linear_323_630)"/>
<path d="M62.3135 375.763C62.5548 385.037 63.639 394.269 65.5527 403.347C67.2689 411.461 68.2702 412.864 68.806 418.475C69.9706 430.688 66.034 432.435 65.312 446.237C64.5128 461.478 68.5671 473.591 70.1603 478.213C71.2865 481.477 72.6051 484.671 74.1092 487.779C75.5145 488.998 77.6436 488.529 79.9061 488.073C80.737 474.248 81.7716 461.239 82.6025 447.416L90.6338 385.028L62.3135 375.763Z" fill="url(#paint58_linear_323_630)"/>
<path style="mix-blend-mode:multiply" opacity="0.3" d="M79.8973 488.073C80.7282 474.248 81.7628 461.239 82.5937 447.416L90.625 385.028L62.3135 375.763C62.3328 376.478 62.3697 377.168 62.3978 377.87C75.6375 389.364 78.2285 398.468 78.1003 404.679C77.9422 412.213 73.8229 415.946 74.6274 426.867C75.2036 434.676 77.5504 436.052 77.5504 443.099C77.5504 452.173 73.6525 457.274 71.7536 462.517C69.9197 467.585 69.268 474.762 72.8076 484.972C73.2713 486.025 73.7122 486.97 74.1039 487.781C75.5075 488.998 77.6435 488.524 79.8973 488.073Z" fill="url(#paint59_linear_323_630)"/>
<path d="M78.5142 496.278C77.1739 494.617 75.9408 494.738 75.7177 493.611C75.542 492.733 76.1059 491.657 76.928 491.263C78.0856 490.712 79.4523 491.643 79.7614 491.853C81.8606 493.281 81.2335 495.432 83.2202 496.419C83.6207 496.617 84.2566 496.832 84.9171 497.473C85.1982 497.746 85.8938 498.426 85.7164 498.877C85.5144 499.404 84.2496 499.357 83.0463 499.313C81.6041 499.262 80.8822 499.236 80.1971 498.786C79.2485 498.17 79.5489 497.56 78.5142 496.278Z" fill="url(#paint60_linear_323_630)"/>
<path d="M81.3626 444.256L76.0646 446.33L74.5205 443.9L78.6626 441.118L81.3626 444.256Z" fill="url(#paint61_linear_323_630)"/>
<path d="M73.2746 447.609C73.5855 445.502 72.6598 444.675 73.3361 443.746C73.8631 443.017 75.0365 442.704 75.8832 443.043C77.0742 443.517 77.3183 445.15 77.3728 445.523C77.747 448.034 75.7426 449.035 76.368 451.156C76.4945 451.584 76.7685 452.197 76.7422 453.121C76.7299 453.513 76.7035 454.485 76.2503 454.663C75.7233 454.87 74.9012 453.911 74.116 452.998C73.1762 451.904 72.7107 451.356 72.5702 450.548C72.3875 449.437 73.0339 449.245 73.2746 447.609Z" fill="url(#paint62_linear_323_630)"/>
<path d="M104.286 366.165C114.157 386.283 117.508 403.06 118.775 414.014C119.59 421.058 119.513 425.414 117.482 429.79C110.215 445.459 84.8544 446.494 81.0004 446.602L77.1973 438.816C79.5301 434.489 83.6019 428.484 90.574 424.101C95.9352 420.731 98.0326 421.451 99.3712 419.184C104.741 410.097 75.748 390.415 80.0799 377.312C81.5783 372.781 87.3453 368.184 104.286 366.165Z" fill="url(#paint63_linear_323_630)"/>
<path d="M82.8993 293.841C93.5638 295.673 101.685 297.58 105.309 303.162C109.138 309.061 103.051 313.502 101.395 326.442C98.86 346.253 110.255 353.66 106.977 373.603C106.492 376.539 105.749 379.427 104.755 382.232C103.208 386.573 100.236 390.262 96.3234 392.7C92.9704 394.813 89.3901 396.543 85.6502 397.857C74.8364 401.64 69.4997 399.437 54.9496 400.272C31.1491 401.631 27.5866 408.525 16.8308 404.288C5.96257 399.999 -1.90184 388.411 0.402852 383.459C1.78356 380.494 6.13649 382.346 12.3813 378.706C20.4302 374.014 19.0793 367.61 25.6087 362.115C34.9873 354.224 44.0111 362.192 52.0336 355.332C60.1475 348.39 61.1171 331.511 57.6671 321.463C55.4151 314.899 55.373 307.766 53.7006 301.027C53.4958 300.215 53.5306 299.361 53.8008 298.568C55.1305 294.705 62.215 293.955 67.571 293.444C75.7481 292.658 82.021 293.692 82.8993 293.841Z" fill="url(#paint64_linear_323_630)"/>
<path style="mix-blend-mode:multiply" opacity="0.3" d="M18.0889 396.775C21.3825 394.58 19.5978 388.357 24.4795 385.054C29.008 381.988 32.5424 385.997 39.2176 383.951C47.7793 381.328 47.3314 373.087 55.5366 370.456C61.4371 368.565 63.2183 372.33 71.7292 372.493C80.2401 372.657 91.363 369.157 98.4159 360.147C101.096 356.701 103.001 352.717 103.998 348.468C106.27 355.804 108.741 362.897 106.985 373.603C106.362 377.356 105.321 381.027 103.882 384.548C102.776 387.262 100.905 389.596 98.4984 391.269C94.5383 394.036 90.2202 396.253 85.6628 397.857C74.849 401.64 69.5123 399.438 54.9622 400.272C31.1617 401.631 27.5992 408.525 16.8434 404.288C9.8977 401.547 4.19569 395.829 1.57129 390.766C10.9745 397.603 15.6963 398.368 18.0889 396.775Z" fill="url(#paint65_linear_323_630)"/>
<path d="M88.3047 276.365C88.3047 276.365 91.0767 281.565 91.2506 285.212C91.4245 288.86 87.307 288.596 87.307 288.596L87.4616 290.897C87.526 291.858 87.8679 292.781 88.4459 293.553C89.0239 294.324 89.8132 294.912 90.7183 295.244L92.3432 295.843C92.3432 295.843 81.7367 298.112 75.9434 294.022L77.6122 293.859C78.7587 293.747 79.8311 293.242 80.6473 292.429C81.4635 291.616 81.9732 290.546 82.0898 289.4L82.1917 288.415C82.1917 288.415 80.3507 277.043 88.3047 276.365Z" fill="url(#paint66_linear_323_630)"/>
<path d="M116.771 249.451C115.1 252.612 117.876 256.638 119.654 260.323C123.221 267.715 125.709 279.795 121.103 288.227C118.586 292.835 113.521 297.143 107.803 298.237C101.655 299.41 99.1362 296.017 92.6191 297.638C92.1378 297.757 83.864 299.921 82.0354 305.515C79.7799 312.42 87.9113 322.786 96.5328 325.875C112.299 331.522 137.787 315.716 142.967 294.266C148.608 270.911 129.066 245.488 121.04 246.547C119.777 246.708 117.709 247.676 116.771 249.451Z" fill="url(#paint67_linear_323_630)"/>
<path d="M86.6476 281.535C86.0995 281.489 85.6463 280.794 85.2704 281.008C84.8945 281.223 84.9191 282.238 85.2704 282.949C85.4911 283.393 85.8358 283.763 86.2629 284.015C85.674 284.812 85.269 285.73 85.0772 286.703C84.5801 289.337 85.9819 291.458 86.5633 292.7C89.1982 298.291 85.1035 307.133 80.6171 311.596C76.9721 315.226 75.2717 313.767 73.0952 316.731C68.8583 322.5 74.7061 328.848 72.5138 336.606C69.1762 348.411 50.5331 351.923 49.7602 352.059C49.4563 352.111 49.2508 352.145 48.9346 352.196C40.5678 353.525 27.8885 355.532 18.9595 348.673C12.2843 343.538 9.21377 334.6 9.71968 326.723C9.85318 324.652 10.4803 316.791 16.8885 310.376C17.9056 309.357 23.9273 303.341 32.0657 303.268C36.3765 303.229 37.2443 304.748 40.5414 303.808C45.0542 302.523 47.8349 298.423 49.5582 295.878C52.7307 291.197 51.4413 290.198 53.7249 287.897C58.1955 283.388 63.4426 286.928 68.2188 282.949C72.9266 279.026 70.0861 273.703 74.6305 270.305C79.319 266.804 88.2883 268.023 90.1995 272.197C91.8349 275.781 88.3287 281.674 86.6476 281.535Z" fill="url(#paint68_linear_323_630)"/>
<defs>
<linearGradient id="paint0_linear_323_630" x1="202.549" y1="75.0697" x2="297.211" y2="395.048" gradientUnits="userSpaceOnUse">
<stop stop-color="#E38DDD"/>
<stop offset="1" stop-color="#9571F6"/>
</linearGradient>
<linearGradient id="paint1_linear_323_630" x1="-4.18123" y1="77.1157" x2="220.365" y2="317.064" gradientUnits="userSpaceOnUse">
<stop stop-color="#FFC444"/>
<stop offset="1" stop-color="#F36F56"/>
</linearGradient>
<linearGradient id="paint2_linear_323_630" x1="92.9491" y1="58.4542" x2="229.454" y2="329.027" gradientUnits="userSpaceOnUse">
<stop stop-color="#FF9085"/>
<stop offset="1" stop-color="#FB6FBB"/>
</linearGradient>
<linearGradient id="paint3_linear_323_630" x1="1.04395" y1="290.73" x2="463.766" y2="290.73" gradientUnits="userSpaceOnUse">
<stop stop-color="#AA80F9"/>
<stop offset="1" stop-color="#6165D7"/>
</linearGradient>
<linearGradient id="paint4_linear_323_630" x1="14.8564" y1="289.964" x2="454.348" y2="289.964" gradientUnits="userSpaceOnUse">
<stop stop-color="#AA80F9"/>
<stop offset="1" stop-color="#6165D7"/>
</linearGradient>
<linearGradient id="paint5_linear_323_630" x1="46.876" y1="208.492" x2="51.2711" y2="208.492" gradientUnits="userSpaceOnUse">
<stop stop-color="#AA80F9"/>
<stop offset="1" stop-color="#6165D7"/>
</linearGradient>
<linearGradient id="paint6_linear_323_630" x1="58.8057" y1="208.227" x2="61.9448" y2="208.227" gradientUnits="userSpaceOnUse">
<stop stop-color="#AA80F9"/>
<stop offset="1" stop-color="#6165D7"/>
</linearGradient>
<linearGradient id="paint7_linear_323_630" x1="58.1606" y1="199.261" x2="61.955" y2="199.261" gradientUnits="userSpaceOnUse">
<stop stop-color="#AA80F9"/>
<stop offset="1" stop-color="#6165D7"/>
</linearGradient>
<linearGradient id="paint8_linear_323_630" x1="58.1606" y1="218.564" x2="61.955" y2="218.564" gradientUnits="userSpaceOnUse">
<stop stop-color="#AA80F9"/>
<stop offset="1" stop-color="#6165D7"/>
</linearGradient>
<linearGradient id="paint9_linear_323_630" x1="70.7344" y1="208.179" x2="73.8734" y2="208.179" gradientUnits="userSpaceOnUse">
<stop stop-color="#AA80F9"/>
<stop offset="1" stop-color="#6165D7"/>
</linearGradient>
<linearGradient id="paint10_linear_323_630" x1="82.6641" y1="208.139" x2="86.4303" y2="208.139" gradientUnits="userSpaceOnUse">
<stop stop-color="#AA80F9"/>
<stop offset="1" stop-color="#6165D7"/>
</linearGradient>
<linearGradient id="paint11_linear_323_630" x1="44.4309" y1="189.941" x2="88.3448" y2="189.941" gradientUnits="userSpaceOnUse">
<stop stop-color="#AA80F9"/>
<stop offset="1" stop-color="#6165D7"/>
</linearGradient>
<linearGradient id="paint12_linear_323_630" x1="46.8779" y1="199.239" x2="51.9001" y2="199.239" gradientUnits="userSpaceOnUse">
<stop stop-color="#AA80F9"/>
<stop offset="1" stop-color="#6165D7"/>
</linearGradient>
<linearGradient id="paint13_linear_323_630" x1="46.8782" y1="218.645" x2="51.9004" y2="218.645" gradientUnits="userSpaceOnUse">
<stop stop-color="#AA80F9"/>
<stop offset="1" stop-color="#6165D7"/>
</linearGradient>
<linearGradient id="paint14_linear_323_630" x1="69.4807" y1="199.252" x2="74.5028" y2="199.252" gradientUnits="userSpaceOnUse">
<stop stop-color="#AA80F9"/>
<stop offset="1" stop-color="#6165D7"/>
</linearGradient>
<linearGradient id="paint15_linear_323_630" x1="69.4807" y1="218.476" x2="74.5028" y2="218.476" gradientUnits="userSpaceOnUse">
<stop stop-color="#AA80F9"/>
<stop offset="1" stop-color="#6165D7"/>
</linearGradient>
<linearGradient id="paint16_linear_323_630" x1="81.408" y1="199.241" x2="86.432" y2="199.241" gradientUnits="userSpaceOnUse">
<stop stop-color="#AA80F9"/>
<stop offset="1" stop-color="#6165D7"/>
</linearGradient>
<linearGradient id="paint17_linear_323_630" x1="81.408" y1="218.387" x2="86.432" y2="218.387" gradientUnits="userSpaceOnUse">
<stop stop-color="#AA80F9"/>
<stop offset="1" stop-color="#6165D7"/>
</linearGradient>
<linearGradient id="paint18_linear_323_630" x1="46.249" y1="222.315" x2="87.059" y2="222.315" gradientUnits="userSpaceOnUse">
<stop stop-color="#AA80F9"/>
<stop offset="1" stop-color="#6165D7"/>
</linearGradient>
<linearGradient id="paint19_linear_323_630" x1="43.7373" y1="223.337" x2="90.1983" y2="223.337" gradientUnits="userSpaceOnUse">
<stop stop-color="#AA80F9"/>
<stop offset="1" stop-color="#6165D7"/>
</linearGradient>
<linearGradient id="paint20_linear_323_630" x1="105.003" y1="205.958" x2="120.725" y2="205.958" gradientUnits="userSpaceOnUse">
<stop stop-color="#AA80F9"/>
<stop offset="1" stop-color="#6165D7"/>
</linearGradient>
<linearGradient id="paint21_linear_323_630" x1="123.019" y1="205.863" x2="143.223" y2="205.863" gradientUnits="userSpaceOnUse">
<stop stop-color="#AA80F9"/>
<stop offset="1" stop-color="#6165D7"/>
</linearGradient>
<linearGradient id="paint22_linear_323_630" x1="146.559" y1="205.833" x2="164.814" y2="205.833" gradientUnits="userSpaceOnUse">
<stop stop-color="#AA80F9"/>
<stop offset="1" stop-color="#6165D7"/>
</linearGradient>
<linearGradient id="paint23_linear_323_630" x1="170.664" y1="205.761" x2="186.946" y2="205.761" gradientUnits="userSpaceOnUse">
<stop stop-color="#AA80F9"/>
<stop offset="1" stop-color="#6165D7"/>
</linearGradient>
<linearGradient id="paint24_linear_323_630" x1="197.278" y1="205.647" x2="212.418" y2="205.647" gradientUnits="userSpaceOnUse">
<stop stop-color="#AA80F9"/>
<stop offset="1" stop-color="#6165D7"/>
</linearGradient>
<linearGradient id="paint25_linear_323_630" x1="216.564" y1="205.623" x2="232.615" y2="205.623" gradientUnits="userSpaceOnUse">
<stop stop-color="#AA80F9"/>
<stop offset="1" stop-color="#6165D7"/>
</linearGradient>
<linearGradient id="paint26_linear_323_630" x1="238.203" y1="205.558" x2="249.328" y2="205.558" gradientUnits="userSpaceOnUse">
<stop stop-color="#AA80F9"/>
<stop offset="1" stop-color="#6165D7"/>
</linearGradient>
<linearGradient id="paint27_linear_323_630" x1="253.153" y1="205.478" x2="267.695" y2="205.478" gradientUnits="userSpaceOnUse">
<stop stop-color="#AA80F9"/>
<stop offset="1" stop-color="#6165D7"/>
</linearGradient>
<linearGradient id="paint28_linear_323_630" x1="271.679" y1="205.456" x2="286.817" y2="205.456" gradientUnits="userSpaceOnUse">
<stop stop-color="#AA80F9"/>
<stop offset="1" stop-color="#6165D7"/>
</linearGradient>
<linearGradient id="paint29_linear_323_630" x1="361.955" y1="213.725" x2="382.982" y2="213.725" gradientUnits="userSpaceOnUse">
<stop stop-color="#AA80F9"/>
<stop offset="1" stop-color="#6165D7"/>
</linearGradient>
<linearGradient id="paint30_linear_323_630" x1="387.466" y1="213.565" x2="408.089" y2="213.565" gradientUnits="userSpaceOnUse">
<stop stop-color="#AA80F9"/>
<stop offset="1" stop-color="#6165D7"/>
</linearGradient>
<linearGradient id="paint31_linear_323_630" x1="412.486" y1="213.409" x2="432.716" y2="213.409" gradientUnits="userSpaceOnUse">
<stop stop-color="#AA80F9"/>
<stop offset="1" stop-color="#6165D7"/>
</linearGradient>
<linearGradient id="paint32_linear_323_630" x1="52.5273" y1="264.549" x2="426.095" y2="264.549" gradientUnits="userSpaceOnUse">
<stop stop-color="#AA80F9"/>
<stop offset="1" stop-color="#6165D7"/>
</linearGradient>
<linearGradient id="paint33_linear_323_630" x1="52.5273" y1="294.628" x2="426.095" y2="294.628" gradientUnits="userSpaceOnUse">
<stop stop-color="#AA80F9"/>
<stop offset="1" stop-color="#6165D7"/>
</linearGradient>
<linearGradient id="paint34_linear_323_630" x1="36.832" y1="370.153" x2="195.048" y2="370.153" gradientUnits="userSpaceOnUse">
<stop stop-color="#AA80F9"/>
<stop offset="1" stop-color="#6165D7"/>
</linearGradient>
<linearGradient id="paint35_linear_323_630" x1="306.804" y1="354.694" x2="437.395" y2="354.694" gradientUnits="userSpaceOnUse">
<stop stop-color="#AA80F9"/>
<stop offset="1" stop-color="#6165D7"/>
</linearGradient>
<linearGradient id="paint36_linear_323_630" x1="403.342" y1="233.001" x2="404.446" y2="249.068" gradientUnits="userSpaceOnUse">
<stop stop-color="#F36F56"/>
<stop offset="1" stop-color="#FFC444"/>
</linearGradient>
<linearGradient id="paint37_linear_323_630" x1="411.898" y1="282.438" x2="410.169" y2="208.012" gradientUnits="userSpaceOnUse">
<stop stop-color="#6165D7"/>
<stop offset="1" stop-color="#AA80F9"/>
</linearGradient>
<linearGradient id="paint38_linear_323_630" x1="368.391" y1="238.45" x2="320.572" y2="253.802" gradientUnits="userSpaceOnUse">
<stop stop-color="#FCB148"/>
<stop offset="0.05" stop-color="#FDBA46"/>
<stop offset="0.14" stop-color="#FFC244"/>
<stop offset="0.32" stop-color="#FFC444"/>
<stop offset="0.48" stop-color="#FDB946"/>
<stop offset="0.78" stop-color="#F99C4D"/>
<stop offset="0.87" stop-color="#F8924F"/>
<stop offset="1" stop-color="#F8924F"/>
</linearGradient>
<linearGradient id="paint39_linear_323_630" x1="407.076" y1="190.863" x2="364.409" y2="285.03" gradientUnits="userSpaceOnUse">
<stop stop-color="#FFDB44"/>
<stop offset="1" stop-color="#FEEF06"/>
</linearGradient>
<linearGradient id="paint40_linear_323_630" x1="399.224" y1="290.28" x2="390.991" y2="245.293" gradientUnits="userSpaceOnUse">
<stop stop-color="#FCB148"/>
<stop offset="0.05" stop-color="#FDBA46"/>
<stop offset="0.14" stop-color="#FFC244"/>
<stop offset="0.32" stop-color="#FFC444"/>
<stop offset="0.48" stop-color="#FDB946"/>
<stop offset="0.78" stop-color="#F99C4D"/>
<stop offset="0.87" stop-color="#F8924F"/>
<stop offset="1" stop-color="#F8924F"/>
</linearGradient>
<linearGradient id="paint41_linear_323_630" x1="381.758" y1="217.465" x2="415.687" y2="289.515" gradientUnits="userSpaceOnUse">
<stop stop-color="#FCB148"/>
<stop offset="0.05" stop-color="#FDBA46"/>
<stop offset="0.14" stop-color="#FFC244"/>
<stop offset="0.32" stop-color="#FFC444"/>
<stop offset="0.48" stop-color="#FDB946"/>
<stop offset="0.78" stop-color="#F99C4D"/>
<stop offset="0.87" stop-color="#F8924F"/>
<stop offset="1" stop-color="#F8924F"/>
</linearGradient>
<linearGradient id="paint42_linear_323_630" x1="380.405" y1="201.963" x2="397.465" y2="265.922" gradientUnits="userSpaceOnUse">
<stop stop-color="#FFDB44"/>
<stop offset="1" stop-color="#FEEF06"/>
</linearGradient>
<linearGradient id="paint43_linear_323_630" x1="371.772" y1="222.127" x2="405.631" y2="294.033" gradientUnits="userSpaceOnUse">
<stop stop-color="#FCB148"/>
<stop offset="0.05" stop-color="#FDBA46"/>
<stop offset="0.14" stop-color="#FFC244"/>
<stop offset="0.32" stop-color="#FFC444"/>
<stop offset="0.48" stop-color="#FDB946"/>
<stop offset="0.78" stop-color="#F99C4D"/>
<stop offset="0.87" stop-color="#F8924F"/>
<stop offset="1" stop-color="#F8924F"/>
</linearGradient>
<linearGradient id="paint44_linear_323_630" x1="406.877" y1="445.673" x2="399.332" y2="444.376" gradientUnits="userSpaceOnUse">
<stop stop-color="#F36F56"/>
<stop offset="1" stop-color="#FFC444"/>
</linearGradient>
<linearGradient id="paint45_linear_323_630" x1="397.633" y1="412.084" x2="405.494" y2="484.889" gradientUnits="userSpaceOnUse">
<stop stop-color="#444B8C"/>
<stop offset="1" stop-color="#26264F"/>
</linearGradient>
<linearGradient id="paint46_linear_323_630" x1="459.036" y1="401.52" x2="482.298" y2="461.979" gradientUnits="userSpaceOnUse">
<stop stop-color="#444B8C"/>
<stop offset="1" stop-color="#26264F"/>
</linearGradient>
<linearGradient id="paint47_linear_323_630" x1="492.734" y1="470.388" x2="483.74" y2="471.198" gradientUnits="userSpaceOnUse">
<stop stop-color="#F36F56"/>
<stop offset="1" stop-color="#FFC444"/>
</linearGradient>
<linearGradient id="paint48_linear_323_630" x1="435.27" y1="264.954" x2="434.639" y2="245.964" gradientUnits="userSpaceOnUse">
<stop stop-color="#444B8C"/>
<stop offset="1" stop-color="#26264F"/>
</linearGradient>
<linearGradient id="paint49_linear_323_630" x1="431.91" y1="243.616" x2="426.719" y2="321.502" gradientUnits="userSpaceOnUse">
<stop stop-color="#F36F56"/>
<stop offset="1" stop-color="#FFC444"/>
</linearGradient>
<linearGradient id="paint50_linear_323_630" x1="439.381" y1="252.71" x2="420.886" y2="264.048" gradientUnits="userSpaceOnUse">
<stop stop-color="#F36F56"/>
<stop offset="1" stop-color="#FFC444"/>
</linearGradient>
<linearGradient id="paint51_linear_323_630" x1="358.528" y1="247.987" x2="361.641" y2="257.93" gradientUnits="userSpaceOnUse">
<stop stop-color="#F36F56"/>
<stop offset="1" stop-color="#FFC444"/>
</linearGradient>
<linearGradient id="paint52_linear_323_630" x1="470.823" y1="386.296" x2="375.641" y2="247.224" gradientUnits="userSpaceOnUse">
<stop stop-color="#6165D7"/>
<stop offset="1" stop-color="#AA80F9"/>
</linearGradient>
<linearGradient id="paint53_linear_323_630" x1="389.165" y1="279.835" x2="408.44" y2="380.263" gradientUnits="userSpaceOnUse">
<stop stop-color="#6165D7"/>
<stop offset="1" stop-color="#AA80F9"/>
</linearGradient>
<linearGradient id="paint54_linear_323_630" x1="117.287" y1="241.96" x2="114.529" y2="258.049" gradientUnits="userSpaceOnUse">
<stop stop-color="#FFC444"/>
<stop offset="1" stop-color="#F36F56"/>
</linearGradient>
<linearGradient id="paint55_linear_323_630" x1="73.8099" y1="233.82" x2="70.0741" y2="249.711" gradientUnits="userSpaceOnUse">
<stop stop-color="#FFC444"/>
<stop offset="1" stop-color="#F36F56"/>
</linearGradient>
<linearGradient id="paint56_linear_323_630" x1="65.9999" y1="255.89" x2="51.984" y2="383.328" gradientUnits="userSpaceOnUse">
<stop stop-color="#FF9085"/>
<stop offset="1" stop-color="#FB6FBB"/>
</linearGradient>
<linearGradient id="paint57_linear_323_630" x1="77.4049" y1="501.681" x2="79.4984" y2="442.306" gradientUnits="userSpaceOnUse">
<stop stop-color="#FFC444"/>
<stop offset="1" stop-color="#F36F56"/>
</linearGradient>
<linearGradient id="paint58_linear_323_630" x1="75.8854" y1="387.408" x2="67.2204" y2="495.968" gradientUnits="userSpaceOnUse">
<stop stop-color="#311944"/>
<stop offset="1" stop-color="#893976"/>
</linearGradient>
<linearGradient id="paint59_linear_323_630" x1="75.8854" y1="387.408" x2="67.2204" y2="495.968" gradientUnits="userSpaceOnUse">
<stop stop-color="#CDAAE9"/>
<stop offset="1" stop-color="#893976"/>
</linearGradient>
<linearGradient id="paint60_linear_323_630" x1="82.3033" y1="502.159" x2="73.5283" y2="469.055" gradientUnits="userSpaceOnUse">
<stop stop-color="#FF9085"/>
<stop offset="1" stop-color="#FB6FBB"/>
</linearGradient>
<linearGradient id="paint61_linear_323_630" x1="69.2221" y1="450.752" x2="109.243" y2="416.511" gradientUnits="userSpaceOnUse">
<stop stop-color="#FFC444"/>
<stop offset="1" stop-color="#F36F56"/>
</linearGradient>
<linearGradient id="paint62_linear_323_630" x1="70.0897" y1="454.828" x2="88.534" y2="425.963" gradientUnits="userSpaceOnUse">
<stop stop-color="#FF9085"/>
<stop offset="1" stop-color="#FB6FBB"/>
</linearGradient>
<linearGradient id="paint63_linear_323_630" x1="35.4352" y1="408.989" x2="136.878" y2="404.376" gradientUnits="userSpaceOnUse">
<stop stop-color="#311944"/>
<stop offset="1" stop-color="#893976"/>
</linearGradient>
<linearGradient id="paint64_linear_323_630" x1="75.7428" y1="249.605" x2="50.5329" y2="396.648" gradientUnits="userSpaceOnUse">
<stop stop-color="#FF9085"/>
<stop offset="1" stop-color="#FB6FBB"/>
</linearGradient>
<linearGradient id="paint65_linear_323_630" x1="114.147" y1="307.869" x2="44.8299" y2="396.529" gradientUnits="userSpaceOnUse">
<stop stop-color="#FF9085"/>
<stop offset="1" stop-color="#FB6FBB"/>
</linearGradient>
<linearGradient id="paint66_linear_323_630" x1="90.4731" y1="283.682" x2="79.1811" y2="300.59" gradientUnits="userSpaceOnUse">
<stop stop-color="#FFC444"/>
<stop offset="1" stop-color="#F36F56"/>
</linearGradient>
<linearGradient id="paint67_linear_323_630" x1="118.176" y1="266.809" x2="96.5123" y2="393.171" gradientUnits="userSpaceOnUse">
<stop stop-color="#FF9085"/>
<stop offset="1" stop-color="#FB6FBB"/>
</linearGradient>
<linearGradient id="paint68_linear_323_630" x1="28.5658" y1="353.971" x2="75" y2="263.197" gradientUnits="userSpaceOnUse">
<stop stop-color="#444B8C"/>
<stop offset="1" stop-color="#26264F"/>
</linearGradient>
</defs>
</svg>
