<svg width="502" height="347" viewBox="0 0 502 347" fill="none" xmlns="http://www.w3.org/2000/svg">
<path d="M391.904 302.994C384.525 296.81 380.721 291.087 380.035 290.005L406.035 273.581C406.035 273.581 405.999 273.519 405.923 273.406C405.945 273.439 408.109 276.626 412.44 280.061C417.973 284.449 424.556 287.318 431.537 288.385C440.632 289.833 450.013 286.8 456.282 284.012C460.402 282.196 464.328 279.968 468 277.364L491.057 281.821L486.722 301.77C477.704 308.681 463.395 315.51 450.125 318.145C428.105 322.501 407.081 315.691 391.904 302.994Z" fill="#92B5F9"/>
<path d="M429.525 86.6192L435.627 83.4575L441.689 86.6903C441.844 86.7711 442.018 86.8072 442.192 86.7945C442.367 86.7819 442.534 86.7209 442.676 86.6186C442.818 86.5162 442.928 86.3765 442.995 86.2149C443.062 86.0534 443.083 85.8764 443.055 85.7038L441.934 78.9211L446.884 74.1524C447.011 74.0303 447.101 73.8751 447.144 73.7044C447.188 73.5336 447.182 73.3541 447.129 73.1862C447.075 73.0184 446.976 72.8689 446.842 72.7547C446.707 72.6404 446.544 72.5661 446.37 72.54L439.573 71.5125L436.567 65.331C436.489 65.1732 436.368 65.0404 436.219 64.9475C436.069 64.8546 435.896 64.8054 435.72 64.8054C435.544 64.8054 435.371 64.8546 435.222 64.9475C435.072 65.0404 434.951 65.1732 434.873 65.331L431.796 71.477L424.989 72.4253C424.813 72.4476 424.647 72.5189 424.51 72.6309C424.372 72.743 424.269 72.8915 424.212 73.0593C424.155 73.2271 424.147 73.4075 424.187 73.58C424.228 73.7525 424.316 73.9101 424.442 74.0349L429.336 78.8609L428.134 85.6273C428.103 85.8034 428.122 85.9848 428.189 86.1505C428.257 86.3161 428.37 86.4592 428.516 86.563C428.662 86.6669 428.834 86.7273 429.012 86.7373C429.191 86.7472 429.369 86.7063 429.525 86.6192Z" fill="#DDE8FE"/>
<path d="M416.728 210.782H116.484V242.212H416.728V210.782Z" fill="#F47257"/>
<path d="M336.866 322.02C269.162 286.22 195.623 264.186 120.122 257.076C122.919 224.315 125.716 191.553 128.514 158.789C215.807 167.009 300.837 192.487 379.109 233.88L336.866 322.02Z" fill="#6A70E4"/>
<path d="M126.776 239.105C128.684 218.675 130.59 198.244 132.496 177.812C140.421 178.631 147.526 173.505 148.403 166.167C221.18 175.306 292.109 196.561 358.52 229.125C355.569 235.839 359.034 244.128 366.172 247.833L340.241 303.079C338.716 302.27 337.04 301.786 335.319 301.659C333.598 301.531 331.869 301.762 330.242 302.337C328.614 302.912 327.124 303.819 325.865 305C324.607 306.181 323.607 307.61 322.929 309.198C264.606 280.588 202.321 261.926 138.41 253.889C139.273 246.565 134.078 239.856 126.776 239.105Z" fill="#7C9AF2"/>
<path d="M283.011 242.477C276.909 260.051 258.089 269.004 240.634 263.64C223.188 258.231 211.979 240.009 215.903 221.763C219.827 203.516 239.178 192.631 258.807 198.701C278.437 204.77 289.108 224.935 283.011 242.477Z" fill="#50BFA5"/>
<path d="M240.487 257.441C240.975 255.479 241.463 253.517 241.952 251.555C239.455 250.743 237.068 249.625 234.847 248.227C234.048 247.723 233.466 246.94 233.214 246.031C232.961 245.121 233.056 244.151 233.48 243.308L233.587 243.1C233.829 242.65 234.164 242.257 234.568 241.944C234.973 241.632 235.438 241.408 235.934 241.287C236.431 241.166 236.947 241.151 237.45 241.242C237.952 241.333 238.43 241.528 238.853 241.815C240.858 243.148 243.058 244.162 245.373 244.821C248.926 245.819 251.727 245.177 252.375 242.706C252.984 240.362 251.358 238.279 247.046 235.418C240.807 231.3 236.828 227.001 238.202 220.956C239.443 215.491 244.488 212.211 251.866 212.848L253.309 206.956C255.475 207.558 257.638 208.169 259.797 208.79C259.336 210.612 258.873 212.425 258.408 214.231C260.413 214.883 262.344 215.744 264.169 216.8C266.036 217.893 266.691 220.194 265.672 221.926C264.617 223.714 262.196 224.227 260.316 223.06C258.606 221.998 256.755 221.182 254.818 220.637C250.593 219.437 248.806 220.809 248.376 222.549C247.874 224.602 249.83 226.509 254.768 230.056C261.723 234.866 263.803 239.222 262.275 244.745C260.753 250.211 255.564 253.659 248.147 252.845C247.6 254.947 247.054 257.048 246.507 259.147C244.5 258.573 242.493 258.004 240.487 257.441Z" fill="#3C8F7C"/>
<path d="M205.578 221.079C188.32 217.097 170.911 213.858 153.353 211.362C153.757 208.21 154.162 205.06 154.569 201.912C172.361 204.441 190.014 207.725 207.527 211.766C206.867 214.871 206.218 217.975 205.578 221.079Z" fill="#50BFA5"/>
<path d="M340.121 268.859C324.063 261.007 307.738 253.862 291.145 247.423L294.293 238.479C311.101 245.003 327.655 252.249 343.955 260.215C342.68 263.103 341.402 265.984 340.121 268.859Z" fill="#50BFA5"/>
<path d="M368.503 209.574C298.648 224.17 232.138 253.416 172.449 295.777C156.326 267.952 140.202 240.127 124.079 212.302C193.081 163.325 270.009 129.499 350.762 112.635C356.676 144.951 362.589 177.264 368.503 209.574Z" fill="#7178FA"/>
<path d="M167.385 277.257L137.573 224.889C143.88 220.492 146.285 211.9 142.847 205.516C201.646 166.503 265.803 138.29 332.909 121.951C334.455 129.165 341.615 133.552 348.95 131.953C352.79 152.088 356.631 172.219 360.471 192.347C353.721 193.82 349.54 201.013 351.087 208.222C292.158 222.574 235.819 247.347 184.186 281.605C180.751 275.24 173.189 273.21 167.385 277.257Z" fill="#7C9AF2"/>
<path d="M284.585 180.583C289.838 198.439 280.915 217.521 265.052 224.359C249.171 231.153 230.78 223.793 223.544 206.793C216.307 189.792 224.549 168.829 242.4 161.172C260.25 153.515 279.344 162.762 284.585 180.583Z" fill="#4951EC"/>
<path d="M261.51 219.533L259.324 213.922C257.049 214.861 254.66 215.492 252.218 215.8C250.401 216.013 248.759 214.685 248.469 212.75L248.436 212.518C248.117 210.386 249.579 208.356 251.609 208.145C253.854 207.925 256.047 207.335 258.099 206.399C261.286 204.923 262.986 202.639 262.089 200.264C261.239 198.015 258.884 197.392 254.109 197.859C247.22 198.55 241.894 197.665 239.552 191.984C237.429 186.841 239.339 181.023 245.132 176.855L242.927 171.253C244.856 170.355 246.792 169.466 248.734 168.586L250.729 173.794C252.555 173.044 254.46 172.502 256.408 172.179C256.875 172.106 257.352 172.13 257.81 172.25C258.268 172.37 258.695 172.583 259.067 172.876C259.438 173.169 259.745 173.535 259.968 173.953C260.191 174.37 260.325 174.829 260.362 175.3C260.466 176.307 260.18 177.316 259.561 178.118C258.943 178.919 258.04 179.452 257.039 179.607C255.169 179.855 253.347 180.384 251.636 181.178C247.849 182.911 247.289 185.141 247.939 186.789C248.707 188.74 251.218 189.01 256.826 188.702C264.628 188.106 268.577 190.243 270.522 195.607C272.435 200.928 270.522 206.962 264.59 211.031L266.885 217.076C265.091 217.879 263.299 218.698 261.51 219.533Z" fill="#92B5F9"/>
<path d="M215.533 212.824C200.594 220.632 185.945 229.127 171.585 238.309C170.128 235.548 168.678 232.785 167.237 230.021C181.776 220.715 196.63 212.101 211.801 204.18L215.533 212.824Z" fill="#50BFA5"/>
<path d="M341.397 165.241C325.182 169.213 309.164 173.914 293.341 179.345C292.461 176.308 291.58 173.271 290.698 170.234C306.73 164.73 322.973 159.963 339.426 155.933C340.08 159.036 340.737 162.138 341.397 165.241Z" fill="#4951EC"/>
<path d="M379.656 270.641C307.008 266.238 234.254 276.902 165.224 302.068C155.716 270.859 146.212 239.655 136.713 208.454C216.51 179.353 300.646 167.025 384.643 172.108C382.978 204.949 381.316 237.793 379.656 270.641Z" fill="#6A70E4"/>
<path d="M164.509 282.802C158.723 263.274 152.939 243.744 147.156 224.214C154.434 221.632 158.817 213.955 156.899 206.864C224.272 184.701 294.444 174.418 364.775 176.396C364.627 183.791 370.705 189.934 378.346 190.333L375.698 251.853C368.663 251.49 362.853 257.341 362.695 264.727C300.934 262.989 239.313 272.021 180.146 291.481C178.231 284.395 171.207 280.424 164.509 282.802Z" fill="#7C9AF2"/>
<path d="M303.211 220.325C304.261 238.998 290.971 255.102 273.651 257.51C256.328 259.874 239.808 247.874 236.595 229.499C233.381 211.124 246.432 193.028 265.925 190.355C285.418 187.682 302.167 201.693 303.211 220.325Z" fill="#4951EC"/>
<path d="M271.265 251.9C270.979 249.896 270.691 247.892 270.402 245.888C267.917 246.192 265.404 246.17 262.925 245.822C262.016 245.67 261.198 245.178 260.64 244.445C260.081 243.711 259.823 242.793 259.919 241.876C259.919 241.797 259.919 241.72 259.938 241.641C260.118 239.493 262.039 237.916 264.1 238.252C266.36 238.635 268.668 238.646 270.932 238.285C274.432 237.703 276.651 235.943 276.318 233.407C275.996 231.002 273.807 229.775 268.967 228.964C261.974 227.805 256.902 225.534 255.902 219.415C254.997 213.876 258.246 208.758 264.958 206.252C264.665 204.248 264.371 202.244 264.078 200.239C266.202 199.875 268.327 199.527 270.454 199.196C270.71 201.054 270.965 202.911 271.219 204.768C273.214 204.522 275.231 204.5 277.231 204.702C277.71 204.753 278.175 204.899 278.597 205.132C279.019 205.366 279.39 205.682 279.688 206.061C279.986 206.441 280.204 206.876 280.33 207.342C280.456 207.807 280.488 208.293 280.423 208.771C280.287 209.775 279.758 210.684 278.953 211.299C278.147 211.914 277.131 212.184 276.127 212.051C274.226 211.794 272.297 211.824 270.404 212.138C266.245 212.81 265.171 214.822 265.433 216.587C265.74 218.677 268.166 219.593 273.798 220.784C281.672 222.277 285.093 225.395 285.768 231.101C286.427 236.76 283.117 242.086 276.293 244.453L277.162 250.916C275.199 251.237 273.233 251.564 271.265 251.9Z" fill="#92B5F9"/>
<path d="M227.251 233.216C210.616 236.806 194.115 241.147 177.747 246.237C176.955 243.178 176.162 240.12 175.367 237.063C191.946 231.915 208.678 227.518 225.563 223.872L227.251 233.216Z" fill="#50BFA5"/>
<path d="M363.097 220.549C346.1 220.09 329.126 220.392 312.175 221.454C312.009 218.278 311.844 215.105 311.678 211.933C328.85 210.858 346.067 210.553 363.327 211.017C363.247 214.189 363.17 217.367 363.097 220.549Z" fill="#50BFA5"/>
<path d="M416.728 210.782H116.484V342.923H416.728V210.782Z" fill="#FA7167"/>
<path d="M416.727 309.187H342.432C339.152 309.187 336.469 311.982 336.469 315.431C336.469 318.88 339.139 321.678 342.432 321.678H332.799C329.519 321.678 326.833 324.474 326.833 327.922C326.833 331.371 329.506 334.167 332.799 334.167H334.468C331.173 334.167 328.503 336.965 328.503 340.414C328.501 341.274 328.672 342.126 329.006 342.92H416.727V309.187Z" fill="#E8605D"/>
<path d="M400.866 217.289H127.549V227.551H400.866V217.289Z" fill="#E8605D"/>
<path d="M245.337 259.218H124.541C118.267 259.218 113.181 264.304 113.181 270.578V329.923C113.181 336.197 118.267 341.283 124.541 341.283H245.337C251.611 341.283 256.697 336.197 256.697 329.923V270.578C256.697 264.304 251.611 259.218 245.337 259.218Z" fill="#7C9AF2"/>
<path d="M157.749 275.535H122.406V296.083H157.749V275.535Z" fill="#DDE8FE"/>
<path d="M247.611 270.332H184.938V274.169H247.611V270.332Z" fill="#DDE8FE"/>
<path d="M242.955 314.166H127.613V318.904H242.955V314.166Z" fill="#DDE8FE"/>
<path d="M242.955 325.323H127.613V330.062H242.955V325.323Z" fill="#DDE8FE"/>
<path d="M258.459 244.518H131.02V247.923H258.459V244.518Z" fill="#E8605D"/>
<path d="M351.473 214.203C362.557 203.119 362.557 185.148 351.473 174.064C340.389 162.98 322.418 162.98 311.334 174.064C300.25 185.148 300.25 203.119 311.334 214.203C322.418 225.287 340.389 225.287 351.473 214.203Z" fill="#DDE8FE"/>
<path d="M350.899 180.454C353.605 184.31 355.107 188.881 355.215 193.59C355.323 198.299 354.032 202.935 351.505 206.91C348.979 210.885 345.33 214.022 341.02 215.924C336.711 217.826 331.935 218.407 327.295 217.594C322.655 216.781 318.361 214.611 314.955 211.357C311.548 208.104 309.184 203.913 308.159 199.315C307.135 194.718 307.496 189.92 309.199 185.528C310.901 181.136 313.868 177.347 317.723 174.641C322.894 171.013 329.293 169.588 335.515 170.678C341.736 171.768 347.27 175.284 350.899 180.454Z" fill="#92B5F9"/>
<path d="M334.152 210.889L333.113 207.049C331.451 207.421 329.746 207.571 328.044 207.495C327.43 207.463 326.851 207.199 326.425 206.756C325.999 206.313 325.757 205.724 325.749 205.109V204.956C325.741 204.622 325.804 204.291 325.931 203.982C326.059 203.674 326.25 203.395 326.49 203.164C326.731 202.933 327.018 202.754 327.331 202.639C327.645 202.524 327.979 202.476 328.312 202.497C329.854 202.605 331.403 202.46 332.897 202.065C335.198 201.442 336.535 200.127 336.098 198.512C335.682 196.976 334.127 196.356 330.864 196.154C326.15 195.881 322.666 194.648 321.595 190.729C320.633 187.177 322.385 183.709 326.475 181.689L325.44 177.863L329.397 176.792L330.359 180.345C331.614 180.052 332.896 179.897 334.185 179.88C334.821 179.88 335.432 180.13 335.884 180.577C336.336 181.025 336.594 181.633 336.6 182.269C336.606 182.593 336.546 182.916 336.424 183.216C336.303 183.517 336.122 183.791 335.892 184.02C335.663 184.25 335.39 184.431 335.089 184.552C334.788 184.674 334.465 184.734 334.141 184.728C332.896 184.701 331.655 184.854 330.454 185.185C327.828 185.895 327.287 187.256 327.593 188.387C327.954 189.718 329.596 190.186 333.378 190.549C338.647 190.945 341.186 192.645 342.17 196.288C343.154 199.931 341.426 203.642 336.999 205.708L338.114 209.829L334.152 210.889Z" fill="white"/>
<path d="M378.247 305.038C389.332 293.954 389.332 275.984 378.247 264.9C367.163 253.815 349.193 253.815 338.109 264.9C327.024 275.984 327.024 293.954 338.109 305.038C349.193 316.123 367.163 316.123 378.247 305.038Z" fill="#DDE8FE"/>
<path d="M377.674 271.289C380.379 275.144 381.881 279.716 381.989 284.425C382.097 289.134 380.806 293.769 378.279 297.745C375.753 301.72 372.104 304.857 367.795 306.759C363.485 308.661 358.709 309.242 354.069 308.429C349.43 307.616 345.135 305.445 341.729 302.192C338.323 298.938 335.958 294.748 334.933 290.15C333.909 285.553 334.271 280.754 335.973 276.362C337.676 271.971 340.642 268.182 344.498 265.476C349.668 261.848 356.068 260.422 362.289 261.513C368.511 262.603 374.044 266.119 377.674 271.289Z" fill="#92B5F9"/>
<path d="M360.927 301.712L359.889 297.887C358.226 298.258 356.522 298.408 354.819 298.332C354.206 298.299 353.627 298.035 353.201 297.592C352.775 297.149 352.533 296.561 352.524 295.946V295.793C352.519 295.461 352.582 295.13 352.711 294.824C352.84 294.517 353.03 294.24 353.271 294.01C353.512 293.78 353.797 293.603 354.11 293.489C354.422 293.375 354.755 293.327 355.087 293.347C356.629 293.456 358.178 293.31 359.673 292.916C361.977 292.293 363.31 290.978 362.873 289.363C362.458 287.827 360.903 287.207 357.64 287.005C352.926 286.731 349.441 285.499 348.37 281.58C347.408 278.028 349.16 274.56 353.251 272.543L352.215 268.717L356.175 267.646L357.134 271.198C358.389 270.906 359.672 270.75 360.96 270.734C361.596 270.733 362.207 270.984 362.659 271.431C363.112 271.878 363.369 272.486 363.376 273.122C363.381 273.447 363.321 273.769 363.2 274.07C363.078 274.371 362.897 274.644 362.668 274.874C362.438 275.103 362.165 275.284 361.864 275.406C361.563 275.527 361.241 275.587 360.916 275.582C359.672 275.554 358.43 275.708 357.23 276.038C354.604 276.749 354.063 278.11 354.369 279.241C354.729 280.572 356.372 281.039 360.157 281.403C365.423 281.799 367.961 283.499 368.945 287.141C369.929 290.784 368.202 294.495 363.775 296.561L364.89 300.682L360.927 301.712Z" fill="white"/>
<path d="M331.361 250.608C332.017 234.947 319.853 221.719 304.192 221.062C288.53 220.406 275.302 232.57 274.646 248.231C273.989 263.893 286.153 277.121 301.815 277.777C317.476 278.434 330.704 266.27 331.361 250.608Z" fill="#DDE8FE"/>
<path d="M326.81 250.044C327.156 236.895 316.778 225.955 303.629 225.609C290.481 225.262 279.541 235.64 279.194 248.789C278.847 261.938 289.225 272.878 302.374 273.224C315.523 273.571 326.463 263.193 326.81 250.044Z" fill="#92B5F9"/>
<path d="M295.645 264.73L297.011 260.991C295.437 260.34 293.956 259.484 292.606 258.444C292.119 258.065 291.796 257.515 291.701 256.905C291.607 256.296 291.749 255.674 292.097 255.165L292.185 255.037C292.372 254.762 292.614 254.528 292.895 254.351C293.177 254.174 293.492 254.057 293.821 254.007C294.15 253.957 294.485 253.976 294.807 254.062C295.128 254.148 295.428 254.299 295.688 254.506C296.888 255.482 298.239 256.254 299.689 256.791C301.933 257.611 303.788 257.294 304.351 255.72C304.898 254.225 303.977 252.823 301.422 250.784C297.724 247.841 295.565 244.832 296.951 241.018C298.205 237.555 301.629 235.724 306.138 236.424L307.505 232.685L311.361 234.084L310.106 237.547C311.303 238.029 312.444 238.639 313.509 239.367C314.029 239.732 314.384 240.288 314.497 240.914C314.61 241.54 314.472 242.185 314.113 242.709C313.93 242.978 313.696 243.207 313.423 243.382C313.15 243.558 312.844 243.677 312.524 243.732C312.204 243.787 311.876 243.776 311.561 243.702C311.245 243.627 310.947 243.489 310.686 243.297C309.682 242.562 308.577 241.975 307.406 241.553C304.849 240.627 303.622 241.43 303.223 242.531C302.753 243.829 303.829 245.155 306.718 247.625C310.8 250.976 311.91 253.826 310.62 257.365C309.33 260.904 305.789 262.959 300.979 262.106L299.522 266.118L295.645 264.73Z" fill="white"/>
<path d="M336.478 315.431C336.478 318.88 339.147 321.678 342.44 321.678H332.807C329.528 321.678 326.842 324.474 326.842 327.922C326.842 331.371 329.514 334.167 332.807 334.167H334.477C333.65 334.168 332.832 334.348 332.081 334.694H400.875V309.187H342.432C339.139 309.187 336.478 311.982 336.478 315.431Z" fill="#E8605D"/>
<path d="M417.483 346.658H340.758C339.28 346.658 337.863 346.071 336.818 345.026C335.773 343.981 335.186 342.564 335.186 341.086C335.185 340.354 335.329 339.629 335.609 338.953C335.889 338.277 336.299 337.662 336.817 337.144C337.334 336.627 337.948 336.216 338.625 335.936C339.301 335.655 340.026 335.511 340.758 335.511H417.483C418.215 335.511 418.94 335.655 419.616 335.936C420.292 336.216 420.906 336.627 421.424 337.144C421.941 337.662 422.352 338.277 422.632 338.953C422.911 339.629 423.055 340.354 423.055 341.086C423.055 342.564 422.468 343.981 421.423 345.026C420.378 346.071 418.961 346.658 417.483 346.658Z" fill="#7C9AF2"/>
<path d="M415.922 335.511H339.211C337.732 335.511 336.314 334.924 335.269 333.878C334.223 332.833 333.636 331.415 333.636 329.936C333.636 329.204 333.78 328.48 334.06 327.803C334.34 327.127 334.751 326.513 335.269 325.995C335.786 325.478 336.401 325.067 337.077 324.788C337.754 324.508 338.479 324.364 339.211 324.364H415.933C417.411 324.364 418.829 324.951 419.874 325.996C420.919 327.041 421.507 328.458 421.508 329.936C421.508 330.669 421.363 331.395 421.082 332.072C420.802 332.749 420.39 333.364 419.871 333.882C419.352 334.4 418.736 334.81 418.059 335.09C417.381 335.37 416.655 335.513 415.922 335.511Z" fill="#BED1F9"/>
<path d="M424.924 324.364H348.202C346.723 324.364 345.306 323.776 344.261 322.731C343.215 321.685 342.628 320.268 342.627 318.789C342.627 318.057 342.771 317.332 343.051 316.656C343.331 315.98 343.742 315.365 344.26 314.847C344.777 314.33 345.392 313.919 346.068 313.639C346.745 313.359 347.47 313.215 348.202 313.215H424.924C426.403 313.215 427.821 313.802 428.866 314.847C429.912 315.893 430.499 317.311 430.499 318.789C430.499 320.268 429.912 321.686 428.866 322.731C427.821 323.777 426.403 324.364 424.924 324.364Z" fill="#7C9AF2"/>
<path d="M327.339 82.9926L328.314 89.595L317.864 92.3387L318.099 102.171L310.614 105.505L312.3 109.293L322.313 104.836L322.089 95.5196L332.963 92.6639L331.493 82.7275L327.339 82.9926Z" fill="#4951EC"/>
<path d="M228.495 62.0843L230.509 57.0861C228.407 56.1283 226.441 54.897 224.661 53.4242C224.023 52.888 223.614 52.1291 223.515 51.3018C223.417 50.4745 223.637 49.6407 224.131 48.9698L224.254 48.8031C224.521 48.4403 224.86 48.1365 225.25 47.9107C225.64 47.6849 226.073 47.5419 226.521 47.4906C226.968 47.4393 227.422 47.4808 227.853 47.6126C228.284 47.7444 228.683 47.9636 229.025 48.2565C230.604 49.6346 232.399 50.7426 234.338 51.5358C237.344 52.7465 239.855 52.4158 240.702 50.3116C241.522 48.3112 240.333 46.3709 236.969 43.4796C232.102 39.3176 229.318 35.1392 231.378 30.0344C233.245 25.4051 237.97 23.0905 244.045 24.2519L246.059 19.2537L251.215 21.3306L249.349 25.9763C250.947 26.6856 252.463 27.5661 253.872 28.6025C254.559 29.1228 255.013 29.8929 255.137 30.7459C255.261 31.599 255.044 32.4665 254.533 33.1607C254.272 33.5151 253.943 33.8135 253.564 34.038C253.186 34.2625 252.766 34.4085 252.33 34.4674C251.894 34.5263 251.451 34.4969 251.026 34.3808C250.602 34.2648 250.205 34.0645 249.86 33.792C248.532 32.7461 247.059 31.8983 245.487 31.2751C242.069 29.9087 240.369 30.9253 239.776 32.3983C239.076 34.1336 240.473 35.9809 244.266 39.4679C249.636 44.2011 250.997 48.1117 249.089 52.8585C247.201 57.5397 242.274 60.2042 235.8 58.8187L233.638 64.1858L228.495 62.0843Z" fill="#BED1F9"/>
<path d="M238.024 115.422C238.279 115.836 238.382 116.325 238.317 116.807C238.251 117.288 238.02 117.732 237.664 118.062C235.749 119.773 233.531 121.111 231.124 122.006C227.025 123.541 222.486 123.692 218.39 121.831C215.661 120.538 213.378 118.463 211.831 115.87L209.404 116.778C209.01 116.926 208.572 116.911 208.189 116.737C207.805 116.563 207.506 116.243 207.357 115.849L207.333 115.786C207.185 115.391 207.2 114.953 207.375 114.569C207.55 114.186 207.87 113.887 208.265 113.739L210.249 112.993C209.932 112.334 209.702 111.922 209.565 111.55C209.302 110.819 209.092 110.07 208.937 109.309L206.89 110.077C206.695 110.151 206.487 110.185 206.278 110.178C206.069 110.171 205.864 110.123 205.674 110.037C205.484 109.951 205.313 109.828 205.17 109.675C205.027 109.523 204.916 109.343 204.843 109.148C204.77 108.952 204.735 108.745 204.742 108.536C204.749 108.327 204.797 108.122 204.883 107.932C204.969 107.742 205.092 107.57 205.245 107.428C205.398 107.285 205.577 107.174 205.772 107.101L208.254 106.169C207.866 103.059 208.276 100.004 209.437 97.4435C211.415 93.0929 215.135 89.9967 219.417 88.3898C221.397 87.616 223.498 87.1996 225.623 87.16C226.179 87.1538 226.715 87.3633 227.119 87.7446C227.524 88.1259 227.764 88.6491 227.79 89.2042V89.2397C227.803 89.5234 227.759 89.8068 227.662 90.0735C227.565 90.3403 227.415 90.585 227.223 90.7937C227.03 91.0023 226.798 91.1707 226.54 91.2891C226.282 91.4075 226.003 91.4735 225.719 91.4833C224.065 91.5626 222.434 91.9086 220.89 92.5081C218.157 93.5329 215.758 95.4267 214.378 98.3507C213.537 100.159 213.282 102.185 213.651 104.144L227.61 98.9055C227.805 98.8318 228.013 98.7975 228.222 98.8043C228.431 98.8112 228.636 98.8592 228.826 98.9455C229.016 99.0318 229.187 99.1547 229.33 99.3073C229.472 99.4599 229.584 99.6391 229.657 99.8346C229.73 100.03 229.765 100.238 229.758 100.447C229.751 100.655 229.703 100.861 229.617 101.051C229.53 101.241 229.407 101.412 229.255 101.555C229.102 101.697 228.923 101.808 228.728 101.881L214.148 107.347C214.342 108.055 214.536 108.76 214.695 109.194C214.903 109.741 215.113 110.309 215.455 111.031L230.064 105.549C230.263 105.473 230.476 105.438 230.689 105.445C230.902 105.452 231.112 105.501 231.306 105.589C231.5 105.677 231.675 105.803 231.821 105.958C231.966 106.114 232.08 106.297 232.154 106.497C232.229 106.697 232.264 106.909 232.257 107.122C232.25 107.336 232.201 107.545 232.112 107.739C232.024 107.934 231.898 108.108 231.742 108.254C231.586 108.4 231.403 108.513 231.203 108.588L217.217 113.837C218.234 115.373 219.652 116.601 221.316 117.39C224.366 118.721 227.173 118.658 230.274 117.494C231.953 116.862 233.524 115.977 234.934 114.868C235.166 114.685 235.434 114.553 235.72 114.482C236.007 114.41 236.305 114.399 236.596 114.451C236.887 114.503 237.163 114.615 237.408 114.781C237.652 114.947 237.858 115.163 238.014 115.414L238.024 115.422Z" fill="#DDE8FE"/>
<path d="M199.916 65.6698L193.579 66.312L191.417 56.2309L182.036 56.0286L179.186 48.7485L175.499 50.1914L179.311 59.9283L188.204 60.1196L190.453 70.6107L199.987 69.6405L199.916 65.6698Z" fill="#4951EC"/>
<path d="M273.154 58.1299L279.934 60.3653C279.934 60.3653 290.685 56.881 291.745 54.6921C292.805 52.5031 293.111 47.1851 294.631 47.0403C296.15 46.8955 299.118 47.3928 299.823 51.0301C300.334 53.67 296.467 61.3053 297.071 62.117C297.448 62.6253 301.31 64.0299 304.146 64.9973C305.065 65.3171 305.878 65.8843 306.495 66.6365C307.113 67.3887 307.51 68.2967 307.644 69.2604C307.738 69.9101 307.61 70.5725 307.28 71.1401C306.95 71.7076 306.438 72.1469 305.827 72.3867L303.876 73.1382L304.504 75.1659C304.727 75.8883 304.659 76.6689 304.316 77.3423C303.972 78.0157 303.38 78.5289 302.665 78.7732L301.157 79.2815L301.638 80.5058C301.784 80.8803 301.852 81.2812 301.836 81.6831C301.819 82.085 301.72 82.4792 301.543 82.8407C301.367 83.2021 301.117 83.523 300.81 83.7829C300.503 84.0429 300.146 84.2362 299.76 84.3508L298.443 84.7334L298.498 85.0859C298.608 85.7933 298.453 86.5165 298.062 87.1167C297.672 87.7169 297.074 88.1518 296.383 88.3379L295.074 88.6795L277.015 82.722C275.322 82.1612 273.764 81.2559 272.438 80.063L266.442 76.8985C266.129 76.7297 265.886 76.4543 265.757 76.122C265.629 75.7897 265.624 75.4225 265.743 75.0867L271.304 59.0781C271.427 58.7092 271.689 58.4032 272.035 58.2259C272.381 58.0485 272.783 58.0141 273.154 58.1299Z" fill="#FA7167"/>
<path d="M165.898 129.849L167.335 122.744L174.009 119.893C174.18 119.82 174.328 119.701 174.435 119.548C174.542 119.396 174.604 119.216 174.614 119.03C174.624 118.844 174.582 118.659 174.493 118.496C174.403 118.332 174.27 118.197 174.107 118.106L167.784 114.554L167.136 107.325C167.119 107.14 167.051 106.963 166.939 106.814C166.827 106.665 166.675 106.55 166.502 106.483C166.328 106.416 166.139 106.399 165.956 106.434C165.773 106.469 165.603 106.554 165.466 106.68L160.124 111.599L153.046 109.984C152.864 109.942 152.675 109.952 152.499 110.012C152.322 110.072 152.167 110.181 152.049 110.325C151.932 110.469 151.857 110.644 151.833 110.829C151.81 111.013 151.839 111.201 151.917 111.37L154.94 117.972L151.215 124.2C151.119 124.36 151.07 124.543 151.073 124.729C151.077 124.915 151.132 125.097 151.233 125.253C151.334 125.41 151.476 125.535 151.645 125.614C151.813 125.694 152 125.725 152.185 125.703L159.394 124.84L164.171 130.305C164.293 130.446 164.452 130.549 164.629 130.604C164.807 130.659 164.997 130.663 165.177 130.615C165.357 130.568 165.519 130.471 165.647 130.335C165.774 130.2 165.861 130.031 165.898 129.849Z" fill="#FA7167"/>
<path d="M78.7917 304.62C78.7917 304.62 69.8938 311.034 68.4919 312.947C66.4751 315.704 83.5659 320.872 81.6994 317.631C81.2703 316.89 80.0406 314.392 79.9887 314.147C79.7017 312.832 83.3254 309.293 83.3254 309.293L78.7917 304.62Z" fill="#FB9390"/>
<path d="M86.3232 323.028L80.2811 314.491C80.2811 314.491 76.5098 313.614 72.6293 309.258C72.6293 309.258 69.1505 310.586 67.0107 313.466C70.2146 316.791 73.6481 319.887 77.2859 322.73C79.8979 324.907 82.8779 326.598 86.0854 327.726C91.1985 329.447 86.3232 323.028 86.3232 323.028Z" fill="#0B0754"/>
<path d="M4.44654 187.715C4.44654 187.715 5.53965 188.682 5.9277 188.975C6.38134 189.322 7.81605 190.254 7.81605 190.254C7.81605 190.254 13.0083 193.208 13.1832 192.817C13.3581 192.426 13.3526 191.309 13.0957 191.013C12.8389 190.718 12.0928 190.415 11.8359 190.12C11.6937 189.949 11.6159 189.733 11.6159 189.51C11.6159 189.288 11.6937 189.072 11.8359 188.901C12.1639 188.57 13.9402 189.54 13.9402 189.54C13.9402 189.54 15.3776 190.338 15.9788 191.303C18.0612 194.645 17.4299 194.839 17.7087 195.26C18.0366 195.76 25.3194 199.067 25.3194 199.067C25.3194 199.067 47.0968 208.118 48.2747 208.612H48.2911C48.4496 209.621 47.9085 210.55 47.6325 211.441C47.1105 214.553 46.1841 214.758 45.479 217.759C42.1396 216.07 19.0204 203.333 16.6675 202.005C16.6675 202.005 13.1477 201.403 10.9478 200.955C8.74792 200.507 6.82952 199.113 6.22557 198.892C4.72156 198.209 3.30421 197.349 2.00345 196.331C0.139704 194.886 2.55 195.432 2.55 195.432C2.55 195.432 6.47152 197.509 6.57264 197.181C6.65189 196.927 4.44654 195.913 2.36691 194.336C1.82036 193.929 1.30386 193.517 0.822898 193.153C-0.436908 192.172 -0.218289 191.142 1.26014 191.964C1.9347 192.332 2.58301 192.745 3.2004 193.202C3.80708 193.681 4.51486 193.929 5.08601 194.257C6.21738 194.905 7.03174 195.391 7.03174 195.331C7.03174 195.271 7.34328 195.227 6.78853 194.785C6.12173 194.238 4.46021 193.418 3.53926 192.541C3.01457 192.049 1.86408 191.087 1.86408 191.087C1.86408 191.087 0.382919 189.319 0.456704 189.202C0.847489 188.568 2.19201 189.502 2.81508 190.259C3.45728 190.532 4.6433 191.59 4.6433 191.59C4.6433 191.59 7.49904 193.186 7.71767 192.795C7.81331 192.628 6.17092 191.445 4.73895 190.041C3.4081 188.737 2.27946 187.212 2.48168 186.92C2.80688 186.417 4.44654 187.715 4.44654 187.715Z" fill="#FB9390"/>
<path d="M65.1826 238.695L66.59 245.652L101.968 277.834L76.6438 303.461L83.4758 310.449C83.4758 310.449 120.885 282.985 122.229 279.386C124.306 273.844 95.4207 237.14 95.4207 237.14L65.1826 238.695Z" fill="#634746"/>
<path d="M40.6496 322.861C40.6496 322.861 33.5117 330.639 32.1125 332.552C30.093 335.309 45.1642 339.384 43.3004 336.151C42.8714 335.407 41.6416 332.91 41.587 332.664C41.3 331.352 44.9264 327.813 44.9264 327.813L40.6496 322.861Z" fill="#FB9390"/>
<path d="M51.2451 335.902L41.4235 332.319C41.4235 332.319 37.7097 334.005 32.0474 332.623C32.0474 332.623 30.0525 335.429 29.9268 339.015C29.9268 339.015 48.5451 341.389 53.7264 339.905C58.9077 338.422 51.2451 335.902 51.2451 335.902Z" fill="#0B0754"/>
<path d="M66.3924 241.919L67.9829 285.83L36.5889 324.318L45.0823 328.964C45.0823 328.964 79.8076 299.16 83.6143 290.858C85.9809 285.707 93.9387 239.162 93.9387 239.162L66.3924 241.919Z" fill="#646464"/>
<path d="M94.931 238.312C92.0534 231.819 92.3868 185.264 81.188 174.365C77.2473 175.032 74.438 175.404 73.7794 175.579C73.1946 180.375 72.5524 197.971 72.1562 214.111C71.8829 224.853 72.1562 236.123 70.8417 242.064C70.0328 245.732 97.56 244.248 94.931 238.312Z" fill="#DDE8FE"/>
<path d="M64.619 177.975C61.4735 178.691 59.1534 179.194 55.0379 185.283C51.0945 191.109 42.336 204.937 42.336 204.937L19.266 194.689L18.1865 206.374C18.1865 206.374 44.2872 219.94 47.9737 218.718C51.6602 217.497 62.0092 202.363 62.7743 201.341C62.9547 201.1 61.9053 217.502 61.9053 220.123C61.9053 222.744 56.9016 245.562 56.9016 245.562C56.9016 245.562 69.5981 248.686 72.0739 243.01C79.671 225.607 73.8393 175.557 73.8393 175.557C73.8393 175.557 66.879 177.459 64.619 177.975Z" fill="#8372E7"/>
<path d="M112.004 128.149C111.036 127.329 110.613 125.392 110.451 124.14L110.02 122.481C110.413 122.32 118.109 121.224 120.429 121.167C120.653 121.899 120.767 122.519 120.702 122.916C120.358 124.812 117.936 137.126 117.936 137.126L111.309 137.257C111.309 137.257 112.744 129.955 112.004 128.149Z" fill="#FB9390"/>
<path d="M83.7842 177.098C83.7842 177.098 88.3288 190.033 92.0699 188.169C95.8111 186.305 116.829 164.88 117.036 163.847C117.244 162.814 118.701 136.52 118.701 136.52L110.385 134.864L105.605 156.4C105.605 156.4 90.2253 171.103 87.11 172.551C86.2139 172.963 85.4379 173.596 84.8558 174.392C84.2737 175.188 83.9048 176.12 83.7842 177.098Z" fill="#8372E7"/>
<path d="M96.0547 241.428C98.5716 241.428 99.5007 241.081 101.176 240.575C101.176 240.575 96.3854 213.564 93.598 186.781C92.5049 176.199 91.4773 171.862 87.1104 172.628C85.8478 172.849 82.4292 174.15 81.1885 174.36C92.1578 205.396 92.1961 229.289 93.7592 236.214C94.5271 239.679 95.2076 241.45 96.0547 241.428Z" fill="#4951EC"/>
<path d="M80.0294 169.671L81.1799 174.36C81.1799 174.36 81.4532 178.443 79.5402 178.809C77.2556 179.252 73.8588 175.833 73.8588 175.833L71.8994 162.615L80.0294 169.671Z" fill="#F7A491"/>
<path d="M80.0294 169.671L81.1799 174.36C81.1799 174.36 81.4532 178.443 79.5402 178.809C77.2556 179.252 73.8588 175.833 73.8588 175.833L71.8994 162.615L80.0294 169.671Z" fill="#FB9390"/>
<path d="M71.918 162.669L80.0288 169.671L80.8896 173.174C77.788 172.428 73.3663 169.018 71.918 162.669Z" fill="#EF7F7F"/>
<path d="M80.0567 150.503C82.0188 150.503 83.7841 151.869 84.4755 153.815C85.2549 156.024 85.8464 158.295 86.2436 160.603C87.1045 165.689 84.2077 170.346 81.6881 170.714C79.1685 171.083 73.1646 169.416 71.8502 162.213C71.2817 159.125 70.533 155.075 73.0744 152.946C75.0366 151.293 77.8021 150.508 80.0567 150.503Z" fill="#FB9390"/>
<path d="M72.6572 167.706C72.6572 167.706 63.773 159.781 63.3876 153.605C63.0023 147.428 68.7111 144.108 73.5945 143.936C75.5919 143.857 77.5923 143.959 79.5711 144.242C84.4655 144.86 87.6355 147.029 86.5205 151.038C85.0202 156.419 74.8653 151.88 72.7884 153.55C71.0749 154.916 73.8541 158.245 72.1899 159.51C70.624 160.699 71.422 160.294 71.9385 162.557C72.2902 164.256 72.5303 165.976 72.6572 167.706Z" fill="#0B0754"/>
<path d="M69.2318 160.532C69.4504 162.016 70.3577 163.109 71.254 162.978C72.1504 162.847 72.6997 161.535 72.4811 160.054C72.2624 158.573 71.3551 157.48 70.4561 157.611C69.557 157.742 69.0104 159.062 69.2318 160.532Z" fill="#FB9390"/>
<path d="M112.454 122.462C113.571 123.18 114.544 124.1 115.324 125.176C115.324 125.176 119.07 122.774 118.939 122.011C118.764 121.003 114.935 122.877 114.935 122.877L112.454 122.462Z" fill="#EF7F7F"/>
<path d="M15.8611 72.7285L117.009 124.807C122.453 127.611 129.334 125.08 132.378 119.172L158.208 69.0065C161.255 63.0928 159.301 56.0258 153.869 53.222L52.7207 1.14366C47.277 -1.66016 40.3959 0.870382 37.3516 6.77862L11.5215 56.944C8.47447 62.8687 10.4202 69.9247 15.8611 72.7285Z" fill="#92B5F9"/>
<path d="M19.9329 40.5851L12.0977 55.8047L132.96 118.026L140.796 102.807L19.9329 40.5851Z" fill="#0B0754"/>
<path d="M77.3728 22.0471L50.7383 8.30591L43.1165 23.0791L69.751 36.8203L77.3728 22.0471Z" fill="#DDE8FE"/>
<path d="M112.426 122.383C112.251 121.907 111.904 121.243 112.074 120.984C113.153 119.344 111.989 117.543 111.204 118.945C110.748 119.765 109.953 121.552 110.018 122.481C110.068 123.156 110.751 125.722 110.751 125.722C110.751 125.722 113.423 125.08 112.426 122.383Z" fill="#FB9390"/>
<path d="M417.13 295.7C417.13 295.7 416.507 303.453 417.013 305.973C417.286 307.323 418.789 310.099 418.106 311.37C417.423 312.641 416.625 312.958 416.625 312.958L398.717 313.231C397.741 313.247 398.384 312.63 399.171 312.061C400.458 311.129 401.499 310.515 405.612 308.558C405.885 308.432 406.855 307.82 407.208 307.61C408.16 306.989 409.022 306.24 409.768 305.382C411.055 303.975 411.168 297.146 411.168 297.146L417.13 295.7Z" fill="#FB9390"/>
<path d="M403.131 192.62C403.131 192.62 395.433 188.825 396.914 197.077C398.395 205.33 409.673 298.16 409.673 298.16L420.238 298.747C420.238 298.747 421.588 267.801 421.293 263.358C420.998 258.915 419.246 252.039 419.246 252.039L418.35 224.586L408.383 190.699L403.131 192.62Z" fill="#6460B0"/>
<path d="M407.201 307.602C411.937 308.796 415.438 307.984 417.397 307.208C417.903 308.615 418.572 310.381 418.217 311.4C417.782 312.646 417.214 313.201 416.667 313.215C412.341 313.327 400.768 313.215 397.47 313.25C397.368 313.253 397.267 313.226 397.18 313.172C397.093 313.119 397.023 313.041 396.979 312.949C396.935 312.857 396.918 312.754 396.931 312.653C396.944 312.552 396.986 312.456 397.052 312.378C397.869 311.416 406.849 307.815 407.201 307.602Z" fill="#0B0754"/>
<path d="M396.913 136.839C396.913 136.839 390.406 124.315 389.395 119.718C388.384 115.122 384.889 91.9698 385.184 90.4777C385.479 88.9856 391.008 85.3975 390.327 84.1322C389.647 82.867 384.378 82.8615 383.17 82.9708C381.962 83.0801 379.541 83.7906 378.505 84.6378C377.47 85.4849 379.669 113.239 380.328 119.213C380.987 125.187 389.073 143.581 389.073 143.581L396.913 136.839Z" fill="#FB9390"/>
<path d="M447.625 234.437C447.625 234.437 452.992 228.808 454.184 226.534C454.823 225.315 455.402 222.208 456.739 221.659C458.075 221.109 458.889 221.358 458.889 221.358L472.977 232.423C473.745 233.024 472.854 233.098 471.884 233.043C470.299 232.956 469.105 232.77 464.677 231.707C464.388 231.636 463.246 231.497 462.838 231.434C461.708 231.314 460.567 231.353 459.447 231.549C457.561 231.822 453.162 237.063 453.162 237.063L447.625 234.437Z" fill="#FB9390"/>
<path d="M462.841 231.439C459.917 227.526 456.684 225.952 454.676 225.32C455.17 223.908 455.709 222.063 456.627 221.495C457.75 220.8 458.526 220.948 458.961 221.279C462.39 223.919 471.368 231.139 473.955 233.183C474.037 233.244 474.099 233.329 474.134 233.425C474.169 233.522 474.175 233.626 474.151 233.726C474.127 233.826 474.075 233.916 474 233.987C473.926 234.057 473.832 234.105 473.731 234.123C472.491 234.355 463.248 231.497 462.841 231.439Z" fill="#0B0754"/>
<path d="M447.751 133.024C444.409 126.015 437.005 122.156 429.835 124.025C427.263 120.544 423.276 118.106 419.141 117.521C410.973 116.363 400.436 120.325 401.51 128.851C398.93 134.814 399.561 143.032 404.718 147.06C403.77 154.9 411.629 161.852 420.931 160.915C424.675 166.083 431.182 169.113 437.268 167.933C438.727 167.659 440.946 167.113 441.326 167.181C440.85 167.129 451.937 174.39 459.584 161.462C467.377 148.268 459.704 133.519 447.751 133.024Z" fill="#0B0754"/>
<path d="M400.031 195.61C400.031 195.61 417.297 187.934 417.567 188.808C419.732 195.779 426.465 193.53 430.463 205.811C432.139 210.952 433.857 245.163 433.857 245.163C433.857 245.163 440.665 239.515 450.393 229.644C451.139 228.887 458.452 235.842 458.452 235.842C439.143 261.932 430.813 263.292 427.591 261.83C420.866 258.783 406.672 216.13 406.696 216.133C404.991 212.805 400.031 195.61 400.031 195.61Z" fill="#5156B1"/>
<path d="M428.654 147.426C428.654 147.426 453.607 147.396 458.95 147.087C463.784 146.814 482.963 147.295 483.714 147.21C484.466 147.125 489.42 138.738 490.245 139.629C491.071 140.52 487.485 143.791 488.606 144.636C489.726 145.48 501.616 143.589 501.45 144.469C501.155 146.109 494.208 145.904 494.216 146.699C494.224 147.494 501.485 146.253 501.977 147.573C502.469 148.893 494.992 148.12 494.694 148.699C494.396 149.279 501.627 150.366 500.89 151.596C500.485 152.26 494.481 150.481 494.508 151.391C494.536 152.301 498.922 154.364 498.384 155.089C497.845 155.813 494.943 152.869 492.402 152.831C489.86 152.793 488.029 151.465 483.979 152.583C481.973 153.129 466.673 155.001 453.744 156.108C440.49 157.239 429.627 157.6 429.627 157.6L428.654 147.426Z" fill="#FB9390"/>
<path d="M391.652 165.074C391.322 161.068 392.109 157.969 392.289 156.652C391.078 152.49 388.499 143.611 387.572 141.867C387.572 141.867 391.917 133.516 396.364 133.574C396.364 133.574 400.905 143.813 404.417 145.644C404.469 145.644 405.66 146.174 406.185 146.172C409.574 146.147 421.423 145.789 423.634 145.748L422.39 162.557C413.804 179.388 416.13 188.221 419.384 191.486C420.92 193.022 397.96 199.258 396.902 197.083C395.667 194.512 392.319 173.169 391.652 165.074Z" fill="#92B5F9"/>
<path d="M417.614 146.379C419.8 145.335 435.615 145.857 435.615 145.857C435.615 145.857 437.826 156.87 436.041 159.521C436.041 159.521 421.899 161.625 422.301 162.784L417.614 146.379Z" fill="#92B5F9"/>
<path d="M413.468 139.301C413.468 139.301 413.195 145.313 413.468 147.808C413.741 150.303 410.899 156.176 405.598 156.28C400.296 156.384 404.819 150.653 405.283 148.191C405.748 145.729 406.306 136.093 406.306 136.093L413.468 139.301Z" fill="#FB9390"/>
<path d="M406.31 136.09C406.31 136.09 406.182 138.326 405.996 140.919C407.669 142.917 410.237 143.925 413.375 142.72C413.407 140.859 413.478 139.301 413.478 139.301L406.31 136.09Z" fill="#EF7F7F"/>
<path d="M413.908 121.402C415.885 122.103 417.547 123.487 418.595 125.304C420.281 128.31 420.988 136.856 414.514 140.378C408.041 143.901 403.603 137.982 403.898 132.527C404.193 127.072 405.863 119.882 413.908 121.402Z" fill="#FB9390"/>
<path d="M402.595 130.726C403.035 132.076 404.029 132.964 404.816 132.71C405.603 132.456 405.885 131.15 405.445 129.8C405.005 128.45 404.013 127.561 403.226 127.816C402.439 128.07 402.157 129.373 402.595 130.726Z" fill="#FB9390"/>
<path d="M412.995 121.161C412.995 121.161 416.274 130.149 419.647 131.166C423.019 132.183 422.653 136.563 422.653 136.563C422.653 136.563 423.276 126.425 420.234 123.88C417.193 121.336 412.995 121.161 412.995 121.161Z" fill="#0B0754"/>
<path d="M418.171 132.885C417.625 134.27 417.942 135.691 418.876 136.063C419.811 136.435 421.016 135.609 421.563 134.224C422.109 132.838 421.795 131.415 420.857 131.046C419.92 130.677 418.734 131.499 418.171 132.885Z" fill="#FB9390"/>
<path d="M377.564 86.7747C377.564 86.7747 384.875 87.0945 385.733 87.0945C386.591 87.0945 389.089 84.5093 389.089 84.5093L377.564 86.7747Z" fill="#EF7F7F"/>
<path d="M401.493 42.4057C404.717 47.0006 406.507 52.4485 406.636 58.0605C406.764 63.6725 405.225 69.1966 402.214 73.9341C399.203 78.6717 394.855 82.41 389.719 84.6763C384.584 86.9426 378.891 87.6352 373.362 86.6664C367.833 85.6976 362.715 83.111 358.656 79.2336C354.597 75.3562 351.778 70.3622 350.557 64.8831C349.336 59.4041 349.768 53.686 351.796 48.4519C353.825 43.2179 357.36 38.703 361.955 35.4782C365.006 33.3365 368.449 31.8168 372.087 31.0059C375.725 30.195 379.487 30.1087 383.159 30.752C386.831 31.3953 390.339 32.7556 393.485 34.7552C396.631 36.7547 399.352 39.3544 401.493 42.4057Z" fill="#DDE8FE"/>
<path d="M397.755 45.0289C400.46 48.8845 401.962 53.4559 402.07 58.165C402.178 62.8741 400.887 67.5095 398.361 71.4849C395.834 75.4603 392.185 78.5973 387.876 80.499C383.567 82.4008 378.79 82.982 374.15 82.1691C369.511 81.3562 365.216 79.1857 361.81 75.9321C358.404 72.6786 356.039 68.488 355.015 63.8904C353.99 59.2928 354.352 54.4947 356.054 50.1027C357.757 45.7108 360.723 41.9223 364.579 39.2163C367.139 37.4196 370.028 36.1447 373.08 35.4645C376.133 34.7842 379.29 34.7119 382.37 35.2516C385.451 35.7914 388.395 36.9326 391.035 38.6102C393.675 40.2878 395.958 42.4689 397.755 45.0289Z" fill="#92B5F9"/>
<path d="M381.022 75.4612L379.983 71.6353C378.32 72.0068 376.614 72.1566 374.911 72.0808C374.298 72.0489 373.719 71.7845 373.293 71.3414C372.867 70.8982 372.626 70.3096 372.619 69.695V69.542C372.612 69.2083 372.675 68.8768 372.802 68.5685C372.93 68.2602 373.121 67.9817 373.361 67.7506C373.602 67.5195 373.888 67.3409 374.202 67.2259C374.515 67.1109 374.849 67.0621 375.182 67.0825C376.725 67.1924 378.275 67.0474 379.77 66.6535C382.071 66.0304 383.408 64.7159 382.97 63.1009C382.555 61.5651 381 60.9447 377.737 60.7425C373.02 60.4692 369.539 59.234 368.465 55.3152C367.503 51.7626 369.255 48.2975 373.348 46.278L372.31 42.4521L376.27 41.3809L377.232 44.9335C378.486 44.6408 379.769 44.4851 381.057 44.4689C381.694 44.4681 382.305 44.7186 382.758 45.1658C383.211 45.613 383.469 46.2209 383.476 46.8573C383.481 47.1818 383.422 47.5042 383.3 47.8051C383.178 48.106 382.997 48.3793 382.768 48.6088C382.538 48.8383 382.265 49.0193 381.964 49.1409C381.663 49.2625 381.341 49.3224 381.016 49.3168C379.773 49.2892 378.532 49.4429 377.333 49.7732C374.707 50.4837 374.163 51.8419 374.469 52.9732C374.829 54.3068 376.472 54.7742 380.257 55.1376C385.523 55.5339 388.064 57.2309 389.048 60.8764C390.018 64.4727 388.305 68.2303 383.878 70.2963L384.99 74.4145L381.022 75.4612Z" fill="white"/>
<path d="M385.733 87.0944L388.739 84.3808C388.739 84.3808 387.313 82.6783 387.92 82.3503C388.882 81.8202 390.529 83.8752 390.379 84.3753C390.229 84.8754 388.466 86.4878 388.466 86.4878L385.733 87.0944Z" fill="#FB9390"/>
</svg>
