<svg width="506" height="363" viewBox="0 0 506 363" fill="none" xmlns="http://www.w3.org/2000/svg">
<path d="M229.744 188.9L165.122 258.749L72.002 172.595L71.9998 172.593L32.7637 136.294L97.386 66.4448L170.647 134.225L229.744 188.9Z" fill="#CFE7FF"/>
<path d="M214.953 189.709L164.782 243.936L45.8154 133.87L95.9861 79.6448L214.953 189.709ZM169.286 235.754L207.121 194.854C207.732 194.194 208.207 193.42 208.519 192.577C208.83 191.733 208.973 190.837 208.938 189.938C208.903 189.039 208.691 188.156 208.315 187.34C207.938 186.523 207.405 185.788 206.744 185.178L101.226 87.5559C99.8691 86.301 98.069 85.6364 96.2219 85.7083C94.3747 85.7802 92.6317 86.5827 91.3761 87.9394L53.6935 128.672C52.4486 130.017 51.789 131.802 51.8597 133.634C51.9304 135.466 52.7255 137.195 54.0703 138.441L159.659 236.127C160.315 236.734 161.085 237.207 161.924 237.517C162.763 237.828 163.656 237.97 164.55 237.935C165.444 237.9 166.322 237.69 167.135 237.316C167.948 236.942 168.679 236.411 169.286 235.754Z" fill="#C0D8FB"/>
<path d="M130.774 181.657C141.748 181.443 150.471 172.372 150.256 161.398C150.042 150.423 140.971 141.701 129.997 141.915C119.023 142.13 110.3 151.2 110.514 162.175C110.729 173.149 119.799 181.872 130.774 181.657Z" fill="#C0D8FB"/>
<path d="M255.097 175.878L162.281 196.862L134.308 73.1218L134.31 73.1196L122.522 20.981L215.336 0L237.344 97.3488L255.097 175.878Z" fill="#DCEAFF"/>
<path d="M242.446 168.17L170.386 184.459L134.651 26.3756L206.711 10.0862L242.446 168.17ZM178.731 180.264L233.073 167.981C234.845 167.58 236.385 166.493 237.355 164.957C238.325 163.422 238.645 161.563 238.245 159.792L206.546 19.5773C206.138 17.7742 205.03 16.207 203.467 15.2201C201.904 14.2333 200.013 13.9077 198.209 14.315L144.085 26.5497C143.199 26.7492 142.361 27.1213 141.619 27.6449C140.876 28.1684 140.245 28.8331 139.759 29.601C139.274 30.3689 138.945 31.2248 138.791 32.12C138.636 33.0151 138.66 33.9319 138.86 34.8178L170.593 175.12C170.991 176.881 172.072 178.412 173.598 179.376C175.124 180.34 176.97 180.66 178.731 180.264Z" fill="#C0D8FB"/>
<path d="M202.6 111.326C210.362 103.564 210.362 90.9804 202.6 83.2189C194.839 75.4573 182.255 75.4573 174.493 83.2189C166.731 90.9805 166.731 103.564 174.493 111.326C182.255 119.088 194.839 119.088 202.6 111.326Z" fill="#C0D8FB"/>
<path d="M439.846 278.335L340.875 243.623L387.154 111.677V111.675L406.654 56.0808L505.623 90.7928L469.216 194.598L439.846 278.335Z" fill="#DCEAFF"/>
<path d="M432.542 263.732L355.7 236.783L414.822 68.2163L491.666 95.1649L432.542 263.732ZM365.954 237.748L423.899 258.073C425.789 258.735 427.864 258.619 429.668 257.751C431.472 256.883 432.858 255.334 433.52 253.445L485.967 103.933C486.639 102.01 486.52 99.8989 485.635 98.0638C484.751 96.2286 483.174 94.8197 481.251 94.1468L423.538 73.904C422.594 73.5726 421.593 73.4305 420.594 73.4858C419.595 73.541 418.617 73.7925 417.715 74.226C416.813 74.6594 416.006 75.2662 415.338 76.0118C414.671 76.7574 414.157 77.6271 413.826 78.5713L361.353 228.182C360.695 230.061 360.811 232.124 361.673 233.917C362.536 235.711 364.076 237.089 365.954 237.748Z" fill="#C0D8FB"/>
<path d="M403.011 158.714C404.445 154.626 407.059 151.054 410.523 148.451C413.987 145.849 418.144 144.331 422.47 144.091C426.796 143.852 431.096 144.9 434.827 147.104C438.557 149.308 441.55 152.569 443.427 156.473C445.304 160.378 445.981 164.752 445.372 169.042C444.764 173.332 442.897 177.345 440.007 180.573C437.118 183.802 433.336 186.101 429.14 187.18C424.944 188.26 420.522 188.071 416.433 186.637C413.719 185.685 411.218 184.207 409.074 182.289C406.93 180.37 405.186 178.048 403.939 175.455C402.693 172.863 401.969 170.05 401.81 167.177C401.651 164.305 402.059 161.429 403.011 158.714Z" fill="#C0D8FB"/>
<path d="M156.858 201.961V230.212C156.85 232.818 155.812 235.315 153.969 237.158C152.126 239.001 149.629 240.039 147.023 240.047H126.778C124.172 240.039 121.676 239 119.833 237.157C117.991 235.314 116.953 232.817 116.945 230.212V201.961C116.953 199.355 117.991 196.858 119.833 195.016C121.676 193.173 124.172 192.134 126.778 192.126H147.014C149.622 192.131 152.121 193.169 153.966 195.012C155.811 196.855 156.85 199.353 156.858 201.961Z" fill="#ED7D2B"/>
<path d="M156.857 201.961V217.699C156.849 220.307 155.809 222.805 153.964 224.648C152.12 226.491 149.621 227.529 147.013 227.534H126.768C124.163 227.526 121.666 226.487 119.824 224.644C117.982 222.801 116.944 220.305 116.936 217.699V201.961C116.943 199.355 117.981 196.858 119.824 195.016C121.666 193.173 124.163 192.134 126.768 192.126H147.013C149.621 192.131 152.12 193.169 153.965 195.012C155.81 196.855 156.849 199.353 156.857 201.961Z" fill="#F99746"/>
<path d="M381.166 216.086C381.178 230.113 378.355 243.998 372.869 256.907C356.851 294.609 319.397 321.223 276.029 321.223H245.972C207.599 321.223 173.857 300.389 155.496 269.474C147.119 255.371 142.178 239.494 141.073 223.128C139.967 206.762 142.728 190.365 149.132 175.263C165.148 137.563 202.604 110.95 245.972 110.95H276.029C315.475 110.95 350.015 132.958 367.995 165.299C376.646 180.827 381.18 198.311 381.166 216.086Z" fill="#ED7D2B"/>
<path d="M367.995 165.299C370.489 177.419 368.528 194.757 365.337 203.933C344.12 264.959 294.247 275.975 243.268 280.62C207.017 283.926 155.496 269.479 155.496 269.479C147.119 255.375 142.178 239.499 141.073 223.133C139.967 206.766 142.728 190.37 149.132 175.268C165.148 137.568 202.604 110.954 245.972 110.954H276.029C315.468 110.95 350.015 132.958 367.995 165.299Z" fill="#F99746"/>
<path d="M233.575 137.29H192.224C188.054 137.29 184.674 134.758 184.674 131.634V75.1736C184.676 74.2426 184.965 73.3349 185.5 72.5733C187.521 69.638 192.836 68.4282 196.792 70.6693C212.493 79.5677 238.221 98.9092 241.107 131.25C241.403 134.518 237.945 137.29 233.575 137.29Z" fill="#F99746"/>
<path d="M193.905 137.29H192.224C188.054 137.29 184.674 134.758 184.674 131.633V75.1736C184.676 74.2426 184.965 73.3348 185.5 72.5732C185.681 72.7279 185.851 72.8943 186.009 73.0713C194.991 83.0715 207.94 102.717 204.3 130.236C203.762 134.238 199.273 137.29 193.905 137.29Z" fill="#ED7D2B"/>
<path d="M172.109 175.032C172.109 173.812 172.471 172.619 173.149 171.604C173.827 170.59 174.791 169.799 175.918 169.332C177.046 168.865 178.286 168.743 179.483 168.981C180.68 169.219 181.78 169.806 182.643 170.669C183.506 171.532 184.093 172.632 184.331 173.829C184.569 175.025 184.447 176.266 183.98 177.394C183.513 178.521 182.722 179.485 181.708 180.163C180.693 180.841 179.5 181.203 178.28 181.203C176.643 181.203 175.074 180.552 173.917 179.395C172.759 178.238 172.109 176.669 172.109 175.032Z" fill="#2B478B"/>
<path d="M293.819 276.588L284.013 340.274C283.709 341.425 283.673 342.63 283.908 343.797C284.144 344.964 284.644 346.061 285.37 347.004C286.097 347.947 287.03 348.711 288.098 349.237C289.166 349.762 290.341 350.036 291.532 350.036H317.314C320.024 350.035 322.681 349.288 324.994 347.877C327.308 346.467 329.189 344.447 330.43 342.039L370.486 262.141L293.819 276.588Z" fill="#ED7D2B"/>
<path d="M235.139 277.681L243.006 340.265C243.31 341.416 243.345 342.621 243.11 343.788C242.874 344.955 242.374 346.052 241.648 346.996C240.921 347.939 239.988 348.702 238.92 349.228C237.852 349.754 236.677 350.027 235.487 350.027H209.704C206.994 350.026 204.337 349.279 202.024 347.869C199.71 346.458 197.83 344.438 196.588 342.03L155.487 269.472L235.139 277.681Z" fill="#ED7D2B"/>
<path d="M406.21 244.657C405.612 244.66 405.015 244.586 404.436 244.437C399.868 243.236 397.252 237.777 397.605 230.197C397.957 222.766 401.067 214.921 406.139 208.671C408.373 205.919 410.972 203.484 413.866 201.437C412.393 199.001 410.463 196.874 408.182 195.172C403.971 192.012 399.619 191.102 394.879 192.388C382.144 195.844 371.346 214.055 370.464 216.102C370.27 216.633 369.874 217.066 369.363 217.307C368.852 217.549 368.267 217.581 367.733 217.395C367.199 217.209 366.759 216.821 366.509 216.314C366.259 215.807 366.217 215.222 366.394 214.685C366.773 213.55 369.92 208.114 374.328 202.73C381.998 193.345 388.684 189.79 392.94 188.462C399.253 186.478 405.251 187.58 410.763 191.719C413.465 193.737 415.757 196.253 417.515 199.132C422.073 196.628 427.032 194.935 432.169 194.127C432.73 194.042 433.301 194.181 433.76 194.515C434.219 194.848 434.528 195.349 434.62 195.909C434.712 196.468 434.579 197.041 434.251 197.504C433.923 197.967 433.426 198.282 432.868 198.38C428.166 199.116 423.631 200.673 419.469 202.981C420.728 206.077 421.504 209.347 421.77 212.678C422.359 220.103 420.992 227.554 417.803 234.287C414.597 240.931 410.368 244.657 406.21 244.657ZM415.783 205.366C413.44 207.097 411.326 209.119 409.491 211.382C404.987 216.933 402.219 223.863 401.915 230.397C401.67 235.582 403.158 239.639 405.533 240.265C407.909 240.891 411.386 237.669 413.927 232.416C416.71 226.662 418.041 219.414 417.488 213.054C417.273 210.428 416.699 207.843 415.783 205.372V205.366ZM370.489 216.04C370.486 216.054 370.482 216.067 370.478 216.08C370.482 216.071 370.487 216.058 370.489 216.047V216.04Z" fill="#ED7D2B"/>
<path d="M231.824 342.305V346.406C231.821 346.729 231.706 347.04 231.5 347.288C231.269 347.565 230.963 347.77 230.618 347.879C230.506 347.916 230.391 347.943 230.275 347.96C230.164 347.977 230.052 347.985 229.94 347.984H152.15C151.21 347.984 150.425 347.398 150.286 346.64C150.286 346.589 150.273 346.539 150.269 346.486C150.264 346.433 150.269 346.431 150.269 346.404V342.303C150.269 342.277 150.269 342.25 150.269 342.222C150.269 342.193 150.269 342.118 150.286 342.067C150.425 341.309 151.21 340.723 152.15 340.723H229.94C230.052 340.722 230.164 340.73 230.275 340.747C230.391 340.765 230.506 340.793 230.618 340.831C230.964 340.938 231.27 341.143 231.5 341.422C231.707 341.67 231.822 341.982 231.824 342.305Z" fill="#FFB93E"/>
<path d="M193.625 347.986H151.95C151.59 347.991 151.239 347.88 150.948 347.669C150.656 347.459 150.441 347.159 150.334 346.816C150.315 346.759 150.299 346.701 150.288 346.642C150.288 346.591 150.275 346.54 150.271 346.488C150.266 346.435 150.271 346.433 150.271 346.406V342.305C150.271 342.279 150.271 342.252 150.271 342.224C150.271 342.195 150.271 342.12 150.288 342.069C150.299 342.01 150.315 341.952 150.334 341.895C150.441 341.552 150.656 341.253 150.948 341.042C151.239 340.831 151.59 340.72 151.95 340.725H188.508C189.287 343.681 191.103 346.258 193.625 347.986Z" fill="#FFA412"/>
<path d="M222.358 340.725H221.475V347.988H222.358V340.725Z" fill="#FFA412"/>
<path d="M219.366 340.725H218.482V347.988H219.366V340.725Z" fill="#FFA412"/>
<path d="M215.776 340.725H214.893V347.988H215.776V340.725Z" fill="#FFA412"/>
<path d="M210.275 340.725H209.392V347.988H210.275V340.725Z" fill="#FFA412"/>
<path d="M204.459 340.725H203.575V347.988H204.459V340.725Z" fill="#FFA412"/>
<path d="M195.54 340.725H194.656V347.988H195.54V340.725Z" fill="#FFA412"/>
<path d="M187.191 340.725H186.308V347.988H187.191V340.725Z" fill="#FFA412"/>
<path d="M179.735 340.725H178.852V347.988H179.735V340.725Z" fill="#FFA412"/>
<path d="M225.206 340.725H224.322V347.988H225.206V340.725Z" fill="#FFA412"/>
<path d="M227.088 340.725H226.204V347.988H227.088V340.725Z" fill="#FFA412"/>
<path d="M228.906 340.725H228.022V347.988H228.906V340.725Z" fill="#FFA412"/>
<path d="M230.272 340.749V347.962C230.163 347.978 230.052 347.986 229.942 347.986H229.389V340.714H229.942C230.053 340.718 230.163 340.73 230.272 340.749Z" fill="#FFA412"/>
<path d="M231.503 341.424V347.29C231.271 347.567 230.965 347.772 230.621 347.881V340.829C230.966 340.938 231.272 341.145 231.503 341.424Z" fill="#FFA412"/>
<path d="M223.505 335.044V339.143C223.502 339.465 223.389 339.775 223.186 340.025C223.131 340.091 223.071 340.152 223.007 340.21C222.803 340.394 222.562 340.532 222.3 340.615C222.188 340.651 222.073 340.678 221.956 340.694C221.847 340.712 221.736 340.721 221.626 340.721H143.836C142.9 340.721 142.115 340.132 141.977 339.374C141.967 339.324 141.962 339.273 141.959 339.222C141.959 339.196 141.959 339.167 141.959 339.139V335.04C141.959 335.013 141.959 334.985 141.959 334.956C141.962 334.905 141.967 334.854 141.977 334.804C142.115 334.046 142.9 333.458 143.836 333.458H221.626C221.674 333.458 221.725 333.458 221.773 333.458C221.791 333.455 221.809 333.455 221.826 333.458H221.897H221.945C222.062 333.474 222.177 333.501 222.289 333.539C222.354 333.559 222.419 333.583 222.481 333.612L222.602 333.669L222.67 333.709C222.691 333.72 222.712 333.733 222.732 333.746C222.81 333.795 222.884 333.851 222.952 333.914C222.976 333.934 222.996 333.956 223.018 333.975L223.056 334.013L223.076 334.033L223.093 334.05C223.119 334.076 223.143 334.103 223.164 334.132C223.383 334.386 223.504 334.709 223.505 335.044Z" fill="#FFB93E"/>
<path d="M185.31 340.736H143.634C143.274 340.741 142.923 340.63 142.632 340.418C142.341 340.207 142.126 339.907 142.019 339.564C142.001 339.507 141.986 339.449 141.975 339.39C141.966 339.34 141.96 339.289 141.957 339.238C141.957 339.211 141.957 339.183 141.957 339.154V335.055C141.957 335.029 141.957 335 141.957 334.972C141.96 334.921 141.966 334.87 141.975 334.819C141.986 334.761 142.001 334.703 142.019 334.645C142.126 334.302 142.341 334.002 142.632 333.791C142.923 333.58 143.274 333.468 143.634 333.473H180.191C180.206 333.535 180.224 333.592 180.241 333.654C181.043 336.538 182.838 339.046 185.31 340.736Z" fill="#FFA412"/>
<path d="M214.04 333.462H213.156V340.723H214.04V333.462Z" fill="#FFA412"/>
<path d="M211.047 333.462H210.163V340.723H211.047V333.462Z" fill="#FFA412"/>
<path d="M207.46 333.462H206.576V340.723H207.46V333.462Z" fill="#FFA412"/>
<path d="M201.959 333.462H201.075V340.723H201.959V333.462Z" fill="#FFA412"/>
<path d="M196.14 333.462H195.257V340.723H196.14V333.462Z" fill="#FFA412"/>
<path d="M187.224 333.462H186.34V340.723H187.224V333.462Z" fill="#FFA412"/>
<path d="M178.875 333.462H177.991V340.723H178.875V333.462Z" fill="#FFA412"/>
<path d="M171.419 333.462H170.535V340.723H171.419V333.462Z" fill="#FFA412"/>
<path d="M216.891 333.462H216.007V340.723H216.891V333.462Z" fill="#FFA412"/>
<path d="M218.771 333.462H217.888V340.723H218.771V333.462Z" fill="#FFA412"/>
<path d="M220.59 333.462H219.706V340.723H220.59V333.462Z" fill="#FFA412"/>
<path d="M221.956 333.488V340.699C221.847 340.716 221.736 340.725 221.625 340.725H221.072V333.453H221.625C221.736 333.456 221.847 333.468 221.956 333.488Z" fill="#FFA412"/>
<path d="M223.183 334.161V340.027C222.953 340.305 222.647 340.51 222.302 340.617V333.566C222.647 333.675 222.953 333.881 223.183 334.161Z" fill="#FFA412"/>
<path d="M227.524 327.955V332.058C227.521 332.38 227.408 332.692 227.202 332.94C226.972 333.218 226.666 333.423 226.321 333.53C226.209 333.568 226.094 333.596 225.977 333.614C225.868 333.629 225.757 333.637 225.647 333.638H147.857C147.559 333.639 147.265 333.577 146.991 333.458C146.746 333.36 146.528 333.205 146.356 333.006C146.183 332.806 146.061 332.568 146 332.312C145.993 332.278 145.987 332.243 145.984 332.208C145.984 332.186 145.984 332.162 145.984 332.138C145.984 332.113 145.984 332.085 145.984 332.058V327.955C145.984 327.929 145.984 327.902 145.984 327.876C145.986 327.825 145.992 327.774 146.002 327.724C146.139 326.961 146.925 326.377 147.862 326.377H225.651C225.762 326.376 225.872 326.385 225.982 326.401C226.098 326.417 226.213 326.444 226.325 326.481C226.67 326.59 226.976 326.796 227.207 327.074C227.41 327.323 227.522 327.634 227.524 327.955Z" fill="#FFB93E"/>
<path d="M189.325 333.643H147.654C147.385 333.643 147.121 333.581 146.88 333.462C146.653 333.354 146.455 333.194 146.302 332.995C146.149 332.796 146.045 332.563 145.999 332.316C145.992 332.282 145.986 332.247 145.983 332.212C145.983 332.19 145.983 332.166 145.983 332.142C145.983 332.118 145.983 332.089 145.983 332.063V327.955C145.983 327.929 145.983 327.902 145.983 327.876C145.985 327.825 145.991 327.774 146.001 327.724C146.01 327.666 146.024 327.609 146.043 327.554C146.148 327.209 146.363 326.908 146.655 326.695C146.947 326.483 147.3 326.371 147.66 326.377H184.217C184.97 329.229 186.689 331.731 189.08 333.458C189.155 333.524 189.241 333.583 189.325 333.643Z" fill="#FFA412"/>
<path d="M218.06 326.379H217.177V333.64H218.06V326.379Z" fill="#FFA412"/>
<path d="M215.067 326.379H214.184V333.64H215.067V326.379Z" fill="#FFA412"/>
<path d="M211.479 326.379H210.596V333.64H211.479V326.379Z" fill="#FFA412"/>
<path d="M205.979 326.379H205.096V333.64H205.979V326.379Z" fill="#FFA412"/>
<path d="M200.162 326.379H199.278V333.64H200.162V326.379Z" fill="#FFA412"/>
<path d="M191.243 326.379H190.359V333.64H191.243V326.379Z" fill="#FFA412"/>
<path d="M182.893 326.379H182.01V333.64H182.893V326.379Z" fill="#FFA412"/>
<path d="M175.438 326.379H174.555V333.64H175.438V326.379Z" fill="#FFA412"/>
<path d="M220.909 326.379H220.025V333.64H220.909V326.379Z" fill="#FFA412"/>
<path d="M222.791 326.379H221.907V333.64H222.791V326.379Z" fill="#FFA412"/>
<path d="M224.608 326.379H223.725V333.64H224.608V326.379Z" fill="#FFA412"/>
<path d="M225.975 326.412V333.623C225.865 333.641 225.754 333.649 225.643 333.649H225.092V326.377H225.643C225.754 326.38 225.866 326.392 225.975 326.412Z" fill="#FFA412"/>
<path d="M227.202 327.074V332.94C226.971 333.217 226.665 333.423 226.32 333.53V326.479C226.666 326.587 226.972 326.794 227.202 327.074Z" fill="#FFA412"/>
<path d="M229.388 320.698V324.799C229.385 325.122 229.271 325.434 229.064 325.681C229.038 325.715 229.01 325.747 228.98 325.778C228.827 325.941 228.645 326.074 228.442 326.17C228.358 326.21 228.271 326.244 228.182 326.274C228.07 326.311 227.955 326.338 227.839 326.355L227.675 326.373C227.619 326.376 227.562 326.376 227.506 326.373H149.717C148.776 326.373 147.991 325.784 147.852 325.026C147.852 324.976 147.839 324.923 147.837 324.872V320.617C147.885 319.846 148.595 319.22 149.494 319.129C149.567 319.129 149.642 319.129 149.714 319.129H227.504H227.673C227.728 319.133 227.782 319.139 227.836 319.149C227.953 319.165 228.068 319.192 228.18 319.229C228.525 319.337 228.831 319.542 229.062 319.819C229.268 320.066 229.383 320.377 229.388 320.698Z" fill="#FFB93E"/>
<path d="M191.189 326.381H149.516C149.156 326.386 148.804 326.274 148.513 326.063C148.222 325.852 148.006 325.553 147.899 325.209C147.879 325.152 147.863 325.094 147.852 325.035C147.852 324.984 147.839 324.931 147.837 324.881V320.617C147.869 320.234 148.035 319.876 148.305 319.604C148.576 319.332 148.934 319.164 149.316 319.129C149.382 319.126 149.449 319.126 149.516 319.129H186.073C186.854 322.082 188.67 324.655 191.189 326.381Z" fill="#FFA412"/>
<path d="M219.924 319.116H219.04V326.377H219.924V319.116Z" fill="#FFA412"/>
<path d="M216.932 319.116H216.048V326.377H216.932V319.116Z" fill="#FFA412"/>
<path d="M213.342 319.116H212.458V326.377H213.342V319.116Z" fill="#FFA412"/>
<path d="M207.842 319.116H206.958V326.377H207.842V319.116Z" fill="#FFA412"/>
<path d="M202.022 319.116H201.139V326.377H202.022V319.116Z" fill="#FFA412"/>
<path d="M193.107 319.116H192.224V326.377H193.107V319.116Z" fill="#FFA412"/>
<path d="M184.759 319.116H183.875V326.377H184.759V319.116Z" fill="#FFA412"/>
<path d="M177.3 319.116H176.416V326.377H177.3V319.116Z" fill="#FFA412"/>
<path d="M222.773 319.116H221.89V326.377H222.773V319.116Z" fill="#FFA412"/>
<path d="M224.655 319.116H223.771V326.377H224.655V319.116Z" fill="#FFA412"/>
<path d="M226.471 319.116H225.587V326.377H226.471V319.116Z" fill="#FFA412"/>
<path d="M227.839 319.14V326.353C227.729 326.369 227.618 326.377 227.506 326.377H226.953V319.118H227.506C227.618 319.118 227.729 319.125 227.839 319.14Z" fill="#FFA412"/>
<path d="M229.067 319.815V325.681C228.837 325.959 228.53 326.165 228.186 326.274V319.222C228.53 319.331 228.836 319.537 229.067 319.815Z" fill="#FFA412"/>
<path d="M223.667 313.448V317.547C223.665 317.869 223.552 318.18 223.347 318.429C223.117 318.708 222.811 318.914 222.466 319.021C222.354 319.057 222.24 319.084 222.124 319.101L222.014 319.116H222.001H221.941H221.891H143.998C142.995 319.116 142.169 318.455 142.118 317.618C142.118 317.591 142.118 317.563 142.118 317.534V313.435C142.118 313.409 142.118 313.38 142.118 313.351C142.118 313.323 142.118 313.31 142.118 313.288C142.193 312.626 142.779 312.065 143.531 311.904H143.586C143.72 311.878 143.857 311.865 143.993 311.864H221.783C221.84 311.864 221.895 311.864 221.95 311.864H222.021H222.109C222.225 311.881 222.339 311.908 222.45 311.946C222.796 312.052 223.102 312.259 223.332 312.538C223.549 312.792 223.668 313.115 223.667 313.448Z" fill="#FFB93E"/>
<path d="M185.471 319.14H143.797C143.379 319.151 142.973 319.002 142.661 318.723C142.349 318.445 142.155 318.058 142.118 317.642C142.118 317.615 142.118 317.587 142.118 317.558V313.459C142.118 313.433 142.118 313.404 142.118 313.375C142.118 313.347 142.118 313.334 142.118 313.312C142.16 312.971 142.31 312.653 142.544 312.403C142.778 312.153 143.086 311.983 143.423 311.919C143.445 311.91 143.469 311.905 143.493 311.903C143.592 311.886 143.692 311.877 143.793 311.877H180.347C180.347 311.897 180.347 311.91 180.363 311.93C181.146 314.859 182.95 317.412 185.449 319.129L185.471 319.14Z" fill="#FFA412"/>
<path d="M214.205 311.866H213.321V319.127H214.205V311.866Z" fill="#FFA412"/>
<path d="M211.213 311.866H210.329V319.127H211.213V311.866Z" fill="#FFA412"/>
<path d="M207.624 311.866H206.74V319.127H207.624V311.866Z" fill="#FFA412"/>
<path d="M202.122 311.866H201.238V319.127H202.122V311.866Z" fill="#FFA412"/>
<path d="M196.305 311.866H195.421V319.127H196.305V311.866Z" fill="#FFA412"/>
<path d="M187.388 311.866H186.504V319.127H187.388V311.866Z" fill="#FFA412"/>
<path d="M179.037 311.866H178.153V319.127H179.037V311.866Z" fill="#FFA412"/>
<path d="M171.582 311.866H170.698V319.127H171.582V311.866Z" fill="#FFA412"/>
<path d="M217.052 311.866H216.168V319.127H217.052V311.866Z" fill="#FFA412"/>
<path d="M218.934 311.866H218.051V319.127H218.934V311.866Z" fill="#FFA412"/>
<path d="M220.753 311.866H219.869V319.127H220.753V311.866Z" fill="#FFA412"/>
<path d="M222.119 311.892V319.103C222.01 319.121 221.899 319.129 221.788 319.129H221.235V311.857H221.788C221.899 311.86 222.01 311.872 222.119 311.892Z" fill="#FFA412"/>
<path d="M223.346 312.565V318.431C223.116 318.709 222.81 318.914 222.465 319.021V311.97C222.81 312.079 223.116 312.286 223.346 312.565Z" fill="#FFA412"/>
<path d="M223.505 306.238V310.337C223.501 310.659 223.389 310.97 223.185 311.218C223.129 311.285 223.07 311.348 223.007 311.408C222.802 311.59 222.561 311.728 222.299 311.811C222.212 311.84 222.123 311.863 222.033 311.88H221.962C221.853 311.897 221.742 311.906 221.632 311.906H143.842C143.761 311.906 143.68 311.902 143.6 311.893L143.507 311.88C142.716 311.758 142.09 311.218 141.98 310.544C141.972 310.499 141.967 310.453 141.965 310.408C141.965 310.379 141.965 310.352 141.965 310.324V306.225C141.965 306.196 141.965 306.17 141.965 306.143C141.967 306.092 141.973 306.04 141.982 305.989C142.121 305.231 142.906 304.643 143.842 304.643H221.632C221.68 304.643 221.731 304.643 221.779 304.643H221.843H221.914C221.93 304.641 221.946 304.641 221.962 304.643C222.079 304.659 222.194 304.687 222.306 304.724C222.372 304.746 222.436 304.771 222.498 304.797C222.732 304.9 222.944 305.05 223.119 305.238L223.19 305.319C223.4 305.579 223.512 305.904 223.505 306.238Z" fill="#FFB93E"/>
<path d="M185.31 311.919H143.537H143.429C143.072 311.884 142.736 311.733 142.473 311.489C142.21 311.245 142.034 310.921 141.972 310.568C141.964 310.523 141.959 310.477 141.957 310.431C141.957 310.403 141.957 310.376 141.957 310.348V306.249C141.957 306.22 141.957 306.194 141.957 306.167C141.96 306.116 141.965 306.064 141.975 306.013C141.986 305.955 142 305.898 142.019 305.841C142.125 305.497 142.34 305.197 142.631 304.985C142.922 304.774 143.274 304.662 143.634 304.667H180.191C180.206 304.728 180.224 304.786 180.241 304.847C181.035 307.7 182.801 310.187 185.232 311.877C185.257 311.886 185.285 311.899 185.31 311.919Z" fill="#FFA412"/>
<path d="M214.04 304.656H213.156V311.917H214.04V304.656Z" fill="#FFA412"/>
<path d="M211.047 304.656H210.163V311.917H211.047V304.656Z" fill="#FFA412"/>
<path d="M207.46 304.656H206.576V311.917H207.46V304.656Z" fill="#FFA412"/>
<path d="M201.959 304.656H201.075V311.917H201.959V304.656Z" fill="#FFA412"/>
<path d="M196.14 304.656H195.257V311.917H196.14V304.656Z" fill="#FFA412"/>
<path d="M187.224 304.656H186.34V311.917H187.224V304.656Z" fill="#FFA412"/>
<path d="M178.875 304.656H177.991V311.917H178.875V304.656Z" fill="#FFA412"/>
<path d="M171.419 304.656H170.535V311.917H171.419V304.656Z" fill="#FFA412"/>
<path d="M216.891 304.656H216.007V311.917H216.891V304.656Z" fill="#FFA412"/>
<path d="M218.771 304.656H217.888V311.917H218.771V304.656Z" fill="#FFA412"/>
<path d="M220.59 304.656H219.706V311.917H220.59V304.656Z" fill="#FFA412"/>
<path d="M221.956 304.682V311.892C221.847 311.91 221.736 311.919 221.625 311.919H221.072V304.647H221.625C221.736 304.65 221.847 304.661 221.956 304.682Z" fill="#FFA412"/>
<path d="M223.183 305.354V311.22C222.953 311.499 222.646 311.704 222.302 311.813V304.761C222.647 304.87 222.953 305.076 223.183 305.354Z" fill="#FFA412"/>
<path d="M227.524 299.155V303.254C227.522 303.576 227.408 303.888 227.202 304.136C226.973 304.415 226.666 304.62 226.321 304.726C226.209 304.764 226.094 304.791 225.977 304.808C225.868 304.824 225.757 304.833 225.647 304.834H147.857C147.559 304.835 147.265 304.773 146.991 304.654C146.746 304.557 146.528 304.402 146.355 304.202C146.182 304.003 146.061 303.764 146 303.508C145.993 303.474 145.987 303.439 145.984 303.404C145.984 303.38 145.984 303.358 145.984 303.334C145.984 303.309 145.984 303.281 145.984 303.252V299.153C145.984 299.127 145.984 299.096 145.984 299.07C145.986 299.018 145.992 298.968 146.002 298.917C146.139 298.159 146.925 297.571 147.862 297.571H225.651C225.762 297.571 225.872 297.58 225.982 297.597C226.098 297.614 226.213 297.641 226.325 297.677C226.671 297.784 226.977 297.99 227.207 298.27C227.411 298.52 227.523 298.832 227.524 299.155Z" fill="#FFB93E"/>
<path d="M189.325 304.837H147.654C147.385 304.837 147.121 304.775 146.88 304.656C146.653 304.548 146.455 304.388 146.301 304.189C146.148 303.99 146.044 303.757 145.999 303.51C145.992 303.476 145.986 303.441 145.983 303.407C145.983 303.382 145.983 303.36 145.983 303.336C145.983 303.312 145.983 303.283 145.983 303.254V299.156C145.983 299.129 145.983 299.098 145.983 299.072C145.985 299.021 145.991 298.97 146.001 298.92C146.011 298.862 146.025 298.806 146.043 298.75C146.149 298.405 146.364 298.104 146.655 297.892C146.947 297.68 147.3 297.568 147.66 297.573H184.217C184.969 300.426 186.688 302.93 189.08 304.656C189.155 304.718 189.241 304.775 189.325 304.837Z" fill="#FFA412"/>
<path d="M218.06 297.573H217.177V304.834H218.06V297.573Z" fill="#FFA412"/>
<path d="M215.067 297.573H214.184V304.834H215.067V297.573Z" fill="#FFA412"/>
<path d="M211.479 297.573H210.596V304.834H211.479V297.573Z" fill="#FFA412"/>
<path d="M205.979 297.573H205.096V304.834H205.979V297.573Z" fill="#FFA412"/>
<path d="M200.162 297.573H199.278V304.834H200.162V297.573Z" fill="#FFA412"/>
<path d="M191.243 297.573H190.359V304.834H191.243V297.573Z" fill="#FFA412"/>
<path d="M182.893 297.573H182.01V304.834H182.893V297.573Z" fill="#FFA412"/>
<path d="M175.438 297.573H174.555V304.834H175.438V297.573Z" fill="#FFA412"/>
<path d="M220.909 297.573H220.025V304.834H220.909V297.573Z" fill="#FFA412"/>
<path d="M222.791 297.573H221.907V304.834H222.791V297.573Z" fill="#FFA412"/>
<path d="M224.608 297.573H223.725V304.834H224.608V297.573Z" fill="#FFA412"/>
<path d="M225.975 297.6V304.817C225.865 304.834 225.754 304.843 225.643 304.843H225.092V297.571H225.643C225.754 297.572 225.865 297.581 225.975 297.6Z" fill="#FFA412"/>
<path d="M227.202 298.272V304.138C226.972 304.416 226.665 304.622 226.32 304.729V297.677C226.665 297.786 226.972 297.993 227.202 298.272Z" fill="#FFA412"/>
<path d="M233.882 291.892V296.002C233.879 296.324 233.766 296.635 233.562 296.884C233.536 296.917 233.508 296.95 233.478 296.981C233.357 297.11 233.216 297.22 233.062 297.307C232.983 297.353 232.9 297.392 232.815 297.426C232.772 297.445 232.728 297.461 232.683 297.474C232.571 297.512 232.456 297.539 232.339 297.556C232.23 297.572 232.119 297.58 232.008 297.58H154.219C153.281 297.58 152.496 296.994 152.357 296.236C152.349 296.184 152.343 296.132 152.342 296.079C152.342 296.053 152.342 296.026 152.342 296V291.899C152.342 291.87 152.342 291.844 152.342 291.817C152.388 291.051 153.098 290.42 153.999 290.33C154.072 290.326 154.146 290.326 154.219 290.33H232.008C232.237 290.329 232.465 290.365 232.683 290.436C232.985 290.533 233.259 290.702 233.48 290.929C233.509 290.962 233.538 290.993 233.564 291.026C233.764 291.271 233.875 291.576 233.882 291.892Z" fill="#FFB93E"/>
<path d="M195.683 297.573H154.008C153.648 297.579 153.296 297.467 153.004 297.255C152.713 297.043 152.498 296.743 152.393 296.399C152.374 296.343 152.36 296.286 152.348 296.229C152.34 296.177 152.335 296.125 152.333 296.072C152.333 296.046 152.333 296.02 152.333 295.993V291.892C152.333 291.863 152.333 291.837 152.333 291.811C152.365 291.429 152.53 291.07 152.8 290.798C153.07 290.526 153.428 290.358 153.809 290.323C153.875 290.319 153.942 290.319 154.008 290.323H190.566C191.347 293.275 193.163 295.849 195.683 297.573Z" fill="#FFA412"/>
<path d="M224.417 290.312H223.533V297.573H224.417V290.312Z" fill="#FFA412"/>
<path d="M221.425 290.312H220.541V297.573H221.425V290.312Z" fill="#FFA412"/>
<path d="M217.838 290.312H216.954V297.573H217.838V290.312Z" fill="#FFA412"/>
<path d="M212.335 290.312H211.451V297.573H212.335V290.312Z" fill="#FFA412"/>
<path d="M206.518 290.312H205.635V297.573H206.518V290.312Z" fill="#FFA412"/>
<path d="M197.601 290.312H196.718V297.573H197.601V290.312Z" fill="#FFA412"/>
<path d="M189.251 290.312H188.367V297.573H189.251V290.312Z" fill="#FFA412"/>
<path d="M181.794 290.312H180.91V297.573H181.794V290.312Z" fill="#FFA412"/>
<path d="M227.266 290.312H226.382V297.573H227.266V290.312Z" fill="#FFA412"/>
<path d="M229.149 290.312H228.266V297.573H229.149V290.312Z" fill="#FFA412"/>
<path d="M230.967 290.312H230.083V297.573H230.967V290.312Z" fill="#FFA412"/>
<path d="M232.333 290.337V297.545C232.223 297.561 232.111 297.569 232 297.569H231.449V290.297H232C232.112 290.302 232.223 290.315 232.333 290.337Z" fill="#FFA412"/>
<path d="M233.56 291.009V296.883C233.33 297.162 233.024 297.368 232.679 297.476V290.425C233.022 290.531 233.328 290.733 233.56 291.009Z" fill="#FFA412"/>
<path d="M223.667 284.642V288.741C223.665 289.063 223.552 289.374 223.347 289.622C223.117 289.901 222.811 290.107 222.466 290.215C222.355 290.252 222.24 290.278 222.124 290.294L222.014 290.31H222.001H221.928H143.998C143.691 290.317 143.387 290.253 143.11 290.122C142.832 289.992 142.588 289.799 142.398 289.558C142.234 289.342 142.137 289.082 142.118 288.811C142.118 288.783 142.118 288.756 142.118 288.728V284.629C142.118 284.6 142.118 284.574 142.118 284.547C142.16 283.873 142.711 283.307 143.44 283.117C143.619 283.07 143.802 283.046 143.987 283.047H221.875C221.891 283.045 221.908 283.045 221.924 283.047C221.986 283.049 222.047 283.055 222.109 283.064C222.225 283.081 222.339 283.108 222.45 283.146C222.505 283.162 222.559 283.181 222.611 283.205C222.812 283.287 222.996 283.403 223.156 283.549L223.175 283.569C223.23 283.617 223.28 283.67 223.325 283.728C223.545 283.982 223.666 284.306 223.667 284.642Z" fill="#FFB93E"/>
<path d="M185.472 290.323H143.799C143.524 290.327 143.252 290.264 143.006 290.14C142.76 290.016 142.547 289.835 142.387 289.612C142.224 289.382 142.129 289.111 142.113 288.829C142.113 288.801 142.113 288.774 142.113 288.745V284.647C142.113 284.618 142.113 284.592 142.113 284.565C142.142 284.207 142.289 283.869 142.531 283.604C142.774 283.338 143.097 283.161 143.451 283.1C143.563 283.077 143.678 283.065 143.792 283.064H180.347C180.362 283.122 180.38 283.177 180.395 283.232C181.193 286.115 182.983 288.623 185.448 290.317L185.472 290.323Z" fill="#FFA412"/>
<path d="M214.205 283.06H213.321V290.321H214.205V283.06Z" fill="#FFA412"/>
<path d="M211.213 283.06H210.329V290.321H211.213V283.06Z" fill="#FFA412"/>
<path d="M207.624 283.06H206.74V290.321H207.624V283.06Z" fill="#FFA412"/>
<path d="M202.122 283.06H201.238V290.321H202.122V283.06Z" fill="#FFA412"/>
<path d="M196.305 283.06H195.421V290.321H196.305V283.06Z" fill="#FFA412"/>
<path d="M187.388 283.06H186.504V290.321H187.388V283.06Z" fill="#FFA412"/>
<path d="M179.037 283.06H178.153V290.321H179.037V283.06Z" fill="#FFA412"/>
<path d="M171.582 283.06H170.698V290.321H171.582V283.06Z" fill="#FFA412"/>
<path d="M217.052 283.06H216.168V290.321H217.052V283.06Z" fill="#FFA412"/>
<path d="M218.934 283.06H218.051V290.321H218.934V283.06Z" fill="#FFA412"/>
<path d="M220.753 283.06H219.869V290.321H220.753V283.06Z" fill="#FFA412"/>
<path d="M222.119 283.086V290.297C222.01 290.314 221.899 290.323 221.788 290.323H221.235V283.051H221.788C221.899 283.054 222.01 283.066 222.119 283.086Z" fill="#FFA412"/>
<path d="M223.346 283.759V289.625C223.115 289.903 222.809 290.109 222.465 290.217V283.166C222.81 283.275 223.116 283.48 223.346 283.759Z" fill="#FFA412"/>
<path d="M229.388 277.546V281.647C229.385 281.969 229.271 282.281 229.066 282.529C228.835 282.806 228.529 283.011 228.185 283.119C228.073 283.157 227.958 283.184 227.841 283.201C227.731 283.219 227.62 283.228 227.508 283.227H149.719C149.431 283.228 149.145 283.171 148.879 283.058C148.61 282.958 148.372 282.788 148.19 282.566C148.008 282.344 147.888 282.077 147.844 281.793C147.844 281.771 147.844 281.749 147.844 281.727C147.844 281.705 147.844 281.674 147.844 281.645V277.544C147.844 277.518 147.844 277.491 147.844 277.463C147.89 276.694 148.602 276.065 149.501 275.975C149.574 275.975 149.649 275.964 149.721 275.964H227.51C227.622 275.964 227.733 275.973 227.843 275.991C227.96 276.008 228.075 276.035 228.187 276.072C228.532 276.18 228.838 276.385 229.068 276.663C229.274 276.912 229.386 277.224 229.388 277.546Z" fill="#FFB93E"/>
<path d="M191.191 283.221H149.518C149.258 283.221 149.001 283.163 148.766 283.051C148.516 282.938 148.3 282.762 148.138 282.54C147.976 282.319 147.874 282.059 147.843 281.786C147.843 281.764 147.843 281.742 147.843 281.72C147.843 281.698 147.843 281.667 147.843 281.639V277.538C147.843 277.511 147.843 277.485 147.843 277.456C147.875 277.074 148.041 276.715 148.312 276.443C148.582 276.172 148.94 276.003 149.321 275.969C149.388 275.961 149.455 275.958 149.522 275.958H186.078C186.078 275.961 186.078 275.965 186.078 275.969C186.834 278.823 188.557 281.326 190.953 283.051C191.03 283.117 191.109 283.174 191.191 283.221Z" fill="#FFA412"/>
<path d="M219.924 275.967H219.04V283.23H219.924V275.967Z" fill="#FFA412"/>
<path d="M216.932 275.967H216.048V283.23H216.932V275.967Z" fill="#FFA412"/>
<path d="M213.342 275.967H212.458V283.23H213.342V275.967Z" fill="#FFA412"/>
<path d="M207.842 275.967H206.958V283.23H207.842V275.967Z" fill="#FFA412"/>
<path d="M202.022 275.967H201.139V283.23H202.022V275.967Z" fill="#FFA412"/>
<path d="M193.107 275.967H192.224V283.23H193.107V275.967Z" fill="#FFA412"/>
<path d="M184.759 275.967H183.875V283.23H184.759V275.967Z" fill="#FFA412"/>
<path d="M177.3 275.967H176.416V283.23H177.3V275.967Z" fill="#FFA412"/>
<path d="M222.773 275.967H221.89V283.23H222.773V275.967Z" fill="#FFA412"/>
<path d="M224.655 275.967H223.771V283.23H224.655V275.967Z" fill="#FFA412"/>
<path d="M226.471 275.967H225.587V283.23H226.471V275.967Z" fill="#FFA412"/>
<path d="M227.839 275.993V283.203C227.729 283.221 227.618 283.23 227.506 283.23H226.953V275.958H227.506C227.618 275.96 227.729 275.972 227.839 275.993Z" fill="#FFA412"/>
<path d="M229.067 276.665V282.531C228.836 282.808 228.53 283.013 228.186 283.122V276.07C228.531 276.179 228.837 276.385 229.067 276.665Z" fill="#FFA412"/>
<path d="M231.824 270.296V274.406C231.822 274.728 231.708 275.04 231.502 275.288C231.272 275.566 230.966 275.772 230.621 275.88C230.508 275.918 230.393 275.945 230.275 275.962L230.167 275.975H230.105H152.153C151.15 275.975 150.324 275.314 150.273 274.477C150.273 274.45 150.273 274.422 150.273 274.395V270.294C150.273 270.268 150.273 270.239 150.273 270.213C150.324 269.382 151.155 268.714 152.153 268.714H229.942C230.053 268.714 230.163 268.722 230.273 268.738C230.39 268.756 230.506 268.783 230.619 268.82C230.964 268.928 231.27 269.134 231.5 269.413C231.707 269.661 231.822 269.973 231.824 270.296Z" fill="#FFB93E"/>
<path d="M193.626 275.978H151.95C151.533 275.988 151.127 275.838 150.816 275.56C150.504 275.282 150.31 274.895 150.273 274.479C150.273 274.453 150.273 274.424 150.273 274.398V270.297C150.273 270.27 150.273 270.241 150.273 270.215C150.31 269.799 150.504 269.412 150.816 269.134C151.127 268.856 151.533 268.707 151.95 268.717H188.507C189.284 271.666 191.095 274.239 193.608 275.967L193.626 275.978Z" fill="#FFA412"/>
<path d="M222.358 268.716H221.475V275.977H222.358V268.716Z" fill="#FFA412"/>
<path d="M219.366 268.716H218.482V275.977H219.366V268.716Z" fill="#FFA412"/>
<path d="M215.776 268.716H214.893V275.977H215.776V268.716Z" fill="#FFA412"/>
<path d="M210.275 268.716H209.392V275.977H210.275V268.716Z" fill="#FFA412"/>
<path d="M204.459 268.716H203.575V275.977H204.459V268.716Z" fill="#FFA412"/>
<path d="M195.54 268.716H194.656V275.977H195.54V268.716Z" fill="#FFA412"/>
<path d="M187.191 268.716H186.308V275.977H187.191V268.716Z" fill="#FFA412"/>
<path d="M179.735 268.716H178.852V275.977H179.735V268.716Z" fill="#FFA412"/>
<path d="M225.206 268.716H224.322V275.977H225.206V268.716Z" fill="#FFA412"/>
<path d="M227.088 268.716H226.204V275.977H227.088V268.716Z" fill="#FFA412"/>
<path d="M228.906 268.716H228.022V275.977H228.906V268.716Z" fill="#FFA412"/>
<path d="M230.272 268.741V275.949C230.163 275.965 230.052 275.973 229.942 275.973H229.389V268.701H229.942C230.053 268.707 230.163 268.72 230.272 268.741Z" fill="#FFA412"/>
<path d="M231.503 269.415V275.288C231.272 275.566 230.966 275.772 230.621 275.88V268.829C230.965 268.935 231.271 269.139 231.503 269.415Z" fill="#FFA412"/>
<path d="M207.173 227.332C207.173 227.332 203.086 233.083 199.342 233.165C195.598 233.246 189.897 230.498 189.897 230.498C189.897 230.498 186.457 222.832 188.795 219.833C188.795 219.833 191.133 218.808 193.579 220.619C194.048 220.972 194.474 221.38 194.846 221.834C195.354 222.461 196.039 222.922 196.812 223.156C199.485 223.969 202.658 222.054 203.844 223.901C204.426 224.801 205.12 225.623 205.911 226.347C206.303 226.71 206.725 227.04 207.173 227.332Z" fill="#FFEDDC"/>
<path d="M153.9 268.822C153.9 268.822 168.341 233.83 194.335 233.165C194.335 233.165 218.331 235.829 219.664 268.822H153.9Z" fill="#FFEDDC"/>
<path d="M187.215 234.231C187.215 234.231 197.634 236.549 200.849 235.188C200.849 235.188 201.334 230.831 196.947 231.441C193.943 231.86 191.986 230.417 190.836 229.831C189.207 229.011 186.781 232.409 187.215 234.231Z" fill="#DB6A1D"/>
<path d="M196.282 227.664C195.621 228.165 193.569 220.613 193.569 220.613C194.039 220.965 194.464 221.373 194.836 221.827C195.345 222.455 196.029 222.915 196.802 223.149C196.818 223.385 196.93 227.177 196.282 227.664Z" fill="#E5C1A1"/>
<path d="M205.899 226.366C205.752 226.455 200.935 229.339 200.28 229.339C199.626 229.339 203.832 223.92 203.832 223.92C204.414 224.82 205.109 225.642 205.899 226.366Z" fill="#E5C1A1"/>
<path d="M168.008 259.047C167.741 258.826 178.228 243.606 181.115 243.496C184.002 243.385 190.494 246.827 195.192 247.273C199.89 247.718 204.448 246.391 205.329 249.161C206.211 251.931 208.661 261.784 207.163 263.359C205.664 264.935 173.775 263.974 168.008 259.047Z" fill="#F9DDBF"/>
<path d="M269.581 131.318C268.911 131.837 268.212 132.317 267.488 132.757C267.204 132.934 266.917 133.099 266.622 133.262C265.886 133.67 265.128 134.038 264.352 134.364L263.691 134.249C262.294 134.016 260.916 133.802 259.557 133.608C258.884 133.511 258.218 133.418 257.558 133.33C254.779 132.962 252.106 132.669 249.57 132.436C248.887 132.371 248.214 132.312 247.551 132.259C247.023 132.215 246.505 132.176 245.993 132.138C244.739 132.046 243.528 131.967 242.36 131.902C240.695 130.724 239.197 129.327 237.906 127.748C235.779 125.152 234.25 122.12 233.426 118.867C232.601 115.614 232.503 112.219 233.136 108.924C233.77 105.628 235.121 102.512 237.093 99.7968C239.065 97.0813 241.61 94.8328 244.548 93.2105C244.839 93.0496 245.132 92.8954 245.429 92.7521C250.51 90.2431 256.341 89.7095 261.793 91.2549C267.244 92.8002 271.928 96.3144 274.936 101.116C277.945 105.918 279.063 111.666 278.075 117.246C277.087 122.825 274.062 127.839 269.588 131.316L269.581 131.318Z" fill="#FFB93E"/>
<path d="M273.66 103.579C272.089 100.721 269.859 98.2802 267.156 96.4578C264.452 94.6354 261.352 93.4844 258.115 93.1004C254.877 92.7164 251.594 93.1105 248.539 94.25C245.484 95.3895 242.745 97.2414 240.549 99.6521C238.354 102.063 236.765 104.962 235.915 108.11C235.066 111.258 234.979 114.563 235.663 117.751C236.347 120.939 237.782 123.918 239.848 126.44C241.915 128.962 244.553 130.955 247.545 132.253C248.209 132.306 248.881 132.364 249.563 132.429C245.228 131.022 241.507 128.171 239.019 124.353C236.531 120.534 235.426 115.978 235.89 111.444C236.353 106.911 238.356 102.672 241.565 99.4362C244.775 96.2 248.996 94.1614 253.526 93.6601C258.056 93.1587 262.621 94.2249 266.46 96.681C270.299 99.137 273.18 102.835 274.624 107.157C276.068 111.48 275.986 116.167 274.393 120.438C272.801 124.708 269.792 128.303 265.87 130.624C265.694 130.73 265.518 130.831 265.337 130.931C262.935 132.259 260.283 133.074 257.549 133.324C258.21 133.412 258.877 133.504 259.548 133.601C261.669 133.197 263.713 132.46 265.604 131.418C265.976 131.213 266.337 130.997 266.692 130.772C271.091 127.973 274.259 123.604 275.553 118.553C276.848 113.502 276.171 108.148 273.66 103.579Z" fill="#FFA412"/>
<path d="M265.791 115.461C265.487 114.618 264.994 113.856 264.351 113.233C263.707 112.61 262.93 112.142 262.078 111.864C261.181 111.567 260.248 111.392 259.304 111.344C258.284 111.281 257.174 111.266 255.972 111.3C255.337 111.325 254.701 111.313 254.068 111.263C253.61 111.23 253.16 111.131 252.73 110.969C252.389 110.84 252.083 110.632 251.836 110.363C251.593 110.087 251.401 109.77 251.267 109.427C251.122 109.076 251.035 108.704 251.009 108.325C250.985 107.973 251.041 107.621 251.172 107.294C251.314 106.949 251.532 106.64 251.809 106.39C252.151 106.084 252.546 105.843 252.975 105.681C253.368 105.501 253.795 105.409 254.227 105.414C254.659 105.418 255.085 105.517 255.474 105.705C256.245 106.081 256.875 106.868 257.365 108.065L262.023 106.177C261.663 105.252 261.147 104.396 260.496 103.647C259.925 102.984 259.226 102.444 258.442 102.056C257.657 101.669 256.803 101.443 255.93 101.392C254.983 101.335 254.032 101.432 253.116 101.681L251.794 98.4307L249.216 99.4774L250.516 102.682C249.647 103.121 248.849 103.69 248.149 104.367C247.533 104.967 247.027 105.671 246.657 106.448C246.312 107.184 246.126 107.984 246.108 108.797C246.121 110.611 246.85 112.347 248.136 113.627C248.766 114.201 249.509 114.636 250.317 114.905C251.215 115.198 252.148 115.367 253.092 115.408C254.205 115.464 255.321 115.464 256.435 115.408C257.039 115.364 257.646 115.364 258.251 115.408C258.703 115.444 259.148 115.544 259.573 115.705C259.927 115.843 260.246 116.059 260.505 116.338C260.773 116.644 260.985 116.994 261.133 117.373C261.277 117.723 261.352 118.097 261.353 118.475C261.352 118.839 261.266 119.198 261.102 119.524C260.922 119.882 260.67 120.199 260.364 120.456C259.989 120.767 259.567 121.015 259.112 121.19C258.673 121.367 258.213 121.487 257.744 121.545C257.279 121.603 256.808 121.555 256.364 121.406C255.886 121.238 255.454 120.959 255.106 120.591C254.66 120.114 254.313 119.553 254.088 118.94L249.427 120.831C249.831 121.899 250.456 122.87 251.261 123.68C251.945 124.352 252.769 124.866 253.674 125.185C254.555 125.488 255.486 125.622 256.417 125.58C257.374 125.541 258.323 125.385 259.242 125.115L260.445 128.079L263.008 127.039L261.825 124.07C262.697 123.628 263.502 123.066 264.218 122.4C264.848 121.816 265.364 121.122 265.741 120.35C266.092 119.62 266.284 118.823 266.303 118.012C266.313 117.135 266.139 116.266 265.791 115.461Z" fill="#FFA412"/>
<path opacity="0.5" d="M176.033 321.3C171.894 333.301 161.528 342.295 150.268 345.499V342.306C150.268 342.279 150.268 342.253 150.268 342.224C150.268 342.195 150.268 342.12 150.285 342.07C150.296 342.011 150.312 341.952 150.331 341.896C150.438 341.552 150.653 341.253 150.945 341.042C151.236 340.831 151.587 340.72 151.947 340.726H143.63C143.27 340.73 142.919 340.619 142.628 340.408C142.337 340.196 142.122 339.897 142.015 339.553C141.997 339.496 141.982 339.438 141.971 339.379C141.962 339.329 141.956 339.278 141.953 339.227C141.953 339.201 141.953 339.172 141.953 339.143V335.045C141.953 335.018 141.953 334.989 141.953 334.961C141.956 334.91 141.962 334.859 141.971 334.809C141.982 334.75 141.997 334.692 142.015 334.635C142.122 334.291 142.337 333.992 142.628 333.78C142.919 333.569 143.27 333.457 143.63 333.462H146.876C146.649 333.354 146.451 333.194 146.298 332.995C146.144 332.796 146.041 332.563 145.995 332.316C145.987 332.282 145.982 332.248 145.979 332.213C145.979 332.191 145.979 332.167 145.979 332.142C145.979 332.118 145.979 332.089 145.979 332.063V327.955C145.979 327.929 145.979 327.902 145.979 327.876C145.981 327.825 145.986 327.774 145.997 327.724C146.006 327.666 146.02 327.61 146.039 327.554C146.144 327.209 146.359 326.908 146.651 326.696C146.943 326.483 147.295 326.372 147.656 326.378H149.52C149.161 326.382 148.809 326.271 148.517 326.059C148.226 325.848 148.011 325.549 147.903 325.205C147.883 325.148 147.868 325.09 147.857 325.031C147.857 324.98 147.843 324.928 147.841 324.877V320.617C147.873 320.235 148.039 319.876 148.31 319.604C148.58 319.332 148.938 319.164 149.32 319.13H143.811C143.393 319.14 142.987 318.991 142.675 318.713C142.363 318.434 142.168 318.048 142.132 317.631C142.132 317.605 142.132 317.576 142.132 317.547V313.449C142.132 313.422 142.132 313.394 142.132 313.365C142.132 313.336 142.132 313.323 142.132 313.301C142.174 312.961 142.323 312.643 142.557 312.393C142.792 312.142 143.099 311.973 143.436 311.908C143.079 311.873 142.743 311.722 142.48 311.478C142.217 311.234 142.041 310.911 141.98 310.557C141.971 310.512 141.966 310.467 141.964 310.421C141.964 310.392 141.964 310.366 141.964 310.337V306.238C141.964 306.21 141.964 306.183 141.964 306.157C141.967 306.105 141.973 306.053 141.982 306.003C141.993 305.944 142.008 305.887 142.026 305.831C142.132 305.487 142.347 305.187 142.638 304.975C142.929 304.763 143.281 304.651 143.641 304.656H146.887C146.66 304.549 146.462 304.389 146.308 304.189C146.155 303.99 146.051 303.757 146.006 303.51C145.998 303.476 145.993 303.441 145.99 303.407C145.99 303.382 145.99 303.36 145.99 303.336C145.99 303.312 145.99 303.283 145.99 303.255V299.156C145.99 299.129 145.99 299.098 145.99 299.072C145.992 299.021 145.998 298.97 146.008 298.92C146.017 298.862 146.031 298.806 146.05 298.75C146.156 298.405 146.371 298.104 146.662 297.892C146.954 297.68 147.307 297.568 147.667 297.574H154.023C153.662 297.579 153.31 297.467 153.019 297.256C152.728 297.044 152.513 296.743 152.407 296.399C152.389 296.343 152.375 296.287 152.363 296.229C152.355 296.178 152.349 296.125 152.348 296.073C152.348 296.046 152.348 296.02 152.348 295.993V291.892C152.348 291.864 152.348 291.837 152.348 291.811C152.379 291.429 152.545 291.07 152.815 290.798C153.085 290.526 153.442 290.358 153.824 290.323H143.813C143.535 290.33 143.26 290.268 143.011 290.144C142.762 290.02 142.547 289.837 142.385 289.612V289.576L143.438 283.135V283.1L144.941 273.911C162.456 276.258 175.588 289.557 177.637 305.584C178.318 310.876 177.769 316.255 176.033 321.3Z" fill="#E2810E"/>
<path d="M158.095 335.173C173.037 320.231 173.037 296.005 158.095 281.062C143.153 266.12 118.926 266.12 103.984 281.062C89.0418 296.005 89.0418 320.231 103.984 335.173C118.926 350.115 143.153 350.115 158.095 335.173Z" fill="#E2810E"/>
<path d="M148.026 342.404C147.554 342.691 147.076 342.971 146.589 343.24C146.423 343.33 146.258 343.42 146.093 343.506C145.716 343.707 145.339 343.901 144.958 344.088C136.132 348.414 125.979 349.177 116.605 346.219C107.231 343.262 99.3544 336.81 94.6088 328.202C85.1596 311.064 90.239 289.834 105.742 278.688C106.992 277.788 108.295 276.964 109.644 276.222C110.136 275.951 110.632 275.691 111.127 275.446C111.623 275.202 112.097 274.977 112.586 274.759C116.229 273.137 120.104 272.096 124.07 271.674C132.716 270.754 141.417 272.805 148.742 277.491C156.066 282.177 161.576 289.217 164.365 297.452C167.154 305.688 167.056 314.627 164.086 322.799C161.116 330.971 155.451 337.888 148.026 342.411V342.404Z" fill="#FFB93E"/>
<path d="M128.384 344.425C120.774 344.434 113.377 341.911 107.359 337.254C101.34 332.597 97.0414 326.07 95.1397 318.701C93.2381 311.333 93.8414 303.541 96.8547 296.553C99.868 289.565 105.12 283.778 111.784 280.103C128.34 270.975 149.233 277.017 158.36 293.576C167.488 310.134 161.445 331.025 144.885 340.15C139.835 342.949 134.158 344.42 128.384 344.425ZM128.278 276.773C123.192 276.782 118.175 277.953 113.611 280.198C109.047 282.444 105.057 285.703 101.946 289.727C98.8351 293.751 96.6855 298.433 95.6616 303.415C94.6378 308.397 94.7668 313.547 96.0388 318.472C97.3109 323.396 99.6923 327.965 103.001 331.828C106.309 335.691 110.458 338.746 115.128 340.76C119.799 342.774 124.868 343.693 129.949 343.447C135.029 343.201 139.986 341.797 144.44 339.341C160.549 330.461 166.43 310.13 157.549 294.021C154.661 288.79 150.422 284.43 145.274 281.396C140.126 278.362 134.258 276.766 128.283 276.773H128.278Z" fill="#FFA412"/>
<path d="M145.196 313.457C145.121 313.268 145.042 313.085 144.958 312.906C144.417 311.658 143.627 310.534 142.637 309.601C141.58 308.641 140.336 307.909 138.984 307.452C137.484 306.949 135.923 306.653 134.343 306.571C132.636 306.465 130.777 306.441 128.768 306.5C127.706 306.542 126.644 306.52 125.585 306.434C124.819 306.38 124.064 306.216 123.344 305.945C122.773 305.728 122.261 305.381 121.848 304.931C121.443 304.467 121.122 303.936 120.898 303.362C120.653 302.777 120.504 302.157 120.458 301.524C120.418 300.935 120.512 300.343 120.731 299.794C120.97 299.218 121.334 298.702 121.797 298.283C122.369 297.77 123.031 297.367 123.75 297.095C125.241 296.49 126.637 296.503 127.937 297.135C129.237 297.766 130.29 299.084 131.097 301.088L138.893 297.924C138.289 296.378 137.426 294.948 136.341 293.693C135.385 292.584 134.216 291.68 132.903 291.032C131.59 290.385 130.161 290.008 128.699 289.924C127.115 289.824 125.526 289.986 123.994 290.405L121.791 284.968L117.476 286.72L119.653 292.082C118.196 292.815 116.859 293.766 115.687 294.9C114.654 295.903 113.809 297.081 113.19 298.38C112.613 299.612 112.3 300.952 112.273 302.313C112.257 303.751 112.537 305.176 113.095 306.5C113.761 308.137 114.617 309.433 115.665 310.39C116.718 311.348 117.96 312.076 119.312 312.525C120.814 313.017 122.377 313.302 123.957 313.369C125.819 313.464 127.684 313.464 129.545 313.369C130.558 313.301 131.575 313.308 132.586 313.389C133.349 313.446 134.099 313.613 134.814 313.885C135.408 314.114 135.942 314.476 136.375 314.942C136.825 315.453 137.181 316.041 137.426 316.677C137.67 317.262 137.797 317.889 137.798 318.523C137.797 319.135 137.655 319.739 137.382 320.286C137.076 320.878 136.655 321.402 136.143 321.829C135.516 322.349 134.809 322.765 134.05 323.058C133.317 323.356 132.547 323.555 131.762 323.651C130.986 323.753 130.196 323.678 129.453 323.431C128.653 323.15 127.931 322.683 127.346 322.069C126.601 321.269 126.022 320.329 125.643 319.303L117.848 322.468C118.659 324.472 119.681 326.061 120.914 327.234C122.061 328.358 123.439 329.217 124.953 329.753C126.427 330.262 127.984 330.486 129.541 330.414C131.142 330.35 132.729 330.088 134.266 329.634L136.28 334.595L140.568 332.854L138.543 327.869C140.002 327.131 141.35 326.19 142.547 325.075C143.528 324.169 144.348 323.102 144.971 321.921C145.019 321.831 145.064 321.738 145.108 321.646C145.695 320.424 146.016 319.09 146.049 317.734C146.066 316.265 145.776 314.808 145.196 313.457Z" fill="#FFA412"/>
<path d="M99.6883 175.021C99.8051 174.552 89.4964 179.68 88.9741 180.259C84.1393 185.623 85.5166 192.62 88.2843 192.688C90.0473 192.73 89.7145 195.681 89.7145 195.681L109.479 187.32C109.479 187.32 107.099 173.448 99.6883 175.021Z" fill="#2C3A64"/>
<path d="M91.7286 186.154C91.7286 186.154 96.6767 180.216 89.5943 175.336C89.5943 175.336 91.3409 177.395 91.6487 179.326C91.6487 179.326 88.9584 173.559 81.2325 174.246C73.5067 174.934 69.5181 187.262 66.6862 188.172C63.8544 189.082 57.7643 185.461 54.152 192.226C50.5396 198.991 62.8898 219.094 58.173 223.5C58.173 223.5 72.1888 218.061 70.4279 209.96C70.4279 209.96 71.2786 213.918 69.6536 216.804C69.6536 216.804 73.9671 211.954 71.7556 207.928C69.804 204.367 71.1306 197.183 72.0818 196.378C73.0331 195.572 91.7286 186.154 91.7286 186.154Z" fill="#2C3A64"/>
<path d="M94.3084 212.331C92.9862 205.941 84.7005 203.958 80.7802 209.178C80.0377 210.157 79.5678 211.315 79.4183 212.534C78.5236 219.786 90.1171 249.32 91.7786 251.993C94.7998 256.863 112.599 273.551 112.599 273.551L115.88 271.568C115.88 271.568 103.255 250.193 101.301 248.196C99.0397 245.878 96.8272 224.46 94.3084 212.331Z" fill="#ED985F"/>
<path d="M111.352 271.572C111.352 271.572 116.14 268.428 117.952 268.63C119.763 268.833 125.003 270.343 125.074 271.114C125.144 271.885 119.23 272.366 118.833 272.787C118.436 273.207 114.426 275.887 112.969 275.048C111.512 274.208 111.352 271.572 111.352 271.572Z" fill="#ED985F"/>
<path d="M77.9584 342.588L73.681 341.959C73.681 341.959 59.3 330.531 57.1536 309.207C56.9289 307.017 56.895 304.811 57.0522 302.615C57.0839 302.362 57.0312 302.106 56.9024 301.886C56.4418 301.181 55.2959 299.413 53.7468 296.899C52.2174 294.424 49.6017 289.742 46.7215 284.486C41.5363 275.023 35.5005 263.708 33.429 260.102C26.8313 248.615 30.0112 240.891 30.0112 240.891C30.0112 240.891 48.4183 239.071 53.4603 234.659L55.2783 237.46C55.2783 237.46 59.2647 255.113 59.0774 255.197C59.2743 255.796 59.4741 256.408 59.6768 257.03C62.8236 266.744 66.4442 278.884 68.4165 288.774C69.5183 294.336 70.1133 299.184 69.7982 302.488C69.6902 303.62 69.8225 305.352 70.1244 307.512C71.9049 320.176 77.9584 342.588 77.9584 342.588Z" fill="#2B478B"/>
<path d="M86.9289 348.008H69.0793C69.0793 348.008 68.6518 345.289 69.5839 343.226C70.4764 341.243 71.7479 341.183 69.7448 338.078C70.8797 339.246 74.5245 339.729 77.1028 339.383C77.4201 339.894 79.1412 343.332 80.1879 344.092C81.3691 344.923 86.5697 344.621 86.9289 348.008Z" fill="#233862"/>
<path d="M59.6768 257.024C58.1166 265.618 54.4365 279.926 46.7215 284.479C41.5363 275.017 35.5005 263.701 33.429 260.096C26.8313 248.608 30.0112 240.884 30.0112 240.884C30.0112 240.884 48.4183 239.064 53.4603 234.652L55.2783 237.453C55.2783 237.453 59.2647 255.106 59.0774 255.19C59.2743 255.79 59.4741 256.401 59.6768 257.024Z" fill="#233862"/>
<path d="M92.4004 208.367C92.4004 208.367 94.9236 210.992 96.0761 214.134C96.0761 214.134 92.05 225.692 82.6338 227.136C82.6448 227.14 90.0866 208.363 92.4004 208.367Z" fill="#ED7D2B"/>
<path d="M47.1623 242.21L47.2218 238.874C40.5733 239.712 24.3037 230.928 24.3037 230.928C24.3037 230.928 17.3468 235.555 16.3948 248.777C15.9298 255.225 12.9901 282.493 12.664 290.647C12.5472 293.598 12.5075 295.704 12.4943 296.546C12.4775 296.8 12.3785 297.041 12.2122 297.234C10.8531 298.966 9.64755 300.814 8.60925 302.756C-1.53859 321.633 3.76121 347.285 3.76121 347.285L6.11692 346.686C6.11692 346.686 14.698 320.094 20.3041 308.591C21.2561 306.641 22.1199 305.125 22.8427 304.246C24.9516 301.685 27.1751 297.337 29.3655 292.104C33.5084 282.209 37.519 269.152 40.397 259.049C40.5976 259.077 47.1623 242.21 47.1623 242.21Z" fill="#2B478B"/>
<path d="M86.0706 219.938C75.1999 217.444 82.1459 202.168 82.7651 202.437C84.2702 202.131 87.5779 199.486 90.5374 194.321L90.9363 194.669L97.6134 200.522C97.6134 200.522 96.0708 202.798 94.7706 205.028C93.757 206.774 92.8953 208.493 93.0319 209.083C93.5807 209.506 88.9706 220.604 86.0706 219.938Z" fill="#FFB27D"/>
<path d="M97.6255 200.522C97.6255 200.522 96.0829 202.796 94.7828 205.028C90.6333 202.47 90.6289 197.331 90.9484 194.671L97.6255 200.522Z" fill="#ED985F"/>
<path d="M97.8095 203.449C97.8095 203.449 87.73 197.84 91.3198 191.617C94.9095 185.394 96.0246 180.48 102.611 183.799C109.198 187.117 109.068 190.205 108.376 192.573C107.684 194.942 100.516 204.753 97.8095 203.449Z" fill="#FFB27D"/>
<path d="M110.078 188.951C109.617 186.187 108.214 185.923 107.235 186.108C103.513 179.953 97.4312 182.362 97.4312 182.362C94.183 186.436 89.498 187.133 89.498 187.133C89.498 187.133 90.6682 189.308 95.4876 190.659C96.9596 191.068 98.63 190.819 100.241 190.277C98.0916 191.443 95.7933 192.311 93.4095 192.856C99.7605 193.437 105.803 187.631 106.429 187.011C106.722 187.911 107.235 189.795 106.929 191.172C106.51 193.043 104.849 196.432 105.865 196.871C105.845 196.862 110.77 193.091 110.078 188.951Z" fill="#2C3A64"/>
<path d="M17.9475 348.008H0.0978507C0.0978507 348.008 -0.329657 345.289 0.60249 343.226C1.49497 341.243 2.8943 340.346 2.55934 337.951C3.69202 339.119 5.54088 340.425 8.12137 340.077C8.43649 340.591 10.162 343.332 11.2065 344.092C12.3899 344.923 17.5883 344.621 17.9475 348.008Z" fill="#233862"/>
<path d="M87.3497 232.047C85.0557 232.847 81.8405 233.286 78.5351 233.645C73.8435 234.156 68.9998 234.507 66.4612 235.52C65.5357 235.888 64.9187 236.344 64.7247 236.926C63.6229 240.232 58.7748 245.338 58.7748 245.338C27.7033 243.925 24.292 230.928 24.292 230.928C45.1959 206.619 80.5911 199.583 80.5911 199.583C80.5911 199.583 83.1209 198.512 89.4872 203.572C93.7359 206.95 93.1762 208.246 93.1762 208.246C93.1762 208.246 94.1061 229.689 87.3497 232.047Z" fill="#6A9BD6"/>
<path d="M78.5357 233.639C73.8441 234.15 69.0004 234.5 66.4618 235.514C65.4261 220.018 72.7378 208.36 72.7378 208.36C72.7378 208.36 77.5088 227.781 78.5357 233.639Z" fill="#ED7D2B"/>
<path d="M83.3653 205.37C83.3653 205.37 71.6044 206.531 70.6612 214.171C69.718 221.811 81.9373 252.936 83.687 255.752C86.8713 260.882 105.627 278.47 105.627 278.47L109.084 276.374C109.084 276.374 95.7807 253.853 93.7203 251.744C90.4875 248.436 87.3451 208.016 83.3653 205.37Z" fill="#FFB27D"/>
<path d="M71.0035 218.768C71.0321 218.942 81.8543 222.294 88.8201 218.768C88.8201 218.768 90.3097 202.701 81.9887 203.563C73.6677 204.425 68.7514 207.054 68.5464 211.036C68.3415 215.018 71.0035 218.768 71.0035 218.768Z" fill="#F99746"/>
<path d="M104.559 276.235C104.559 276.235 108.776 272.361 110.599 272.269C112.421 272.176 117.84 272.822 118.027 273.573C118.215 274.325 112.461 275.75 112.137 276.231C111.813 276.711 108.285 279.999 106.716 279.406C105.147 278.813 104.559 276.235 104.559 276.235Z" fill="#FFB27D"/>
<path d="M348.936 348.996C347.869 348.996 346.752 348.224 346.437 347.259L282.207 149.926C281.892 148.961 282.502 148.163 283.567 148.163C284.633 148.163 285.753 148.937 286.068 149.902L350.298 347.235C350.613 348.202 350.003 348.991 348.936 348.996Z" fill="#233862"/>
<path d="M400.701 348.694C399.634 348.694 398.517 347.922 398.202 346.957L333.972 149.624C333.657 148.659 334.267 147.861 335.331 147.861C336.398 147.861 337.517 148.632 337.832 149.6L402.062 346.933C402.378 347.9 401.767 348.687 400.701 348.694Z" fill="#233862"/>
<path d="M344.964 177.119L292.982 177.423C291.98 177.423 290.917 176.692 290.622 175.784C290.327 174.876 290.904 174.129 291.907 174.122L343.889 173.82C344.892 173.82 345.954 174.552 346.249 175.46C346.544 176.368 345.967 177.115 344.964 177.119Z" fill="#233862"/>
<path d="M356.179 211.573L304.197 211.877C303.194 211.877 302.132 211.146 301.837 210.238C301.542 209.33 302.119 208.583 303.122 208.576L355.104 208.272C356.107 208.272 357.169 209.006 357.464 209.914C357.759 210.82 357.182 211.569 356.179 211.573Z" fill="#233862"/>
<path d="M366.979 244.756L314.997 245.06C313.994 245.06 312.932 244.329 312.637 243.421C312.341 242.513 312.921 241.766 313.921 241.759L365.906 241.455C366.908 241.455 367.968 242.189 368.264 243.097C368.561 243.996 367.982 244.752 366.979 244.756Z" fill="#233862"/>
<path d="M379.138 282.119L327.156 282.421C326.153 282.421 325.091 281.689 324.796 280.781C324.501 279.873 325.08 279.126 326.081 279.122L378.065 278.818C379.065 278.818 380.127 279.549 380.423 280.457C380.718 281.361 380.141 282.119 379.138 282.119Z" fill="#233862"/>
<path d="M391.864 321.214L339.882 321.518C338.88 321.518 337.82 320.786 337.524 319.878C337.227 318.971 337.806 318.224 338.809 318.217L390.791 317.913C391.794 317.913 392.856 318.644 393.151 319.552C393.447 320.462 392.867 321.207 391.864 321.214Z" fill="#233862"/>
<path d="M282.911 113.539C281.954 112.863 279.786 111.377 279.671 111.708C279.59 111.946 279.707 112.351 279.967 112.772C278.655 112.283 277.322 111.961 274.171 112.565C273.859 112.623 273.561 112.743 273.296 112.919C273.031 113.094 272.804 113.321 272.628 113.586C272.309 114.086 272.188 114.712 272.992 115.212C274.601 116.212 274.134 115.613 276.368 117.069C278.603 118.526 281.34 118.896 282.979 117.874L285.183 117.508L285.454 113.901C285.454 113.901 284.182 113.76 282.911 113.539Z" fill="#FFB27D"/>
<path d="M340.401 83.2806C340.401 83.2806 335.229 89.4178 328.642 86.8505C328.642 86.8505 327.225 83.4238 327.205 80.9006C327.205 80.5899 327.205 80.2902 327.205 80.0037C327.17 77.1588 327.073 75.5612 327.073 75.5612C327.373 75.4356 337.142 71.4249 337.135 71.7576C336.968 79.4462 340.401 83.2806 340.401 83.2806Z" fill="#FFB27D"/>
<path d="M336.149 73.5889C335.208 75.3342 331.975 78.7498 327.196 79.9993C327.16 77.1544 327.063 75.5567 327.063 75.5567C327.341 75.484 336.431 73.0732 336.149 73.5889Z" fill="#ED975D"/>
<path d="M325.019 75.2616C325.019 75.2616 336.004 77.8443 337.507 70.9777C339.01 64.1111 341.441 59.8206 334.491 57.8814C327.54 55.9422 325.599 58.2626 324.539 60.4332C323.479 62.6038 322.205 74.4132 325.019 75.2616Z" fill="#FFB27D"/>
<path d="M337.132 72.8485C337.282 72.9455 339.646 73.6705 344.122 64.7523C344.825 63.3529 345.303 60.3251 343.666 57.6477C342.029 54.9702 336.22 52.8679 331.394 51.9534C326.568 51.0389 325.409 53.7516 324.272 56.4819C323.079 59.3467 319.633 61.7046 319.633 61.7046C323.796 64.0295 328.807 60.7041 330.543 61.2639C332.28 61.8236 332.894 64.5473 333.024 65.4244C333.154 66.3014 333.355 67.0308 335.539 66.2463C337.723 65.4618 336.526 69.3315 336.176 70.0829C336.176 70.0719 335.878 72.0464 337.132 72.8485Z" fill="#233862"/>
<path d="M348.983 243.518H355.634C357.029 243.518 358.58 242.121 358.966 239.564C359.351 237.008 362.221 235.611 362.842 233.52C363.463 231.428 360.284 228.48 360.284 228.48L359.752 227.797L359.199 227.085L353.93 228.326C353.93 228.326 353.8 229.579 353.71 231.177C353.641 232.395 353.634 233.616 353.688 234.835C353.844 237.627 352.908 240.631 350.429 241.173C347.95 241.715 348.983 243.518 348.983 243.518Z" fill="#2C3A64"/>
<path d="M319.119 244.084H336.748C336.877 244.063 337.003 244.027 337.123 243.976C338.3 243.385 337.932 238.879 337.784 237.486C337.755 237.228 337.738 237.076 337.738 237.076C337.738 237.076 331.537 232.118 330.686 235.915C330.657 236.034 330.627 236.149 330.594 236.263C329.518 239.818 324.705 241.431 321.927 241.88C319.813 242.233 319.262 243.465 319.119 244.084Z" fill="#2C3A64"/>
<path d="M322.676 142.407C322.676 142.407 323.617 154.157 324.725 168.278C326.228 187.463 328.031 211.029 328.216 215.493C328.526 223.246 329.758 235.646 329.758 235.646C329.758 235.646 332.702 238.592 338.595 237.349C338.595 237.349 343.844 219.647 345.345 200.918C345.367 200.612 345.391 200.304 345.413 199.993C346.808 180.927 348.979 140.778 348.979 140.778L322.676 142.407Z" fill="#2B478B"/>
<path d="M322.676 142.407C322.676 142.407 323.617 154.157 324.725 168.278L345.354 200.918C345.376 200.612 345.4 200.304 345.422 199.993C346.817 180.927 348.987 140.778 348.987 140.778L322.676 142.407Z" fill="#233862"/>
<path d="M328.541 139.89C328.541 139.89 338.074 179.195 345.353 200.907C352.631 222.62 352.936 233.134 352.936 233.134C352.936 233.134 361.184 231.521 362.078 229.914C362.078 229.914 364.904 192.727 359.295 182.095C356.126 176.09 356.651 162.174 356.651 155.834C356.651 144.088 352.984 132.424 352.984 132.424L328.541 139.89Z" fill="#2B478B"/>
<path d="M365.684 136.06L365.865 138.797C365.865 138.797 364.06 143.658 369.115 146.151C369.115 146.151 371.282 147.032 371.368 145.34C371.453 143.647 371.18 144.289 371.354 141.915C371.528 139.542 370.598 137.301 369.029 136.545L367.74 135.06L365.684 136.06Z" fill="#FFB27D"/>
<path d="M367.659 138.053C365.781 138.656 365.479 138.52 365.479 138.52C365.479 138.52 356.336 121.871 355.408 120.348C354.481 118.826 335.994 101.679 335.994 101.679L340.745 83.9617C340.745 83.9617 361.775 111.192 364.045 115.099C367.791 121.556 369.994 136.552 369.994 136.552C369.357 137.243 368.552 137.76 367.659 138.053Z" fill="#1E3D70"/>
<path d="M319.093 108.634C319.159 112.274 319.371 116.364 319.655 120.518L319.708 121.256C319.891 123.83 320.087 126.411 320.314 128.925C320.407 129.934 320.504 130.93 320.605 131.911L320.621 132.041C320.621 132.409 320.671 132.806 320.713 133.169C321.639 142.59 322.61 150.034 322.791 150.138C323.002 150.285 323.26 150.351 323.516 150.323C325.986 150.012 333.358 150.572 339.382 149.261C344.475 148.185 348.858 146.149 353.508 143.403C354.125 143.037 355.531 142.081 355.416 141.349C355.304 140.556 355.097 139.41 354.832 137.969C353.918 132.958 352.336 124.337 351.798 114.249C351.692 112.37 351.54 110.516 351.342 108.687C350.877 104.202 350.054 99.7611 348.88 95.4075C346.811 87.957 343.77 82.2517 339.955 80.0194C339.455 79.7395 336.773 81.4451 334.312 83.0274C332.233 84.3574 329.765 84.9417 327.311 84.6845L325.261 86.9521C322.778 89.8389 320.136 93.6799 319.413 99.1405C319.36 99.546 319.314 99.9735 319.274 100.43C319.073 103.159 319.012 105.898 319.093 108.634Z" fill="#7B84D6"/>
<path d="M319.093 108.634C319.159 112.274 319.371 116.364 319.655 120.518L319.708 121.256C333.811 112.422 335.995 96.2556 335.995 96.2556C329.051 96.5619 323.536 98.1574 319.285 100.443C319.08 103.168 319.016 105.902 319.093 108.634Z" fill="#4F7CC7"/>
<path d="M283.433 115.593C283.288 113.499 284.37 113.151 284.37 113.151C284.37 113.151 305.651 109.295 307.46 108.726C309.269 108.158 324.737 92.0667 324.737 92.0667C324.737 92.0667 330.667 85.3786 335.521 86.8573C339.739 88.1398 341.39 91.4298 341.949 94.5701C342.27 96.3975 342.032 98.2791 341.267 99.9694C340.502 101.66 339.245 103.08 337.661 104.046C330.389 108.502 315.862 117.268 312.438 118.281C304.818 120.514 284.341 118.46 284.341 118.46C283.822 117.587 283.511 116.606 283.433 115.593Z" fill="#7B84D6"/>
<path d="M294.68 139.101C294.603 139.348 294.479 139.577 294.313 139.776C294.148 139.975 293.945 140.139 293.716 140.259C293.487 140.379 293.237 140.452 292.979 140.475C292.722 140.498 292.463 140.47 292.216 140.393C282.286 137.297 271.768 135.247 261.391 134.053C250.005 132.744 238.379 132.49 232.907 132.872C232.394 132.891 231.893 132.709 231.513 132.364C231.132 132.02 230.901 131.54 230.869 131.028C230.837 130.515 231.007 130.01 231.342 129.621C231.677 129.232 232.151 128.989 232.662 128.945C241.173 128.438 253.139 129.108 262.174 130.172C272.531 131.391 283.254 133.478 293.388 136.636C293.886 136.792 294.302 137.139 294.544 137.601C294.786 138.064 294.835 138.603 294.68 139.101Z" fill="#2B478B"/>
<path d="M490.061 316.276C489.89 315.912 489.675 315.57 489.42 315.258C489.231 315.029 489.023 314.817 488.796 314.625L487.853 313.671L487.606 313.854C482.789 311.494 472.842 313.995 462.773 320.566C450.607 328.499 442.799 339.445 445.052 345.247L444.708 345.501L446.061 346.849C446.125 346.918 446.191 346.984 446.261 347.048L446.299 347.087H446.31C446.663 347.409 447.056 347.683 447.48 347.903C452.236 350.395 462.293 347.914 472.467 341.27C484.867 333.193 492.741 322.005 490.061 316.276Z" fill="#FFA412"/>
<path d="M461.324 319.112C473.717 311.022 485.934 309.103 488.614 314.826C491.293 320.549 483.42 331.745 471.028 339.835C458.637 347.925 446.418 349.846 443.738 344.123C441.059 338.4 448.93 327.204 461.324 319.112Z" fill="#FFB93E"/>
<path d="M452.425 344.981C451.505 344.992 450.587 344.876 449.699 344.635C448.157 344.194 447.081 343.335 446.511 342.092C445.393 339.657 446.429 336.038 449.426 331.906C452.355 327.869 456.824 323.775 462.011 320.377C469.977 315.161 478.08 312.642 482.653 313.958C484.195 314.398 485.271 315.26 485.839 316.501C486.959 318.938 485.923 322.554 482.926 326.688C479.997 330.725 475.528 334.82 470.341 338.215C463.778 342.513 457.123 344.981 452.425 344.981ZM479.955 314.526C475.46 314.526 468.86 316.979 462.509 321.137C457.412 324.476 453.033 328.488 450.169 332.44C447.412 336.239 446.383 339.619 447.344 341.713C447.797 342.704 448.666 343.392 449.957 343.762C450.754 343.977 451.578 344.08 452.403 344.068C456.896 344.068 463.496 341.616 469.849 337.457C474.947 334.119 479.325 330.106 482.19 326.155C484.944 322.356 485.974 318.975 485.015 316.882C484.559 315.892 483.68 315.203 482.401 314.835C481.604 314.618 480.781 314.514 479.955 314.526Z" fill="#FFA412"/>
<path d="M461.182 332.424C461.538 332.269 461.881 332.084 462.205 331.871C462.506 331.668 462.783 331.432 463.031 331.168C463.297 330.883 463.537 330.575 463.747 330.247C463.997 329.857 464.224 329.454 464.428 329.039C464.826 328.247 465.236 327.508 465.656 326.822C466.069 326.146 466.54 325.508 467.064 324.914C467.598 324.314 468.194 323.772 468.842 323.299C469.571 322.773 470.355 322.33 471.18 321.976C471.847 321.668 472.549 321.446 473.272 321.315C473.799 321.214 474.343 321.233 474.863 321.37C475.279 321.486 475.643 321.738 475.898 322.087C476.165 322.487 476.309 322.956 476.31 323.437L479.235 322.153L479.08 323.728L476.117 325.029C475.938 325.676 475.662 326.293 475.299 326.858C474.894 327.494 474.416 328.081 473.873 328.605C473.264 329.194 472.6 329.723 471.89 330.185C471.098 330.702 470.265 331.152 469.398 331.529L469.673 328.687C470.592 328.316 471.439 327.787 472.174 327.122C472.747 326.56 473.056 326.005 473.113 325.46C473.153 325.227 473.113 324.987 473.001 324.78C472.95 324.701 472.883 324.633 472.805 324.581C472.727 324.528 472.639 324.492 472.547 324.475C472.305 324.432 472.057 324.442 471.819 324.504C471.498 324.578 471.185 324.683 470.885 324.819C470.563 324.959 470.254 325.126 469.962 325.319C469.673 325.509 469.407 325.731 469.168 325.981C468.903 326.268 468.663 326.579 468.452 326.908C468.221 327.265 467.978 327.686 467.721 328.178C467.303 328.969 466.883 329.708 466.46 330.392C466.042 331.068 465.566 331.708 465.039 332.303C464.502 332.903 463.904 333.445 463.254 333.92C462.529 334.444 461.75 334.887 460.929 335.242C460.249 335.553 459.532 335.775 458.796 335.904C458.272 336.001 457.734 335.978 457.22 335.837C456.81 335.716 456.455 335.453 456.22 335.095C455.968 334.682 455.833 334.209 455.83 333.726L453.11 334.921L453.262 333.356L455.966 332.168C456.119 331.538 456.35 330.929 456.652 330.355C457.012 329.677 457.456 329.048 457.974 328.482C458.586 327.81 459.269 327.207 460.012 326.683C460.904 326.055 461.859 325.521 462.862 325.092L462.577 327.955C462.004 328.195 461.456 328.49 460.94 328.836C460.543 329.107 460.179 329.424 459.856 329.78C459.603 330.057 459.395 330.372 459.241 330.714C459.12 330.988 459.041 331.278 459.007 331.576C458.969 331.825 459.003 332.08 459.106 332.309C459.151 332.397 459.214 332.475 459.289 332.538C459.365 332.602 459.453 332.649 459.547 332.677C459.779 332.745 460.023 332.755 460.259 332.706C460.577 332.649 460.887 332.554 461.182 332.424Z" fill="#FFA412"/>
<path d="M246.304 32.6012C246.412 32.3702 246.549 32.1534 246.71 31.9555C246.829 31.81 246.962 31.6758 247.106 31.5544L247.703 30.9484L247.86 31.0652C250.916 29.5689 257.232 31.1556 263.618 35.3249C271.331 40.3647 276.292 47.304 274.857 50.9907L275.077 51.1516L274.218 52.0066C274.178 52.0507 274.134 52.0925 274.092 52.1344L274.068 52.1586C273.845 52.3635 273.595 52.5377 273.325 52.6765C270.306 54.2565 263.927 52.6765 257.459 48.4675C249.599 43.3374 244.603 36.2328 246.304 32.6012Z" fill="#FFA412"/>
<path d="M264.539 34.4035C256.674 29.2712 248.922 28.0525 247.221 31.6842C245.519 35.3158 250.526 42.4204 258.38 47.5505C266.234 52.6806 273.997 53.9037 275.696 50.272C277.395 46.6404 272.402 39.538 264.539 34.4035Z" fill="#FFB93E"/>
<path d="M258.816 46.5257C255.523 44.3705 252.687 41.7724 250.83 39.2095C248.928 36.5872 248.271 34.2932 248.981 32.7462C249.342 31.9595 250.023 31.424 251.004 31.1331C253.906 30.2979 259.047 31.8956 264.102 35.2055C267.394 37.3629 270.228 39.9588 272.086 42.5216C273.988 45.144 274.647 47.4402 273.937 48.985C273.576 49.7739 272.895 50.3072 271.914 50.5981C271.351 50.7518 270.768 50.826 270.184 50.8184C267.203 50.8184 262.981 49.2516 258.816 46.5257ZM251.162 31.6885C250.351 31.922 249.794 32.3496 249.505 32.9864C248.895 34.3086 249.549 36.4616 251.297 38.8724C253.115 41.3779 255.898 43.9254 259.131 46.0431C263.163 48.6875 267.35 50.23 270.202 50.23C270.723 50.2362 271.242 50.171 271.745 50.0361C272.555 49.8025 273.113 49.364 273.402 48.736C274.01 47.4138 273.358 45.263 271.61 42.8522C269.792 40.3444 267.009 37.7992 263.774 35.6793C259.743 33.0349 255.556 31.4923 252.705 31.4923C252.184 31.4856 251.665 31.5517 251.162 31.6885Z" fill="#FFA412"/>
<path d="M265.213 43.0352C265.359 43.0648 265.51 43.0595 265.654 43.0198C265.773 42.9804 265.872 42.8957 265.93 42.784C265.995 42.6385 266.018 42.4769 265.993 42.319C265.972 42.1303 265.921 41.946 265.844 41.7725C265.746 41.5557 265.616 41.3556 265.456 41.1797C265.25 40.9544 265.019 40.7539 264.766 40.5826C264.439 40.3596 264.092 40.1692 263.728 40.014L263.552 38.2114C264.189 38.4835 264.795 38.8218 265.361 39.2207C265.832 39.5538 266.265 39.9365 266.655 40.3622C266.981 40.7212 267.261 41.1203 267.488 41.55C267.68 41.9143 267.828 42.3005 267.928 42.7003L269.645 43.4539L269.742 44.4478L268.016 43.6897C268.017 43.998 267.933 44.3005 267.774 44.5646C267.624 44.7912 267.4 44.958 267.139 45.0361C266.813 45.1245 266.471 45.1388 266.139 45.078C265.672 44.996 265.218 44.8531 264.788 44.6527C264.266 44.43 263.771 44.1499 263.312 43.8175C262.9 43.5149 262.52 43.1708 262.179 42.7906C261.844 42.4137 261.542 42.0081 261.278 41.5786C261.009 41.1379 260.742 40.6751 260.478 40.1727C260.315 39.862 260.16 39.5931 260.013 39.3661C259.879 39.1564 259.726 38.9595 259.557 38.7778C259.407 38.6175 259.239 38.4748 259.056 38.3525C258.87 38.2293 258.673 38.1231 258.468 38.0351C258.278 37.9487 258.08 37.8815 257.877 37.8346C257.726 37.7954 257.568 37.7894 257.415 37.817C257.356 37.827 257.3 37.8492 257.25 37.8823C257.2 37.9153 257.158 37.9583 257.126 38.0087C257.053 38.1433 257.028 38.2988 257.055 38.4494C257.123 38.8605 257.334 39.2345 257.65 39.505C258.117 39.9262 258.654 40.2619 259.237 40.4966L259.413 42.3014C258.862 42.0632 258.333 41.7779 257.831 41.4486C257.382 41.1551 256.962 40.8193 256.577 40.4459C256.234 40.1151 255.93 39.7453 255.672 39.3441C255.442 38.9847 255.268 38.5934 255.154 38.1828L253.272 37.3564L253.175 36.3581L255.03 37.1735C255.031 36.8681 255.122 36.5698 255.293 36.3163C255.456 36.0946 255.688 35.934 255.954 35.8601C256.283 35.7743 256.628 35.763 256.963 35.8271C257.42 35.9074 257.864 36.0467 258.285 36.2413C258.809 36.4662 259.307 36.7478 259.77 37.0809C260.18 37.3834 260.558 37.7268 260.899 38.1056C261.227 38.4833 261.522 38.8889 261.78 39.3177C262.047 39.7584 262.307 40.227 262.56 40.7236C262.689 40.987 262.833 41.243 262.99 41.4905C263.124 41.6993 263.277 41.8955 263.446 42.0766C263.604 42.2423 263.78 42.39 263.971 42.5174C264.175 42.6535 264.392 42.7708 264.618 42.8677C264.809 42.9487 265.009 43.005 265.213 43.0352Z" fill="#FFA412"/>
</svg>
