<svg width="119" height="109" viewBox="0 0 119 109" fill="none" xmlns="http://www.w3.org/2000/svg">
<g opacity="0.2" clip-path="url(#clip0_160_319)">
<path d="M46.8936 98.8878C46.2826 98.3748 16.5921 84.2189 16.5921 84.2189L7.70123 55.5784L38.6774 70.4255L46.8936 98.8878Z" fill="#C18FE6"/>
<path d="M46.8557 98.3141C47.5064 97.9163 94.6788 12.2055 94.0333 12.5996C93.3878 12.9936 38.0029 70.2473 38.0029 70.2473L46.8557 98.3141Z" fill="#B473CD"/>
<path d="M46.8557 98.3141C47.5064 97.9163 94.6788 12.2055 94.0333 12.5996C93.3878 12.9936 38.0029 70.2473 38.0029 70.2473L46.8557 98.3141Z" fill="url(#paint0_linear_160_319)"/>
<path d="M7.70633 55.5747L38.0027 70.2473L94.028 12.6033L7.70633 55.5747Z" fill="#E5CEF8"/>
<path opacity="0.57" d="M7.70633 55.5747L38.0027 70.2473L94.028 12.6033L7.70633 55.5747Z" fill="url(#paint1_linear_160_319)"/>
</g>
<defs>
<linearGradient id="paint0_linear_160_319" x1="82.8412" y1="58.434" x2="43.2425" y2="48.756" gradientUnits="userSpaceOnUse">
<stop stop-color="#CE6ACA" stop-opacity="0"/>
<stop offset="1" stop-color="#7A40FF"/>
</linearGradient>
<linearGradient id="paint1_linear_160_319" x1="5.40412" y1="81.6491" x2="69.073" y2="14.9717" gradientUnits="userSpaceOnUse">
<stop stop-color="#7A40FF" stop-opacity="0"/>
<stop offset="0.02" stop-color="#9161FF" stop-opacity="0.16"/>
<stop offset="0.05" stop-color="#AB86FF" stop-opacity="0.33"/>
<stop offset="0.08" stop-color="#C1A7FF" stop-opacity="0.48"/>
<stop offset="0.11" stop-color="#D4C2FF" stop-opacity="0.61"/>
<stop offset="0.15" stop-color="#E4D8FF" stop-opacity="0.72"/>
<stop offset="0.19" stop-color="#F0EAFF" stop-opacity="0.8"/>
<stop offset="0.23" stop-color="#F9F6FF" stop-opacity="0.86"/>
<stop offset="0.28" stop-color="#FDFDFF" stop-opacity="0.89"/>
<stop offset="0.36" stop-color="white" stop-opacity="0.9"/>
<stop offset="0.82" stop-color="#7A40FF" stop-opacity="0"/>
</linearGradient>
<clipPath id="clip0_160_319">
<rect width="58.0442" height="104.669" fill="white" transform="translate(84.9707) rotate(54.2732)"/>
</clipPath>
</defs>
</svg>
